<svg id="Слой_1" data-name="Слой 1" xmlns="http://www.w3.org/2000/svg" width="69" height="61" viewBox="0 0 69 61"><defs><style>.cls-1{fill:#472c62;}</style></defs><title>map-icon2</title><path class="cls-1" d="M509.08,3230h-2.44a1.06,1.06,0,0,0,0,2.12h2.44a2.51,2.51,0,0,1,0,5h-7a4,4,0,0,0-4,4.05v1.94a1.06,1.06,0,1,0,2.11,0v-1.94a1.92,1.92,0,0,1,1.91-1.93h7A4.63,4.63,0,0,0,509.08,3230Z" transform="translate(-444.67 -3206)"/><path class="cls-1" d="M503.92,3232.75H498.4a2.67,2.67,0,0,1,0-5.35h2a1.06,1.06,0,0,0,0-2.12h-2a4.8,4.8,0,0,0,0,9.6h5.51A1.06,1.06,0,0,0,503.92,3232.75Z" transform="translate(-444.67 -3206)"/><path class="cls-1" d="M505.11,3246.09H503a1.06,1.06,0,0,0,0,2.12h1.09V3258a3.5,3.5,0,0,1-3.45,3.54h-5.1a3.46,3.46,0,0,1-3.26-2.38h3.1a1.17,1.17,0,0,0,0-2.35h-3.3v-1.41h3.3a1.17,1.17,0,0,0,0-2.35h-3.3v-1.41h3.3a1.17,1.17,0,0,0,0-2.35h-3.3v-1.05h6a1.06,1.06,0,0,0,0-2.12h-7a1.06,1.06,0,0,0-1.06,1.06V3258a5.7,5.7,0,0,0,2,4.31v1.66a3,3,0,0,0,3,3.06h6.27a3,3,0,0,0,3-3.06v-1.66a5.7,5.7,0,0,0,2-4.31v-10.82A1.06,1.06,0,0,0,505.11,3246.09Zm-3,17.85h0a0.92,0.92,0,0,1-.9.94h-6.27a0.92,0.92,0,0,1-.9-0.94v-0.52a5.45,5.45,0,0,0,1.49.21h5.1a5.45,5.45,0,0,0,1.49-.21v0.52h0Z" transform="translate(-444.67 -3206)"/><path class="cls-1" d="M492.39,3233.41a2.63,2.63,0,0,0-2-1h-2.76a2.64,2.64,0,0,0-2,.91,12.33,12.33,0,0,1-3,2.54v-3.35a1.06,1.06,0,1,0-2.11,0v1.13a3.38,3.38,0,0,0-.8-0.23,12.55,12.55,0,0,0-9.77-8.87,2.72,2.72,0,0,0-2.52-3.69h-7.49a2.72,2.72,0,0,0-2.52,3.69,12.55,12.55,0,0,0-9.76,8.87,3.36,3.36,0,0,0-.8.23v-8.33a16.83,16.83,0,1,1,33.66,0v2.24a1.06,1.06,0,1,0,2.11,0v-2.24a18.95,18.95,0,1,0-37.88,0v25a14.56,14.56,0,0,0,4.52,10.57h-1.25a2.66,2.66,0,0,0-2.65,2.67v0.8a2.66,2.66,0,0,0,2.65,2.67h31.81a2.66,2.66,0,0,0,2.65-2.67v-0.8a2.66,2.66,0,0,0-2.65-2.67H478a14.56,14.56,0,0,0,4.52-10.57V3247a14.58,14.58,0,0,0,10.4-11.36A2.68,2.68,0,0,0,492.39,3233.41ZM459.87,3223h7.49a0.6,0.6,0,0,1,0,1.2h-7.49A0.6,0.6,0,0,1,459.87,3223Zm-0.39,3.51h8.26a10.34,10.34,0,0,1,9.66,6.89H449.82A10.33,10.33,0,0,1,459.48,3226.51ZM479.75,3263a0.54,0.54,0,0,1,.53.54v0.8a0.54,0.54,0,0,1-.53.54H447.94a0.54,0.54,0,0,1-.53-0.54v-0.8a0.54,0.54,0,0,1,.53-0.54h31.81Zm0.54-10.8H458.58a1.06,1.06,0,0,0,0,2.12h21.2a12.34,12.34,0,0,1-5.2,6.55H452.65a12.34,12.34,0,0,1-5.2-6.55h5.77a1.06,1.06,0,0,0,0-2.12h-6.28a12.63,12.63,0,0,1-.14-1.9v-3.21H450a1.17,1.17,0,0,0,0-2.35H446.8v-3.14h8.66a1.17,1.17,0,0,0,0-2.35H446.8v-2.35a1.35,1.35,0,0,1,1.33-1.37h31a1.35,1.35,0,0,1,1.33,1.37v13.4h0A12.66,12.66,0,0,1,480.29,3252.19Zm10.58-17a12.47,12.47,0,0,1-8.32,9.54v-6.46a14.34,14.34,0,0,0,4.63-3.54,0.53,0.53,0,0,1,.4-0.18h2.76a0.53,0.53,0,0,1,.41.2A0.55,0.55,0,0,1,490.87,3235.21Z" transform="translate(-444.67 -3206)"/></svg>