<svg id="Слой_1" data-name="Слой 1" xmlns="http://www.w3.org/2000/svg" width="40" height="62" viewBox="0 0 40 62"><defs><style>.cls-1{fill:#472c62;}</style></defs><title>map-icon1</title><path class="cls-1" d="M468.67,3027a20.06,20.06,0,0,0-20,20.07c0,9.9,6.84,22.87,12.58,32a1.26,1.26,0,1,0,2.13-1.34c-10.08-16-12.19-25.53-12.19-30.66a17.48,17.48,0,1,1,35,0c0,15.71-18.29,39.66-18.48,39.9a1.26,1.26,0,0,0,.23,1.77,1.25,1.25,0,0,0,1.76-.23c0.78-1,19-24.87,19-41.44A20.06,20.06,0,0,0,468.67,3027Z" transform="translate(-448.68 -3027)"/><path class="cls-1" d="M468.67,3040.67a1.26,1.26,0,0,0,0-2.52,8.91,8.91,0,1,0,7.09,3.53,1.26,1.26,0,1,0-2,1.53A6.37,6.37,0,1,1,468.67,3040.67Z" transform="translate(-448.68 -3027)"/></svg>