<?xml version="1.0" encoding="utf-8"?>
<!-- Generator: Adobe Illustrator 19.0.0, SVG Export Plug-In . SVG Version: 6.00 Build 0)  -->
<svg version="1.1" id="Layer_1" xmlns="http://www.w3.org/2000/svg" xmlns:xlink="http://www.w3.org/1999/xlink" x="0px" y="0px"
	 viewBox="0 0 256 256" style="enable-background:new 0 0 256 256;" xml:space="preserve">
<style type="text/css">
	.st0{fill:#E9E8E8;}
	.st1{fill:#717172;}
	.st2{fill:none;stroke:#7C7C7C;stroke-width:3;stroke-miterlimit:10;}
	.st3{fill:#FFFFFF;}
	.st4{fill:#686465;}
	.st5{fill:#ECCD4B;}
	.st6{fill:#C38048;}
</style>
<g id="XMLID_3_">
	
		<image style="overflow:visible;opacity:0.25;" width="918" height="1080" id="XMLID_380_" xlink:href="80C628B403FD4780.png"  transform="matrix(0.24 0 0 0.24 21.9598 -1.0402)">
	</image>
	<g id="XMLID_230_">
		<g id="XMLID_324_">
			<g id="XMLID_332_">
				<rect id="XMLID_351_" x="24" y="1" class="st0" width="189" height="253"/>
				<g id="XMLID_333_">
					<g id="XMLID_343_">
						<rect id="XMLID_350_" x="51" y="40" class="st1" width="58" height="7"/>
						<rect id="XMLID_349_" x="51" y="74" class="st1" width="115" height="5"/>
						<rect id="XMLID_348_" x="51" y="86" class="st1" width="115" height="5"/>
						<rect id="XMLID_347_" x="53" y="163" class="st1" width="111.3" height="0"/>
						<rect id="XMLID_346_" x="51" y="177" class="st1" width="115" height="5"/>
						<rect id="XMLID_345_" x="50" y="202" class="st1" width="116.3" height="0"/>
						<rect id="XMLID_344_" x="51" y="215" class="st1" width="115" height="14"/>
					</g>
					<rect id="XMLID_342_" x="52.5" y="108.5" class="st2" width="71" height="39"/>
					<g id="XMLID_339_">
						<line id="XMLID_341_" class="st2" x1="191.1" y1="66.4" x2="178.8" y2="80"/>
						<line id="XMLID_340_" class="st2" x1="178.8" y1="68.6" x2="193.1" y2="82.3"/>
					</g>
					<g id="XMLID_336_">
						<line id="XMLID_338_" class="st2" x1="191.1" y1="161.8" x2="178.8" y2="175.4"/>
						<line id="XMLID_337_" class="st2" x1="178.8" y1="164" x2="193.1" y2="177.7"/>
					</g>
					<polyline id="XMLID_335_" class="st2" points="177.8,212 184.9,218.5 193.1,204.3 					"/>
					<polyline id="XMLID_334_" class="st2" points="104.4,126.8 111.6,133.4 119.7,119.2 					"/>
				</g>
			</g>
			<g id="XMLID_325_">
				<rect id="XMLID_331_" x="225" y="241" class="st3" width="13" height="13"/>
				<rect id="XMLID_330_" x="225" y="229" class="st4" width="13" height="18"/>
				<rect id="XMLID_329_" x="225" y="86" class="st5" width="13" height="155"/>
				<rect id="XMLID_328_" x="231" y="86" class="st6" width="7" height="155"/>
				<polygon id="XMLID_327_" class="st3" points="224.4,86 230.9,61.7 237.4,86 				"/>
				<polygon id="XMLID_326_" class="st4" points="233.5,76.3 230.9,66.6 228.3,76.3 				"/>
			</g>
		</g>
	</g>
</g>
</svg>
