<?xml version="1.0" encoding="utf-8"?>
<!-- Generator: Adobe Illustrator 19.0.0, SVG Export Plug-In . SVG Version: 6.00 Build 0)  -->
<svg version="1.1" id="Layer_1" xmlns="http://www.w3.org/2000/svg" xmlns:xlink="http://www.w3.org/1999/xlink" x="0px" y="0px"
	 viewBox="41 9.1 256 256" style="enable-background:new 41 9.1 256 256;" xml:space="preserve">
<style type="text/css">
	.st0{fill:#DBDBDB;}
	.st1{fill:#577C89;}
	.st2{fill:#E8E8E8;}
	.st3{fill:#395B6A;}
	.st4{fill:#8EBBC4;}
	.st5{fill:#AEEFF9;}
	.st6{opacity:0.5;fill:#AEEFF9;}
	.st7{fill:#EDE5E9;}
	.st8{opacity:0.3;fill:#7CB9BA;}
</style>
<g>
	<g>
		<rect x="185.9" y="103.1" class="st0" width="111.1" height="121.2"/>
		<rect x="185.9" y="190.5" class="st1" width="111.1" height="33.8"/>
		<rect x="40.8" y="54.8" class="st2" width="184.3" height="169.5"/>
		<rect x="40.8" y="177.1" class="st1" width="184.3" height="47.2"/>
	</g>
	<path class="st3" d="M299,223.7c0-0.8-0.6-1.4-1.4-1.4H35.8c-0.8,0-1.4,0.6-1.4,1.4v3.3c0,0.8,0.6,1.4,1.4,1.4h261.8
		c0.8,0,1.4-0.6,1.4-1.4V223.7z"/>
	<g>
		<path class="st3" d="M295.6,97.9h-70.5v10.4h70.5c0.8,0,1.4-0.6,1.4-1.4v-7.6C297,98.5,296.4,97.9,295.6,97.9z"/>
		<path class="st3" d="M225.2,51c0-0.8-0.6-1.4-1.3-1.4H42.1c-0.7,0-1.3,0.6-1.3,1.4v7.6c0,0.8,0.6,1.4,1.3,1.4h181.7
			c0.7,0,1.3-0.6,1.3-1.4V51z"/>
	</g>
	<path class="st3" d="M156.5,224.6c0,0.8,0.7,1.5,1.5,1.5h46.8c0.8,0,1.5-0.7,1.5-1.5v-73.4c0-0.8-0.7-1.5-1.5-1.5H158
		c-0.8,0-1.5,0.7-1.5,1.5V224.6z"/>
	<path class="st4" d="M157.6,223c0,0.8,0.6,1.4,1.4,1.4h44.8c0.8,0,1.4-0.6,1.4-1.4v-70.1c0-0.8-0.6-1.4-1.4-1.4h-44.8
		c-0.8,0-1.4,0.6-1.4,1.4V223z"/>
	<path class="st1" d="M63.6,115.4c0,0.5,0.4,0.9,0.9,0.9h43.7c0.5,0,0.9-0.4,0.9-0.9V71.7c0-0.5-0.4-0.9-0.9-0.9H64.5
		c-0.5,0-0.9,0.4-0.9,0.9V115.4z"/>
	<path class="st5" d="M64.8,114.1c0,0.5,0.4,0.8,0.8,0.8h41.3c0.5,0,0.8-0.4,0.8-0.8V72.9c0-0.5-0.4-0.8-0.8-0.8H65.7
		c-0.5,0-0.8,0.4-0.8,0.8V114.1z"/>
	<path class="st6" d="M64.8,114.1c0,0.5,0.4,0.8,0.8,0.8h41.3c0.5,0,0.8-0.4,0.8-0.8c0,0-42.9-41.7-42.9-41.3V114.1z"/>
	<path class="st3" d="M61.1,119.7c0,0.5,0.4,0.8,0.8,0.8h48.7c0.5,0,0.8-0.4,0.8-0.8v-4.9c0-0.5-0.4-0.8-0.8-0.8H62
		c-0.5,0-0.8,0.4-0.8,0.8V119.7z"/>
	<path class="st1" d="M63.6,116.4c0,0.5,0.4,0.9,0.9,0.9h43.7c0.5,0,0.9-0.4,0.9-0.9V72.7c0-0.5-0.4-0.9-0.9-0.9H64.5
		c-0.5,0-0.9,0.4-0.9,0.9V116.4z"/>
	<path class="st5" d="M64.8,114.1c0,0.5,0.4,0.8,0.8,0.8h41.3c0.5,0,0.8-0.4,0.8-0.8V72.9c0-0.5-0.4-0.8-0.8-0.8H65.7
		c-0.5,0-0.8,0.4-0.8,0.8V114.1z"/>
	<path class="st6" d="M64.8,115.2c0,0.5,0.4,0.8,0.8,0.8h41.3c0.5,0,0.8-0.4,0.8-0.8c0,0-42.9-41.7-42.9-41.3V115.2z"/>
	<path class="st3" d="M61.1,120.7c0,0.5,0.4,0.8,0.8,0.8h48.7c0.5,0,0.8-0.4,0.8-0.8v-4.9c0-0.5-0.4-0.8-0.8-0.8H62
		c-0.5,0-0.8,0.4-0.8,0.8V120.7z"/>
	<path class="st3" d="M157.2,119.7c0,0.5,0.4,0.8,0.8,0.8h48.7c0.5,0,0.8-0.4,0.8-0.8v-4.9c0-0.5-0.4-0.8-0.8-0.8H158
		c-0.5,0-0.8,0.4-0.8,0.8V119.7z"/>
	<path class="st1" d="M159.7,115.4c0,0.5,0.4,0.9,0.9,0.9h43.7c0.5,0,0.9-0.4,0.9-0.9V71.7c0-0.5-0.4-0.9-0.9-0.9h-43.7
		c-0.5,0-0.9,0.4-0.9,0.9V115.4z"/>
	<path class="st5" d="M160.9,114.1c0,0.5,0.4,0.8,0.8,0.8H203c0.5,0,0.8-0.4,0.8-0.8V72.9c0-0.5-0.4-0.8-0.8-0.8h-41.3
		c-0.5,0-0.8,0.4-0.8,0.8V114.1z"/>
	<path class="st6" d="M160.9,115.2c0,0.5,0.4,0.8,0.8,0.8H203c0.5,0,0.8-0.4,0.8-0.8c0,0-42.9-41.7-42.9-41.3V115.2z"/>
	<path class="st3" d="M157.2,120.7c0,0.5,0.4,0.8,0.8,0.8h48.7c0.5,0,0.8-0.4,0.8-0.8v-4.9c0-0.5-0.4-0.8-0.8-0.8H158
		c-0.5,0-0.8,0.4-0.8,0.8V120.7z"/>
	<path class="st1" d="M65.7,196.6c0,0.5,0.4,0.9,0.9,0.9h43.7c0.5,0,0.9-0.4,0.9-0.9V153c0-0.5-0.4-0.9-0.9-0.9H66.6
		c-0.5,0-0.9,0.4-0.9,0.9V196.6z"/>
	<path class="st5" d="M66.9,195.4c0,0.5,0.4,0.8,0.8,0.8h41.3c0.5,0,0.8-0.4,0.8-0.8v-41.3c0-0.5-0.4-0.8-0.8-0.8H67.8
		c-0.5,0-0.8,0.4-0.8,0.8V195.4z"/>
	<path class="st6" d="M66.9,195.4c0,0.5,0.4,0.8,0.8,0.8h41.3c0.5,0,0.8-0.4,0.8-0.8c0,0-42.9-41.7-42.9-41.3V195.4z"/>
	<path class="st3" d="M63.3,201c0,0.5,0.4,0.8,0.8,0.8h48.7c0.5,0,0.8-0.4,0.8-0.8V196c0-0.5-0.4-0.8-0.8-0.8H64.1
		c-0.5,0-0.8,0.4-0.8,0.8V201z"/>
	<path class="st3" d="M161.7,220.2v-63c0-0.8,0.6-1.4,1.4-1.4h36.6c0.8,0,1.4,0.6,1.4,1.4v63H161.7z"/>
	<circle class="st7" cx="167.9" cy="188" r="3"/>
	<path class="st4" d="M151.7,228.4v-6.1c0-1.2,0.6-2.2,1.4-2.2h56.7c0.8,0,1.4,1,1.4,2.2v6.1H151.7z"/>
	<rect x="225.2" y="98.4" class="st8" width="10.1" height="123.9"/>
	<g>
		<path class="st1" d="M273.6,173.9c0,0.8-0.7,1.5-1.5,1.5h-33c-0.8,0-1.5-0.7-1.5-1.5v-47.4c0-0.8,0.7-1.5,1.5-1.5h33
			c0.8,0,1.5,0.7,1.5,1.5V173.9z"/>
		<path class="st5" d="M271.4,171.8c0,0.8-0.6,1.4-1.4,1.4h-28.8c-0.8,0-1.4-0.6-1.4-1.4v-43.2c0-0.8,0.6-1.4,1.4-1.4H270
			c0.8,0,1.4,0.6,1.4,1.4V171.8z"/>
		<path class="st6" d="M271.4,171.8c0,0.8-0.6,1.4-1.4,1.4h-28.8c-0.8,0-1.4-0.6-1.4-1.4c0,0,31.7-44,31.7-43.2V171.8z"/>
		<path class="st3" d="M277.8,181.4c0,0.8-0.6,1.4-1.4,1.4h-41.7c-0.8,0-1.4-0.6-1.4-1.4v-8.6c0-0.8,0.6-1.4,1.4-1.4h41.7
			c0.8,0,1.4,0.6,1.4,1.4V181.4z"/>
	</g>
</g>
</svg>
