<?xml version="1.0" encoding="utf-8"?>
<!-- Generator: Adobe Illustrator 19.0.0, SVG Export Plug-In . SVG Version: 6.00 Build 0)  -->
<svg version="1.1" xmlns="http://www.w3.org/2000/svg" xmlns:xlink="http://www.w3.org/1999/xlink" x="0px" y="0px"
	 viewBox="-215 217 128 128" style="enable-background:new -215 217 128 128;" xml:space="preserve">
<style type="text/css">
	.st0{fill:none;stroke:#CCEBF8;stroke-width:4;stroke-miterlimit:10;}
	.st1{fill:#FAA93B;}
	.st2{fill:#F7D8BA;}
	.st3{fill:#F7F7F7;}
	.st4{fill:#403526;}
	.st5{fill:#B58D4D;}
	.st6{fill:#F4D70B;}
	.st7{fill:#966F35;}
	.st8{fill:#139191;}
	.st9{fill:#785A39;}
	.st10{fill:#664C32;}
	.st11{fill:#DDEAE3;}
	.st12{fill:none;stroke:#403526;stroke-width:3;}
	.st13{fill:#E0E0E0;}
	.st14{fill:#F2F2F2;}
	.st15{fill:#4BC6C3;}
	.st16{fill:#0F5B59;}
</style>
<g id="Layer_1">
	<g id="Layer_1_1_">
		<circle id="XMLID_1_" class="st0" cx="-151" cy="281" r="62"/>
	</g>
	<g id="Layer_2">
		<circle id="XMLID_2_" class="st1" cx="-151" cy="281" r="52.5"/>
	</g>
</g>
<g id="Layer_2_1_">
	<g>
		<path class="st2" d="M-162.2,269.1c0.6,2.2,2.6,6.8,5.6,3.3c1.2-1.4-1.6-2.3-2.2-4.1c-0.7-2.1,3.1-5.4,4.9-6.2
			c1.8-0.8,9.2-0.7,9.9,1.6c0.6,1.8-1.4,5.2,0.8,6.3c3.3,1.7,4.7-4.8,2.5-8c-1.5-2.3-7.7-3.5-7.7-3.5c1.7-1.2,3.8-1.5,5.8-1.4
			c6.2,0.3,8.1,3.3,8.9,1.3c1.8-4.3-5.2-5.6-9.3-4.6c-2.9,0.7-5.2,2-5.2,2c1.2-1.2,2.6-2,4-2.6c4.7-2.2,7.6,0.3,8.3-1.5
			c1.2-3.2-3.6-3.9-9.3-0.5c-2.7,1.6-4.6,3.7-4.6,3.7c0.6-1.3,1.5-2.4,2.5-3.1c3-2.4,6.6-2.3,5.2-4.6c-1-1.8-4.9,0.6-7.4,3.3
			c-1.2,1.3-2.2,2.8-2.7,3.8c-0.4,0.7-1.2,1-2,0.7l-5.1-2.1l-3.1,8.9l2.7,0.8C-161.6,264.6-163,265.9-162.2,269.1z"/>
		<polygon class="st3" points="-157.7,252.2 -161.6,262.6 -164.8,261.5 -160.6,251.1 		"/>
		<polygon class="st4" points="-159.4,251.2 -163.7,262.9 -181.2,257.8 -176.1,244.4 		"/>
		<circle class="st3" cx="-163.4" cy="252.2" r="1.1"/>
		<circle class="st3" cx="-167.7" cy="250.5" r="1.1"/>
		<circle class="st3" cx="-172.1" cy="248.8" r="1.1"/>
	</g>
	<g>
		<path class="st5" d="M-146.2,267.9c-5-3-12.9,3.4-8.7,8.6C-148.5,284.3-137.9,273-146.2,267.9z"/>
		<path class="st6" d="M-146.2,267.2c-5-3-12.9,3.4-8.7,8.6C-148.5,283.7-137.9,272.3-146.2,267.2z"/>
		<g>
			<g>
				<path class="st7" d="M-149.5,268.5c0,0.2,0,0.3,0,0.4c0,0.1,0,0.2,0,0.3c0,0.1,0,0.2,0,0.3c0,0.1,0,0.2,0,0.3
					c0.1,0,0.1,0,0.2-0.1c0.1,0,0.1,0,0.2,0c0.2,0,0.5,0.1,0.7,0.3v0c0,0,0.1,0.1,0.1,0.2c0,0.1,0,0.1-0.1,0.1c0,0-0.1,0.1-0.1,0.1
					c-0.1,0-0.1,0-0.2-0.1h0c-0.1-0.1-0.3-0.2-0.4-0.2c-0.1,0-0.2,0-0.4,0.1c0,0.2,0,0.3,0,0.4c0,0.1,0,0.2,0,0.3c0,0.1,0,0.2,0,0.3
					c0,0.1,0,0.2,0,0.3c0.2,0,0.4,0.1,0.6,0.2c0.2,0.1,0.3,0.2,0.4,0.3c0.1,0.1,0.2,0.3,0.3,0.4c0.1,0.2,0.1,0.4,0.1,0.6
					c0,0.2,0,0.4-0.1,0.6c-0.1,0.2-0.2,0.4-0.3,0.6c-0.1,0.2-0.3,0.3-0.5,0.4c-0.2,0.1-0.4,0.2-0.6,0.3c0,0.1,0,0.2,0,0.3
					c0,0.1,0,0.1,0,0.2c0,0.1,0,0.2,0,0.3c0,0.1,0,0.3,0.1,0.5c0,0,0,0.1,0,0.1c0,0,0,0.1,0,0.1c0,0,0,0.1-0.1,0.1c0,0-0.1,0-0.1,0
					s-0.1,0-0.1,0c0,0-0.1-0.1-0.1-0.1c0-0.2,0-0.4-0.1-0.5c0-0.1,0-0.3,0-0.4c0-0.1,0-0.2,0-0.3c0-0.1,0-0.2,0-0.3c0,0-0.1,0-0.1,0
					c0,0-0.1,0-0.1,0c-0.2,0-0.3,0-0.4-0.1c-0.1-0.1-0.2-0.1-0.3-0.2c-0.1-0.1-0.2-0.2-0.2-0.3c-0.1-0.1-0.1-0.2-0.2-0.3v0
					c0,0-0.1-0.1-0.1-0.1c0,0,0-0.1-0.1-0.1v0c0,0,0-0.1-0.1-0.1c0,0,0-0.1,0-0.1c0,0,0-0.1,0-0.1c0,0,0.1,0,0.1,0c0,0,0.1,0,0.1,0
					c0,0,0.1,0.1,0.1,0.1c0,0,0.1,0.1,0.1,0.1c0,0,0,0.1,0.1,0.1c0.1,0.1,0.1,0.2,0.2,0.3c0.1,0.1,0.1,0.2,0.2,0.2
					c0.1,0.1,0.2,0.1,0.3,0.2c0.1,0,0.2,0.1,0.3,0.1c0-0.1,0-0.2,0-0.3c0-0.1,0-0.3,0-0.5c0-0.2,0-0.4,0-0.7c0-0.3,0-0.7,0-1.2h0
					c-0.1,0-0.1,0-0.2,0c-0.1,0-0.2,0-0.3-0.1c-0.1,0-0.2-0.1-0.3-0.1c-0.1,0-0.1-0.1-0.1-0.2c0-0.1,0-0.2,0.1-0.3
					c0.1-0.1,0.1-0.2,0.2-0.3c0.1-0.1,0.2-0.2,0.3-0.3c0.1-0.1,0.2-0.2,0.3-0.3h0l0.2-0.2c0-0.2,0-0.3,0-0.4c0-0.1,0-0.2,0-0.3
					c0-0.1,0-0.2,0-0.3c0-0.1,0-0.3,0-0.4v0c0-0.1,0-0.1,0.1-0.2c0,0,0.1-0.1,0.2-0.1c0,0,0.1,0,0.1,0
					C-149.5,268.4-149.5,268.5-149.5,268.5z M-150,270.8c-0.1,0.1-0.2,0.2-0.2,0.3c-0.1,0.1-0.1,0.2-0.1,0.3c0.1,0,0.1,0,0.2,0.1
					c0.1,0,0.1,0,0.2,0c0-0.1,0-0.3,0-0.4C-149.9,271-149.9,270.9-150,270.8C-149.9,270.8-150,270.8-150,270.8z M-148.5,272.9
					c0-0.1,0-0.2-0.1-0.4c-0.1-0.1-0.1-0.2-0.2-0.3c-0.1-0.1-0.2-0.1-0.3-0.2c-0.1,0-0.2-0.1-0.3-0.1c0,0.2,0,0.4,0,0.5
					c0,0.1,0,0.2,0,0.3c0,0.1,0,0.2,0,0.3c0,0.1,0,0.2,0,0.3c0,0.1,0,0.3,0,0.5c0,0.2,0,0.4,0,0.7c0.2-0.1,0.3-0.1,0.4-0.3
					c0.1-0.1,0.2-0.2,0.3-0.4c0.1-0.1,0.2-0.3,0.2-0.4C-148.5,273.3-148.5,273.2-148.5,272.9L-148.5,272.9z"/>
			</g>
		</g>
		<g>
			<path class="st7" d="M-146.5,267.6c-3.8-2.2-10.1,1.3-9.1,6c0.5,2.2,2.7,4,4.9,4.4c1.9,0.3,3.8-0.5,5.2-1.8
				c1.2-1.1,1.9-2.7,1.9-4.3C-143.7,270-144.9,268.6-146.5,267.6c-0.2-0.1-0.3,0.2-0.2,0.3c2,1.3,3.2,3.3,2.4,5.7
				c-0.6,2-2.4,3.5-4.3,4.1c-2.5,0.6-5-0.8-6.2-2.9c-1.5-2.4,0.1-5.1,2.2-6.5c1.8-1.1,4.1-1.4,5.9-0.4
				C-146.4,267.9-146.3,267.7-146.5,267.6L-146.5,267.6z"/>
		</g>
	</g>
	<g>
		<g>
			<rect x="-135.8" y="275" class="st3" width="7.2" height="6.2"/>
			<rect x="-136.5" y="273.5" class="st8" width="8.5" height="2.4"/>
			<g>
				<g>
					<g>
						<rect x="-171.7" y="294.3" class="st3" width="44.1" height="20.2"/>
					</g>
					<g>
						<polygon class="st8" points="-125,294.3 -174.3,294.3 -170.6,281.2 -128.7,281.2 						"/>
					</g>
					<g>
						<g>
							<g>
								<polygon class="st9" points="-154.9,313.5 -154.9,296.9 -144.4,296.9 -144.3,313.5 								"/>
								<rect x="-154" y="297.9" class="st10" width="8.7" height="15.7"/>
							</g>
						</g>
						<g>
							<rect x="-139.7" y="298.8" class="st11" width="7.1" height="11.1"/>
						</g>
					</g>
				</g>
			</g>
			<line class="st12" x1="-163.1" y1="310.3" x2="-163.1" y2="298.5"/>
			<line class="st12" x1="-167.1" y1="304.4" x2="-159.2" y2="304.4"/>
			<path class="st9" d="M-167.6,297.9l-0.1,13h9l0.1-13H-167.6z M-159.5,304h-3.2v-5.2h3.2V304z M-163.5,298.8v5.2h-3.2v-5.2H-163.5
				z M-166.7,304.7h3.2v5.2h-3.2V304.7z M-162.8,309.9v-5.2h3.2v5.2H-162.8z"/>
			<path class="st9" d="M-140.7,297.9v13h9v-13H-140.7z M-132.6,304h-3.2v-5.2h3.2V304z M-136.5,298.8v5.2h-3.2v-5.2H-136.5z
				 M-139.7,304.7h3.2v5.2h-3.2V304.7z M-135.8,309.9v-5.2h3.2v5.2H-135.8z"/>
			<circle class="st13" cx="-152.7" cy="306.8" r="0.5"/>
			<circle class="st14" cx="-152.9" cy="306.7" r="0.5"/>
			<rect x="-152.9" y="299" class="st11" width="6.5" height="5.1"/>
			<rect x="-155.9" y="313.5" class="st8" width="12.7" height="1"/>
		</g>
		<path class="st13" d="M-125,294.3l-3.7-13.1h-41.9l-3.7,13.1H-125z M-128.7,281.3l3.6,12.9h-8l-2.4-12.9H-128.7z M-135.7,281.3
			l2.4,12.9h-8l-1.2-12.9H-135.7z M-149.5,281.3h6.8l1.2,12.9h-8V281.3z M-149.7,281.3v12.9h-8l1.2-12.9H-149.7z M-156.7,281.3
			l-1.2,12.9h-8l2.4-12.9H-156.7z M-170.5,281.3h6.8l-2.4,12.9h-8L-170.5,281.3z"/>
		<g>
			<g>
				<g>
					<path class="st15" d="M-154.5,283.9L-154.5,283.9h9.8l0,0c1,0,1.8,0.8,1.8,1.8c0,1-0.8,1.8-1.8,1.8l0,0h-9.8l0,0
						c-1,0-1.8-0.8-1.8-1.8C-156.3,284.7-155.5,283.9-154.5,283.9z"/>
				</g>
			</g>
		</g>
		<path class="st16" d="M-154.5,284.7h9.8c0.8,0,1.5,0.6,1.7,1.4c0-0.1,0-0.3,0-0.4c0-1-0.8-1.8-1.8-1.8h-9.8c-1,0-1.8,0.8-1.8,1.8
			c0,0.1,0,0.3,0,0.4C-156.1,285.2-155.4,284.7-154.5,284.7z"/>
	</g>
	<g>
		<rect x="-166.7" y="298.8" class="st11" width="7.1" height="11.1"/>
	</g>
	<path class="st9" d="M-167.5,297.9v13h9v-13H-167.5z M-159.5,304.1h-3.2v-5.2h3.2V304.1z M-163.4,298.9v5.2h-3.2v-5.2H-163.4z
		 M-166.6,304.8h3.2v5.2h-3.2V304.8z M-162.7,310v-5.2h3.2v5.2H-162.7z"/>
</g>
</svg>
