<?xml version="1.0" encoding="utf-8"?>
<!-- Generator: Adobe Illustrator 19.0.0, SVG Export Plug-In . SVG Version: 6.00 Build 0)  -->
<svg version="1.1" xmlns="http://www.w3.org/2000/svg" xmlns:xlink="http://www.w3.org/1999/xlink" x="0px" y="0px"
	 viewBox="-215 217 128 128" style="enable-background:new -215 217 128 128;" xml:space="preserve">
<style type="text/css">
	.st0{fill:none;stroke:#CCEBF8;stroke-width:4;stroke-miterlimit:10;}
	.st1{fill:#52AF50;}
	.st2{fill:#F6E9BF;}
	.st3{fill:#746355;}
	.st4{fill:#738079;}
	.st5{fill:#9AACA1;}
</style>
<g id="Layer_1">
	<g id="Layer_1_1_">
		<circle id="XMLID_1_" class="st0" cx="-151" cy="281" r="62"/>
	</g>
	<g id="Layer_2">
		<circle id="XMLID_2_" class="st1" cx="-151" cy="281" r="52.5"/>
	</g>
</g>
<g id="Layer_2_1_">
	<g>
		<rect x="-186.4" y="277.2" class="st2" width="35.5" height="24.1"/>
		<rect x="-188.6" y="274.8" class="st3" width="75.2" height="2.4"/>
		<rect x="-173.1" y="260.7" class="st3" width="44.2" height="2.4"/>
		<rect x="-182.7" y="284.4" class="st3" width="12.5" height="16.9"/>
		<rect x="-181.4" y="285.6" class="st4" width="10" height="15.7"/>
		<g>
			<rect x="-166.6" y="284.4" class="st3" width="12.8" height="9"/>
			<rect x="-165.2" y="285.6" class="st5" width="10" height="6.7"/>
		</g>
		<circle class="st5" cx="-173.1" cy="293.5" r="0.6"/>
		<rect x="-171.3" y="263.1" class="st2" width="20.4" height="11.7"/>
		<rect x="-150.9" y="263.1" class="st2" width="20.4" height="11.7"/>
		<rect x="-151" y="277.2" class="st2" width="35.5" height="24.1"/>
		<g>
			<g>
				<rect x="-147.4" y="284.4" class="st3" width="12.8" height="9"/>
				<rect x="-146.1" y="285.6" class="st5" width="10" height="6.7"/>
			</g>
			<g>
				<rect x="-131.9" y="284.4" class="st3" width="12.8" height="9"/>
				<rect x="-130.6" y="285.6" class="st5" width="10" height="6.7"/>
			</g>
		</g>
		<g>
			<rect x="-167.5" y="265.4" class="st3" width="12.8" height="7.1"/>
			<rect x="-166.1" y="266.3" class="st5" width="10" height="5.2"/>
		</g>
		<g>
			<rect x="-147.2" y="265.4" class="st3" width="12.8" height="7.1"/>
			<rect x="-145.8" y="266.3" class="st5" width="10" height="5.2"/>
		</g>
		<rect x="-187.4" y="301.3" class="st3" width="72.5" height="1.2"/>
	</g>
	<path class="st3" d="M-147.6,303.2"/>
	<path class="st3" d="M-72.4,303.2"/>
</g>
</svg>
