<?xml version="1.0" encoding="utf-8"?>
<!-- Generator: Adobe Illustrator 19.0.0, SVG Export Plug-In . SVG Version: 6.00 Build 0)  -->
<svg version="1.1" id="Layer_1" xmlns="http://www.w3.org/2000/svg" xmlns:xlink="http://www.w3.org/1999/xlink" x="0px" y="0px"
	 viewBox="-10 12 128 128" style="enable-background:new -10 12 128 128;" xml:space="preserve">
<style type="text/css">
	.st0{fill:none;stroke:#CCEBF8;stroke-width:4;stroke-miterlimit:10;}
	.st1{fill:#FAA93B;}
	.st2{fill:#FFD7A3;}
	.st3{fill:#FDC88E;}
	.st4{fill:#FFE1B2;}
	.st5{clip-path:url(#SVGID_2_);fill:#4C3735;}
	.st6{clip-path:url(#SVGID_4_);fill:#4C3735;}
	.st7{fill:#D0D7DC;}
	.st8{fill:#A7795E;}
	.st9{fill:#E4EBF0;}
	.st10{fill:#394959;}
	.st11{fill:#29394A;}
</style>
<g id="Layer_1_4_">
	<g id="Layer_1_3_">
		<g id="Layer_1_2_">
			<g id="Layer_1_1_">
				<circle id="XMLID_1_" class="st0" cx="54" cy="76" r="62"/>
			</g>
			<g id="Layer_2">
				<circle id="XMLID_2_" class="st1" cx="54" cy="76" r="52.5"/>
			</g>
		</g>
	</g>
</g>
<g id="Layer_2_1_">
	<g>
		<path class="st2" d="M43,80.8c2.2-1.8,1.9-7.1,1.9-8.3h18c0,1.3-0.3,6.5,1.9,8.3L54,95.9L43,80.8z"/>
		<path class="st3" d="M61.6,87.1l4-4.7c-2.2-1.6-2-6.3-2-7.3H45.3C46.7,79.1,55.3,86.1,61.6,87.1L61.6,87.1z"/>
		<path class="st4" d="M68.5,60.8c0,8.7-4.5,19.7-13.8,19.7s-13.8-11-13.8-19.7s2.8-17.7,13.8-17.7S68.5,52,68.5,60.8L68.5,60.8z"/>
		<path class="st4" d="M41.4,62.9c-1.5-0.4-2.4,0.5-2.4,2.2c0,2.3,2,7.9,4.1,4.4C45.1,66.1,41.4,62.9,41.4,62.9L41.4,62.9z"/>
		<path class="st4" d="M67.7,62.9c1.6-0.4,2.7,0.5,2.7,2.2c0,2.3-2.2,7.9-4.4,4.4C63.7,66.1,67.7,62.9,67.7,62.9L67.7,62.9z"/>
		<g>
			<g>
				<defs>
					<rect id="SVGID_1_" x="29.1" y="42" width="51.1" height="67.2"/>
				</defs>
				<clipPath id="SVGID_2_">
					<use xlink:href="#SVGID_1_"  style="overflow:visible;"/>
				</clipPath>
				<path class="st5" d="M40.8,64.8c-0.8-3.2-1.8-14,0.3-17.2c3-4.2,5.3-1.4,5.3-1.4l0.6,7.3l-4.5,12.1L40.8,64.8z"/>
			</g>
			<g>
				<defs>
					<rect id="SVGID_3_" x="29.1" y="42" width="51.1" height="67.2"/>
				</defs>
				<clipPath id="SVGID_4_">
					<use xlink:href="#SVGID_3_"  style="overflow:visible;"/>
				</clipPath>
				<path class="st6" d="M59.4,42.7c-7.7-1.9-13.3,1-14.9,2.3c-0.2,0.1-0.3,0.3-0.3,0.4l2.9,7.9c7.1,3.9,14.3,4.2,14.3,4.2l0.9-4.8
					l4.6,12.6l1.7-0.7c0,0,0.8-9.1,0.9-11.3C69.5,51.3,67.6,44.7,59.4,42.7L59.4,42.7z"/>
			</g>
		</g>
	</g>
	<path class="st7" d="M77.1,110c1.7,0,3-1.5,3-3.3V95.8c0-4.9-3.5-10.1-7.8-11.6l-6.4-2.2c-3.5,2.9-8.3,6.8-12.4,6.8
		s-8.9-3.9-12.4-6.8l-6.4,2.2c-4.3,1.5-7.8,6.7-7.8,11.6v10.9c0,1.9,1.4,3.3,3,3.3C29.9,110,77.1,110,77.1,110z"/>
	<path class="st8" d="M56.1,89.1c0,0.7-0.4,1.1-1.1,1.1h-2.1c-0.5,0-1.1-0.5-1.1-1.1v-1.5c0-0.7,0.4-1.1,1.1-1.1H55
		c0.5,0,1.1,0.5,1.1,1.1V89.1z"/>
	<path class="st9" d="M54,86.4L49.6,91c-0.4,0.5-1.2,0.5-1.6-0.1l-7.6-9l2.4-2.6c0.4-0.5,1.1-0.5,1.4,0L54,86.4z"/>
	<path class="st9" d="M54,86.4l4.3,4.7c0.4,0.5,1.2,0.5,1.6-0.1l7.6-9l-2.4-2.6c-0.4-0.5-1.1-0.5-1.4,0L54,86.4z"/>
	<path class="st8" d="M55.4,89.3h-2.8l-0.6,18.5h4.2L55.4,89.3z"/>
	<path class="st10" d="M74.4,84.7L66,80.3L54.7,92.4c-0.4,0.5-1.1,0.5-1.5,0L41.9,80.3l-8.5,4.4c-4.2,2.1-6.6,6.1-6.6,11.1v10.9
		c0,1.7,1.2,3.1,2.7,3.3h48.7c1.6-0.2,2.7-1.6,2.7-3.3V95.8C81.1,90.8,78.7,86.8,74.4,84.7L74.4,84.7z"/>
	<path class="st11" d="M52,64.1V65c0,2.4-1.9,4.4-4.3,4.4h-1.1c-1.2,0-2.2-1-2.2-2.2v-3H52 M52,63.1h-7.6c-0.6,0-1.1,0.5-1.1,1.1v3
		c0,1.9,1.5,3.3,3.2,3.3h1.1c3,0,5.4-2.4,5.4-5.5v-0.8C53.1,63.6,52.6,63.1,52,63.1L52,63.1z"/>
	<path class="st11" d="M64.4,64.1v3c0,1.2-1,2.2-2.2,2.2h-1.1c-2.4,0-4.3-2-4.3-4.4v-0.8H64.4 M64.4,63.1h-7.6
		c-0.6,0-1.1,0.5-1.1,1.1v0.8c0,3.1,2.4,5.5,5.4,5.5h1.1c1.8,0,3.2-1.5,3.2-3.3v-3C65.4,63.6,65,63.1,64.4,63.1L64.4,63.1z"/>
	<path class="st11" d="M40.7,63.1h3.6v2.6l-3.6-1.3V63.1z"/>
	<path class="st11" d="M68.5,63.1h-4v2.6l4-1.3V63.1z"/>
	<path class="st11" d="M56.8,65.7h-1.1c0-0.5-0.6-0.9-1.3-0.9c-0.7,0-1.4,0.4-1.4,0.9h-1c0-1.1,1.1-2,2.4-2
		C55.8,63.7,56.8,64.6,56.8,65.7L56.8,65.7z"/>
</g>
</svg>
