<?xml version="1.0" encoding="utf-8"?>
<!-- Generator: Adobe Illustrator 19.0.0, SVG Export Plug-In . SVG Version: 6.00 Build 0)  -->
<svg version="1.1" xmlns="http://www.w3.org/2000/svg" xmlns:xlink="http://www.w3.org/1999/xlink" x="0px" y="0px"
	 viewBox="-10 12 128 128" style="enable-background:new -10 12 128 128;" xml:space="preserve">
<style type="text/css">
	.st0{fill:none;stroke:#CCEBF8;stroke-width:4;stroke-miterlimit:10;}
	.st1{fill:#FAA93B;}
	.st2{fill:#176391;}
	.st3{fill:#135170;}
	.st4{clip-path:url(#SVGID_2_);fill:#E6BE8A;}
	.st5{clip-path:url(#SVGID_2_);fill:#FFEBB7;}
	.st6{clip-path:url(#SVGID_2_);fill:#FFE39C;}
	.st7{fill:#0D3F5B;}
	.st8{font-family:'MyriadPro-Regular';}
	.st9{font-size:2.2212px;}
	.st10{fill:none;stroke:#475C6D;stroke-width:0.25;stroke-miterlimit:10;}
</style>
<g id="Layer_1">
	<g id="Layer_1_1_">
		<circle id="XMLID_1_" class="st0" cx="54" cy="76" r="62"/>
	</g>
	<g id="Layer_2">
		<circle id="XMLID_2_" class="st1" cx="54" cy="76" r="52.5"/>
	</g>
</g>
<g id="Layer_3">
	<g>
		<path class="st2" d="M87,56.5H23c-1.9,0-3.4,1.5-3.4,3.4v37.7c0,1.9,1.5,3.4,3.4,3.4h64c1.9,0,3.4-1.5,3.4-3.4V59.9
			C90.4,58,88.9,56.5,87,56.5L87,56.5z M87,56.5"/>
		<rect x="51.6" y="95.3" class="st3" width="6.9" height="5.7"/>
		<g>
			<defs>
				<rect id="SVGID_1_" x="19.6" y="49.5" width="70.9" height="51.7"/>
			</defs>
			<clipPath id="SVGID_2_">
				<use xlink:href="#SVGID_1_"  style="overflow:visible;"/>
			</clipPath>
			<path class="st4" d="M85.9,91.9v3.4c0,0.6-0.5,1.1-1.1,1.1H25.3c-0.6,0-1.1-0.5-1.1-1.1v-3.4l6.8-3.4l27.4,1.1l22.8-1.1
				L85.9,91.9z M85.9,91.9"/>
			<path class="st5" d="M25.8,95.6c9.4-4.1,20-3.8,29.2,0.7V53.2c-9.5-4.7-20.6-4.8-30.2-0.3c-0.4,0.2-0.7,0.6-0.7,1.1v40.5
				C24.2,95.4,25,96,25.8,95.6L25.8,95.6z M25.8,95.6"/>
			<path class="st6" d="M55,96.3c9.2-4.6,19.9-4.8,29.2-0.7c0.8,0.3,1.6-0.2,1.6-1.1V54c0-0.5-0.3-0.9-0.7-1.1
				c-9.6-4.5-20.6-4.4-30.2,0.3V96.3z M55,96.3"/>
		</g>
	</g>
	<text transform="matrix(0.8096 0 0 1 33.7325 58.9058)"><tspan x="0" y="0" class="st7 st8 st9">НАЛОГОВОЙ</tspan><tspan x="2.6" y="2.7" class="st7 st8 st9">КОДЕКС</tspan><tspan x="5.9" y="5.3" class="st7 st8 st9">РК</tspan></text>
	<line class="st10" x1="60.8" y1="82.3" x2="65.5" y2="82.3"/>
	<line class="st10" x1="66.8" y1="82.3" x2="71.6" y2="82.3"/>
	<line class="st10" x1="73.9" y1="82.3" x2="78.7" y2="82.3"/>
	<line class="st10" x1="30.5" y1="67.1" x2="48.4" y2="67.1"/>
	<line class="st10" x1="30.5" y1="70.6" x2="48.4" y2="70.6"/>
	<line class="st10" x1="30.5" y1="74.1" x2="48.4" y2="74.1"/>
	<line class="st10" x1="30.5" y1="77.6" x2="48.4" y2="77.6"/>
	<line class="st10" x1="30.5" y1="81.1" x2="48.4" y2="81.1"/>
	<line class="st10" x1="60.8" y1="82.3" x2="78.7" y2="82.3"/>
	<line class="st10" x1="60.8" y1="78.8" x2="78.7" y2="78.8"/>
	<line class="st10" x1="60.8" y1="75.3" x2="78.7" y2="75.3"/>
	<line class="st10" x1="60.8" y1="71.8" x2="78.7" y2="71.8"/>
	<line class="st10" x1="60.8" y1="68.3" x2="78.7" y2="68.3"/>
	<line class="st10" x1="60.8" y1="64.8" x2="78.7" y2="64.8"/>
	<line class="st10" x1="30.5" y1="70.6" x2="35.3" y2="70.6"/>
	<line class="st10" x1="36.6" y1="70.6" x2="41.3" y2="70.6"/>
	<line class="st10" x1="43.6" y1="70.6" x2="48.4" y2="70.6"/>
	<line class="st10" x1="30.5" y1="74.1" x2="35.3" y2="74.1"/>
	<line class="st10" x1="36.6" y1="74.1" x2="41.3" y2="74.1"/>
	<line class="st10" x1="43.6" y1="74.1" x2="48.4" y2="74.1"/>
	<line class="st10" x1="30.5" y1="77.6" x2="35.3" y2="77.6"/>
	<line class="st10" x1="36.6" y1="77.6" x2="41.3" y2="77.6"/>
	<line class="st10" x1="43.6" y1="77.6" x2="48.4" y2="77.6"/>
	<line class="st10" x1="30.5" y1="81.1" x2="35.3" y2="81.1"/>
	<line class="st10" x1="36.6" y1="81.1" x2="41.3" y2="81.1"/>
	<line class="st10" x1="43.6" y1="81.1" x2="48.4" y2="81.1"/>
</g>
</svg>
