<?xml version="1.0" encoding="utf-8"?>
<!-- Generator: Adobe Illustrator 19.0.0, SVG Export Plug-In . SVG Version: 6.00 Build 0)  -->
<svg version="1.1" id="Layer_1" xmlns="http://www.w3.org/2000/svg" xmlns:xlink="http://www.w3.org/1999/xlink" x="0px" y="0px"
	 viewBox="-402 21 560 560" style="enable-background:new -402 21 560 560;" xml:space="preserve">
<style type="text/css">
	.st0{fill:#2F3440;}
	.st1{fill:#FCDAB7;}
	.st2{fill:#D7D6D8;}
	.st3{fill:#D5D3D9;}
	.st4{fill:#C2C0C7;}
	.st5{fill:#E4E3E5;}
	.st6{fill:#CE9774;}
	.st7{fill:#2E2820;}
	.st8{fill:#0E2D3D;}
	.st9{fill:#E0E0E0;}
	.st10{fill:#EDCDAD;}
	.st11{fill:#292D38;}
	.st12{fill:#18738C;}
	.st13{fill:#FFFFFF;}
	.st14{fill:#262933;}
	.st15{fill:#402516;}
	.st16{fill:#6B3E24;}
	.st17{fill:#FFF8F0;}
	.st18{fill:#D38B50;}
</style>
<g>
	<path id="XMLID_153_" class="st0" d="M-106.8,297.5c18.7-14,54.5-63.3,54.5-63.3s-0.7-25.5-25.4-16.7c0,0-34.9,47.8-45.4,57.7
		c0,0-17.1,19.3-63.6,11.4l-3,21.3C-189.7,307.9-137.2,320.3-106.8,297.5z"/>
	<path id="XMLID_152_" class="st1" d="M-188.3,307.1c-2.5,3.2-12.8,3.1-18.8,1.5c-5.8,1.1-11,0.7-12.4-3.1c-1.7-4.6-0.8-5.4-0.8-8.6
		c-0.8-2.3-0.2-4.8,0.2-7.1c-0.2-1.7-0.9-5.6,0-7.2c0.3-2.1-2.3-8.7,5.3-9.1c3.7-0.2,12.6,5,13.5-5.7c1.1-13.2,9.2-13.5,8.2-7
		c-1,6.5-2.1,15.7,1,18.5C-183.7,286.7-182,298.9-188.3,307.1z"/>
	<g>
		<g>
			<rect id="XMLID_151_" x="-215.9" y="48.3" class="st2" width="14.5" height="296.4"/>
			<rect id="XMLID_150_" x="-204.2" y="48.3" class="st3" width="2.8" height="296.4"/>
			<rect id="XMLID_149_" x="-215.9" y="226.2" class="st4" width="14.5" height="10.7"/>
			<rect id="XMLID_148_" x="-215.9" y="69.1" class="st4" width="14.5" height="12.3"/>
			<rect id="XMLID_147_" x="-313" y="71.8" class="st5" width="208.7" height="160.2"/>
			<rect id="XMLID_146_" x="-107.3" y="71.8" class="st3" width="3" height="160.2"/>
		</g>
	</g>
	<g>
		<path id="XMLID_145_" class="st1" d="M-215,282.9c2.6,0.4,5.3,0.6,7.2,0.8c1.9,0.2,3.7-1,4.2-2.8c0.4-1.3,0.1-2.8-2.4-3.8
			c-4.5-1.8-14.2-3.9-16-1.8C-223.8,277.4-224.9,281.5-215,282.9z"/>
		<path id="XMLID_144_" class="st6" d="M-215,282.9c0,0,0.8,0,2,0s2.8,0.1,4.3,0.3c0.4,0,0.8,0.1,1.1,0.1s0.7,0,1-0.1
			c0.7-0.2,1.3-0.4,1.7-0.8s0.7-0.7,0.9-1s0.3-0.5,0.3-0.5s0,0.2-0.1,0.5s-0.3,0.8-0.7,1.3s-1,0.9-1.8,1.1c-0.4,0.1-0.8,0.2-1.2,0.2
			s-0.8-0.1-1.2-0.1c-1.6-0.2-3.1-0.4-4.3-0.7C-214.3,283.2-215,282.9-215,282.9z"/>
		<path id="XMLID_143_" class="st1" d="M-214.5,290.8c2.9-0.2,6.6-0.1,8.9,0c1.8,0.1,3.4-1.3,3.4-3.1c0-1.1-0.6-2.1-2.7-2.7
			c-5.1-1.5-16.4-3.5-17.9-1.5C-224.3,285.5-225.6,291.5-214.5,290.8z"/>
		<path id="XMLID_142_" class="st6" d="M-217,290.9c0,0,1-0.1,2.6-0.2s3.6-0.2,5.7-0.2c1,0,2.1,0,3,0c0.5,0,0.9,0,1.3-0.1
			c0.4-0.1,0.7-0.3,1-0.5c0.6-0.5,0.9-1,1-1.4s0.2-0.7,0.2-0.7s0.1,0.3,0,0.7c-0.1,0.5-0.3,1.1-0.9,1.7c-0.3,0.3-0.7,0.6-1.1,0.7
			c-0.4,0.2-1,0.3-1.5,0.3c-1,0-2,0-3,0.1c-2.1,0-4.1-0.1-5.7-0.2C-216,291-217,290.9-217,290.9z"/>
		<path id="XMLID_141_" class="st1" d="M-214.3,298.5c2.6-0.4,5.7-0.6,7.6-0.6c1.3-0.1,2.4-0.8,3-2c0.8-1.5,1.1-3.5-1.7-4.2
			c-4.7-1.1-16-2.1-17.2,0.1S-224.2,300-214.3,298.5z"/>
		<path id="XMLID_140_" class="st6" d="M-214.3,298.5c0,0,0.7-0.2,1.7-0.4c1.1-0.2,2.5-0.4,3.9-0.5c0.7,0,1.4-0.1,2.1-0.1
			c0.6,0,1.2-0.2,1.6-0.5c0.4-0.3,0.8-0.5,1-0.8c0.2-0.2,0.3-0.4,0.3-0.4s0,0.2-0.2,0.5s-0.4,0.7-0.8,1.1c-0.4,0.4-1.1,0.7-1.8,0.8
			c-0.7,0.1-1.4,0.1-2.1,0.2c-1.4,0.1-2.8,0.1-3.9,0.2C-213.5,298.5-214.3,298.5-214.3,298.5z"/>
		<path id="XMLID_139_" class="st1" d="M-214.1,306.4c1.9-0.4,4.3-0.9,6-1.3s3.1-1.8,3.2-3.6c0.1-1.2-0.4-2.4-2.2-2.5
			c-6.7-0.3-13.5-1.3-14.3,0.9C-222.1,302.1-222.1,308.1-214.1,306.4z"/>
		<path id="XMLID_138_" class="st6" d="M-214.1,306.4c0,0,0.7-0.3,1.7-0.6c1-0.3,2.4-0.7,3.8-1c0.3-0.1,0.7-0.1,1-0.2
			s0.6-0.2,0.8-0.4c0.5-0.3,0.9-0.7,1.2-1.1s0.5-0.8,0.6-1.1c0.1-0.3,0.1-0.5,0.1-0.5s0,0.2,0,0.5s-0.1,0.8-0.3,1.3
			s-0.6,1.1-1.2,1.5c-0.3,0.2-0.6,0.4-1,0.5s-0.7,0.2-1.1,0.3c-1.4,0.3-2.8,0.5-3.8,0.6C-213.3,306.4-214.1,306.4-214.1,306.4z"/>
	</g>
	<path id="XMLID_137_" class="st7" d="M0.8,548.2c0,0-0.8,7.3-3,10.3s-8.5,7.9-6.9,13.9c1.6,6.1,12.1,8.3,12.1,8.3
		s11.7,2.6,21.8-7.5c0,0,0.3-2,0.1-5.4l1-1.8c0,0,0-9.9-5.9-17.9C11.5,543.7,0.8,548.2,0.8,548.2z"/>
	<path id="XMLID_136_" class="st7" d="M-74.3,545.4c0,0-7.4,3.2-18.7,2.3c-8.1-0.7-19.1,3.5-24.7,16c0,0,6,9.5,25.6,7.1
		s16.3-6.7,21.6-6.2c5.3,0.5,14.3,1.3,17.5-1.1c0,0-0.3-6.4-2.9-12.2C-58.7,545.4-74.3,545.4-74.3,545.4z"/>
	<path id="XMLID_135_" class="st8" d="M21.7,548.7c-7.1,7.8-21.9,0.7-21.9,0.7c1.6-10.6-7.7-50.9-13.1-65.1
		c-5.5-14.1-9.5-64.8-15.5-69.8s-15.7-5-23.9,0c-8.2,5-10.6,52.1-6.2,70.5s-1.7,68-1.7,68c-8.2-0.7-22.8-5.7-22.8-5.7
		c6.9-8.4-4-71.8-4-71.8c-5.3-51.4-5.9-78.5-5.8-93.7c0-5.9,0.2-8.9,0.2-8.9s2.1-20.3,41.1-20.3s59.1,21.6,59.1,21.6
		c0.3,1.4,0.5,2.9,0.6,4.7c2.3,24.4-2,79.4,3.6,100.5C17.3,502,21.7,548.7,21.7,548.7z"/>
	<path id="XMLID_133_" class="st0" d="M16.6,376.5c-24.5,10.8-46.7,14.6-64.2,14.4l-5.3-21.6l-4.9,21.1
		c-24.5-2.1-40.3-10.8-40.3-10.8c3.5-97.3,29.6-160.8,29.6-160.8c17.4-16.2,77.2-20.4,91.2-3.7c3.6,32.4-5.7,45.8-7.7,85.9
		C13.3,333.8,16.6,376.5,16.6,376.5z"/>
	<path id="XMLID_132_" class="st9" d="M2.7,206.4c-12.8-2.3-28.7-1.8-42.5,0.8c-3.5,3.7-8,11.1-11.1,18.8c-4.6,22.6,0,62.7,0,62.7
		s44.6-57.4,49.1-68.5C1.5,212.4,2.4,208.2,2.7,206.4z"/>
	<path id="XMLID_131_" class="st1" d="M37.9,368.1c0,0-3.5,9.5-8.6,13.3s-2.7,7.1-4.3,8.9c-1.6,1.9-0.1,7,1.7,8.7
		c1.8,1.6,1.9,2.1,3.4,4c1.4,1.8,6,1.8,7.8,2.1c1.8,0.3,5,0.6,7.4,0.4s4.6-0.7,7.1-1.3c2.6-0.6,5.3-6.5,4.3-12.2
		c-1-5.8-0.6-17.4-1.6-20.3C54,368.8,37.9,368.1,37.9,368.1z"/>
	<path id="XMLID_130_" class="st0" d="M30.9,213.5c0,0-29.9-11.2-29.8,18c0,0,32.3,57.8,38.4,72.3c0.8,7.4,0.1,27.1-7.6,74.2
		c0,0,12.2,6.4,25.1,0.8c0,0,13-69.8,10-83.6C61.3,270.2,30.9,213.5,30.9,213.5z"/>
	<path id="XMLID_129_" class="st1" d="M0.8,186.7v3.7v1.8l-0.2,18.6c-11.3,5-23.2,11-28.4,10.1c-6.6-1.1-4.8-10.1-4.8-10.1
		c0.9-1,1.6-2.4,2.2-3.9s1.1-3.1,1.5-4.8c1.7-7.3,1.8-15.4,1.8-15.4L0.8,186.7L0.8,186.7z"/>
	<path id="XMLID_128_" class="st10" d="M0.8,186.7v3.7c-9.7,7.4-23.1,11.5-29.7,11.7c1.7-7.3,1.8-15.4,1.8-15.4H0.8z"/>
	<ellipse id="XMLID_127_" class="st11" cx="-52.3" cy="310.9" rx="5.4" ry="5.7"/>
	<circle id="XMLID_125_" class="st11" cx="-48.4" cy="344.8" r="5.7"/>
	<g>
		<polygon id="XMLID_123_" class="st12" points="-37.1,216 -39,231.4 -29.3,231.9 -23.4,218 -31,219.7 		"/>
		<polygon id="XMLID_122_" class="st12" points="-29.3,231.9 -29.8,238.2 -30.2,244.2 -30.7,251.7 -31.2,257.7 -31.9,267.7 
			-50.9,288.7 -53.9,267 -47.2,251 -45,245.8 -42.3,239.2 -40,233.9 -39,231.4 		"/>
	</g>
	<polygon id="XMLID_116_" class="st13" points="-29.2,219.7 -49.9,227.7 -37.8,204.6 -28.3,203.2 	"/>
	<path id="XMLID_115_" class="st13" d="M-0.3,202.7l-29.9,16.6L-5,234.5l14.1-21.2c0,0,1.8-1.4,2.5-5.4L-0.3,202.7L-0.3,202.7z"/>
	<path id="XMLID_114_" class="st14" d="M-37.8,204.6c0,0-12.2,22.7-13,24.6c0,0-1.3,43.9,0,59.5l-19-42l11.3-14l-7-2.6l15.9-21.6
		L-37.8,204.6z"/>
	<polygon id="XMLID_113_" class="st14" points="-0.3,202.7 -14.2,236.3 -50.9,288.7 -1.3,254 -4.1,239.2 11.4,233.1 13,208.5 	"/>
	<g id="XMLID_5_">
		<path id="XMLID_112_" class="st15" d="M-60.9,58.8c0,0-36.2,18.2-6.1,60.8c0,0,21.3-40.2,22.5-48.8
			C-43.3,62.2-60.9,58.8-60.9,58.8z"/>
		<path id="XMLID_111_" class="st16" d="M-60.9,58.8c0,0-1,0.6-2.5,1.7c-1.6,1.1-3.6,2.9-5.9,5.3c-1.1,1.2-2.2,2.6-3.3,4.1
			c-1,1.6-2,3.2-2.8,5.1c-0.8,1.8-1.6,3.8-2,5.9c-0.3,1-0.4,2.1-0.6,3.1c-0.1,1.1-0.2,2.1-0.2,3.2s-0.1,2.1,0,3.2L-78,92l0.2,1.6
			c0.1,1.1,0.3,2.1,0.6,3.1c0.2,1,0.5,2,0.8,3c0.1,0.5,0.3,1,0.4,1.5c0.2,0.5,0.3,0.9,0.5,1.4c0.3,0.9,0.6,1.8,1,2.7
			c0.4,0.9,0.7,1.7,1.1,2.5s0.8,1.6,1.1,2.3c0.7,1.5,1.4,2.8,2.1,4c0.6,1.2,1.2,2.2,1.7,3c1,1.7,1.6,2.6,1.6,2.6s-0.7-0.9-1.8-2.4
			c-0.6-0.8-1.3-1.7-2-2.9c-0.7-1.1-1.6-2.4-2.4-3.9c-0.4-0.7-0.8-1.5-1.2-2.3c-0.4-0.8-0.8-1.6-1.2-2.5c-0.4-0.8-0.8-1.8-1.1-2.7
			c-0.4-0.9-0.7-1.9-1-2.9s-0.6-2-0.8-3.1c-0.3-1-0.5-2.1-0.6-3.2l-0.3-1.6l-0.1-1.7c-0.1-1.1-0.1-2.2-0.1-3.4
			c0-1.1,0.2-2.2,0.3-3.4c0.2-1.1,0.3-2.2,0.6-3.3c0.5-2.2,1.3-4.2,2.2-6.1c0.9-1.9,2-3.6,3.1-5.2c1.2-1.5,2.4-2.9,3.5-4.1
			c2.4-2.3,4.7-3.9,6.3-5C-61.9,59.2-60.9,58.8-60.9,58.8z"/>
		<path id="XMLID_110_" class="st10" d="M-54.8,122.1c0,0-8.1-7.8-17.1,0.8c-9.8,9.2,2.6,36.5,16.4,33.8c0,0,3-0.6,4.1-3.9
			C-50.3,149.5-54.8,122.1-54.8,122.1z"/>
		<path id="XMLID_109_" class="st1" d="M-67.5,100.9c0,0-2.7,15.2-2.8,38.4c0,24.6,19,56.9,45.5,57c41.4,0.1,65.9-24,68.8-56.5
			s13.4-79.2-19.9-95.3C-10.5,27.8-67,43.7-67.5,100.9z"/>
		<path id="XMLID_108_" class="st1" d="M38,119.4c0,0,8.1-7.8,17.1,0.8c9.8,9.2-2.6,36.5-16.4,33.8c0,0-3-0.6-4.1-3.9
			C33.5,146.8,38,119.4,38,119.4z"/>
		<path id="XMLID_106_" class="st15" d="M48.8,117.4L45,120l-5,11.5c0,0-7.8-7.1-7-19.4l0,0c-0.5-0.4-17.3-14.9-12.4-41.1
			c0,0-89.2,56.4-97.7-48c0,0,15.7,14.8,47.4,5C6.7,16.7,26.1,40.7,27,41.9l0,0L28,31l10.2,9.5l-7.6,3c0,0,23.5,2.8,29.8,28.8
			C67.1,100.8,48.8,117.4,48.8,117.4z"/>
		<path id="XMLID_105_" class="st16" d="M8.5,77.2c-2.5,1-4.9,1.9-7.4,2.8c-2.5,0.8-5,1.7-7.6,2.3c-2.5,0.7-5.1,1.3-7.7,1.8
			s-5.2,0.9-7.8,1.1c-1.3,0.1-2.6,0.2-3.9,0.2c-1.3,0.1-2.6,0.1-3.9,0c-2.6,0-5.2-0.4-7.8-0.8c-2.6-0.5-5.1-1.1-7.6-2.1
			c-1.2-0.5-2.4-0.9-3.6-1.6c-0.6-0.3-1.2-0.6-1.8-0.9l-1.7-1.1c-1.1-0.7-2.2-1.5-3.2-2.3c-1.1-0.8-2-1.7-2.9-2.6
			c-1.9-1.9-3.5-3.9-5-6.1c-0.8-1-1.4-2.2-2.1-3.4l-1-1.7l-0.9-1.8c-1.2-2.3-2.1-4.8-3-7.3c-0.8-2.5-1.7-5-2.2-7.6
			c-0.3-1.3-0.7-2.5-0.9-3.8l-0.8-3.9c-0.6-2.6-0.8-5.2-1.2-7.8l-0.6-6c0.3,0.2,0.7,0.5,1,0.7c0.9,0.6,1.8,1.1,2.7,1.6
			c0.9,0.5,1.9,1,2.9,1.3c1,0.4,2,0.8,2.9,1.1c1,0.4,2,0.6,3,0.9s2,0.5,3.1,0.7c1,0.2,2.1,0.4,3.1,0.5c1,0.1,2.1,0.3,3.1,0.3
			l3.1,0.1c1,0,2.1-0.1,3.1-0.1c1-0.1,2.1-0.1,3.1-0.3l3.1-0.4c1-0.1,2-0.4,3.1-0.6l3-0.7c2-0.6,4-1.2,5.9-1.8v-0.1
			c-2,0.5-4,1-6,1.4l-3,0.5c-1,0.2-2,0.4-3,0.5l-3.1,0.4c-1,0.1-2,0.1-3.1,0.1c-1,0-2,0.1-3.1,0l-3.1-0.2c-1,0-2-0.2-3-0.3
			s-2-0.3-3-0.5s-2-0.4-3-0.7c-1-0.3-2-0.5-2.9-0.9c-1-0.3-1.9-0.7-2.8-1.1c-0.9-0.4-1.8-0.8-2.7-1.3c-0.9-0.5-1.8-1-2.6-1.5
			c-0.8-0.5-1.7-1.2-2.4-1.8l-1.5-1.4l0.2,2.1c0.3,2.6,0.5,5.3,0.9,7.9c0.5,2.6,0.7,5.3,1.3,7.9l0.8,3.9c0.3,1.3,0.7,2.6,1,3.9
			c0.6,2.6,1.6,5.1,2.5,7.6c1.1,2.5,2.1,4.9,3.4,7.3l0.9,1.8l1.1,1.7c0.7,1.1,1.4,2.3,2.2,3.3c1.5,2.2,3.3,4.2,5.2,6.1
			c1,0.9,1.9,1.9,2.9,2.7s2.1,1.7,3.2,2.4l1.7,1.1l1.7,1c1.1,0.7,2.4,1.2,3.6,1.8c2.5,1.1,5,1.8,7.7,2.5c2.6,0.5,5.3,0.9,8,1
			s5.4,0,8-0.2c2.7-0.3,5.3-0.7,7.9-1.2c2.6-0.6,5.2-1.2,7.7-2c5.1-1.6,10-3.6,14.8-6L8.5,77.2z"/>
		<path id="XMLID_104_" class="st15" d="M-21.9,102.5c0,0-0.1-5.1,3.6-8.7c9.5-3,14.1-2.7,23.2,2.9c0,0-2.6-1-5.9-0.8
			c-4.2,0.3-9.7,0.8-12.3,1.3C-19.1,98.5-21.9,102.5-21.9,102.5z"/>
		<path id="XMLID_103_" class="st15" d="M-44.8,102.7c0,0,0.5-5-2.6-7.8c-6.8-2.8-10.3-3.5-18.4,2.8c0,0,2.1-1.1,4.7-0.9
			c3.4,0.2,7.6,0.5,9.7,1C-46.9,98.7-44.8,102.7-44.8,102.7z"/>
		<g id="XMLID_14_">
			<path id="XMLID_101_" class="st17" d="M-45.5,117.2c0,0-1.2-9.8-7.6-10.2c-6.4-0.4-9.6,9.6-9.6,9.6s1.8,2.5,7.6,3.4
				C-49.4,120.9-45.5,117.2-45.5,117.2z"/>
			<g id="XMLID_4_">
				<path id="XMLID_100_" class="st15" d="M-49,113.9c0.1,3-1.9,5.6-4.5,5.7s-4.9-2.3-5-5.3s1.9-5.6,4.5-5.7S-49.1,110.9-49,113.9z"
					/>
			</g>
		</g>
		<g id="XMLID_10_">
			<path id="XMLID_95_" class="st17" d="M-18,117.5c0,0,1.2-9.8,7.6-10.2c6.4-0.4,9.6,9.6,9.6,9.6s-1.8,2.5-7.6,3.4
				C-14.1,121.2-18,117.5-18,117.5z"/>
			<g id="XMLID_3_">
				<path id="XMLID_94_" class="st15" d="M-14.6,114.3c-0.1,3,1.9,5.6,4.5,5.7s4.9-2.3,5-5.3s-1.9-5.6-4.5-5.7
					S-14.4,111.3-14.6,114.3z"/>
			</g>
		</g>
		<path id="XMLID_87_" class="st6" d="M-34.6,142.4c0,0-11.7,2.8-11.2-6.5C-45.8,135.8-42.6,141.2-34.6,142.4z"/>
		<path id="XMLID_86_" class="st16" d="M33,112.1c-0.5-0.4-17.3-14.9-12.4-41.1C20.5,71.2,20.5,90.2,33,112.1z"/>
		<path id="XMLID_85_" class="st6" d="M40.6,140.6c0,0,0.7-5.7,3.4-6.4c2.7-0.7,3.7-0.3,5-3.4c1.3-3.2,2.3,2.3,0.7,5.4
			c-1.6,3.1-4.4,2.6-5.8,3S40.6,140.6,40.6,140.6z"/>
	</g>
</g>
<path id="XMLID_2_" class="st18" d="M-46.7,166.2c0,0,15.1-15.7,28.7-4.6C-18,161.7-33,159.2-46.7,166.2z"/>
</svg>
