<?xml version="1.0" encoding="utf-8"?>
<!-- Generator: Adobe Illustrator 19.0.0, SVG Export Plug-In . SVG Version: 6.00 Build 0)  -->
<svg version="1.1" id="Layer_1" xmlns="http://www.w3.org/2000/svg" xmlns:xlink="http://www.w3.org/1999/xlink" x="0px" y="0px"
	 viewBox="0 0 560 560" style="enable-background:new 0 0 560 560;" xml:space="preserve">
<style type="text/css">
	.st0{clip-path:url(#XMLID_54_);}
	.st1{fill:#C3AB96;}
	.st2{fill:#DABFA2;}
	.st3{fill:#E7CCAC;}
	.st4{fill:#F4D7B2;}
	.st5{opacity:0.2;fill:#F1F1F1;}
	.st6{opacity:0.1;}
	.st7{fill:#F1F1F1;}
	.st8{fill:#44495B;}
	.st9{fill:none;stroke:#000000;stroke-width:0.9459;stroke-miterlimit:10;}
	.st10{fill:#E2C810;}
	.st11{fill:#5B4D4B;}
	.st12{fill:none;stroke:#000000;stroke-width:0.8637;stroke-miterlimit:10;}
	.st13{opacity:0.3;fill:#F1F1F1;}
	.st14{fill:#0F603A;}
	.st15{font-family:'MyriadPro-Regular';}
	.st16{font-size:148px;}
</style>
<g id="XMLID_55_">
	<defs>
		
			<rect id="XMLID_2_" x="-51.6" y="-51.6" transform="matrix(-0.9999 -1.214793e-02 1.214793e-02 -0.9999 556.5779 563.3807)" width="663.2" height="663.2"/>
	</defs>
	<clipPath id="XMLID_54_">
		<use xlink:href="#XMLID_2_"  style="overflow:visible;"/>
	</clipPath>
	<g id="XMLID_93_" class="st0">
		<g id="XMLID_108_">
			<g id="XMLID_127_">
				<path id="XMLID_53_" class="st1" d="M269.6,492c1.5,9.6,10.5,14.1,20.1,12.7c0,0,35.5-0.2,47.3-5.9c12.3-5.9,18.1-5.6,16.7-15.3
					l0,0c-1.5-9.6-10.5-16.3-20.1-14.8l-67,8.7C257,478.8,268.1,482.3,269.6,492L269.6,492z"/>
				<path id="XMLID_52_" class="st1" d="M234.8,486.2c-1.1,7.2,1.4,8.8,11.4,11.6c16.2,4.5,28.6,5.6,38.3,6.9
					c7.2,0.9,12.5-2.3,13.6-9.5l0,0c1.1-7.2-3.8-14-11.1-15.1l-37.1-4.9C242.6,474,235.9,478.9,234.8,486.2L234.8,486.2z"/>
				<path id="XMLID_51_" class="st1" d="M210.9,487c13.5,5.2,23.8,7.6,31.9,9.7c6.1,1.5,10.9-0.7,12.6-6.8l0,0
					c1.7-6-1.6-13.3-7.7-15c0,0-4-1.4-12.9-3.5c-15.3-3.7-28.9,1.3-30.3,6.3C203.4,481.8,203.7,484.2,210.9,487z"/>
			</g>
			<g id="XMLID_123_">
				<path id="XMLID_50_" class="st2" d="M261.5,494.1c1.5,9.6,10.5,14.1,20.1,12.7c0,0,35.5-0.2,47.3-5.9
					c12.3-5.9,18.1-5.6,16.7-15.3l0,0c-1.5-9.6-10.5-16.3-20.1-14.8l-67,8.7C248.9,480.9,260,484.5,261.5,494.1L261.5,494.1z"/>
				<path id="XMLID_49_" class="st2" d="M226.7,488.3c-1.1,7.2,1.4,8.8,11.4,11.6c16.2,4.5,28.6,5.6,38.3,6.9
					c7.2,0.9,12.5-2.3,13.6-9.5l0,0c1.1-7.2-3.8-14-11.1-15.1l-37.1-4.9C234.5,476.1,227.8,481.1,226.7,488.3L226.7,488.3z"/>
				<path id="XMLID_48_" class="st2" d="M202.8,489.1c13.5,5.2,23.8,7.6,31.9,9.7c6.1,1.5,10.9-0.7,12.6-6.8l0,0
					c1.7-6-1.6-13.3-7.7-15c0,0-4-1.4-12.9-3.5c-15.3-3.7-28.9,1.3-30.3,6.3C195.3,483.9,195.6,486.4,202.8,489.1z"/>
			</g>
			<g id="XMLID_119_">
				<path id="XMLID_47_" class="st3" d="M253.8,501c1.5,9.6,10.5,14.1,20.1,12.7c0,0,37.7-3.9,49.5-9.6c12.3-5.9,15.9-1.9,14.5-11.6
					l0,0c-1.5-9.6-10.5-16.3-20.1-14.8l-67,8.7C241.2,487.8,252.3,491.3,253.8,501L253.8,501z"/>
				<path id="XMLID_46_" class="st3" d="M218.9,495.2c-1.1,7.2,1.4,8.8,11.4,11.6c16.2,4.5,28.6,5.6,38.3,6.9
					c7.2,0.9,12.5-2.3,13.6-9.5l0,0c1.1-7.2-3.8-14-11.1-15.1l-37.1-4.9C226.8,483,220.1,488,218.9,495.2L218.9,495.2z"/>
				<path id="XMLID_45_" class="st3" d="M195.1,496c13.5,5.2,23.8,7.6,31.9,9.7c6.1,1.5,10.9-0.7,12.6-6.8l0,0
					c1.7-6-1.6-13.3-7.7-15c0,0-4-1.4-12.9-3.5c-15.3-3.7-28.9,1.3-30.3,6.3C187.6,490.8,187.9,493.3,195.1,496z"/>
			</g>
			<path id="XMLID_44_" class="st4" d="M309.5,502.9c0.5,7.6,5.1,1.7,12.8,1.2l85.5-1.1c7.6-0.5,13.5-0.1,13-7.7l-3-44
				c-0.5-7.6-7.2-16-11.7-10l-84,10c-10.6-4.9-16.1,1.8-15.5,9.4L309.5,502.9z"/>
			<g id="XMLID_114_">
				<path id="XMLID_43_" class="st4" d="M262.2,449.6c0.1,7.6,5.8,6.6,14,6.3c8.4-0.4,33.7,7.9,33.7,7.9c7.6-0.1,28,3.5,27.9-4.1
					l-2.8-1.4c-4.2-7.5-9.2-14.2-21.8-17.7c-8.1-2.3-24.1-4.9-35.3-4.4C270.4,436.5,262.1,442,262.2,449.6L262.2,449.6z"/>
				<path id="XMLID_42_" class="st4" d="M271.7,455.9l10.9-0.8c5.9-0.9,7.4-0.6,6.2-8.1l0,0c-1.2-7.5-6.7-11.6-12.5-10.7l-26.1,3.8
					c-5.9,0.9-8.3,8.2-3.2,12.6C252,457,259.1,458.1,271.7,455.9z"/>
				<path id="XMLID_41_" class="st4" d="M293.5,471.4c-0.2-8.2-6.2-15.6-13-15.4c1.2-1.8,1.3-0.6,2.8-2.3l6.8-6.1
					c4.4-0.1,8.7-0.4,13.1-0.7c4.8,0.2,9.7,2.2,14.6,2.3l12.6,32.2l-4.4,19.7l-56.6-11.3C281.4,487.4,293.8,481.6,293.5,471.4z"/>
			</g>
			<g id="XMLID_110_">
				<path id="XMLID_40_" class="st4" d="M250.6,505.3c1.9,8,11.1,11.4,20.6,9.7c0,0,37.6-5.4,49.2-10.6c12-5.4,15.7-1.7,13.8-9.8
					l0,0c-1.9-8-11.1-13.2-20.7-11.5l-66.6,10.1C237.5,494.8,248.8,497.3,250.6,505.3L250.6,505.3z"/>
				<path id="XMLID_39_" class="st4" d="M215.6,501.9c-0.8,6.1,1.8,7.3,11.8,9.2c16.4,3.1,28.8,3.5,38.5,4.1
					c7.3,0.5,12.4-2.5,13.2-8.5l0,0c0.8-6.1-4.4-11.5-11.7-12.1l-37.3-2.5C223,491.4,216.4,495.8,215.6,501.9L215.6,501.9z"/>
				<path id="XMLID_38_" class="st4" d="M191.8,503.6c13.7,3.7,24.1,5.4,32.3,6.7c6.1,1,10.9-1.1,12.3-6.2l0,0
					c1.4-5.1-2.2-11-8.3-12.2c0,0-4.1-1-13.1-2.4c-15.4-2.4-28.9,2.3-30,6.5C184.1,499.5,184.5,501.6,191.8,503.6z"/>
			</g>
			<path id="XMLID_37_" class="st5" d="M262.6,438.2c1.2,0.3,2,0.8,2,1.4c0.1,1.3-3.3,2.8-7.6,3.2c-4.3,0.4-8-0.3-8.1-1.6
				c0-0.3,0.1-0.7,0.5-1c0.3-0.1,0.5-0.1,0.8-0.2L262.6,438.2z"/>
		</g>
		<path id="XMLID_36_" class="st6" d="M340.5,449.1l65.6-7.8c4.6-5.9,11.2,2.4,11.7,10l3,44c0.5,7.6-5.4,7.1-13,7.7l-60.3,0.8
			L340.5,449.1z"/>
		<polygon id="XMLID_35_" class="st7" points="354.4,513.2 552.7,513.7 545.3,423.4 345.1,440.9 		"/>
		<polygon id="XMLID_34_" class="st6" points="376.9,509.3 556.3,513.4 549.6,421.9 367.3,440.3 		"/>
		<polygon id="XMLID_33_" class="st8" points="366.1,520 556.5,516.3 549,414.8 354.9,432.9 		"/>
		<polygon id="XMLID_32_" class="st6" points="366.1,520 556.5,516.3 553,488.8 363.5,491 		"/>
		<g id="XMLID_101_">
			<circle id="XMLID_31_" class="st7" cx="379.7" cy="507.1" r="5.3"/>
		</g>
		<path id="XMLID_30_" class="st9" d="M289.4,480.6"/>
		<g id="XMLID_29_">
			<path id="XMLID_64_" class="st1" d="M290.8,479.1c-0.4,0.9-1.1,1.6-1.7,2.4c-0.7,0.7-1.4,1.4-2.1,2c-0.4,0.3-0.8,0.6-1.2,0.9
				c-0.4,0.3-0.8,0.6-1.2,0.8c-0.8,0.5-1.7,1-2.5,1.5c-0.9,0.4-1.8,0.9-2.7,1.2c-0.9,0.3-1.8,0.7-2.8,0.9c-0.9,0.3-1.9,0.6-2.8,0.8
				c-1,0.2-1.9,0.5-2.9,0.6c-1.9,0.4-3.8,0.7-5.7,0.9l-5.7,0.9l-5.7,0.9l-2.9,0.5c-0.9,0.2-1.9,0.3-2.8,0.5l-0.1,0l-0.1,0
				c-4.9-0.5-9.8-1-14.8-1.2c-1.2-0.1-2.5-0.1-3.7-0.1c-0.3,0-0.6,0-0.9,0l-0.4,0l-0.2,0l-0.1,0l0,0l0,0c-0.2,0-0.1,0-0.1,0l-0.1,0
				c-0.3,0-0.7-0.1-1-0.2l-0.9-0.2c-1.2-0.3-2.4-0.6-3.6-0.8c-1.2-0.3-2.4-0.5-3.6-0.7c-1.2-0.2-2.4-0.4-3.7-0.5
				c-1.2-0.2-2.4-0.3-3.7-0.4c-1.2-0.1-2.5-0.2-3.7-0.2c-1.2,0-2.5-0.1-3.7,0c-1.2,0.1-2.5,0.1-3.7,0.2c-0.6,0.1-1.2,0.1-1.8,0.2
				l-1.8,0.3c-1.2,0.2-2.4,0.5-3.6,0.9c-0.6,0.1-1.2,0.4-1.7,0.6l-1.7,0.7l1.7-0.8c0.6-0.3,1.1-0.6,1.7-0.8c1.2-0.4,2.3-0.9,3.6-1.1
				l1.8-0.4c0.6-0.1,1.2-0.2,1.8-0.3c0.6-0.1,1.2-0.2,1.9-0.3c0.6-0.1,1.2-0.1,1.9-0.1c1.2-0.1,2.5,0,3.7,0c1.2,0,2.5,0.1,3.7,0.2
				c1.2,0.1,2.5,0.2,3.7,0.4c1.2,0.2,2.5,0.3,3.7,0.6c1.2,0.2,2.4,0.4,3.7,0.7c1.2,0.3,2.4,0.5,3.6,0.8l0.9,0.2
				c0.3,0.1,0.5,0.2,0.8,0.2l0.1,0c0,0,0.1,0-0.1,0l0,0l0,0l0.1,0l0.2,0l0.5,0c0.3,0,0.6,0,0.9,0c1.3,0,2.5,0,3.7,0.1
				c5,0.2,9.9,0.7,14.8,1.2l-0.2,0c1-0.2,1.9-0.4,2.9-0.5l2.9-0.5l5.7-0.9l5.7-0.9c1.9-0.3,3.8-0.6,5.7-0.9c1-0.1,1.9-0.4,2.8-0.6
				c0.9-0.2,1.9-0.5,2.8-0.8c0.9-0.2,1.8-0.6,2.7-0.9c0.5-0.2,0.9-0.4,1.3-0.5c0.4-0.2,0.9-0.3,1.3-0.5c0.9-0.4,1.8-0.8,2.6-1.2
				c0.4-0.2,0.8-0.4,1.2-0.7c0.4-0.3,0.8-0.5,1.2-0.8c0.8-0.5,1.5-1.1,2.2-1.8C289.6,480.6,290.2,479.9,290.8,479.1z"/>
		</g>
		<g id="XMLID_28_">
			<path id="XMLID_62_" class="st1" d="M188.8,486.3c0.3-0.9,1-1.6,1.7-2.3c0.7-0.6,1.5-1.2,2.4-1.6c0.8-0.5,1.7-0.9,2.6-1.2
				c0.9-0.3,1.8-0.7,2.7-0.9c1.8-0.6,3.7-0.8,5.6-1.1c1-0.1,1.9-0.2,2.9-0.3c1,0,1.9-0.1,2.9-0.1c1,0,1.9,0,2.9,0.1
				c1,0,1.9,0.2,2.9,0.3c1.9,0.2,3.8,0.6,5.7,1c0.9,0.2,1.9,0.5,2.8,0.7c0.9,0.3,1.8,0.5,2.7,0.8l2.7,0.9c0.9,0.3,1.8,0.6,2.7,0.8
				l-0.1,0l18.9,2.4l-0.1,0l17.5-2.3l4.4-0.6c1.5-0.2,2.9-0.3,4.4-0.4l8.8-0.8l-8.7,1.5c-1.4,0.2-2.9,0.5-4.3,0.7l-4.4,0.6
				l-17.4,2.3l-0.1,0l-0.1,0l-18.9-2.4l0,0l0,0c-1-0.2-1.9-0.6-2.8-0.9l-2.7-0.9c-0.9-0.3-1.8-0.6-2.7-0.8c-0.9-0.2-1.8-0.5-2.7-0.7
				c-1.8-0.4-3.7-0.7-5.5-1c-0.9-0.1-1.9-0.2-2.8-0.3c-0.9-0.1-1.9-0.1-2.8-0.1c-0.9,0-1.9,0.1-2.8,0.1c-0.9,0.1-1.9,0.2-2.8,0.3
				c-0.9,0.2-1.9,0.3-2.8,0.5l-2.8,0.6c-0.9,0.2-1.8,0.4-2.7,0.7c-0.9,0.3-1.8,0.6-2.6,1c-0.8,0.4-1.7,0.9-2.4,1.4
				C190,484.8,189.3,485.5,188.8,486.3z"/>
		</g>
	</g>
	<g id="XMLID_57_" class="st0">
		<path id="XMLID_27_" class="st3" d="M262.2,144.1c-0.7,5.4,3.1,10.2,8.5,10.9l46.2,5.8c5.4,0.7,10.2-3.1,10.9-8.5l0,0
			c0.7-5.4-3.1-10.2-8.5-10.9l-46.2-5.8C267.7,135,262.8,138.8,262.2,144.1L262.2,144.1z"/>
		<polygon id="XMLID_26_" class="st10" points="251.9,80.8 291,75.9 303.1,37.6 230.9,46.7 		"/>
		<g id="XMLID_88_">
			<path id="XMLID_25_" class="st2" d="M234.7,140.2c-0.1,8.6,7.2,14.8,15.6,16.4c12.3,2.3,33.2,0.5,33.2,0.5
				c6.2,1.3,4.5-9.6,5.4-18.1c2.7-27,7.1-51.2,7.1-51.2c0.1-8.6-3.9-11.7-12.4-11.7l-32.9,0.4c-8.6-0.1-15.6,6.8-15.6,15.4
				L234.7,140.2z"/>
			<path id="XMLID_24_" class="st3" d="M262.6,130.1c1,8-6.4,22.3-14.5,23.3l-59.9,0.7c-8,1-15.4-4.7-16.4-12.7l-2.8-22.5
				c-1-8,4.7-15.4,12.7-16.4l62.9-13.5c8-1,14.1,10.5,15.1,18.5L262.6,130.1z"/>
		</g>
		<g id="XMLID_86_" class="st6">
			<path id="XMLID_23_" d="M254.4,129.9c2.5-10.1,0.9-24.6,4.9-30.3c1.1,15.7,12.8,59.2-11.4,56.3c0.4-3.4,2.2-8.2,2.9-11
				C251.7,141.6,253.3,134.4,254.4,129.9z"/>
		</g>
		<path id="XMLID_22_" class="st6" d="M181.8,102.6l45-9.6c-3.9,3.6-4,9.6-3.9,14.5c0.1,21,2,40.9,12,46.2l-46.7,0.6
			c-8,1-15.4-4.7-16.4-12.7l-2.8-22.5C168.1,110.9,173.8,103.6,181.8,102.6z"/>
		<path id="XMLID_21_" class="st10" d="M172.9,327.6c9.2,73.2,58.7,85.6,113,78.8c54.3-6.8,92-30.2,82.8-103.4
			c-6.3-50.6-86.7-155-86.7-155l-23.4-5.5C258.7,142.5,165.7,270.1,172.9,327.6z"/>
		<g id="XMLID_77_">
			<polygon id="XMLID_20_" class="st7" points="223,156.1 22.3,195.3 11.1,105.8 219.4,89.6 			"/>
			<polygon id="XMLID_18_" class="st11" points="213.6,164.1 6.7,200.3 10.5,100.7 209.4,84 			"/>
			<polygon id="XMLID_17_" class="st6" points="213.6,164.1 6.7,200.3 8.2,162.5 212.3,139.1 			"/>
			<g id="XMLID_78_">
				<circle id="XMLID_16_" class="st7" cx="199.2" cy="154.7" r="4.8"/>
			</g>
		</g>
		<path id="XMLID_15_" class="st12" d="M234.4,121.3"/>
		<path id="XMLID_14_" class="st10" d="M246,164.6c20.6-44.9,8.6-84.2,8.6-84.2l37.5-3.1c0,0-15.3,59.1-4.1,78.7
			C294.8,167.8,241.9,173.6,246,164.6z"/>
		<path id="XMLID_13_" class="st3" d="M268,122.6c-0.7,6,3.5,11.4,9.5,12.1l20.5,2.5c6,0.7,11.4-3.5,12.1-9.5l0,0
			c0.7-6-3.5-11.4-9.5-12.1l-20.5-2.5C274.2,112.4,268.8,116.6,268,122.6L268,122.6z"/>
		<g id="XMLID_72_">
			<path id="XMLID_12_" class="st6" d="M172.9,327.6c-2.9-22.9,10.2-57,27-89.7c-10.8,26.8-18.6,53.5-16.3,72.2
				c10.1,81,64.9,93.8,125,86.3c10.1-1.3,19.7-3.1,28.6-5.5c-13.9,8.5-31.5,13.2-51.2,15.6C231.6,413.2,182.1,400.8,172.9,327.6z"/>
		</g>
		<path id="XMLID_11_" class="st3" d="M272.7,99.7c-0.7,6,3.5,11.4,9.5,12.1l20.5,2.5c6,0.7,11.4-3.5,12.1-9.5l0,0
			c0.7-6-3.5-11.4-9.5-12.1l-20.5-2.5C278.9,89.5,273.5,93.7,272.7,99.7L272.7,99.7z"/>
		<path id="XMLID_10_" class="st3" d="M273.5,79.3c0,6,4.8,10.9,10.8,10.9l20.6,0.1c6,0,10.9-4.8,10.9-10.8l0,0
			c0-6-4.8-10.9-10.8-10.9l-20.6-0.1C278.5,68.5,273.6,73.3,273.5,79.3L273.5,79.3z"/>
		<path id="XMLID_9_" class="st4" d="M235.7,92.7c2.7,5.4,9.2,7.6,14.6,5L270.7,87c5.4-2.7,7.6-9.2,5-14.6l0,0
			c-2.7-5.4-9.2-7.6-14.6-5l-20.5,10.7C235.2,80.8,233,87.4,235.7,92.7L235.7,92.7z"/>
		<circle id="XMLID_8_" class="st13" cx="283.2" cy="101" r="7.8"/>
		<circle id="XMLID_7_" class="st13" cx="284.2" cy="79.8" r="7.8"/>
		<path id="XMLID_6_" class="st4" d="M240.1,122.7c6,0.8,11.4-3.5,12.2-9.4l2.4-23c0.8-6-3.5-11.4-9.4-12.2l0,0
			c-6-0.8-11.4,3.5-12.2,9.4l-2.4,23C229.9,116.5,234.2,122,240.1,122.7L240.1,122.7z"/>
		<path id="XMLID_5_" class="st4" d="M286.5,101.8c4.9-3.5,6-10.3,2.4-15.2l-12.1-16.7c-3.5-4.9-10.3-6-15.2-2.4l0,0
			c-4.9,3.5-6,10.3-2.4,15.2l12.1,16.7C274.9,104.3,281.7,105.4,286.5,101.8L286.5,101.8z"/>
		<circle id="XMLID_4_" class="st13" cx="279" cy="124" r="7.8"/>
		<circle id="XMLID_3_" class="st13" cx="283.1" cy="90.3" r="5.9"/>
	</g>
</g>
<text id="XMLID_1_" transform="matrix(1 0 0 1 235.9336 343.5367)" class="st14 st15 st16">$</text>
</svg>
