<?xml version="1.0" encoding="utf-8"?>
<!-- Generator: Adobe Illustrator 19.0.0, SVG Export Plug-In . SVG Version: 6.00 Build 0)  -->
<svg version="1.1" id="Layer_1" xmlns="http://www.w3.org/2000/svg" xmlns:xlink="http://www.w3.org/1999/xlink" x="0px" y="0px"
	 viewBox="0 0 560 560" style="enable-background:new 0 0 560 560;" xml:space="preserve">
<style type="text/css">
	.st0{fill-rule:evenodd;clip-rule:evenodd;fill:#FFFFFF;}
	.st1{fill-rule:evenodd;clip-rule:evenodd;fill:#F1F1F1;}
	.st2{opacity:0.15;}
	.st3{fill-rule:evenodd;clip-rule:evenodd;}
	.st4{fill-rule:evenodd;clip-rule:evenodd;fill:#F8F8F8;}
	.st5{fill:#FFFFFF;}
	.st6{fill:#55524E;}
	.st7{fill:none;stroke:#5A5853;stroke-width:0.9947;stroke-miterlimit:10;}
	.st8{fill:none;}
	.st9{fill:#545A62;}
	.st10{fill:#3B4046;}
	.st11{fill-rule:evenodd;clip-rule:evenodd;fill:#DDC5AE;}
</style>
<g>
	<g>
		<g>
			<g>
				<g>
					<path id="XMLID_510_" class="st0" d="M205.3,117.5c0,0,23.7-9.6,37.3-27.8c0,0,21.4,17.8,46.9,11.4c0,0-8.7,12.3-15.5,16.4
						c0,0,4.1,24.6-26.6,19.1C247.4,136.6,229.4,132.5,205.3,117.5z"/>
					<path id="XMLID_509_" class="st1" d="M272.9,116.7c0,0,22.5-20.2,26.1-27c0,0,11.9,5-10.2,27.1c-16.6,16.6-19.7,16.3-19.7,16.3
						S274.9,125.1,272.9,116.7z"/>
				</g>
				<path id="XMLID_508_" class="st0" d="M94.9,242.4c0,0-28-11.5-43.9-30.4c0,0-18.5,17.9-24.6,20.2c0,0,9.9,15.9,38.7,28.1
					C65,260.2,88.8,243.9,94.9,242.4z"/>
				<path id="XMLID_507_" class="st0" d="M279.2,207.4c0,0,28-11.5,43.9-30.4c0,0,18.5,17.9,24.6,20.2c0,0-9.9,15.9-38.7,28.1
					C309,225.3,285.3,209,279.2,207.4z"/>
				<path id="XMLID_506_" class="st0" d="M127,0c0,0-13.1,16.3-28.8,23.2c0,0,8.3,15.8,8.6,20.3c0,0,12.5-3.4,26.2-20.2
					C133,23.3,126.8,4.3,127,0z"/>
				<path id="XMLID_505_" class="st0" d="M412,64.6c0,0,24.6-10.1,38.7-26.8c0,0,16.3,15.8,21.7,17.8c0,0-8.7,14-34,24.7
					C438.3,80.3,417.4,66,412,64.6z"/>
			</g>
			<g>
				<g id="XMLID_504_">
					<g id="XMLID_270_" class="st2">
						<path id="XMLID_275_" class="st3" d="M185,331.8l-39.2-15.4c0,0-19.6,29.3-48.4,46l31.7,30C129.2,392.3,168.6,373.8,185,331.8
							z"/>
					</g>
					<g id="XMLID_261_">
						<path id="XMLID_269_" class="st4" d="M180,326.8l-39.2-15.4c0,0-19.6,29.3-48.4,46l31.7,30C124.2,387.3,163.6,368.8,180,326.8
							z"/>
					</g>
				</g>
				<g id="XMLID_503_">
					<g id="XMLID_267_" class="st2">
						<path id="XMLID_553_" class="st3" d="M99.9,307.2l-34-13.4c0,0-17,25.5-42,39.9l27.5,26C51.3,359.8,85.6,343.8,99.9,307.2z"/>
					</g>
					<g id="XMLID_260_">
						<path id="XMLID_265_" class="st4" d="M95.5,302.9l-34-13.4c0,0-17,25.5-42,39.9l27.5,26C47,355.4,81.3,339.4,95.5,302.9z"/>
					</g>
				</g>
				<g id="XMLID_502_">
					<g id="XMLID_254_" class="st2">
						<path id="XMLID_258_" class="st3" d="M117.8,377.5l34-13.4c0,0,17,25.5,42,39.9l-27.5,26C166.4,430.1,132.1,414.1,117.8,377.5
							z"/>
					</g>
					<g id="XMLID_247_">
						<path id="XMLID_253_" class="st0" d="M113.5,373.2l34-13.4c0,0,17,25.5,42,39.9l-27.5,26C162,425.8,127.8,409.8,113.5,373.2z"
							/>
					</g>
				</g>
				<g>
					<g>
						<g>
							<g class="st2">
								<path id="XMLID_501_" d="M4.5,404c9.5,12.2,19,24.4,28.5,36.6c9.9-15.2,19.7-30.4,29.6-45.7c-9.5-12.2-19-24.4-28.5-36.6
									C24.3,373.6,14.4,388.8,4.5,404z"/>
							</g>
							<g>
								<path id="XMLID_500_" class="st5" d="M4,403.3c9.5,12.2,19,24.4,28.5,36.6c9.9-15.2,19.7-30.4,29.6-45.7
									c-9.5-12.2-19-24.4-28.5-36.6C23.8,372.9,13.9,388.1,4,403.3z"/>
							</g>
						</g>
						<g>
							<g>
								<path id="XMLID_499_" class="st6" d="M35.1,368.2c6.7,8.7,13.5,17.3,20.2,26c0.1-0.1,0.1-0.2,0.2-0.3
									c-6.7-8.7-13.5-17.3-20.2-26C35.2,368,35.2,368.1,35.1,368.2z"/>
							</g>
							<g>
								<path id="XMLID_498_" class="st6" d="M32.2,372.6c6.7,8.7,13.5,17.3,20.2,26c0.1-0.1,0.1-0.2,0.2-0.3
									c-6.7-8.7-13.5-17.3-20.2-26C32.3,372.4,32.3,372.5,32.2,372.6z"/>
							</g>
							<g>
								<path id="XMLID_497_" class="st6" d="M29.4,377c6.7,8.7,13.5,17.3,20.2,26c0.1-0.1,0.1-0.2,0.2-0.3
									c-6.7-8.7-13.5-17.3-20.2-26C29.5,376.9,29.4,376.9,29.4,377z"/>
							</g>
							<g>
								<path id="XMLID_496_" class="st6" d="M26.5,381.4c6.7,8.7,13.5,17.3,20.2,26c0.1-0.1,0.1-0.2,0.2-0.3
									c-6.7-8.7-13.5-17.3-20.2-26C26.6,381.3,26.6,381.3,26.5,381.4z"/>
							</g>
							<g>
								<path id="XMLID_495_" class="st6" d="M23.7,385.8c6.7,8.7,13.5,17.3,20.2,26c0.1-0.1,0.1-0.2,0.2-0.3
									c-6.7-8.7-13.5-17.3-20.2-26C23.8,385.7,23.7,385.7,23.7,385.8z"/>
							</g>
							<g>
								<path id="XMLID_494_" class="st6" d="M20.8,390.2c6.7,8.7,13.5,17.3,20.2,26c0.1-0.1,0.1-0.2,0.2-0.3
									c-6.7-8.7-13.5-17.3-20.2-26C20.9,390.1,20.9,390.1,20.8,390.2z"/>
							</g>
							<g>
								<path id="XMLID_493_" class="st6" d="M17.9,394.7c6.7,8.7,13.5,17.3,20.2,26c0.1-0.1,0.1-0.2,0.2-0.3
									c-6.7-8.7-13.5-17.3-20.2-26C18,394.5,18,394.6,17.9,394.7z"/>
							</g>
							<g>
								<path id="XMLID_492_" class="st6" d="M15.1,399.1c6.7,8.7,13.5,17.3,20.2,26c0.1-0.1,0.1-0.2,0.2-0.3
									c-6.7-8.7-13.5-17.3-20.2-26C15.2,398.9,15.1,399,15.1,399.1z"/>
							</g>
							<g>
								<path id="XMLID_491_" class="st6" d="M12.2,403.5c6.7,8.7,13.5,17.3,20.2,26c0.1-0.1,0.1-0.2,0.2-0.3
									c-6.7-8.7-13.5-17.3-20.2-26C12.3,403.3,12.3,403.4,12.2,403.5z"/>
							</g>
						</g>
					</g>
				</g>
				<g>
					<g>
						<g>
							<g class="st2">
								<path id="XMLID_490_" d="M112.4,466.7c9.5,12.2,19,24.4,28.5,36.6c9.9-15.2,19.7-30.4,29.6-45.7
									c-9.5-12.2-19-24.4-28.5-36.6C132.1,436.2,122.2,451.5,112.4,466.7z"/>
							</g>
							<g>
								<path id="XMLID_489_" class="st5" d="M111.9,466c9.5,12.2,19,24.4,28.5,36.6c9.9-15.2,19.7-30.4,29.6-45.7
									c-9.5-12.2-19-24.4-28.5-36.6C131.6,435.6,121.7,450.8,111.9,466z"/>
							</g>
						</g>
						<g>
							<g>
								<path id="XMLID_488_" class="st6" d="M142.9,430.8c6.7,8.7,13.5,17.3,20.2,26c0.1-0.1,0.1-0.2,0.2-0.3
									c-6.7-8.7-13.5-17.3-20.2-26C143,430.7,143,430.7,142.9,430.8z"/>
							</g>
							<g>
								<path id="XMLID_487_" class="st6" d="M140.1,435.3c6.7,8.7,13.5,17.3,20.2,26c0.1-0.1,0.1-0.2,0.2-0.3
									c-6.7-8.7-13.5-17.3-20.2-26C140.2,435.1,140.1,435.2,140.1,435.3z"/>
							</g>
							<g>
								<path id="XMLID_486_" class="st6" d="M137.2,439.7c6.7,8.7,13.5,17.3,20.2,26c0.1-0.1,0.1-0.2,0.2-0.3
									c-6.7-8.7-13.5-17.3-20.2-26C137.3,439.5,137.3,439.6,137.2,439.7z"/>
							</g>
							<g>
								<path id="XMLID_485_" class="st6" d="M134.4,444.1c6.7,8.7,13.5,17.3,20.2,26c0.1-0.1,0.1-0.2,0.2-0.3
									c-6.7-8.7-13.5-17.3-20.2-26C134.5,443.9,134.4,444,134.4,444.1z"/>
							</g>
							<g>
								<path id="XMLID_484_" class="st6" d="M131.5,448.5c6.7,8.7,13.5,17.3,20.2,26c0.1-0.1,0.1-0.2,0.2-0.3
									c-6.7-8.7-13.5-17.3-20.2-26C131.6,448.4,131.6,448.4,131.5,448.5z"/>
							</g>
							<g>
								<path id="XMLID_483_" class="st6" d="M128.6,452.9c6.7,8.7,13.5,17.3,20.2,26c0.1-0.1,0.1-0.2,0.2-0.3
									c-6.7-8.7-13.5-17.3-20.2-26C128.7,452.8,128.7,452.8,128.6,452.9z"/>
							</g>
							<g>
								<path id="XMLID_482_" class="st6" d="M125.8,457.3c6.7,8.7,13.5,17.3,20.2,26c0.1-0.1,0.1-0.2,0.2-0.3
									c-6.7-8.7-13.5-17.3-20.2-26C125.9,457.2,125.8,457.2,125.8,457.3z"/>
							</g>
							<g>
								<path id="XMLID_481_" class="st6" d="M122.9,461.7c6.7,8.7,13.5,17.3,20.2,26c0.1-0.1,0.1-0.2,0.2-0.3
									c-6.7-8.7-13.5-17.3-20.2-26C123,461.6,123,461.6,122.9,461.7z"/>
							</g>
							<g>
								<path id="XMLID_480_" class="st6" d="M120.1,466.2c6.7,8.7,13.5,17.3,20.2,26c0.1-0.1,0.1-0.2,0.2-0.3
									c-6.7-8.7-13.5-17.3-20.2-26C120.2,466,120.1,466.1,120.1,466.2z"/>
							</g>
						</g>
					</g>
				</g>
				<g id="XMLID_479_">
					<g id="XMLID_548_" class="st2">
						<path id="XMLID_554_" class="st3" d="M4,470.2l21.2-26.7c0,0,20.7,20.9,44.6,18.7l-12.5,34.7C57.3,496.9,24.7,501.3,4,470.2z"
							/>
					</g>
					<g id="XMLID_257_">
						<path id="XMLID_539_" class="st1" d="M0,466.2l21.2-26.7c0,0,20.7,20.9,44.6,18.7l-12.5,34.7C53.3,492.9,20.7,497.3,0,466.2z"
							/>
					</g>
				</g>
				<g id="XMLID_478_">
					<g id="XMLID_538_" class="st2">
						<path id="XMLID_540_" class="st3" d="M85.2,403.6l21.2-26.7c0,0,20.7,20.9,44.6,18.7l-12.5,34.7
							C138.4,430.3,105.8,434.8,85.2,403.6z"/>
					</g>
					<g id="XMLID_248_">
						<path id="XMLID_536_" class="st0" d="M81.2,399.6l21.2-26.7c0,0,20.7,20.9,44.6,18.7l-12.5,34.7
							C134.4,426.3,101.8,430.8,81.2,399.6z"/>
					</g>
				</g>
				<g id="XMLID_477_">
					<g id="XMLID_552_" class="st2">
						<path id="XMLID_555_" class="st3" d="M49.7,402.5l21.2-26.7c0,0,20.7,20.9,44.6,18.7L103,429.2
							C103,429.2,70.3,433.6,49.7,402.5z"/>
					</g>
					<g id="XMLID_543_">
						<path id="XMLID_549_" class="st4" d="M45.7,398.5l21.2-26.7c0,0,20.7,20.9,44.6,18.7l-12.5,34.7
							C98.9,425.2,66.3,429.6,45.7,398.5z"/>
					</g>
				</g>
				<g id="XMLID_476_">
					<g id="XMLID_547_" class="st2">
						<path id="XMLID_551_" class="st3" d="M204.4,430.4l-21.2-26.7c0,0-20.7,20.9-44.6,18.7l12.5,34.7
							C151.1,457.1,183.7,461.6,204.4,430.4z"/>
					</g>
					<g id="XMLID_541_">
						<path id="XMLID_546_" class="st0" d="M200.4,426.4l-21.2-26.7c0,0-20.7,20.9-44.6,18.7l12.5,34.7
							C147.1,453.1,179.7,457.6,200.4,426.4z"/>
					</g>
				</g>
				<g id="XMLID_475_">
					<g id="XMLID_545_" class="st2">
						<path id="XMLID_550_" class="st3" d="M18.1,455.7l-4-33.9c0,0,29.4,0.1,44.7-18.4l15.8,33.3C74.5,436.7,54.7,463,18.1,455.7z"
							/>
					</g>
					<g id="XMLID_542_">
						<path id="XMLID_544_" class="st0" d="M14.1,451.7l-4-33.9c0,0,29.4,0.1,44.7-18.4l15.8,33.3C70.5,432.7,50.7,459,14.1,451.7z"
							/>
					</g>
				</g>
				<g id="XMLID_474_">
					<path id="XMLID_233_" class="st7" d="M182.2,343.4"/>
				</g>
				<g id="XMLID_473_">
					<path id="XMLID_228_" class="st7" d="M163.8,367.3"/>
				</g>
				<g id="XMLID_472_">
					<path id="XMLID_223_" class="st7" d="M188.3,348.1"/>
				</g>
				<g id="XMLID_471_">
					<path id="XMLID_214_" class="st7" d="M170,372"/>
				</g>
				<g id="XMLID_470_">
					<path id="XMLID_208_" class="st7" d="M194.4,352.8"/>
				</g>
				<g id="XMLID_469_">
					<path id="XMLID_192_" class="st7" d="M176.1,376.7"/>
				</g>
				<g id="XMLID_468_">
					<path id="XMLID_182_" class="st7" d="M200.5,357.4"/>
				</g>
				<g id="XMLID_467_">
					<path id="XMLID_169_" class="st7" d="M182.2,381.4"/>
				</g>
				<g id="XMLID_466_">
					<path id="XMLID_79_" class="st7" d="M206.7,362.1"/>
				</g>
				<g id="XMLID_465_">
					<path id="XMLID_57_" class="st7" d="M188.3,386.1"/>
				</g>
				<path id="XMLID_464_" class="st7" d="M172.7,372"/>
				<g>
					<g>
						<g>
							<g class="st2">
								<path id="XMLID_463_" d="M88.3,465.6c-13.1,7.3-26.3,14.7-39.4,22c-6.2-20.1-12.4-40.2-18.6-60.3
									c13.1-7.3,26.3-14.7,39.4-22C75.9,425.4,82.1,445.5,88.3,465.6z"/>
							</g>
							<g>
								<path id="XMLID_462_" class="st5" d="M87.8,464.9c-13.1,7.3-26.3,14.7-39.4,22c-6.2-20.1-12.4-40.2-18.6-60.3
									c13.1-7.3,26.3-14.7,39.4-22C75.4,424.7,81.6,444.8,87.8,464.9z"/>
							</g>
						</g>
						<g>
							<g>
								<path id="XMLID_461_" class="st6" d="M64.9,414.3c-9.3,5.2-18.6,10.4-27.9,15.6c0-0.1-0.1-0.2-0.1-0.3
									c9.3-5.2,18.6-10.4,27.9-15.6C64.8,414.1,64.8,414.2,64.9,414.3z"/>
							</g>
							<g>
								<path id="XMLID_460_" class="st6" d="M66.7,420.1c-9.3,5.2-18.6,10.4-27.9,15.6c0-0.1-0.1-0.2-0.1-0.3
									c9.3-5.2,18.6-10.4,27.9-15.6C66.6,419.9,66.6,420,66.7,420.1z"/>
							</g>
							<g>
								<path id="XMLID_459_" class="st6" d="M68.4,426c-9.3,5.2-18.6,10.4-27.9,15.6c0-0.1-0.1-0.2-0.1-0.3
									c9.3-5.2,18.6-10.4,27.9-15.6C68.4,425.8,68.4,425.8,68.4,426z"/>
							</g>
							<g>
								<path id="XMLID_458_" class="st6" d="M70.2,431.8c-9.3,5.2-18.6,10.4-27.9,15.6c0-0.1-0.1-0.2-0.1-0.3
									c9.3-5.2,18.6-10.4,27.9-15.6C70.2,431.6,70.2,431.6,70.2,431.8z"/>
							</g>
							<g>
								<path id="XMLID_457_" class="st6" d="M72,437.6c-9.3,5.2-18.6,10.4-27.9,15.6c0-0.1-0.1-0.2-0.1-0.3
									c9.3-5.2,18.6-10.4,27.9-15.6C72,437.4,72,437.5,72,437.6z"/>
							</g>
							<g>
								<path id="XMLID_456_" class="st6" d="M73.8,443.4c-9.3,5.2-18.6,10.4-27.9,15.6c0-0.1-0.1-0.2-0.1-0.3
									c9.3-5.2,18.6-10.4,27.9-15.6C73.8,443.2,73.8,443.3,73.8,443.4z"/>
							</g>
							<g>
								<path id="XMLID_455_" class="st6" d="M75.6,449.3c-9.3,5.2-18.6,10.4-27.9,15.6c0-0.1-0.1-0.2-0.1-0.3
									c9.3-5.2,18.6-10.4,27.9-15.6C75.6,449.1,75.6,449.1,75.6,449.3z"/>
							</g>
							<g>
								<path id="XMLID_454_" class="st6" d="M77.4,455.1c-9.3,5.2-18.6,10.4-27.9,15.6c0-0.1-0.1-0.2-0.1-0.3
									c9.3-5.2,18.6-10.4,27.9-15.6C77.4,454.9,77.4,454.9,77.4,455.1z"/>
							</g>
							<g>
								<path id="XMLID_453_" class="st6" d="M79.2,460.9c-9.3,5.2-18.6,10.4-27.9,15.6c0-0.1-0.1-0.2-0.1-0.3
									c9.3-5.2,18.6-10.4,27.9-15.6C79.2,460.7,79.2,460.8,79.2,460.9z"/>
							</g>
						</g>
					</g>
				</g>
				<g>
					<g>
						<g>
							<g class="st2">
								<path id="XMLID_452_" d="M288.8,354.8c-13.1,7.3-26.3,14.7-39.4,22c-6.2-20.1-12.4-40.2-18.6-60.3
									c13.1-7.3,26.3-14.7,39.4-22C276.4,314.7,282.6,334.7,288.8,354.8z"/>
							</g>
							<g>
								<path id="XMLID_451_" class="st5" d="M288.3,354.1c-13.1,7.3-26.3,14.7-39.4,22c-6.2-20.1-12.4-40.2-18.6-60.3
									c13.1-7.3,26.3-14.7,39.4-22C275.9,313.9,282.1,334,288.3,354.1z"/>
							</g>
						</g>
						<g>
							<g>
								<path id="XMLID_450_" class="st6" d="M265.3,303.5c-9.3,5.2-18.6,10.4-27.9,15.6c0-0.1-0.1-0.2-0.1-0.3
									c9.3-5.2,18.6-10.4,27.9-15.6C265.3,303.3,265.3,303.4,265.3,303.5z"/>
							</g>
							<g>
								<path id="XMLID_449_" class="st6" d="M267.1,309.4c-9.3,5.2-18.6,10.4-27.9,15.6c0-0.1-0.1-0.2-0.1-0.3
									c9.3-5.2,18.6-10.4,27.9-15.6C267.1,309.2,267.1,309.2,267.1,309.4z"/>
							</g>
							<g>
								<path id="XMLID_448_" class="st6" d="M268.9,315.2c-9.3,5.2-18.6,10.4-27.9,15.6c0-0.1-0.1-0.2-0.1-0.3
									c9.3-5.2,18.6-10.4,27.9-15.6C268.9,315,268.9,315.1,268.9,315.2z"/>
							</g>
							<g>
								<path id="XMLID_447_" class="st6" d="M270.7,321c-9.3,5.2-18.6,10.4-27.9,15.6c0-0.1-0.1-0.2-0.1-0.3
									c9.3-5.2,18.6-10.4,27.9-15.6C270.7,320.8,270.7,320.9,270.7,321z"/>
							</g>
							<g>
								<path id="XMLID_446_" class="st6" d="M272.5,326.8c-9.3,5.2-18.6,10.4-27.9,15.6c0-0.1-0.1-0.2-0.1-0.3
									c9.3-5.2,18.6-10.4,27.9-15.6C272.5,326.6,272.5,326.7,272.5,326.8z"/>
							</g>
							<g>
								<path id="XMLID_445_" class="st6" d="M274.3,332.7c-9.3,5.2-18.6,10.4-27.9,15.6c0-0.1-0.1-0.2-0.1-0.3
									c9.3-5.2,18.6-10.4,27.9-15.6C274.3,332.5,274.3,332.5,274.3,332.7z"/>
							</g>
							<g>
								<path id="XMLID_444_" class="st6" d="M276.1,338.5c-9.3,5.2-18.6,10.4-27.9,15.6c0-0.1-0.1-0.2-0.1-0.3
									c9.3-5.2,18.6-10.4,27.9-15.6C276.1,338.3,276.1,338.4,276.1,338.5z"/>
							</g>
							<g>
								<path id="XMLID_443_" class="st6" d="M277.9,344.3c-9.3,5.2-18.6,10.4-27.9,15.6c0-0.1-0.1-0.2-0.1-0.3
									c9.3-5.2,18.6-10.4,27.9-15.6C277.9,344.1,277.9,344.2,277.9,344.3z"/>
							</g>
							<g>
								<path id="XMLID_442_" class="st6" d="M279.7,350.1c-9.3,5.2-18.6,10.4-27.9,15.6c0-0.1-0.1-0.2-0.1-0.3
									c9.3-5.2,18.6-10.4,27.9-15.6C279.7,349.9,279.7,350,279.7,350.1z"/>
							</g>
						</g>
					</g>
				</g>
				<g>
					<g>
						<g>
							<g class="st2">
								<path id="XMLID_441_" d="M121.1,415.3c-12.9-7.7-25.8-15.3-38.6-23c6.5-19.8,12.9-39.5,19.4-59.3
									c12.9,7.7,25.8,15.3,38.6,23C134.1,375.8,127.6,395.6,121.1,415.3z"/>
							</g>
							<g>
								<path id="XMLID_440_" class="st5" d="M120.6,414.6c-12.9-7.7-25.8-15.3-38.6-23c6.5-19.8,12.9-39.5,19.4-59.3
									c12.9,7.7,25.8,15.3,38.6,23C133.5,375.1,127.1,394.9,120.6,414.6z"/>
							</g>
						</g>
						<g>
							<g>
								<path id="XMLID_439_" class="st6" d="M131.9,357.8c-9.1-5.4-18.3-10.9-27.4-16.3c0-0.1,0.1-0.2,0.1-0.3
									c9.1,5.4,18.3,10.9,27.4,16.3C131.9,357.6,131.9,357.7,131.9,357.8z"/>
							</g>
							<g>
								<path id="XMLID_438_" class="st6" d="M130,363.6c-9.1-5.4-18.3-10.9-27.4-16.3c0-0.1,0.1-0.2,0.1-0.3
									c9.1,5.4,18.3,10.9,27.4,16.3C130.1,363.4,130.1,363.4,130,363.6z"/>
							</g>
							<g>
								<path id="XMLID_437_" class="st6" d="M128.1,369.3c-9.1-5.4-18.3-10.9-27.4-16.3c0-0.1,0.1-0.2,0.1-0.3
									c9.1,5.4,18.3,10.9,27.4,16.3C128.2,369.1,128.2,369.2,128.1,369.3z"/>
							</g>
							<g>
								<path id="XMLID_436_" class="st6" d="M126.3,375c-9.1-5.4-18.3-10.9-27.4-16.3c0-0.1,0.1-0.2,0.1-0.3
									c9.1,5.4,18.3,10.9,27.4,16.3C126.3,374.8,126.3,374.9,126.3,375z"/>
							</g>
							<g>
								<path id="XMLID_435_" class="st6" d="M124.4,380.7c-9.1-5.4-18.3-10.9-27.4-16.3c0-0.1,0.1-0.2,0.1-0.3
									c9.1,5.4,18.3,10.9,27.4,16.3C124.4,380.5,124.4,380.6,124.4,380.7z"/>
							</g>
							<g>
								<path id="XMLID_434_" class="st6" d="M122.5,386.5c-9.1-5.4-18.3-10.9-27.4-16.3c0-0.1,0.1-0.2,0.1-0.3
									c9.1,5.4,18.3,10.9,27.4,16.3C122.6,386.3,122.5,386.3,122.5,386.5z"/>
							</g>
							<g>
								<path id="XMLID_433_" class="st6" d="M120.6,392.2c-9.1-5.4-18.3-10.9-27.4-16.3c0-0.1,0.1-0.2,0.1-0.3
									c9.1,5.4,18.3,10.9,27.4,16.3C120.7,392,120.7,392.1,120.6,392.2z"/>
							</g>
							<g>
								<path id="XMLID_432_" class="st6" d="M118.8,397.9c-9.1-5.4-18.3-10.9-27.4-16.3c0-0.1,0.1-0.2,0.1-0.3
									c9.1,5.4,18.3,10.9,27.4,16.3C118.8,397.7,118.8,397.8,118.8,397.9z"/>
							</g>
							<g>
								<path id="XMLID_431_" class="st6" d="M116.9,403.7c-9.1-5.4-18.3-10.9-27.4-16.3c0-0.1,0.1-0.2,0.1-0.3
									c9.1,5.4,18.3,10.9,27.4,16.3C116.9,403.5,116.9,403.5,116.9,403.7z"/>
							</g>
						</g>
					</g>
				</g>
				<g id="XMLID_430_">
					<g id="XMLID_230_" class="st2">
						<path id="XMLID_235_" class="st3" d="M55.7,414.5l34-13.4c0,0,17,25.5,42,39.9l-27.5,26C104.2,467.1,70,451,55.7,414.5z"/>
					</g>
					<g id="XMLID_222_">
						<path id="XMLID_226_" class="st4" d="M51.3,410.1l34-13.4c0,0,17,25.5,42,39.9l-27.5,26C99.9,462.7,65.6,446.7,51.3,410.1z"/>
					</g>
				</g>
				<g id="XMLID_429_">
					<g id="XMLID_215_" class="st2">
						<path id="XMLID_219_" class="st3" d="M167.1,410.9l-34-13.4c0,0-17,25.5-42,39.9l27.5,26C118.6,463.5,152.8,447.5,167.1,410.9
							z"/>
					</g>
					<g id="XMLID_203_">
						<path id="XMLID_210_" class="st0" d="M162.7,406.6l-34-13.4c0,0-17,25.5-42,39.9l27.5,26C114.2,459.1,148.5,443.1,162.7,406.6
							z"/>
					</g>
				</g>
				<g id="XMLID_428_">
					<g id="XMLID_220_" class="st2">
						<path id="XMLID_225_" class="st3" d="M269,357.1l-34-13.4c0,0-17,25.5-42,39.9l27.5,26C220.4,409.7,254.7,393.7,269,357.1z"/>
					</g>
					<g id="XMLID_212_">
						<path id="XMLID_216_" class="st1" d="M264.6,352.8l-34-13.4c0,0-17,25.5-42,39.9l27.5,26C216.1,405.3,250.4,389.3,264.6,352.8
							z"/>
					</g>
				</g>
				<g id="XMLID_427_">
					<g id="XMLID_207_" class="st2">
						<path id="XMLID_211_" class="st3" d="M76.4,383l-12.9-34.2c0,0-30.3,4.5-57.8-4.4l-0.9,37.9C4.8,382.2,39.7,396.9,76.4,383z"
							/>
					</g>
					<g id="XMLID_198_">
						<path id="XMLID_205_" class="st0" d="M72,378.7l-12.9-34.2c0,0-30.3,4.5-57.8-4.4l-0.9,37.9C0.5,377.9,35.3,392.6,72,378.7z"
							/>
					</g>
				</g>
				<g id="XMLID_426_">
					<g id="XMLID_202_" class="st2">
						<path id="XMLID_206_" class="st3" d="M46.9,371.4l21.7-29.5c0,0-20.3-22.9-27.8-50.9L8.5,311C8.5,311,15.2,348.2,46.9,371.4z"
							/>
					</g>
					<g id="XMLID_188_">
						<path id="XMLID_199_" class="st0" d="M42.5,367l21.7-29.5c0,0-20.3-22.9-27.8-50.9l-32.2,20C4.2,306.6,10.9,343.8,42.5,367z"
							/>
					</g>
				</g>
				<g id="XMLID_425_">
					<g id="XMLID_197_" class="st2">
						<path id="XMLID_201_" class="st3" d="M131.6,490.8l-10.8-35c0,0-30.5,2.6-57.4-7.9l-3.1,37.8
							C60.2,485.7,94.1,502.4,131.6,490.8z"/>
					</g>
					<g id="XMLID_179_">
						<path id="XMLID_193_" class="st0" d="M127.2,486.4l-10.8-35c0,0-30.5,2.6-57.4-7.9l-3.1,37.8
							C55.9,481.3,89.8,498.1,127.2,486.4z"/>
					</g>
				</g>
				<g>
					<g>
						<g>
							<g class="st2">
								<path id="XMLID_424_" d="M147.2,403.6c9.5,12.2,19,24.4,28.5,36.6c9.9-15.2,19.7-30.4,29.6-45.7
									c-9.5-12.2-19-24.4-28.5-36.6C166.9,373.2,157,388.4,147.2,403.6z"/>
							</g>
							<g>
								<path id="XMLID_423_" class="st5" d="M146.7,402.9c9.5,12.2,19,24.4,28.5,36.6c9.9-15.2,19.7-30.4,29.6-45.7
									c-9.5-12.2-19-24.4-28.5-36.6C166.4,372.5,156.5,387.7,146.7,402.9z"/>
							</g>
						</g>
						<g>
							<g>
								<path id="XMLID_422_" class="st6" d="M177.7,367.8c6.7,8.7,13.5,17.3,20.2,26c0.1-0.1,0.1-0.2,0.2-0.3
									c-6.7-8.7-13.5-17.3-20.2-26C177.8,367.6,177.8,367.7,177.7,367.8z"/>
							</g>
							<g>
								<path id="XMLID_421_" class="st6" d="M174.9,372.2c6.7,8.7,13.5,17.3,20.2,26c0.1-0.1,0.1-0.2,0.2-0.3
									c-6.7-8.7-13.5-17.3-20.2-26C175,372,174.9,372.1,174.9,372.2z"/>
							</g>
							<g>
								<path id="XMLID_420_" class="st6" d="M172,376.6c6.7,8.7,13.5,17.3,20.2,26c0.1-0.1,0.1-0.2,0.2-0.3
									c-6.7-8.7-13.5-17.3-20.2-26C172.1,376.5,172.1,376.5,172,376.6z"/>
							</g>
							<g>
								<path id="XMLID_419_" class="st6" d="M169.1,381c6.7,8.7,13.5,17.3,20.2,26c0.1-0.1,0.1-0.2,0.2-0.3
									c-6.7-8.7-13.5-17.3-20.2-26C169.2,380.9,169.2,380.9,169.1,381z"/>
							</g>
							<g>
								<path id="XMLID_418_" class="st6" d="M166.3,385.4c6.7,8.7,13.5,17.3,20.2,26c0.1-0.1,0.1-0.2,0.2-0.3
									c-6.7-8.7-13.5-17.3-20.2-26C166.4,385.3,166.4,385.3,166.3,385.4z"/>
							</g>
							<g>
								<path id="XMLID_417_" class="st6" d="M163.4,389.9c6.7,8.7,13.5,17.3,20.2,26c0.1-0.1,0.1-0.2,0.2-0.3
									c-6.7-8.7-13.5-17.3-20.2-26C163.5,389.7,163.5,389.8,163.4,389.9z"/>
							</g>
							<g>
								<path id="XMLID_416_" class="st6" d="M160.6,394.3c6.7,8.7,13.5,17.3,20.2,26c0.1-0.1,0.1-0.2,0.2-0.3
									c-6.7-8.7-13.5-17.3-20.2-26C160.7,394.1,160.6,394.2,160.6,394.3z"/>
							</g>
							<g>
								<path id="XMLID_415_" class="st6" d="M157.7,398.7c6.7,8.7,13.5,17.3,20.2,26c0.1-0.1,0.1-0.2,0.2-0.3
									c-6.7-8.7-13.5-17.3-20.2-26C157.8,398.5,157.8,398.6,157.7,398.7z"/>
							</g>
							<g>
								<path id="XMLID_414_" class="st6" d="M154.9,403.1c6.7,8.7,13.5,17.3,20.2,26c0.1-0.1,0.1-0.2,0.2-0.3
									c-6.7-8.7-13.5-17.3-20.2-26C155,402.9,154.9,403,154.9,403.1z"/>
							</g>
						</g>
					</g>
				</g>
				<g>
					<g>
						<g>
							<g class="st2">
								<path id="XMLID_413_" d="M255,466.3c9.5,12.2,19,24.4,28.5,36.6c9.9-15.2,19.7-30.4,29.6-45.7c-9.5-12.2-19-24.4-28.5-36.6
									C274.7,435.8,264.9,451.1,255,466.3z"/>
							</g>
							<g>
								<path id="XMLID_412_" class="st5" d="M254.5,465.6c9.5,12.2,19,24.4,28.5,36.6c9.9-15.2,19.7-30.4,29.6-45.7
									c-9.5-12.2-19-24.4-28.5-36.6C274.2,435.2,264.4,450.4,254.5,465.6z"/>
							</g>
						</g>
						<g>
							<g>
								<path id="XMLID_411_" class="st6" d="M285.6,430.5c6.7,8.7,13.5,17.3,20.2,26c0.1-0.1,0.1-0.2,0.2-0.3
									c-6.7-8.7-13.5-17.3-20.2-26C285.7,430.3,285.6,430.4,285.6,430.5z"/>
							</g>
							<g>
								<path id="XMLID_410_" class="st6" d="M282.7,434.9c6.7,8.7,13.5,17.3,20.2,26c0.1-0.1,0.1-0.2,0.2-0.3
									c-6.7-8.7-13.5-17.3-20.2-26C282.8,434.7,282.8,434.8,282.7,434.9z"/>
							</g>
							<g>
								<path id="XMLID_409_" class="st6" d="M279.8,439.3c6.7,8.7,13.5,17.3,20.2,26c0.1-0.1,0.1-0.2,0.2-0.3
									c-6.7-8.7-13.5-17.3-20.2-26C279.9,439.1,279.9,439.2,279.8,439.3z"/>
							</g>
							<g>
								<path id="XMLID_408_" class="st6" d="M277,443.7c6.7,8.7,13.5,17.3,20.2,26c0.1-0.1,0.1-0.2,0.2-0.3
									c-6.7-8.7-13.5-17.3-20.2-26C277.1,443.6,277.1,443.6,277,443.7z"/>
							</g>
							<g>
								<path id="XMLID_407_" class="st6" d="M274.1,448.1c6.7,8.7,13.5,17.3,20.2,26c0.1-0.1,0.1-0.2,0.2-0.3
									c-6.7-8.7-13.5-17.3-20.2-26C274.2,448,274.2,448,274.1,448.1z"/>
							</g>
							<g>
								<path id="XMLID_406_" class="st6" d="M271.3,452.5c6.7,8.7,13.5,17.3,20.2,26c0.1-0.1,0.1-0.2,0.2-0.3
									c-6.7-8.7-13.5-17.3-20.2-26C271.4,452.4,271.3,452.4,271.3,452.5z"/>
							</g>
							<g>
								<path id="XMLID_405_" class="st6" d="M268.4,456.9c6.7,8.7,13.5,17.3,20.2,26c0.1-0.1,0.1-0.2,0.2-0.3
									c-6.7-8.7-13.5-17.3-20.2-26C268.5,456.8,268.5,456.8,268.4,456.9z"/>
							</g>
							<g>
								<path id="XMLID_404_" class="st6" d="M265.6,461.4c6.7,8.7,13.5,17.3,20.2,26c0.1-0.1,0.1-0.2,0.2-0.3
									c-6.7-8.7-13.5-17.3-20.2-26C265.7,461.2,265.6,461.3,265.6,461.4z"/>
							</g>
							<g>
								<path id="XMLID_403_" class="st6" d="M262.7,465.8c6.7,8.7,13.5,17.3,20.2,26c0.1-0.1,0.1-0.2,0.2-0.3
									c-6.7-8.7-13.5-17.3-20.2-26C262.8,465.6,262.8,465.7,262.7,465.8z"/>
							</g>
						</g>
					</g>
				</g>
				<g id="XMLID_402_">
					<g id="XMLID_189_" class="st2">
						<path id="XMLID_194_" class="st3" d="M146.7,469.8l21.2-26.7c0,0,20.7,20.9,44.6,18.7l-12.5,34.7
							C199.9,496.5,167.3,500.9,146.7,469.8z"/>
					</g>
					<g id="XMLID_173_">
						<path id="XMLID_183_" class="st0" d="M142.7,465.8l21.2-26.7c0,0,20.7,20.9,44.6,18.7l-12.5,34.7
							C195.9,492.5,163.3,496.9,142.7,465.8z"/>
					</g>
				</g>
				<g>
					<g>
						<g>
							<g class="st2">
								<path id="XMLID_401_" d="M334.8,336.5c9.5,12.2,19,24.4,28.5,36.6c9.9-15.2,19.7-30.4,29.6-45.7
									c-9.5-12.2-19-24.4-28.5-36.6C354.6,306,344.7,321.2,334.8,336.5z"/>
							</g>
							<g>
								<path id="XMLID_400_" class="st5" d="M334.3,335.8c9.5,12.2,19,24.4,28.5,36.6c9.9-15.2,19.7-30.4,29.6-45.7
									c-9.5-12.2-19-24.4-28.5-36.6C354.1,305.3,344.2,320.5,334.3,335.8z"/>
							</g>
						</g>
						<g>
							<g>
								<path id="XMLID_399_" class="st6" d="M365.4,300.6c6.7,8.7,13.5,17.3,20.2,26c0.1-0.1,0.1-0.2,0.2-0.3
									c-6.7-8.7-13.5-17.3-20.2-26C365.5,300.5,365.5,300.5,365.4,300.6z"/>
							</g>
							<g>
								<path id="XMLID_398_" class="st6" d="M362.5,305c6.7,8.7,13.5,17.3,20.2,26c0.1-0.1,0.1-0.2,0.2-0.3
									c-6.7-8.7-13.5-17.3-20.2-26C362.6,304.9,362.6,304.9,362.5,305z"/>
							</g>
							<g>
								<path id="XMLID_397_" class="st6" d="M359.7,309.5c6.7,8.7,13.5,17.3,20.2,26c0.1-0.1,0.1-0.2,0.2-0.3
									c-6.7-8.7-13.5-17.3-20.2-26C359.8,309.3,359.7,309.4,359.7,309.5z"/>
							</g>
							<g>
								<path id="XMLID_396_" class="st6" d="M356.8,313.9c6.7,8.7,13.5,17.3,20.2,26c0.1-0.1,0.1-0.2,0.2-0.3
									c-6.7-8.7-13.5-17.3-20.2-26C356.9,313.7,356.9,313.8,356.8,313.9z"/>
							</g>
							<g>
								<path id="XMLID_395_" class="st6" d="M354,318.3c6.7,8.7,13.5,17.3,20.2,26c0.1-0.1,0.1-0.2,0.2-0.3
									c-6.7-8.7-13.5-17.3-20.2-26C354.1,318.1,354,318.2,354,318.3z"/>
							</g>
							<g>
								<path id="XMLID_394_" class="st6" d="M351.1,322.7c6.7,8.7,13.5,17.3,20.2,26c0.1-0.1,0.1-0.2,0.2-0.3
									c-6.7-8.7-13.5-17.3-20.2-26C351.2,322.5,351.2,322.6,351.1,322.7z"/>
							</g>
							<g>
								<path id="XMLID_393_" class="st6" d="M348.2,327.1c6.7,8.7,13.5,17.3,20.2,26c0.1-0.1,0.1-0.2,0.2-0.3
									c-6.7-8.7-13.5-17.3-20.2-26C348.3,327,348.3,327,348.2,327.1z"/>
							</g>
							<g>
								<path id="XMLID_392_" class="st6" d="M345.4,331.5c6.7,8.7,13.5,17.3,20.2,26c0.1-0.1,0.1-0.2,0.2-0.3
									c-6.7-8.7-13.5-17.3-20.2-26C345.5,331.4,345.5,331.4,345.4,331.5z"/>
							</g>
							<g>
								<path id="XMLID_391_" class="st6" d="M342.5,335.9c6.7,8.7,13.5,17.3,20.2,26c0.1-0.1,0.1-0.2,0.2-0.3
									c-6.7-8.7-13.5-17.3-20.2-26C342.6,335.8,342.6,335.8,342.5,335.9z"/>
							</g>
						</g>
					</g>
				</g>
				<g>
					<g>
						<g>
							<g class="st2">
								<path id="XMLID_390_" d="M442.7,399.1c9.5,12.2,19,24.4,28.5,36.6c9.9-15.2,19.7-30.4,29.6-45.7
									c-9.5-12.2-19-24.4-28.5-36.6C462.4,368.7,452.5,383.9,442.7,399.1z"/>
							</g>
							<g>
								<path id="XMLID_389_" class="st5" d="M442.2,398.4c9.5,12.2,19,24.4,28.5,36.6c9.9-15.2,19.7-30.4,29.6-45.7
									c-9.5-12.2-19-24.4-28.5-36.6C461.9,368,452,383.2,442.2,398.4z"/>
							</g>
						</g>
						<g>
							<g>
								<path id="XMLID_388_" class="st6" d="M473.2,363.3c6.7,8.7,13.5,17.3,20.2,26c0.1-0.1,0.1-0.2,0.2-0.3
									c-6.7-8.7-13.5-17.3-20.2-26C473.3,363.1,473.3,363.2,473.2,363.3z"/>
							</g>
							<g>
								<path id="XMLID_387_" class="st6" d="M470.4,367.7c6.7,8.7,13.5,17.3,20.2,26c0.1-0.1,0.1-0.2,0.2-0.3
									c-6.7-8.7-13.5-17.3-20.2-26C470.5,367.6,470.4,367.6,470.4,367.7z"/>
							</g>
							<g>
								<path id="XMLID_386_" class="st6" d="M467.5,372.1c6.7,8.7,13.5,17.3,20.2,26c0.1-0.1,0.1-0.2,0.2-0.3
									c-6.7-8.7-13.5-17.3-20.2-26C467.6,372,467.6,372,467.5,372.1z"/>
							</g>
							<g>
								<path id="XMLID_385_" class="st6" d="M464.7,376.5c6.7,8.7,13.5,17.3,20.2,26c0.1-0.1,0.1-0.2,0.2-0.3
									c-6.7-8.7-13.5-17.3-20.2-26C464.8,376.4,464.7,376.4,464.7,376.5z"/>
							</g>
							<g>
								<path id="XMLID_384_" class="st6" d="M461.8,381c6.7,8.7,13.5,17.3,20.2,26c0.1-0.1,0.1-0.2,0.2-0.3
									c-6.7-8.7-13.5-17.3-20.2-26C461.9,380.8,461.9,380.9,461.8,381z"/>
							</g>
							<g>
								<path id="XMLID_383_" class="st6" d="M458.9,385.4c6.7,8.7,13.5,17.3,20.2,26c0.1-0.1,0.1-0.2,0.2-0.3
									c-6.7-8.7-13.5-17.3-20.2-26C459,385.2,459,385.3,458.9,385.4z"/>
							</g>
							<g>
								<path id="XMLID_382_" class="st6" d="M456.1,389.8c6.7,8.7,13.5,17.3,20.2,26c0.1-0.1,0.1-0.2,0.2-0.3
									c-6.7-8.7-13.5-17.3-20.2-26C456.2,389.6,456.2,389.7,456.1,389.8z"/>
							</g>
							<g>
								<path id="XMLID_381_" class="st6" d="M453.2,394.2c6.7,8.7,13.5,17.3,20.2,26c0.1-0.1,0.1-0.2,0.2-0.3
									c-6.7-8.7-13.5-17.3-20.2-26C453.3,394,453.3,394.1,453.2,394.2z"/>
							</g>
							<g>
								<path id="XMLID_380_" class="st6" d="M450.4,398.6c6.7,8.7,13.5,17.3,20.2,26c0.1-0.1,0.1-0.2,0.2-0.3
									c-6.7-8.7-13.5-17.3-20.2-26C450.5,398.5,450.4,398.5,450.4,398.6z"/>
							</g>
						</g>
					</g>
				</g>
				<g id="XMLID_379_">
					<g id="XMLID_195_" class="st2">
						<path id="XMLID_200_" class="st3" d="M415.5,336.1l21.2-26.7c0,0,20.7,20.9,44.6,18.7l-12.5,34.7
							C468.7,362.8,436.1,367.2,415.5,336.1z"/>
					</g>
					<g id="XMLID_187_">
						<path id="XMLID_191_" class="st4" d="M411.5,332.1l21.2-26.7c0,0,20.7,20.9,44.6,18.7l-12.5,34.7
							C464.7,358.8,432.1,363.2,411.5,332.1z"/>
					</g>
				</g>
				<g id="XMLID_378_">
					<g id="XMLID_180_" class="st2">
						<path id="XMLID_184_" class="st3" d="M36.5,376.1l21.2-26.7c0,0,20.7,20.9,44.6,18.7l-12.5,34.7
							C89.7,402.8,57.1,407.3,36.5,376.1z"/>
					</g>
					<g id="XMLID_168_">
						<path id="XMLID_175_" class="st0" d="M32.5,372.1l21.2-26.7c0,0,20.7,20.9,44.6,18.7l-12.5,34.7
							C85.7,398.8,53.1,403.3,32.5,372.1z"/>
					</g>
				</g>
				<g id="XMLID_377_">
					<g id="XMLID_185_" class="st2">
						<path id="XMLID_190_" class="st3" d="M475.8,462.3l26.6-33.5c0,0,26,26.3,56,23.5l-15.7,43.6
							C542.7,495.8,501.7,501.4,475.8,462.3z"/>
					</g>
					<g id="XMLID_177_">
						<path id="XMLID_181_" class="st1" d="M470.8,457.2l26.6-33.5c0,0,26,26.3,56,23.5l-15.7,43.6
							C537.7,490.8,496.7,496.4,470.8,457.2z"/>
					</g>
				</g>
				<g id="XMLID_376_">
					<g id="XMLID_172_" class="st2">
						<path id="XMLID_176_" class="st3" d="M534.7,362.9l-21.2-26.7c0,0-20.7,20.9-44.6,18.7l12.5,34.7
							C481.4,389.6,514,394,534.7,362.9z"/>
					</g>
					<g id="XMLID_163_">
						<path id="XMLID_170_" class="st0" d="M530.7,358.9l-21.2-26.7c0,0-20.7,20.9-44.6,18.7l12.5,34.7
							C477.4,385.6,510,390,530.7,358.9z"/>
					</g>
				</g>
				<g>
					<g>
						<g>
							<g class="st2">
								<path id="XMLID_375_" d="M462.2,463.4c-13.1,7.3-26.3,14.7-39.4,22c-6.2-20.1-12.4-40.2-18.6-60.3
									c13.1-7.3,26.3-14.7,39.4-22C449.8,423.3,456,443.4,462.2,463.4z"/>
							</g>
							<g>
								<path id="XMLID_374_" class="st5" d="M461.7,462.7c-13.1,7.3-26.3,14.7-39.4,22c-6.2-20.1-12.4-40.2-18.6-60.3
									c13.1-7.3,26.3-14.7,39.4-22C449.3,422.5,455.5,442.6,461.7,462.7z"/>
							</g>
						</g>
						<g>
							<g>
								<path id="XMLID_373_" class="st6" d="M438.7,412.2c-9.3,5.2-18.6,10.4-27.9,15.6c0-0.1-0.1-0.2-0.1-0.3
									c9.3-5.2,18.6-10.4,27.9-15.6C438.7,412,438.7,412,438.7,412.2z"/>
							</g>
							<g>
								<path id="XMLID_372_" class="st6" d="M440.5,418c-9.3,5.2-18.6,10.4-27.9,15.6c0-0.1-0.1-0.2-0.1-0.3
									c9.3-5.2,18.6-10.4,27.9-15.6C440.5,417.8,440.5,417.9,440.5,418z"/>
							</g>
							<g>
								<path id="XMLID_371_" class="st6" d="M442.3,423.8c-9.3,5.2-18.6,10.4-27.9,15.6c0-0.1-0.1-0.2-0.1-0.3
									c9.3-5.2,18.6-10.4,27.9-15.6C442.3,423.6,442.3,423.7,442.3,423.8z"/>
							</g>
							<g>
								<path id="XMLID_370_" class="st6" d="M444.1,429.6c-9.3,5.2-18.6,10.4-27.9,15.6c0-0.1-0.1-0.2-0.1-0.3
									c9.3-5.2,18.6-10.4,27.9-15.6C444.1,429.4,444.1,429.5,444.1,429.6z"/>
							</g>
							<g>
								<path id="XMLID_369_" class="st6" d="M445.9,435.5c-9.3,5.2-18.6,10.4-27.9,15.6c0-0.1-0.1-0.2-0.1-0.3
									c9.3-5.2,18.6-10.4,27.9-15.6C445.9,435.3,445.9,435.3,445.9,435.5z"/>
							</g>
							<g>
								<path id="XMLID_368_" class="st6" d="M447.7,441.3c-9.3,5.2-18.6,10.4-27.9,15.6c0-0.1-0.1-0.2-0.1-0.3
									c9.3-5.2,18.6-10.4,27.9-15.6C447.7,441.1,447.7,441.2,447.7,441.3z"/>
							</g>
							<g>
								<path id="XMLID_367_" class="st6" d="M449.5,447.1c-9.3,5.2-18.6,10.4-27.9,15.6c0-0.1-0.1-0.2-0.1-0.3
									c9.3-5.2,18.6-10.4,27.9-15.6C449.5,446.9,449.5,447,449.5,447.1z"/>
							</g>
							<g>
								<path id="XMLID_366_" class="st6" d="M451.3,452.9c-9.3,5.2-18.6,10.4-27.9,15.6c0-0.1-0.1-0.2-0.1-0.3
									c9.3-5.2,18.6-10.4,27.9-15.6C451.3,452.7,451.3,452.8,451.3,452.9z"/>
							</g>
							<g>
								<path id="XMLID_365_" class="st6" d="M453.1,458.8c-9.3,5.2-18.6,10.4-27.9,15.6c0-0.1-0.1-0.2-0.1-0.3
									c9.3-5.2,18.6-10.4,27.9-15.6C453,458.6,453.1,458.6,453.1,458.8z"/>
							</g>
						</g>
					</g>
				</g>
				<g id="XMLID_364_">
					<g id="XMLID_167_" class="st2">
						<path id="XMLID_171_" class="st3" d="M386,346.9l34-13.4c0,0,17,25.5,42,39.9l-27.5,26C434.5,399.5,400.3,383.5,386,346.9z"/>
					</g>
					<g id="XMLID_158_">
						<path id="XMLID_165_" class="st0" d="M381.6,342.6l34-13.4c0,0,17,25.5,42,39.9l-27.5,26C430.2,395.2,395.9,379.1,381.6,342.6
							z"/>
					</g>
				</g>
				<g id="XMLID_363_">
					<g id="XMLID_162_" class="st2">
						<path id="XMLID_166_" class="st3" d="M373.6,509.5l-5.2-36.2c0,0,28.7-10.6,48.6-31.7l19,32.8
							C435.9,474.4,412.4,504.1,373.6,509.5z"/>
					</g>
					<g id="XMLID_153_">
						<path id="XMLID_160_" class="st0" d="M369.2,505.2L364,469c0,0,28.7-10.6,48.6-31.7l19,32.8
							C431.6,470.1,408.1,499.7,369.2,505.2z"/>
					</g>
				</g>
				<g id="XMLID_362_">
					<g id="XMLID_157_" class="st2">
						<path id="XMLID_161_" class="st3" d="M497.4,343.4l-34-13.4c0,0-17,25.5-42,39.9l27.5,26C448.9,395.9,483.1,379.9,497.4,343.4
							z"/>
					</g>
					<g id="XMLID_143_">
						<path id="XMLID_155_" class="st0" d="M493.1,339l-34-13.4c0,0-17,25.5-42,39.9l27.5,26C444.5,391.6,478.8,375.6,493.1,339z"/>
					</g>
				</g>
				<g id="XMLID_361_">
					<g id="XMLID_154_" class="st2">
						<path id="XMLID_156_" class="st3" d="M271,294.2l-34-13.4c0,0-17,25.5-42,39.9l27.5,26C222.4,346.8,256.7,330.8,271,294.2z"/>
					</g>
					<g id="XMLID_138_">
						<path id="XMLID_148_" class="st0" d="M266.6,289.9l-34-13.4c0,0-17,25.5-42,39.9l27.5,26C218.1,342.4,252.4,326.4,266.6,289.9
							z"/>
					</g>
				</g>
				<g id="XMLID_360_">
					<g id="XMLID_146_" class="st2">
						<path id="XMLID_149_" class="st3" d="M123.7,331l-34-13.4c0,0-17,25.5-42,39.9l27.5,26C75.1,383.6,109.4,367.6,123.7,331z"/>
					</g>
					<g id="XMLID_133_">
						<path id="XMLID_141_" class="st0" d="M119.3,326.7l-34-13.4c0,0-17,25.5-42,39.9l27.5,26C70.8,379.3,105,363.3,119.3,326.7z"
							/>
					</g>
				</g>
				<g id="XMLID_359_">
					<g id="XMLID_152_" class="st2">
						<path id="XMLID_533_" class="st3" d="M427.5,428.3l-34-13.4c0,0-17,25.5-42,39.9l27.5,26C379,480.9,413.2,464.9,427.5,428.3z"
							/>
					</g>
					<g id="XMLID_145_">
						<path id="XMLID_150_" class="st4" d="M423.1,424l-34-13.4c0,0-17,25.5-42,39.9l27.5,26C374.6,476.5,408.9,460.5,423.1,424z"/>
					</g>
				</g>
				<g id="XMLID_358_">
					<g id="XMLID_140_" class="st2">
						<path id="XMLID_142_" class="st3" d="M461.9,423.2l-10.8-35c0,0-30.5,2.6-57.4-7.9l-3.1,37.8
							C390.5,418.1,424.4,434.9,461.9,423.2z"/>
					</g>
					<g id="XMLID_128_">
						<path id="XMLID_136_" class="st0" d="M457.5,418.9l-10.8-35c0,0-30.5,2.6-57.4-7.9l-3.1,37.8
							C386.2,413.7,420.1,430.5,457.5,418.9z"/>
					</g>
				</g>
				<g id="XMLID_357_">
					<g id="XMLID_135_" class="st2">
						<path id="XMLID_137_" class="st3" d="M284.7,416.9l22-29.2c0,0-20-23.2-27.3-51.2L247,356.1
							C247,356.1,253.3,393.4,284.7,416.9z"/>
					</g>
					<g id="XMLID_123_">
						<path id="XMLID_131_" class="st0" d="M280.3,412.5l22-29.2c0,0-20-23.2-27.3-51.2l-32.4,19.6
							C242.6,351.7,248.9,389,280.3,412.5z"/>
					</g>
				</g>
				<g id="XMLID_356_">
					<g id="XMLID_130_" class="st2">
						<path id="XMLID_132_" class="st3" d="M500.6,488l-10.8-35c0,0-30.5,2.6-57.4-7.9l-3.1,37.8C429.2,482.9,463.1,499.7,500.6,488
							z"/>
					</g>
					<g id="XMLID_119_">
						<path id="XMLID_126_" class="st0" d="M496.2,483.6l-10.8-35c0,0-30.5,2.6-57.4-7.9l-3.1,37.8
							C424.8,478.5,458.8,495.3,496.2,483.6z"/>
					</g>
				</g>
				<g>
					<g>
						<g>
							<g class="st2">
								<path id="XMLID_355_" d="M477.5,336.1c9.5,12.2,19,24.4,28.5,36.6c9.9-15.2,19.7-30.4,29.6-45.7
									c-9.5-12.2-19-24.4-28.5-36.6C497.2,305.6,487.3,320.8,477.5,336.1z"/>
							</g>
							<g>
								<path id="XMLID_354_" class="st5" d="M477,335.4c9.5,12.2,19,24.4,28.5,36.6c9.9-15.2,19.7-30.4,29.6-45.7
									c-9.5-12.2-19-24.4-28.5-36.6C496.7,304.9,486.8,320.2,477,335.4z"/>
							</g>
						</g>
						<g>
							<g>
								<path id="XMLID_353_" class="st6" d="M508,300.2c6.7,8.7,13.5,17.3,20.2,26c0.1-0.1,0.1-0.2,0.2-0.3
									c-6.7-8.7-13.5-17.3-20.2-26C508.1,300.1,508.1,300.1,508,300.2z"/>
							</g>
							<g>
								<path id="XMLID_352_" class="st6" d="M505.2,304.6c6.7,8.7,13.5,17.3,20.2,26c0.1-0.1,0.1-0.2,0.2-0.3
									c-6.7-8.7-13.5-17.3-20.2-26C505.3,304.5,505.2,304.5,505.2,304.6z"/>
							</g>
							<g>
								<path id="XMLID_351_" class="st6" d="M502.3,309.1c6.7,8.7,13.5,17.3,20.2,26c0.1-0.1,0.1-0.2,0.2-0.3
									c-6.7-8.7-13.5-17.3-20.2-26C502.4,308.9,502.4,309,502.3,309.1z"/>
							</g>
							<g>
								<path id="XMLID_350_" class="st6" d="M499.4,313.5c6.7,8.7,13.5,17.3,20.2,26c0.1-0.1,0.1-0.2,0.2-0.3
									c-6.7-8.7-13.5-17.3-20.2-26C499.5,313.3,499.5,313.4,499.4,313.5z"/>
							</g>
							<g>
								<path id="XMLID_349_" class="st6" d="M496.6,317.9c6.7,8.7,13.5,17.3,20.2,26c0.1-0.1,0.1-0.2,0.2-0.3
									c-6.7-8.7-13.5-17.3-20.2-26C496.7,317.7,496.7,317.8,496.6,317.9z"/>
							</g>
							<g>
								<path id="XMLID_348_" class="st6" d="M493.7,322.3c6.7,8.7,13.5,17.3,20.2,26c0.1-0.1,0.1-0.2,0.2-0.3
									c-6.7-8.7-13.5-17.3-20.2-26C493.8,322.2,493.8,322.2,493.7,322.3z"/>
							</g>
							<g>
								<path id="XMLID_347_" class="st6" d="M490.9,326.7c6.7,8.7,13.5,17.3,20.2,26c0.1-0.1,0.1-0.2,0.2-0.3
									c-6.7-8.7-13.5-17.3-20.2-26C491,326.6,490.9,326.6,490.9,326.7z"/>
							</g>
							<g>
								<path id="XMLID_346_" class="st6" d="M488,331.1c6.7,8.7,13.5,17.3,20.2,26c0.1-0.1,0.1-0.2,0.2-0.3
									c-6.7-8.7-13.5-17.3-20.2-26C488.1,331,488.1,331,488,331.1z"/>
							</g>
							<g>
								<path id="XMLID_345_" class="st6" d="M485.2,335.5c6.7,8.7,13.5,17.3,20.2,26c0.1-0.1,0.1-0.2,0.2-0.3
									c-6.7-8.7-13.5-17.3-20.2-26C485.3,335.4,485.2,335.4,485.2,335.5z"/>
							</g>
						</g>
					</g>
				</g>
				<g>
					<g>
						<g>
							<g class="st2">
								<path id="XMLID_344_" d="M113.7,335.9c15.1,4.9,30.1,9.8,45.2,14.7c4.3-22.5,8.5-45,12.8-67.5c-15.1-4.9-30.1-9.8-45.2-14.7
									C122.3,290.9,118,313.4,113.7,335.9z"/>
							</g>
							<g>
								<path id="XMLID_343_" class="st5" d="M113.1,335.1c15.1,4.9,30.1,9.8,45.2,14.7c4.3-22.5,8.5-45,12.8-67.5
									c-15.1-4.9-30.1-9.8-45.2-14.7C121.7,290.1,117.4,312.6,113.1,335.1z"/>
							</g>
						</g>
						<g>
							<g>
								<path id="XMLID_342_" class="st6" d="M131.8,276.9c10.7,3.5,21.4,7,32.1,10.4c0-0.2,0-0.2,0.1-0.4
									c-10.7-3.5-21.4-7-32.1-10.4C131.8,276.7,131.8,276.8,131.8,276.9z"/>
							</g>
							<g>
								<path id="XMLID_341_" class="st6" d="M130.5,283.5c10.7,3.5,21.4,7,32.1,10.4c0-0.2,0-0.2,0.1-0.4c-10.7-3.5-21.4-7-32-10.4
									C130.6,283.2,130.6,283.3,130.5,283.5z"/>
							</g>
							<g>
								<path id="XMLID_340_" class="st6" d="M129.3,290c10.7,3.5,21.4,7,32.1,10.4c0-0.1,0-0.2,0.1-0.4c-10.7-3.5-21.4-7-32-10.4
									C129.4,289.8,129.3,289.8,129.3,290z"/>
							</g>
							<g>
								<path id="XMLID_339_" class="st6" d="M128.1,296.5c10.7,3.5,21.4,7,32,10.4c0-0.2,0-0.2,0.1-0.4c-10.7-3.5-21.4-7-32-10.4
									C128.1,296.3,128.1,296.4,128.1,296.5z"/>
							</g>
							<g>
								<path id="XMLID_338_" class="st6" d="M126.8,303c10.7,3.5,21.4,7,32.1,10.4c0-0.2,0-0.2,0.1-0.4c-10.7-3.5-21.4-7-32-10.4
									C126.9,302.8,126.9,302.9,126.8,303z"/>
							</g>
							<g>
								<path id="XMLID_337_" class="st6" d="M125.6,309.6c10.7,3.5,21.4,7,32,10.4c0-0.1,0-0.2,0.1-0.4c-10.7-3.5-21.4-7-32-10.4
									C125.6,309.3,125.6,309.4,125.6,309.6z"/>
							</g>
							<g>
								<path id="XMLID_336_" class="st6" d="M124.4,316.1c10.7,3.5,21.4,7,32,10.4c0-0.2,0-0.2,0.1-0.4c-10.7-3.5-21.4-7-32-10.4
									C124.4,315.8,124.4,315.9,124.4,316.1z"/>
							</g>
							<g>
								<path id="XMLID_335_" class="st6" d="M123.1,322.6c10.7,3.5,21.4,7,32,10.4c0-0.2,0-0.2,0.1-0.4c-10.7-3.5-21.4-7-32-10.4
									C123.2,322.4,123.2,322.4,123.1,322.6z"/>
							</g>
							<g>
								<path id="XMLID_334_" class="st6" d="M121.9,329.1c10.7,3.5,21.4,7,32,10.4c0-0.2,0-0.2,0.1-0.4c-10.7-3.5-21.4-7-32-10.4
									C121.9,328.9,121.9,329,121.9,329.1z"/>
							</g>
						</g>
					</g>
				</g>
				<g>
					<g>
						<g>
							<g class="st2">
								<path id="XMLID_333_" d="M476.7,439.4c9.5,12.2,19,24.4,28.5,36.6c9.9-15.2,19.7-30.4,29.6-45.7
									c-9.5-12.2-19-24.4-28.5-36.6C496.4,408.9,486.5,424.2,476.7,439.4z"/>
							</g>
							<g>
								<path id="XMLID_332_" class="st5" d="M476.2,438.7c9.5,12.2,19,24.4,28.5,36.6c9.9-15.2,19.7-30.4,29.6-45.7
									c-9.5-12.2-19-24.4-28.5-36.6C495.9,408.3,486,423.5,476.2,438.7z"/>
							</g>
						</g>
						<g>
							<g>
								<path id="XMLID_331_" class="st6" d="M507.2,403.6c6.7,8.7,13.5,17.3,20.2,26c0.1-0.1,0.1-0.2,0.2-0.3
									c-6.7-8.7-13.5-17.3-20.2-26C507.3,403.4,507.3,403.5,507.2,403.6z"/>
							</g>
							<g>
								<path id="XMLID_330_" class="st6" d="M504.4,408c6.7,8.7,13.5,17.3,20.2,26c0.1-0.1,0.1-0.2,0.2-0.3
									c-6.7-8.7-13.5-17.3-20.2-26C504.5,407.8,504.4,407.9,504.4,408z"/>
							</g>
							<g>
								<path id="XMLID_329_" class="st6" d="M501.5,412.4c6.7,8.7,13.5,17.3,20.2,26c0.1-0.1,0.1-0.2,0.2-0.3
									c-6.7-8.7-13.5-17.3-20.2-26C501.6,412.2,501.6,412.3,501.5,412.4z"/>
							</g>
							<g>
								<path id="XMLID_328_" class="st6" d="M498.6,416.8c6.7,8.7,13.5,17.3,20.2,26c0.1-0.1,0.1-0.2,0.2-0.3
									c-6.7-8.7-13.5-17.3-20.2-26C498.7,416.6,498.7,416.7,498.6,416.8z"/>
							</g>
							<g>
								<path id="XMLID_327_" class="st6" d="M495.8,421.2c6.7,8.7,13.5,17.3,20.2,26c0.1-0.1,0.1-0.2,0.2-0.3
									c-6.7-8.7-13.5-17.3-20.2-26C495.9,421.1,495.9,421.1,495.8,421.2z"/>
							</g>
							<g>
								<path id="XMLID_326_" class="st6" d="M492.9,425.6c6.7,8.7,13.5,17.3,20.2,26c0.1-0.1,0.1-0.2,0.2-0.3
									c-6.7-8.7-13.5-17.3-20.2-26C493,425.5,493,425.5,492.9,425.6z"/>
							</g>
							<g>
								<path id="XMLID_325_" class="st6" d="M490.1,430c6.7,8.7,13.5,17.3,20.2,26c0.1-0.1,0.1-0.2,0.2-0.3
									c-6.7-8.7-13.5-17.3-20.2-26C490.2,429.9,490.1,429.9,490.1,430z"/>
							</g>
							<g>
								<path id="XMLID_324_" class="st6" d="M487.2,434.5c6.7,8.7,13.5,17.3,20.2,26c0.1-0.1,0.1-0.2,0.2-0.3
									c-6.7-8.7-13.5-17.3-20.2-26C487.3,434.3,487.3,434.4,487.2,434.5z"/>
							</g>
							<g>
								<path id="XMLID_323_" class="st6" d="M484.4,438.9c6.7,8.7,13.5,17.3,20.2,26c0.1-0.1,0.1-0.2,0.2-0.3
									c-6.7-8.7-13.5-17.3-20.2-26C484.5,438.7,484.4,438.8,484.4,438.9z"/>
							</g>
						</g>
					</g>
				</g>
				<g id="XMLID_322_">
					<g id="XMLID_125_" class="st2">
						<path id="XMLID_127_" class="st3" d="M477,402.2l21.2-26.7c0,0,20.7,20.9,44.6,18.7l-12.5,34.7
							C530.2,428.9,497.6,433.4,477,402.2z"/>
					</g>
					<g id="XMLID_110_">
						<path id="XMLID_121_" class="st0" d="M473,398.2l21.2-26.7c0,0,20.7,20.9,44.6,18.7l-12.5,34.7
							C526.2,424.9,493.6,429.4,473,398.2z"/>
					</g>
				</g>
				<g id="XMLID_321_">
					<g id="XMLID_120_" class="st2">
						<path id="XMLID_122_" class="st3" d="M509.6,441.2l-27.2,27.3c0,0-20.6-26.1-47.7-26.7l18.5-37.4
							C453.1,404.4,490.3,403.5,509.6,441.2z"/>
					</g>
					<g id="XMLID_105_">
						<path id="XMLID_114_" class="st0" d="M505.1,436.6L477.8,464c0,0-20.6-26.1-47.7-26.7l18.5-37.4
							C448.6,399.9,485.8,399,505.1,436.6z"/>
					</g>
				</g>
				<g id="XMLID_320_">
					<g id="XMLID_112_" class="st2">
						<path id="XMLID_117_" class="st3" d="M227.8,403.2l21.2-26.7c0,0,20.7,20.9,44.6,18.7l-12.5,34.7
							C281.1,429.9,248.4,434.4,227.8,403.2z"/>
					</g>
					<g id="XMLID_103_">
						<path id="XMLID_111_" class="st0" d="M223.8,399.2l21.2-26.7c0,0,20.7,20.9,44.6,18.7l-12.5,34.7
							C277.1,425.9,244.4,430.4,223.8,399.2z"/>
					</g>
				</g>
				<g id="XMLID_319_">
					<g id="XMLID_528_" class="st2">
						<path id="XMLID_534_" class="st3" d="M192.3,402.1l21.2-26.7c0,0,20.7,20.9,44.6,18.7l-12.5,34.7
							C245.6,428.8,213,433.3,192.3,402.1z"/>
					</g>
					<g id="XMLID_113_">
						<path id="XMLID_118_" class="st1" d="M188.3,398.1l21.2-26.7c0,0,20.7,20.9,44.6,18.7l-12.5,34.7
							C241.6,424.8,209,429.2,188.3,398.1z"/>
					</g>
				</g>
				<g id="XMLID_318_">
					<g id="XMLID_532_" class="st2">
						<path id="XMLID_535_" class="st3" d="M347,430l-21.2-26.7c0,0-20.7,20.9-44.6,18.7l12.5,34.7C293.7,456.7,326.3,461.2,347,430
							z"/>
					</g>
					<g id="XMLID_115_">
						<path id="XMLID_529_" class="st1" d="M343,426l-21.2-26.7c0,0-20.7,20.9-44.6,18.7l12.5,34.7C289.7,452.7,322.3,457.2,343,426
							z"/>
					</g>
				</g>
				<g id="XMLID_317_">
					<g id="XMLID_108_" class="st2">
						<path id="XMLID_531_" class="st3" d="M379.2,467.7l-27.4-34.4c0,0-26.7,27-57.5,24.1l16.1,44.8
							C310.5,502.2,352.6,507.9,379.2,467.7z"/>
					</g>
					<g id="XMLID_96_">
						<path id="XMLID_106_" class="st0" d="M374.1,462.6l-27.4-34.4c0,0-26.7,27-57.5,24.1l16.1,44.8
							C305.3,497,347.4,502.8,374.1,462.6z"/>
					</g>
				</g>
				<g id="XMLID_316_">
					<g id="XMLID_525_" class="st2">
						<path id="XMLID_530_" class="st3" d="M160.7,455.3l-4-33.9c0,0,29.4,0.1,44.7-18.4l15.8,33.3
							C217.2,436.3,197.3,462.6,160.7,455.3z"/>
					</g>
					<g id="XMLID_94_">
						<path id="XMLID_97_" class="st0" d="M156.7,451.3l-4-33.9c0,0,29.4,0.1,44.7-18.4l15.8,33.3
							C213.2,432.3,193.3,458.6,156.7,451.3z"/>
					</g>
				</g>
				<g id="XMLID_315_">
					<path id="XMLID_49_" class="st7" d="M306.5,366.9"/>
				</g>
				<g id="XMLID_314_">
					<path id="XMLID_39_" class="st7" d="M312.6,371.6"/>
				</g>
				<g id="XMLID_313_">
					<path id="XMLID_20_" class="st7" d="M318.7,376.3"/>
				</g>
				<g id="XMLID_312_">
					<path id="XMLID_18_" class="st7" d="M324.8,381"/>
				</g>
				<path id="XMLID_311_" class="st7" d="M315.3,371.6"/>
				<g>
					<g>
						<g>
							<g class="st2">
								<path id="XMLID_310_" d="M231,465.2c-13.1,7.3-26.3,14.7-39.4,22c-6.2-20.1-12.4-40.2-18.6-60.3c13.1-7.3,26.3-14.7,39.4-22
									C218.6,425,224.8,445.1,231,465.2z"/>
							</g>
							<g>
								<path id="XMLID_309_" class="st5" d="M230.4,464.5c-13.1,7.3-26.3,14.7-39.4,22c-6.2-20.1-12.4-40.2-18.6-60.3
									c13.1-7.3,26.3-14.7,39.4-22C218,424.3,224.2,444.4,230.4,464.5z"/>
							</g>
						</g>
						<g>
							<g>
								<path id="XMLID_308_" class="st6" d="M207.5,413.9c-9.3,5.2-18.6,10.4-27.9,15.6c0-0.1-0.1-0.2-0.1-0.3
									c9.3-5.2,18.6-10.4,27.9-15.6C207.4,413.7,207.4,413.8,207.5,413.9z"/>
							</g>
							<g>
								<path id="XMLID_307_" class="st6" d="M209.3,419.7c-9.3,5.2-18.6,10.4-27.9,15.6c0-0.1-0.1-0.2-0.1-0.3
									c9.3-5.2,18.6-10.4,27.9-15.6C209.2,419.5,209.2,419.6,209.3,419.7z"/>
							</g>
							<g>
								<path id="XMLID_306_" class="st6" d="M211.1,425.6c-9.3,5.2-18.6,10.4-27.9,15.6c0-0.1-0.1-0.2-0.1-0.3
									c9.3-5.2,18.6-10.4,27.9-15.6C211,425.4,211,425.4,211.1,425.6z"/>
							</g>
							<g>
								<path id="XMLID_305_" class="st6" d="M212.9,431.4c-9.3,5.2-18.6,10.4-27.9,15.6c0-0.1-0.1-0.2-0.1-0.3
									c9.3-5.2,18.6-10.4,27.9-15.6C212.8,431.2,212.8,431.3,212.9,431.4z"/>
							</g>
							<g>
								<path id="XMLID_304_" class="st6" d="M214.7,437.2c-9.3,5.2-18.6,10.4-27.9,15.6c0-0.1-0.1-0.2-0.1-0.3
									c9.3-5.2,18.6-10.4,27.9-15.6C214.6,437,214.6,437.1,214.7,437.2z"/>
							</g>
							<g>
								<path id="XMLID_303_" class="st6" d="M216.5,443c-9.3,5.2-18.6,10.4-27.9,15.6c0-0.1-0.1-0.2-0.1-0.3
									c9.3-5.2,18.6-10.4,27.9-15.6C216.4,442.8,216.4,442.9,216.5,443z"/>
							</g>
							<g>
								<path id="XMLID_302_" class="st6" d="M218.3,448.9c-9.3,5.2-18.6,10.4-27.9,15.6c0-0.1-0.1-0.2-0.1-0.3
									c9.3-5.2,18.6-10.4,27.9-15.6C218.2,448.7,218.2,448.7,218.3,448.9z"/>
							</g>
							<g>
								<path id="XMLID_301_" class="st6" d="M220.1,454.7c-9.3,5.2-18.6,10.4-27.9,15.6c0-0.1-0.1-0.2-0.1-0.3
									c9.3-5.2,18.6-10.4,27.9-15.6C220,454.5,220,454.6,220.1,454.7z"/>
							</g>
							<g>
								<path id="XMLID_300_" class="st6" d="M221.9,460.5c-9.3,5.2-18.6,10.4-27.9,15.6c0-0.1-0.1-0.2-0.1-0.3
									c9.3-5.2,18.6-10.4,27.9-15.6C221.8,460.3,221.8,460.4,221.9,460.5z"/>
							</g>
						</g>
					</g>
				</g>
				<g id="XMLID_299_">
					<g id="XMLID_88_" class="st2">
						<path id="XMLID_90_" class="st3" d="M198.3,414.1l34-13.4c0,0,17,25.5,42,39.9l-27.5,26C246.9,466.7,212.6,450.7,198.3,414.1z
							"/>
					</g>
					<g id="XMLID_75_">
						<path id="XMLID_82_" class="st0" d="M194,409.7l34-13.4c0,0,17,25.5,42,39.9l-27.5,26C242.5,462.3,208.2,446.3,194,409.7z"/>
					</g>
				</g>
				<g id="XMLID_298_">
					<g id="XMLID_93_" class="st2">
						<path id="XMLID_526_" class="st3" d="M309.7,410.5l-34-13.4c0,0-17,25.5-42,39.9l27.5,26C261.2,463.1,295.5,447.1,309.7,410.5
							z"/>
					</g>
					<g id="XMLID_86_">
						<path id="XMLID_92_" class="st4" d="M305.4,406.2l-34-13.4c0,0-17,25.5-42,39.9l27.5,26C256.8,458.7,291.1,442.7,305.4,406.2z
							"/>
					</g>
				</g>
				<g id="XMLID_297_">
					<g id="XMLID_81_" class="st2">
						<path id="XMLID_83_" class="st3" d="M402.6,449.4l-13.5-34c0,0-30.2,5-57.9-3.4L331,450C331,450,366.1,464,402.6,449.4z"/>
					</g>
					<g id="XMLID_70_">
						<path id="XMLID_77_" class="st0" d="M398.2,445.1l-13.5-34c0,0-30.2,5-57.9-3.4l-0.2,37.9
							C326.6,445.6,361.8,459.7,398.2,445.1z"/>
					</g>
				</g>
				<g id="XMLID_296_">
					<g id="XMLID_76_" class="st2">
						<path id="XMLID_78_" class="st3" d="M274.2,490.4l-10.8-35c0,0-30.5,2.6-57.4-7.9l-3.1,37.8
							C202.8,485.3,236.7,502,274.2,490.4z"/>
					</g>
					<g id="XMLID_64_">
						<path id="XMLID_72_" class="st0" d="M269.9,486l-10.8-35c0,0-30.5,2.6-57.4-7.9l-3.1,37.8C198.5,480.9,232.4,497.7,269.9,486z
							"/>
					</g>
				</g>
				<g id="XMLID_295_">
					<g id="XMLID_71_" class="st2">
						<path id="XMLID_73_" class="st3" d="M350,338.1l-13.5-34c0,0-30.2,5-57.9-3.4l-0.2,37.9C278.5,338.6,313.6,352.6,350,338.1z"
							/>
					</g>
					<g id="XMLID_56_">
						<path id="XMLID_67_" class="st0" d="M345.7,333.7l-13.5-34c0,0-30.2,5-57.9-3.4l-0.2,37.9
							C274.1,334.2,309.2,348.3,345.7,333.7z"/>
					</g>
				</g>
				<path id="XMLID_294_" class="st8" d="M364.7,309.5c-7.5,8.4-15.4,14.5-21.3,18.4c4.6-0.3,9.3-1.4,13.8-3.3l-0.2,9.2
					c2.6-5.3,5.1-10.7,7.6-16.4L364.7,309.5z"/>
				<g id="XMLID_293_">
					<g id="XMLID_66_" class="st2">
						<path id="XMLID_68_" class="st3" d="M350.4,332.4c5.9-3.9,13.8-10,21.3-18.4l0,7.9c5.4-12.1,10.3-24.9,14.4-37.8L355.4,272
							c0,0-17,25.5-42,39.9l20.4,19.2C338.8,332.2,344.5,332.9,350.4,332.4z"/>
					</g>
					<g id="XMLID_51_">
						<path id="XMLID_62_" class="st0" d="M346.1,328.1c5.9-3.9,13.8-10,21.3-18.4l0,7.9c5.4-12.1,10.3-24.9,14.4-37.8l-30.7-12.1
							c0,0-17,25.5-42,39.9l20.4,19.2C334.4,327.9,340.2,328.5,346.1,328.1z"/>
					</g>
				</g>
				<g id="XMLID_292_">
					<g id="XMLID_59_" class="st2">
						<path id="XMLID_63_" class="st3" d="M431,328.3c3.2-0.9,6.4-1.9,9.6-3.2l-13.5-34c0,0-6.4,1.1-15.9,1.4
							c-1.2,6.9-2.8,15-4.6,23.8C412.1,320.5,420.8,325.9,431,328.3z"/>
					</g>
					<g id="XMLID_46_">
						<path id="XMLID_55_" class="st0" d="M426.6,324c3.2-0.9,6.4-1.9,9.6-3.2l-13.5-34c0,0-6.4,1.1-15.9,1.4
							c-1.2,6.9-2.8,15-4.6,23.8C407.8,316.2,416.5,321.6,426.6,324z"/>
					</g>
				</g>
				<path id="XMLID_291_" class="st9" d="M337.4,374.6l1.3-6.5c-11,18.9-19.4,30.9-19.4,30.9c38,26.9,53.2,13.8,53.2,13.8
					c4.7-9.3,9-20.9,12.9-33.5C374.5,383,357,385.5,337.4,374.6z"/>
				<circle id="XMLID_290_" class="st10" cx="402.7" cy="281.4" r="1.8"/>
				<g id="XMLID_289_">
					<g id="XMLID_524_" class="st2">
						<path id="XMLID_527_" class="st3" d="M360.8,347.7l0.3-9.9l0.2-9.2c-4.5,2-9.2,3-13.8,3.3c-5.9,0.4-11.6-0.2-16.7-1.2
							c-10.2-2.1-17.6-5.9-17.6-5.9l-11.7,32c15.3,12,30.6,13.8,41.8,12.9l4.8-24.6C347.9,345.1,353.2,346.8,360.8,347.7z"/>
					</g>
					<g id="XMLID_60_">
						<path id="XMLID_65_" class="st4" d="M356.7,343.7l0.3-9.9l0.2-9.2c-4.5,2-9.2,3-13.8,3.3c-5.9,0.4-11.6-0.2-16.7-1.2
							c-10.2-2.1-17.6-5.9-17.6-5.9l-11.7,32c15.3,12,30.6,13.8,41.8,12.9l4.8-24.6C343.9,341.1,349.1,342.8,356.7,343.7z"/>
					</g>
				</g>
				<g id="XMLID_288_">
					<g id="XMLID_52_" class="st2">
						<path id="XMLID_58_" class="st3" d="M430.6,328c-10.1-2.4-18.8-7.8-24.4-12c-4.2-3.2-6.6-5.6-6.6-5.6L378.4,337
							c2.3,3.4,4.7,6.4,7.1,9c-8.7,2.6-17.7,2.5-24.8,1.7c-7.6-0.9-12.9-2.6-12.9-2.6l-4.8,24.6l-0.4,2.3l-1.3,6.5
							c19.6,10.9,37.1,8.4,48,4.7c7.3-2.5,11.6-5.5,11.6-5.5L398,356c17,10,33.6,7.7,33.6,7.7l12.5-34.7
							C439.4,329.4,434.9,329,430.6,328z"/>
					</g>
					<g id="XMLID_41_">
						<path id="XMLID_50_" class="st0" d="M426.6,324c-10.1-2.4-18.8-7.8-24.4-12c-4.2-3.2-6.6-5.6-6.6-5.6L374.3,333
							c2.3,3.4,4.7,6.4,7.1,9c-8.7,2.6-17.7,2.5-24.8,1.7c-7.6-0.9-12.9-2.6-12.9-2.6l-4.8,24.6l-0.4,2.3l-1.3,6.5
							c19.6,10.9,37.1,8.4,48,4.7c7.3-2.5,11.6-5.5,11.6-5.5l-2.9-21.8c17,10,33.6,7.7,33.6,7.7l12.5-34.7
							C435.4,325.4,430.9,325,426.6,324z"/>
					</g>
				</g>
				<g id="XMLID_287_">
					<g id="XMLID_48_" class="st2">
						<path id="XMLID_53_" class="st3" d="M193.5,320.6l39.5,15.5l6.9-6.5c-25-14.4-42-39.9-42-39.9l-21.7,8.5
							c4.9,10.3,9.8,19.1,14.3,26.6C192.4,322.2,193.5,320.6,193.5,320.6z"/>
					</g>
					<g id="XMLID_38_">
						<path id="XMLID_47_" class="st0" d="M189.1,316.3l39.5,15.5l6.9-6.5c-25-14.4-42-39.9-42-39.9l-21.7,8.5
							c4.9,10.3,9.8,19.1,14.3,26.6C188,317.9,189.1,316.3,189.1,316.3z"/>
					</g>
				</g>
				<g id="XMLID_286_">
					<g id="XMLID_45_" class="st2">
						<path id="XMLID_246_" class="st3" d="M106.2,291.8l-0.2,42.1c0,0,18.8,7.5,43.8,6.7c-5.2-14.9-9.6-29.8-13.3-43.7
							C126.9,296.3,116.4,294.9,106.2,291.8z"/>
					</g>
					<g id="XMLID_37_">
						<path id="XMLID_42_" class="st0" d="M101.3,286.9l-0.2,42.1c0,0,18.8,7.5,43.8,6.7c-5.2-14.9-9.6-29.8-13.3-43.7
							C122.1,291.5,111.6,290,101.3,286.9z"/>
					</g>
				</g>
				<g id="XMLID_285_">
					<g id="XMLID_43_" class="st2">
						<path id="XMLID_514_" class="st3" d="M194.4,321.6c0,0-1.1,1.6-3,4.2c-5.3,7.1-17.4,22-33.8,34.7c-4.5,3.5-9.3,6.8-14.3,9.7
							l33.5,31.7c0,0,41.7-19.5,59.1-64l-2-0.8L194.4,321.6z"/>
					</g>
					<g id="XMLID_36_">
						<path id="XMLID_40_" class="st0" d="M189.1,316.3c0,0-1.1,1.6-3,4.2c-5.3,7.1-17.4,22-33.8,34.7c-4.5,3.5-9.3,6.8-14.3,9.7
							l33.5,31.7c0,0,41.7-19.5,59.1-64l-2-0.8L189.1,316.3z"/>
					</g>
				</g>
				<g id="XMLID_284_">
					<g id="XMLID_273_" class="st2">
						<path id="XMLID_520_" class="st3" d="M268.7,369.8l-12.9-34.2c0,0-30.3,4.5-57.8-4.4l-0.9,37.9
							C197.2,369.1,232,383.8,268.7,369.8z"/>
					</g>
					<g id="XMLID_227_">
						<path id="XMLID_259_" class="st0" d="M264.4,365.5l-12.9-34.2c0,0-30.3,4.5-57.8-4.4l-0.9,37.9
							C192.8,364.7,227.7,379.4,264.4,365.5z"/>
					</g>
				</g>
				<g id="XMLID_283_">
					<g id="XMLID_515_" class="st2">
						<path id="XMLID_521_" class="st3" d="M334.8,401.8l21.2-26.7c0,0,20.7,20.9,44.6,18.7L388,428.5
							C388,428.5,355.4,432.9,334.8,401.8z"/>
					</g>
					<g id="XMLID_268_">
						<path id="XMLID_511_" class="st0" d="M330.8,397.8l21.2-26.7c0,0,20.7,20.9,44.6,18.7L384,424.5
							C384,424.5,351.4,428.9,330.8,397.8z"/>
					</g>
				</g>
				<g id="XMLID_282_">
					<g id="XMLID_519_" class="st2">
						<path id="XMLID_523_" class="st3" d="M273.7,347.4l34-13.4c0,0,17,25.5,42,39.9l-27.5,26C322.2,400,287.9,384,273.7,347.4z"/>
					</g>
					<g id="XMLID_512_">
						<path id="XMLID_518_" class="st0" d="M269.3,343.1l34-13.4c0,0,17,25.5,42,39.9l-27.5,26C317.9,395.6,283.6,379.6,269.3,343.1
							z"/>
					</g>
				</g>
				<g id="XMLID_281_">
					<g id="XMLID_272_" class="st2">
						<path id="XMLID_516_" class="st3" d="M375,411.9L360,374c0,0-33.7,5.6-64.6-3.7l-0.2,42.3C295.2,412.5,334.4,428.2,375,411.9z
							"/>
					</g>
					<g id="XMLID_252_">
						<path id="XMLID_263_" class="st0" d="M370.2,407.1l-15.1-37.9c0,0-33.7,5.6-64.6-3.7l-0.2,42.3
							C290.3,407.7,329.5,423.4,370.2,407.1z"/>
					</g>
				</g>
				<g>
					<g>
						<g>
							<g class="st2">
								<path id="XMLID_280_" d="M418.6,398c-13.1,7.3-26.3,14.7-39.4,22c-6.2-20.1-12.4-40.2-18.6-60.3c13.1-7.3,26.3-14.7,39.4-22
									C406.2,357.9,412.4,377.9,418.6,398z"/>
							</g>
							<g>
								<path id="XMLID_279_" class="st5" d="M418.1,397.3c-13.1,7.3-26.3,14.7-39.4,22c-6.2-20.1-12.4-40.2-18.6-60.3
									c13.1-7.3,26.3-14.7,39.4-22C405.7,357.1,411.9,377.2,418.1,397.3z"/>
							</g>
						</g>
						<g>
							<g>
								<path id="XMLID_278_" class="st6" d="M395.2,346.8c-9.3,5.2-18.6,10.4-27.9,15.6c0-0.1-0.1-0.2-0.1-0.3
									c9.3-5.2,18.6-10.4,27.9-15.6C395.1,346.5,395.1,346.6,395.2,346.8z"/>
							</g>
							<g>
								<path id="XMLID_277_" class="st6" d="M397,352.6c-9.3,5.2-18.6,10.4-27.9,15.6c0-0.1-0.1-0.2-0.1-0.3
									c9.3-5.2,18.6-10.4,27.9-15.6C396.9,352.4,396.9,352.4,397,352.6z"/>
							</g>
							<g>
								<path id="XMLID_276_" class="st6" d="M398.8,358.4c-9.3,5.2-18.6,10.4-27.9,15.6c0-0.1-0.1-0.2-0.1-0.3
									c9.3-5.2,18.6-10.4,27.9-15.6C398.7,358.2,398.7,358.3,398.8,358.4z"/>
							</g>
							<g>
								<path id="XMLID_274_" class="st6" d="M400.6,364.2c-9.3,5.2-18.6,10.4-27.9,15.6c0-0.1-0.1-0.2-0.1-0.3
									c9.3-5.2,18.6-10.4,27.9-15.6C400.5,364,400.5,364.1,400.6,364.2z"/>
							</g>
							<g>
								<path id="XMLID_271_" class="st6" d="M402.4,370c-9.3,5.2-18.6,10.4-27.9,15.6c0-0.1-0.1-0.2-0.1-0.3
									c9.3-5.2,18.6-10.4,27.9-15.6C402.3,369.8,402.3,369.9,402.4,370z"/>
							</g>
							<g>
								<path id="XMLID_266_" class="st6" d="M404.1,375.9c-9.3,5.2-18.6,10.4-27.9,15.6c0-0.1-0.1-0.2-0.1-0.3
									c9.3-5.2,18.6-10.4,27.9-15.6C404.1,375.7,404.1,375.7,404.1,375.9z"/>
							</g>
							<g>
								<path id="XMLID_264_" class="st6" d="M405.9,381.7c-9.3,5.2-18.6,10.4-27.9,15.6c0-0.1-0.1-0.2-0.1-0.3
									c9.3-5.2,18.6-10.4,27.9-15.6C405.9,381.5,405.9,381.6,405.9,381.7z"/>
							</g>
							<g>
								<path id="XMLID_262_" class="st6" d="M407.7,387.5c-9.3,5.2-18.6,10.4-27.9,15.6c0-0.1-0.1-0.2-0.1-0.3
									c9.3-5.2,18.6-10.4,27.9-15.6C407.7,387.3,407.7,387.4,407.7,387.5z"/>
							</g>
							<g>
								<path id="XMLID_256_" class="st6" d="M409.5,393.3c-9.3,5.2-18.6,10.4-27.9,15.6c0-0.1-0.1-0.2-0.1-0.3
									c9.3-5.2,18.6-10.4,27.9-15.6C409.5,393.1,409.5,393.2,409.5,393.3z"/>
							</g>
						</g>
					</g>
				</g>
			</g>
		</g>
		<g>
			<g>
				<g id="XMLID_6_">
					<path id="XMLID_221_" class="st11" d="M434.7,214.3c0.7,3.4-8,12.1-14.5,20.9c-5,6.7-6.5,13.1-8.3,21.3l-13.6-4.4l-9.8-3.3
						c1.5-4.7,2.1-6.6,0.4-11.2c-2.4-5.5-4.7-11-7-16.7c-1.9-5-4.1-10.2,3.2-7.2c5.2,2,2.6,8.7,8.3,8.9c5.9,0.3,6-21.7,6-28
						c0-7.9,4.6-9,6.1-2.6c0.3,6.5-1.5,17.7,0,23.8c2.1-5.5,2.7-7.2,4.8-15.3c1.3-5,3.6-17,7.8-13.3c2.8,2.5-0.7,11.3-1.3,14.9
						c-1.1,5.2-3.1,15.9-3.2,16.1c0,0.1,0,0.1,0,0c0,0,0.5,0.1,0.5,0.1c0.4-0.9,6.4-14.7,8.9-19.1c1.5-2.8,5.3-7.8,6.1-3.3
						c0.7,4.3-3.1,10.6-4.9,15.2c-0.7,1.7-3,7.7-3.4,10.8c0,0,0.5,0.6,0.9,0.4c0.4-0.2,10.1-9.7,11.6-9.1
						C435,213.5,434.7,213.8,434.7,214.3z"/>
				</g>
				<path class="st9" d="M364.6,317.4c-2.5,5.6-5.1,11.1-7.6,16.4l-0.3,9.9c7,0.8,16,0.9,24.8-1.7c-2.5-2.6-4.9-5.6-7.1-9l21.2-26.7
					c0,0,2.4,2.5,6.6,5.6c1.8-8.8,3.3-16.9,4.6-23.8c1.8-10.2,3-17.6,3.5-20.5l0,0l-25.3-9.7c-1.6,7.2-3.6,14.4-5.8,21.6
					C375,292.6,370,305.3,364.6,317.4z M404.5,271.1c1,0,1.8,0.8,1.8,1.8s-0.8,1.8-1.8,1.8c-1,0-1.8-0.8-1.8-1.8
					S403.5,271.1,404.5,271.1z M402.7,279.5c1,0,1.8,0.8,1.8,1.8c0,1-0.8,1.8-1.8,1.8c-1,0-1.8-0.8-1.8-1.8
					C400.9,280.4,401.7,279.5,402.7,279.5z"/>
				<polygon id="XMLID_9_" class="st5" points="410.2,267.7 412.4,256.8 398.3,252.1 388.5,248.7 387.3,248.3 384.9,258 
					410.2,267.7 				"/>
			</g>
			<g>
				<g id="XMLID_5_">
					<path id="XMLID_209_" class="st11" d="M137.9,192.2c2.3-5.7,4.6-11.4,6.7-17.4c1.8-5.3,0-13.4-4.4-6.6
						c-1.7,2.6-1.9,8.4-6.8,9.7c-5.9,1.6-7-22.9-7.1-29.3c-0.2-8.2-4.7-7.4-6-0.8c-1.1,6.5,1.8,17.4,0.3,23.7
						c-2.3-5.6-6.7-14.9-9.1-23.2c-1.5-5.1-4.1-17.5-8.4-13.5c-2.8,2.7,1,11.6,1.8,15.4c1.3,5.4,8,24.6,8,24.6
						c-1.2-0.1-10.9-18.9-14.6-27.5c-1.3-3-4.3-7.4-6.4-3.3c-1.7,3.3,1.5,8.8,3.6,13.5c1.1,2.5,10.2,20.6,9.4,23
						c-0.3,1-3.6-1-5.9-3.6c-3.3-3.7-8.9-11.7-10.2-6.4c-0.8,3.5,5.8,13.5,12.7,22.3c5.4,6.8,11.1,11.2,13.1,19.7l13.9-4.9l10.1-3.7
						C136.9,199,136.3,197.1,137.9,192.2z"/>
				</g>
				<path class="st9" d="M186.1,320.5c-4.6-7.5-9.4-16.3-14.3-26.6c-9.9-20.7-20.2-47.1-29.1-80.6L116.7,224l-0.1-0.5
					c0.9,5.4,5.7,33.8,15,68.5c3.7,13.9,8.2,28.8,13.3,43.7c2.3,6.6,4.7,13.1,7.3,19.5C168.6,342.6,180.7,327.7,186.1,320.5z
					 M120.8,229.3c0-1.1,0.8-1.9,1.9-2c1.1,0,1.9,0.8,2,1.9c0,1.1-0.8,1.9-1.9,2C121.7,231.2,120.9,230.4,120.8,229.3z M124.9,239.9
					c-1.1,0-1.9-0.8-2-1.9c0-1,0.8-1.9,1.9-2c1.1,0,1.9,0.8,2,1.9C126.8,239,126,239.8,124.9,239.9z"/>
				<polygon id="XMLID_1_" class="st5" points="142.6,213.3 139.9,203.4 138.6,203.8 128.6,207.5 114.2,212.9 116.6,223.5 
					116.7,224 				"/>
			</g>
		</g>
	</g>
</g>
</svg>
