<?xml version="1.0" encoding="utf-8"?>
<!-- Generator: Adobe Illustrator 19.0.0, SVG Export Plug-In . SVG Version: 6.00 Build 0)  -->
<svg version="1.1" xmlns="http://www.w3.org/2000/svg" xmlns:xlink="http://www.w3.org/1999/xlink" x="0px" y="0px"
	 viewBox="-215 217 128 128" style="enable-background:new -215 217 128 128;" xml:space="preserve">
<style type="text/css">
	.st0{fill:none;stroke:#CCEBF8;stroke-width:4;stroke-miterlimit:10;}
	.st1{fill:#52AF50;}
	.st2{fill:#746355;}
	.st3{fill-rule:evenodd;clip-rule:evenodd;fill:#414141;}
	.st4{fill-rule:evenodd;clip-rule:evenodd;fill:#FFFFFF;}
	.st5{fill-rule:evenodd;clip-rule:evenodd;fill:#CACACA;}
</style>
<g id="Layer_1">
	<g id="Layer_1_1_">
		<circle id="XMLID_1_" class="st0" cx="-151" cy="281" r="62"/>
	</g>
	<g id="Layer_2">
		<circle id="XMLID_2_" class="st1" cx="-151" cy="281" r="52.5"/>
	</g>
</g>
<g id="Layer_2_1_">
	<path class="st2" d="M-72.4,303.2"/>
	<path class="st3" d="M-186.3,296.1c-1.2,0-2.2-1-2.2-2.2v-21.5c0-1.2,1-2.2,2.2-2.2h70.6c1.2,0,2.2,1,2.2,2.2v21.5
		c0,1.2-1,2.2-2.2,2.2"/>
	<circle class="st4" cx="-123.3" cy="285.5" r="1.7"/>
	<g>
		<polygon class="st4" points="-133.2,251.6 -168.7,251.8 -168.8,279.7 -133.3,279.7 		"/>
		<polygon class="st5" points="-142.4,257.2 -159.6,257.3 -159.6,258.2 -142.4,258.1 		"/>
		<polygon class="st5" points="-136.5,259.5 -165.5,259.6 -165.5,260.5 -136.5,260.4 		"/>
		<polygon class="st5" points="-136.5,261.1 -165.5,261.2 -165.5,262.1 -136.5,262 		"/>
		<polygon class="st5" points="-136.5,262.7 -165.5,262.8 -165.5,263.7 -136.5,263.6 		"/>
		<polygon class="st5" points="-136.5,264.2 -165.5,264.4 -165.5,265.3 -136.5,265.2 		"/>
		<polygon class="st5" points="-136.5,265.8 -165.5,266 -165.5,266.9 -136.5,266.7 		"/>
		<polygon class="st5" points="-136.5,267.4 -165.5,267.6 -165.5,268.5 -136.5,268.3 		"/>
		<polygon class="st5" points="-136.5,269 -165.5,269.2 -165.5,270.1 -136.5,269.9 		"/>
		<polygon class="st5" points="-136.5,270.6 -165.5,270.8 -165.5,271.7 -136.5,271.5 		"/>
		<polygon class="st5" points="-136.5,272.2 -151,272.3 -151,273.2 -136.5,273.1 		"/>
	</g>
	<g>
		<polygon class="st4" points="-133.2,286.3 -168.8,286.3 -168.8,307.5 -133.3,307.3 		"/>
		<polygon class="st5" points="-136.5,291.4 -149.8,291.5 -149.8,292.4 -136.5,292.4 		"/>
		<polygon class="st5" points="-136.5,293 -149.8,293.1 -149.8,294 -136.5,293.9 		"/>
		<polygon class="st5" points="-136.5,294.6 -149.8,294.7 -149.8,295.6 -136.5,295.5 		"/>
		<polygon class="st5" points="-136.5,296.2 -149.8,296.3 -149.8,297.2 -136.5,297.1 		"/>
		<polygon class="st5" points="-136.5,297.8 -149.8,297.9 -149.8,298.8 -136.5,298.7 		"/>
		<polygon class="st5" points="-136.5,299.4 -149.8,299.5 -149.8,300.4 -136.5,300.3 		"/>
		<polygon class="st5" points="-136.5,301 -149.8,301.1 -149.8,302 -136.5,301.9 		"/>
		<polygon class="st5" points="-136.6,302.6 -143.2,302.6 -143.2,303.5 -136.6,303.5 		"/>
		<polygon class="st5" points="-152.2,291.5 -165.5,291.6 -165.5,292.5 -152.2,292.4 		"/>
		<polygon class="st5" points="-152.2,293.1 -165.5,293.2 -165.5,294.1 -152.2,294 		"/>
		<polygon class="st5" points="-152.2,294.7 -165.5,294.8 -165.5,295.7 -152.2,295.6 		"/>
		<polygon class="st5" points="-152.2,296.3 -165.5,296.4 -165.5,297.3 -152.2,297.2 		"/>
		<polygon class="st5" points="-152.2,297.9 -165.5,298 -165.5,298.9 -152.2,298.8 		"/>
		<polygon class="st5" points="-152.2,299.5 -165.5,299.6 -165.5,300.5 -152.2,300.4 		"/>
		<polygon class="st5" points="-152.2,301.1 -165.5,301.2 -165.5,302.1 -152.2,302 		"/>
		<polygon class="st5" points="-152.2,302.7 -161.6,302.7 -161.6,303.6 -152.2,303.6 		"/>
		<line class="st5" x1="-165.5" y1="286.3" x2="-136.5" y2="286.2"/>
	</g>
</g>
</svg>
