<?xml version="1.0" encoding="utf-8"?>
<!-- Generator: Adobe Illustrator 19.0.0, SVG Export Plug-In . SVG Version: 6.00 Build 0)  -->
<svg version="1.1" xmlns="http://www.w3.org/2000/svg" xmlns:xlink="http://www.w3.org/1999/xlink" x="0px" y="0px"
	 viewBox="-215 217 128 128" style="enable-background:new -215 217 128 128;" xml:space="preserve">
<style type="text/css">
	.st0{fill:none;stroke:#CCEBF8;stroke-width:4;stroke-miterlimit:10;}
	.st1{fill:#FAA93B;}
	.st2{opacity:0.6;fill:#FFFFFF;}
	.st3{fill:#BE1E2D;}
	.st4{fill:#6D6E71;}
	.st5{fill:#231F20;}
	.st6{fill:#F2AD79;}
	.st7{fill:#F9C38F;}
	.st8{fill:#D1D3D4;}
	.st9{fill:#FFFFFF;}
</style>
<g id="Layer_1">
	<g id="Layer_1_1_">
		<circle id="XMLID_1_" class="st0" cx="-151" cy="281" r="62"/>
	</g>
	<g id="Layer_2">
		<circle id="XMLID_2_" class="st1" cx="-151" cy="281" r="52.5"/>
	</g>
</g>
<g id="Layer_2_1_">
	<g>
		<rect x="-172.5" y="250.7" class="st2" width="43" height="62"/>
		<g>
			<line class="st3" x1="-169.7" y1="257.9" x2="-132.3" y2="257.9"/>
			<rect x="-169.7" y="257.7" class="st3" width="37.3" height="0.3"/>
		</g>
		<rect x="-163.8" y="264.4" class="st4" width="24.9" height="0.5"/>
		<rect x="-163.8" y="265.5" class="st4" width="24.9" height="0.5"/>
		<rect x="-163.8" y="266.9" class="st4" width="24.9" height="0.5"/>
		<rect x="-163.9" y="275.5" class="st4" width="24.9" height="0.5"/>
		<rect x="-163.9" y="276.6" class="st4" width="24.9" height="0.5"/>
		<rect x="-163.9" y="278" class="st4" width="24.9" height="0.5"/>
		<rect x="-166.5" y="269.2" class="st4" width="34.2" height="0.5"/>
		<rect x="-169.7" y="270.5" class="st4" width="37.3" height="0.5"/>
		<rect x="-167" y="260.3" class="st4" width="34.2" height="0.5"/>
		<rect x="-170.2" y="261.6" class="st4" width="37.3" height="0.5"/>
		<rect x="-169.7" y="271.8" class="st4" width="37.3" height="0.5"/>
		<rect x="-169.7" y="273.3" class="st4" width="37.3" height="0.5"/>
		<rect x="-166.5" y="280.6" class="st4" width="34.2" height="0.5"/>
		<rect x="-169.7" y="281.9" class="st4" width="37.3" height="0.5"/>
		<rect x="-169.7" y="283.3" class="st4" width="37.3" height="0.5"/>
		<rect x="-169.7" y="284.7" class="st4" width="37.3" height="0.5"/>
		<rect x="-169.7" y="286.2" class="st4" width="37.3" height="0.5"/>
		<rect x="-169.7" y="287.5" class="st4" width="37.3" height="0.5"/>
		<rect x="-169.7" y="288.8" class="st4" width="37.3" height="0.5"/>
		<rect x="-145.6" y="306.2" class="st4" width="11.2" height="0.5"/>
		<g>
			<path class="st5" d="M-143.4,303.8c-0.7,0.3-1.5,0.3-2.1-0.3c-0.5-0.5-0.7-1.2-0.5-1.8c0.2-0.8,1-1.1,1.7-0.9
				c0.9,0.3,1.8,1.3,2.1,2.1c0,0.1,0.1,0.1,0.1,0c0.5-1.4,1.1-2.7,1.7-4.1c0,0-0.1,0-0.1,0c0.5,1.1,0,2.5-0.2,3.7c0,0,0.1,0,0.1,0
				c-0.2-0.8-0.1-1.6,0.2-2.3c0,0-0.1,0-0.1,0c0.1,0.5,0.2,0.9,0.7,0.9c0.6,0.1,1.2-0.2,1.7,0.1c0,0,0.1,0,0.1,0
				c1-0.8,2.4-0.3,3.6-0.8c0.1,0,0-0.2-0.1-0.1c-0.7,0.4-1.5,0.3-2.3,0.4c-0.3,0-0.5,0.1-0.8,0.2c-0.2,0.1-0.3,0.3-0.6,0.2
				c-0.4-0.1-0.7-0.1-1.1-0.1c-0.6,0-1-0.2-1.1-0.8c0-0.1-0.1-0.1-0.1,0c-0.3,0.8-0.4,1.6-0.2,2.4c0,0.1,0.1,0.1,0.1,0
				c0.2-1.2,0.7-2.6,0.2-3.8c0,0-0.1,0-0.1,0c-0.6,1.4-1.2,2.7-1.7,4.1c0,0,0.1,0,0.1,0c-0.4-1-1.3-1.9-2.2-2.2
				c-0.7-0.3-1.6,0-1.8,0.7c-0.3,0.7-0.1,1.5,0.4,2c0.6,0.7,1.5,0.8,2.3,0.5C-143.2,303.9-143.3,303.7-143.4,303.8L-143.4,303.8z"/>
		</g>
	</g>
	<g>
		<g>
			<g>
				<path class="st6" d="M-116,277.7l-16.7,1.7c-0.5,0-1.2,0.1-1.5,0s-1.1-0.1-1.5-0.1h-3.8c-0.5,0-1.1-0.3-1.4-0.6l-2.2-2.4
					c-0.3-0.3-0.9-0.6-1.4-0.6h-0.3c-0.5,0-1.1-0.3-1.3-0.7l-0.7-1c-0.3-0.4-0.9-0.7-1.3-0.8l-7.6-0.8c-0.5,0-1,0.2-1.3,0.6
					l-0.1,0.1c-0.2,0.4-0.6,1-0.8,1.4l-1,1.6c-0.1,0.2-0.2,0.5-0.2,0.8c0,0.2,0,0.4,0.1,0.5l0.3,0.8c0.2,0.4,0.7,0.6,1.1,0.4
					l3.1-1.4c0.4-0.2,1.1-0.4,1.6-0.4l0.7-0.1c0.5,0,0.9-0.1,0.9-0.1c0,0,0.4,0.2,0.7,0.5l1.2,1c0.4,0.3,0.9,0.8,1.3,1.1l6,4.7
					c0.4,0.3,1,0.7,1.4,1l6.3,4c0.3,0.2,0.4,0.5,0.4,0.7c0,0.2,0,0.3-0.1,0.5c-0.3,0.4-0.1,0.6,0.3,0.6s1.1,0,1.6,0.1l16.4,1.6
					c0.5,0,0.8-0.3,0.8-0.8v-13.5C-115.2,278-115.5,277.6-116,277.7z"/>
				<path class="st7" d="M-134.5,289.1l-6.3-4c-0.4-0.2-1-0.7-1.4-1l-6-4.7c-0.4-0.3-0.9-0.8-1.3-1.1l-1.2-1
					c-0.4-0.3-0.7-0.5-0.7-0.5c0,0-0.4,0-0.9,0.1l-0.7,0.1c-0.5,0-1.2,0.2-1.6,0.4l-3.1,1.4c-0.4,0.2-0.9,0-1.1-0.4l-0.3-0.8
					c-0.1-0.2-0.1-0.3-0.1-0.5c0-0.3,0.1-0.7,0.2-1l1-1.6c0.2-0.4,0-0.7-0.4-0.7h-7.8c-0.5,0-1.2,0-1.7-0.1L-186,272
					c-0.5,0-0.8,0.3-0.8,0.8v15c0,0.5,0.4,0.8,0.8,0.7l18.1-3c0.3-0.1,0.7-0.1,0.9-0.1c0.2-0.5,0.6-1,1.1-1.1l0.6-0.2
					c0.6-0.2,1.3,0.1,1.5,0.6c0.2,0.5,0.3,1.3,0.4,1.9c0.2-0.3,0.5-0.6,0.8-0.8l0.8-0.6c0.5-0.4,1.3-0.8,1.7-0.8
					c0.4,0,0.8,0.5,0.8,1.2v0.7c0,0.5-0.1,1.1-0.3,1.7l1.4-1.7c0.4-0.5,1.1-0.9,1.5-0.9c0.4,0,1,0.5,1.3,1.1l0.2,0.4
					c0.3,0.6,0.2,1.5-0.2,2.1l-0.5,0.8l0.6-0.7c0.4-0.5,1.3-0.9,1.9-0.9h0.1c0.7,0,1.2,0.4,1.2,0.9s-0.2,1.4-0.4,2l-1.2,3
					c0.3,0.2,0.6,0.4,0.8,0.5l1.4,0.9c0.4,0.2,1.1,0.6,1.5,0.7l2,0.6c0.4,0.1,1,0,1.3-0.4l0.4-0.5c0.3-0.4,0.9-0.6,1.4-0.6h2.3
					c0.5,0,1.1-0.3,1.3-0.7l0.4-0.6c0.3-0.4,0.9-0.7,1.3-0.7h1c0.5,0,0.9-0.4,1-0.8l0.1-0.9c0.1-0.5,0.4-0.6,0.8-0.3l0.6,0.5
					c0.4,0.3,0.8,0.3,1.1-0.1s0.6-0.9,0.9-1.2c0.1-0.1,0.1-0.2,0.1-0.4C-134.1,289.6-134.2,289.3-134.5,289.1z"/>
				<path class="st6" d="M-152.2,288.8c0-0.5-0.5-0.9-1.2-0.9h-0.1c-0.7,0-1.5,0.4-1.9,0.9l-0.6,0.7l0.5-0.8
					c0.4-0.5,0.5-1.5,0.2-2.1l-0.2-0.4c-0.3-0.6-0.8-1.1-1.3-1.1c-0.4,0-1.1,0.4-1.5,0.9l-1.4,1.7c0.2-0.6,0.3-1.2,0.3-1.7v-0.7
					c0-0.7-0.3-1.2-0.8-1.2c-0.4,0-1.2,0.3-1.7,0.8l-0.8,0.6c-0.2,0.2-0.5,0.5-0.8,0.8c0-0.6-0.2-1.5-0.4-1.9
					c-0.2-0.5-0.9-0.8-1.5-0.6l-0.6,0.2c-0.5,0.2-0.9,0.6-1.1,1.1c0,0.2-0.1,0.3-0.1,0.5v0.1c0,0.7,0.2,1.6,0.5,2s1,0.8,1.7,0.8h0.3
					c0,0,0,0,0,0l-0.2,0.4c-0.3,0.6-0.3,1.6,0,2.2l0.1,0.3c0.2,0.6,1,1.1,1.6,1.1c0.6,0,1.2-0.4,1.6-0.9l0.5,2.2
					c0.1,0.6,0.7,1.2,1.4,1.2s1.3-0.5,1.4-1.2l0,0c0,0,0,0.1,0,0.1l0.4,0.6c0.3,0.6,1.1,1,1.8,1h0.1c0.7,0,1.4-0.5,1.6-1.1l0.4-1
					l1.2-3C-152.4,290.1-152.2,289.2-152.2,288.8z"/>
			</g>
			<polygon class="st5" points="-115.2,276.2 -130.8,278.2 -130.8,292.1 -115.2,293.8 			"/>
			<rect x="-132.4" y="278.7" class="st8" width="1.6" height="13"/>
			<polygon class="st8" points="-168,273.3 -166.7,273.3 -167.7,285.8 -168.9,285.8 			"/>
			<polygon class="st5" points="-186.8,269.9 -168,272.5 -168.9,286.5 -186.8,289.9 			"/>
		</g>
		<circle class="st9" cx="-171.4" cy="285" r="1.1"/>
		<circle class="st9" cx="-128.6" cy="289.9" r="1.1"/>
	</g>
</g>
</svg>
