<?xml version="1.0" encoding="utf-8"?>
<!-- Generator: Adobe Illustrator 19.0.0, SVG Export Plug-In . SVG Version: 6.00 Build 0)  -->
<svg version="1.1" id="Layer_1" xmlns="http://www.w3.org/2000/svg" xmlns:xlink="http://www.w3.org/1999/xlink" x="0px" y="0px"
	 viewBox="41 9.1 256 256" style="enable-background:new 41 9.1 256 256;" xml:space="preserve">
<style type="text/css">
	.st0{fill:#987F54;}
	.st1{fill:#77A261;}
	.st2{fill:#85848E;}
	.st3{fill:#757480;}
	.st4{fill:#C0C1C6;}
	.st5{fill:#858488;}
	.st6{fill:#9E9EA0;}
	.st7{fill:#D6D7DB;}
	.st8{fill:#ECECEE;}
	.st9{fill:#93939B;}
	.st10{fill:#CAEAFA;}
	.st11{fill:#B7E0FB;}
	.st12{fill:#5B5B5F;}
	.st13{fill:#D8B797;}
</style>
<g>
	<g>
		<rect x="58" y="209.6" class="st0" width="2.9" height="36.8"/>
		<circle class="st1" cx="59.5" cy="205.9" r="12.5"/>
	</g>
	<g>
		<rect x="276.2" y="210.7" class="st0" width="2.9" height="36.8"/>
		<circle class="st1" cx="277.6" cy="207" r="12.5"/>
	</g>
	<g>
		<polyline class="st2" points="256.2,246.4 256.2,28 218.9,28 218.9,28 169,27.3 116.4,28 116.4,28 79.3,28 79.3,246.4 		"/>
		<rect x="79.3" y="215.5" class="st3" width="176.9" height="30.8"/>
		<rect x="141.4" y="191.9" class="st4" width="5.9" height="42.9"/>
		<rect x="187.8" y="191.9" class="st4" width="5.9" height="42.9"/>
		<rect x="147.2" y="191.9" class="st5" width="40.6" height="42.9"/>
		<rect x="141.4" y="188.7" class="st4" width="52.2" height="5.9"/>
		<rect x="135.6" y="234.5" class="st6" width="64" height="2.9"/>
		<rect x="132.2" y="237.6" class="st4" width="70.6" height="2.9"/>
		<rect x="128.4" y="240.5" class="st7" width="78.3" height="2.9"/>
		<rect x="124.6" y="243.4" class="st8" width="86.2" height="2.9"/>
		<rect x="109.2" y="188.7" class="st7" width="9.7" height="57.7"/>
		<path class="st4" d="M113.4,243.9c0,0.5-0.6,1-1.3,1l0,0c-0.8,0-1.3-0.4-1.3-1v-52.4c0-0.5,0.6-1,1.3-1l0,0c0.8,0,1.3,0.4,1.3,1
			V243.9z"/>
		<path class="st4" d="M117.2,243.9c0,0.5-0.6,1-1.3,1l0,0c-0.8,0-1.3-0.4-1.3-1v-52.4c0-0.5,0.6-1,1.3-1l0,0c0.8,0,1.3,0.4,1.3,1
			V243.9z"/>
		<rect x="216.5" y="188.7" class="st7" width="9.7" height="57.7"/>
		<path class="st4" d="M220.7,243.9c0,0.5-0.6,1-1.3,1l0,0c-0.8,0-1.3-0.4-1.3-1v-52.4c0-0.5,0.6-1,1.3-1l0,0c0.8,0,1.3,0.4,1.3,1
			V243.9z"/>
		<path class="st4" d="M224.6,243.9c0,0.5-0.6,1-1.3,1l0,0c-0.8,0-1.3-0.4-1.3-1v-52.4c0-0.5,0.6-1,1.3-1l0,0c0.8,0,1.3,0.4,1.3,1
			V243.9z"/>
		<rect x="102.2" y="185" class="st9" width="130.1" height="3.7"/>
		<path class="st7" d="M167.9,185h68.5v-5.6h-29.2c0-9-17.8-16.3-40-16.3c-22,0-40,7.3-40,16.3H98.1v5.6H167.9"/>
		<path class="st4" d="M167.5,168.7c26.4,0,33,10.8,33,10.8h-33h-32.8C134.6,179.5,141.2,168.7,167.5,168.7z"/>
		<g>
			<g>
				<g>
					<g>
						<rect x="87.7" y="134.6" class="st10" width="13" height="20.2"/>
						<rect x="104" y="134.6" class="st10" width="13" height="20.2"/>
					</g>
					<g>
						<rect x="120.2" y="134.6" class="st10" width="13" height="20.2"/>
						<rect x="136.7" y="134.6" class="st10" width="13" height="20.2"/>
					</g>
				</g>
				<g>
					<g>
						<rect x="153" y="134.6" class="st10" width="13" height="20.2"/>
						<rect x="169.4" y="134.6" class="st10" width="13" height="20.2"/>
					</g>
					<g>
						<rect x="185.7" y="134.6" class="st10" width="13" height="20.2"/>
						<rect x="202" y="134.6" class="st10" width="13" height="20.2"/>
					</g>
				</g>
			</g>
			<g>
				<rect x="219" y="134.6" class="st10" width="13" height="20.2"/>
				<rect x="235.3" y="134.6" class="st10" width="13" height="20.2"/>
			</g>
		</g>
		<rect x="79.3" y="24.3" class="st7" width="176.9" height="5.9"/>
		<g>
			<g>
				<g>
					<g>
						<rect x="87.7" y="110.1" class="st10" width="13" height="20.2"/>
						<rect x="104" y="110.1" class="st10" width="13" height="20.2"/>
					</g>
					<g>
						<rect x="120.2" y="110.1" class="st10" width="13" height="20.2"/>
						<rect x="136.7" y="110.1" class="st10" width="13" height="20.2"/>
					</g>
				</g>
				<g>
					<g>
						<rect x="153" y="110.1" class="st10" width="13" height="20.2"/>
						<rect x="169.4" y="110.1" class="st10" width="13" height="20.2"/>
					</g>
					<g>
						<rect x="185.7" y="110.1" class="st10" width="13" height="20.2"/>
						<rect x="202" y="110.1" class="st10" width="13" height="20.2"/>
					</g>
				</g>
			</g>
			<g>
				<rect x="219" y="110.1" class="st10" width="13" height="20.2"/>
				<rect x="235.3" y="110.1" class="st10" width="13" height="20.2"/>
			</g>
		</g>
		<g>
			<g>
				<g>
					<g>
						<rect x="87.7" y="85.8" class="st10" width="13" height="20.2"/>
						<rect x="104" y="85.8" class="st10" width="13" height="20.2"/>
					</g>
					<g>
						<rect x="120.2" y="85.8" class="st10" width="13" height="20.2"/>
						<rect x="136.7" y="85.8" class="st10" width="13" height="20.2"/>
					</g>
				</g>
				<g>
					<g>
						<rect x="153" y="85.8" class="st10" width="13" height="20.2"/>
						<rect x="169.4" y="85.8" class="st10" width="13" height="20.2"/>
					</g>
					<g>
						<rect x="185.7" y="85.8" class="st10" width="13" height="20.2"/>
						<rect x="202" y="85.8" class="st10" width="13" height="20.2"/>
					</g>
				</g>
			</g>
			<g>
				<rect x="219" y="85.8" class="st10" width="13" height="20.2"/>
				<rect x="235.3" y="85.8" class="st10" width="13" height="20.2"/>
			</g>
		</g>
		<g>
			<g>
				<g>
					<g>
						<rect x="87.7" y="61.4" class="st10" width="13" height="20.2"/>
						<rect x="104" y="61.4" class="st10" width="13" height="20.2"/>
					</g>
					<g>
						<rect x="120.2" y="61.4" class="st10" width="13" height="20.2"/>
						<rect x="136.7" y="61.4" class="st10" width="13" height="20.2"/>
					</g>
				</g>
				<g>
					<g>
						<rect x="153" y="61.4" class="st10" width="13" height="20.2"/>
						<rect x="169.4" y="61.4" class="st10" width="13" height="20.2"/>
					</g>
					<g>
						<rect x="185.7" y="61.4" class="st10" width="13" height="20.2"/>
						<rect x="202" y="61.4" class="st10" width="13" height="20.2"/>
					</g>
				</g>
			</g>
			<g>
				<rect x="219" y="61.4" class="st10" width="13" height="20.2"/>
				<rect x="235.3" y="61.4" class="st10" width="13" height="20.2"/>
			</g>
		</g>
		<g>
			<g>
				<g>
					<g>
						<rect x="87.7" y="37.6" class="st10" width="13" height="20.2"/>
						<rect x="104" y="37.6" class="st10" width="13" height="20.2"/>
					</g>
					<g>
						<rect x="120.2" y="37.6" class="st10" width="13" height="20.2"/>
						<rect x="136.7" y="37.6" class="st10" width="13" height="20.2"/>
					</g>
				</g>
				<g>
					<g>
						<rect x="153" y="37.6" class="st10" width="13" height="20.2"/>
						<rect x="169.4" y="37.6" class="st10" width="13" height="20.2"/>
					</g>
					<g>
						<rect x="185.7" y="37.6" class="st10" width="13" height="20.2"/>
						<rect x="202" y="37.6" class="st10" width="13" height="20.2"/>
					</g>
				</g>
			</g>
			<g>
				<rect x="219" y="37.6" class="st10" width="13" height="20.2"/>
				<rect x="235.3" y="37.6" class="st10" width="13" height="20.2"/>
			</g>
		</g>
		<rect x="151.9" y="198" class="st11" width="30.3" height="36.7"/>
		<rect x="151.9" y="198" class="st12" width="1.1" height="36.7"/>
		<rect x="181.6" y="198" class="st12" width="1.1" height="36.7"/>
		<rect x="151.9" y="198" class="st12" width="30" height="1.1"/>
		<rect x="166.6" y="198.5" class="st12" width="1.4" height="36"/>
		<rect x="41" y="245.7" class="st13" width="256" height="4.2"/>
	</g>
</g>
</svg>
