<?xml version="1.0" encoding="utf-8"?>
<!-- Generator: Adobe Illustrator 19.0.0, SVG Export Plug-In . SVG Version: 6.00 Build 0)  -->
<svg version="1.1" xmlns="http://www.w3.org/2000/svg" xmlns:xlink="http://www.w3.org/1999/xlink" x="0px" y="0px"
	 viewBox="-215 217 128 128" style="enable-background:new -215 217 128 128;" xml:space="preserve">
<style type="text/css">
	.st0{fill:none;stroke:#CCEBF8;stroke-width:4;stroke-miterlimit:10;}
	.st1{fill:#FAA93B;}
	.st2{fill:#CAC9CB;}
	.st3{fill:#2A2E31;}
	.st4{fill:#E7D0B3;}
	.st5{fill:#BFA58F;}
	.st6{fill:#D1EAFB;}
	.st7{fill:#95B5C9;}
	.st8{fill:#FFFFFF;}
	.st9{fill:#6EB3BB;}
	.st10{fill:#8BA3B2;}
	.st11{fill:#E6E6E7;}
	.st12{fill:#C1C0C2;}
	.st13{fill:#666769;}
	.st14{fill:#738D98;}
	.st15{fill:#262828;}
	.st16{fill:#ECBA61;}
	.st17{fill:#BB6A60;}
	.st18{fill:#D67567;}
	.st19{fill:#B6914B;}
	.st20{fill:#DEB04B;}
	.st21{fill:#62949F;}
	.st22{fill:#F3CA6C;}
	.st23{fill:#82B7C5;}
	.st24{fill:#7599AE;}
	.st25{fill:#E5E3E4;}
	.st26{fill:#F9FF00;}
</style>
<g id="Layer_1">
	<g id="Layer_1_1_">
		<circle id="XMLID_1_" class="st0" cx="-151" cy="281" r="62"/>
	</g>
	<g id="Layer_2">
		<circle id="XMLID_2_" class="st1" cx="-151" cy="281" r="52.5"/>
	</g>
</g>
<g id="Layer_2_1_">
	<g>
		<g>
			<g>
				<path class="st2" d="M-161.2,299.9c-0.1-0.3-0.2-0.7-0.3-1c-0.1-0.3-0.3-0.6-0.4-0.9c-0.1-0.3-0.3-0.6-0.5-0.8
					c-0.2-0.3-0.3-0.5-0.5-0.7c-0.3-0.4-0.7-0.7-0.9-0.9c-0.2-0.2-0.4-0.3-0.4-0.3s0.1,0.1,0.3,0.4c0.1,0.1,0.2,0.3,0.3,0.5
					c0.1,0.2,0.2,0.4,0.3,0.6c0.1,0.2,0.2,0.5,0.3,0.7c0.1,0.3,0.2,0.6,0.3,0.8c0.1,0.3,0.2,0.6,0.3,0.9c0.1,0.3,0.2,0.6,0.3,1
					c0.1,0.3,0.2,0.6,0.2,0.9h0.9c0,0,0-0.1,0-0.1C-161,300.6-161.1,300.2-161.2,299.9z"/>
				<path class="st2" d="M-139.7,299.5c0.1-0.3,0.2-0.6,0.3-0.9c0.1-0.3,0.2-0.6,0.3-0.8c0.1-0.3,0.2-0.5,0.3-0.7
					c0.1-0.2,0.2-0.4,0.3-0.6c0.1-0.2,0.2-0.3,0.3-0.5c0.2-0.3,0.3-0.4,0.3-0.4s-0.2,0.1-0.4,0.3c-0.2,0.2-0.6,0.5-0.9,0.9
					c-0.2,0.2-0.3,0.4-0.5,0.7c-0.2,0.3-0.3,0.5-0.5,0.8c-0.2,0.3-0.3,0.6-0.4,0.9c-0.1,0.3-0.2,0.7-0.3,1c-0.1,0.3-0.1,0.5-0.2,0.8
					h0.9c0-0.2,0.1-0.4,0.1-0.6C-139.9,300.2-139.7,299.9-139.7,299.5z"/>
				<g>
					<path class="st3" d="M-161.9,273.2c0,0,0,0.3-0.1,0.9l10.8-0.4L-161.9,273.2z"/>
					<path class="st3" d="M-140.5,273.2l-10.7,0.4l10.8,0.4C-140.5,273.5-140.5,273.2-140.5,273.2z"/>
					<path class="st3" d="M-139.2,274.1l-1.4-0.1l-10.8-0.4l-10.8,0.4c-0.4,3.3-1.8,15.5-3.4,19.8c5.1,2.3,10,3.2,14.2,3.4
						c4.2-0.2,9.1-1.1,14.2-3.4c0.2-0.1,0.3-0.2,0.5-0.2C-136.7,293.7-140.2,280.2-139.2,274.1z"/>
				</g>
				<rect x="-155.1" y="283.7" class="st4" width="8.3" height="9.8"/>
				<polygon class="st5" points="-155.1,288.2 -146.6,284.1 -155.1,282.1 				"/>
				<g>
					<path class="st4" d="M-161.5,271.7c0,7.4,4.6,13.4,10.3,13.5v-24.4C-156.8,261-161.5,264.4-161.5,271.7z"/>
					<path class="st4" d="M-150.7,260.8c-0.2,0-0.3,0-0.5,0v24.4c0.1,0,0.2,0,0.2,0c5.8,0,10.6-6.1,10.6-13.5
						C-140.3,264.2-144.8,260.8-150.7,260.8z"/>
				</g>
				<g>
					<path class="st3" d="M-151.5,268.6c0.1-0.1,0.1-0.1,0.2-0.2c0,0-0.1-0.1-0.1-0.1C-151.4,268.2-151.4,268.4-151.5,268.6z"/>
					<path class="st3" d="M-162.9,271.2C-162.9,271.2-162.9,271.2-162.9,271.2C-162.9,271.2-162.9,271.2-162.9,271.2z"/>
					<path class="st3" d="M-139.6,269.5c0.2-3.7-0.4-12.2-10.3-12.2c-0.5,0-1,0-1.4,0C-141.2,257.9-139.7,264.3-139.6,269.5z"/>
					<path class="st3" d="M-149.5,269.8"/>
					<path class="st3" d="M-141.1,270.8c-0.3,0.2-0.6,0.3-0.9,0.5c0.7,0,1.5,0,2.3,0c0,0,0-0.2,0.1-0.5
						C-139.8,270.5-140.2,270.3-141.1,270.8z"/>
					<path class="st3" d="M-162.9,271.2c0-0.1,0-0.3,0.1-0.5c0-0.3-0.1-0.7-0.1-1.2C-162.9,270.1-162.9,270.7-162.9,271.2z"/>
					<path class="st3" d="M-151.5,268.6"/>
					<path class="st3" d="M-152.9,269.8"/>
					<path class="st3" d="M-139.6,269.5c0,0.5-0.1,0.9-0.1,1.2c0.1,0.2,0.1,0.4,0.1,0.5C-139.5,270.7-139.5,270.1-139.6,269.5z"/>
					<path class="st3" d="M-151.1,268.2c0,0-0.1,0.1-0.1,0.1"/>
					<path class="st3" d="M-139.5,271.2C-139.5,271.2-139.5,271.2-139.5,271.2C-139.5,271.2-139.5,271.2-139.5,271.2z"/>
					<path class="st3" d="M-162.8,270.7c0,0.3,0.1,0.5,0.1,0.5c0.8,0,1.6,0,2.3,0c-0.3-0.1-0.6-0.3-0.9-0.5
						C-162.3,270.3-162.7,270.5-162.8,270.7z"/>
					<path class="st3" d="M-148.4,267.5c1.3,0.6,2.3,3.6,6.4,3.7c0.3-0.1,0.6-0.3,0.9-0.5c0.9-0.5,1.2-0.3,1.4,0
						c0-0.3,0.1-0.7,0.1-1.2c-0.2-5.3-1.6-11.7-11.7-12.2c-0.5,0-0.9,0-1.4,0c-9.8,0-10.5,8.5-10.3,12.2c0,0.5,0.1,0.9,0.1,1.2
						c0.2-0.3,0.5-0.5,1.4,0c0.3,0.2,0.6,0.3,0.9,0.5c4-0.1,14.2-3.7,15.5-4.4c0.5-0.4-3.1,0.3-2.5-0.2c0.1-0.2-3.8,1.6-3.8,1.6
						c0,0,0.1,0.1,0.1,0.1c0,0,0.1-0.1,0.1-0.1"/>
				</g>
				
					<ellipse transform="matrix(-0.9894 -0.1455 0.1455 -0.9894 -318.192 522.1694)" class="st4" cx="-140" cy="272.7" rx="1.4" ry="2.9"/>
				
					<ellipse transform="matrix(0.9953 -9.689114e-02 9.689114e-02 0.9953 -27.1668 -14.4176)" class="st4" cx="-162" cy="272.5" rx="1.3" ry="2.8"/>
			</g>
		</g>
		<g>
			<g>
				<g>
					<g>
						<g>
							<g>
								<path class="st6" d="M-162.1,268.6c0,0,1.8-9.2,10.6-9.2c8.8,0,11.1,8,11.1,8l-1.3,0.1c0,0-2.2-6-9.5-6
									c-7.3,0-9.9,7.1-9.9,7.1H-162.1z"/>
							</g>
							<g>
								<path class="st6" d="M-141.4,268.1c0,0,0.8,7.1,0.6,7.6c0,0,2.8,0.4,2.9-1.8v-3.9c0,0-0.1-1.4-1.8-2h-1.5"/>
							</g>
						</g>
					</g>
				</g>
			</g>
		</g>
		<g>
			<path class="st7" d="M-149.1,279.9c-0.4-0.8-2.1-0.9-2.1-0.9s-0.8-0.3-1.9,0.4c-1,0.7-0.2,1.7-0.2,1.7s0.4,0.6,2.2,0.6
				c1.5,0,1.8-0.5,1.9-0.6C-149.1,280.5-149.1,280.1-149.1,279.9z"/>
			<path class="st6" d="M-139.4,276.9c-0.4-0.9-1.1-0.4-1.1-0.4c-2.5,3-8.7,3.4-8.7,3.4c0,0,0,0,0,0c0,0.3,0,0.6,0,1.1
				c0,0,0-0.1,0-0.1C-145.5,280.8-138.9,277.8-139.4,276.9z"/>
		</g>
		<g>
			<path class="st8" d="M-138.4,296.4c-0.1,0.2-0.2,0.4-0.3,0.6c-0.1,0.2-0.2,0.5-0.3,0.7c-0.1,0.3-0.2,0.6-0.3,0.8
				c-0.1,0.3-0.2,0.6-0.3,0.9c-0.1,0.3-0.2,0.6-0.3,1c0,0.2-0.1,0.4-0.1,0.6h5.8c-0.8-3.2-3.3-10-9.7-12l-2.7-1.2
				c-0.6,1.5-1.2,3-3.3,3.3v9.8h-0.9v0h1.7h0.3h0.6h2.1h5.4c0.1-0.3,0.1-0.5,0.2-0.8c0.1-0.3,0.2-0.7,0.3-1c0.1-0.3,0.3-0.6,0.4-0.9
				c0.1-0.3,0.3-0.6,0.5-0.8c0.2-0.3,0.3-0.5,0.5-0.7c0.3-0.4,0.7-0.7,0.9-0.9c0.2-0.2,0.4-0.3,0.4-0.3s-0.1,0.1-0.3,0.4
				C-138.2,296-138.3,296.2-138.4,296.4z"/>
			<path class="st8" d="M-151.8,301v-9.8c-2.1-0.2-2.6-1.6-3.4-2.9l-2.2,0.9c-2.4,0.7-8.8,3.2-10.4,11.9h5.8
				c-0.1-0.3-0.2-0.6-0.2-0.9c-0.1-0.3-0.2-0.6-0.3-1c-0.1-0.3-0.2-0.6-0.3-0.9c-0.1-0.3-0.2-0.6-0.3-0.8c-0.1-0.3-0.2-0.5-0.3-0.7
				c-0.1-0.2-0.2-0.4-0.3-0.6c-0.1-0.2-0.2-0.3-0.3-0.5c-0.2-0.3-0.3-0.4-0.3-0.4s0.2,0.1,0.4,0.3c0.2,0.2,0.6,0.5,0.9,0.9
				c0.2,0.2,0.3,0.4,0.5,0.7c0.2,0.3,0.3,0.5,0.5,0.8c0.2,0.3,0.3,0.6,0.4,0.9c0.1,0.3,0.2,0.7,0.3,1c0.1,0.3,0.2,0.7,0.2,1
				c0,0,0,0.1,0,0.1h5.4h2.3h0.7h0.1h1.4v0H-151.8z"/>
			<path class="st9" d="M-151,291.2C-151,291.2-151,291.2-151,291.2c-0.3,0-0.5,0-0.8,0v9.8h0.8h0.9v-9.8
				C-150.4,291.2-150.7,291.2-151,291.2z"/>
		</g>
	</g>
	<g>
		<g>
			<path class="st8" d="M-145.5,246.6l-0.1,0.7l-1.9-0.2l0.1-0.7L-145.5,246.6z"/>
			<path class="st8" d="M-141.7,247.4l-0.2,0.7l-1.8-0.5l0.2-0.7L-141.7,247.4z"/>
			<path class="st8" d="M-138,248.7l-0.3,0.7l-1.8-0.7l0.3-0.7L-138,248.7z"/>
			<path class="st8" d="M-134.4,250.3l-0.3,0.7l-1.7-0.9l0.3-0.7L-134.4,250.3z"/>
			<path class="st8" d="M-131.1,252.4l-0.4,0.6l-1.6-1l0.4-0.6L-131.1,252.4z"/>
			<path class="st8" d="M-128,254.8l-0.5,0.6l-1.5-1.2l0.5-0.6L-128,254.8z"/>
			<path class="st8" d="M-125.3,257.5l-0.5,0.5l-1.3-1.4l0.5-0.5L-125.3,257.5z"/>
			<path class="st8" d="M-122.8,260.6l-0.6,0.4l-1.2-1.5l0.6-0.4L-122.8,260.6z"/>
			<path class="st8" d="M-120.7,263.8l-0.6,0.4l-1-1.6l0.6-0.4L-120.7,263.8z"/>
			<path class="st8" d="M-118.9,267.3l-0.7,0.3l-0.8-1.7l0.7-0.3L-118.9,267.3z"/>
			<path class="st8" d="M-117.6,271l-0.7,0.2l-0.6-1.8l0.7-0.2L-117.6,271z"/>
			<path class="st8" d="M-116.7,274.8l-0.7,0.1l-0.4-1.9l0.7-0.1L-116.7,274.8z"/>
			<path class="st8" d="M-116.2,278.7l-0.7,0.1l-0.2-1.9l0.7-0.1L-116.2,278.7z"/>
			<path class="st8" d="M-116.2,282.6l-0.7,0l0-1.9l0.7,0L-116.2,282.6z"/>
			<path class="st8" d="M-116.6,286.5l-0.7-0.1l0.2-1.9l0.7,0.1L-116.6,286.5z"/>
			<path class="st8" d="M-117.4,290.3l-0.7-0.2l0.5-1.8l0.7,0.2L-117.4,290.3z"/>
			<path class="st8" d="M-118.7,294l-0.7-0.3l0.7-1.8l0.7,0.3L-118.7,294z"/>
			<path class="st8" d="M-120.3,297.5l-0.7-0.3l0.9-1.7l0.7,0.3L-120.3,297.5z"/>
			<path class="st8" d="M-122.3,300.8l-0.6-0.4l1-1.6l0.6,0.4L-122.3,300.8z"/>
			<path class="st8" d="M-124.7,303.9l-0.6-0.5l1.2-1.5l0.6,0.5L-124.7,303.9z"/>
			<path class="st8" d="M-127.5,306.7l-0.5-0.5l1.4-1.3l0.5,0.5L-127.5,306.7z"/>
			<path class="st8" d="M-130.5,309.2l-0.4-0.6l1.5-1.2l0.4,0.6L-130.5,309.2z"/>
			<path class="st8" d="M-133.8,311.3l-0.4-0.6l1.6-1l0.4,0.6L-133.8,311.3z"/>
			<path class="st8" d="M-137.3,313l-0.3-0.7l1.7-0.8l0.3,0.7L-137.3,313z"/>
			<path class="st8" d="M-140.9,314.4l-0.2-0.7l1.8-0.6l0.2,0.7L-140.9,314.4z"/>
			<path class="st8" d="M-144.7,315.3l-0.2-0.7l1.9-0.4l0.2,0.7L-144.7,315.3z"/>
			<path class="st8" d="M-148.6,315.8l-0.1-0.7l1.9-0.2l0.1,0.7L-148.6,315.8z"/>
			<path class="st8" d="M-152.5,315.8l0-0.7l1.9,0l0,0.7L-152.5,315.8z"/>
			<path class="st8" d="M-156.4,315.4l0.1-0.7l1.9,0.2l-0.1,0.7L-156.4,315.4z"/>
			<path class="st8" d="M-160.2,314.6l0.2-0.7l1.8,0.4l-0.2,0.7L-160.2,314.6z"/>
			<path class="st8" d="M-163.9,313.4l0.3-0.7l1.8,0.7l-0.3,0.7L-163.9,313.4z"/>
			<path class="st8" d="M-167.4,311.7l0.3-0.7l1.7,0.8l-0.3,0.7L-167.4,311.7z"/>
			<path class="st8" d="M-170.8,309.7l0.4-0.6l1.6,1l-0.4,0.6L-170.8,309.7z"/>
			<path class="st8" d="M-173.9,307.3l0.5-0.6l1.5,1.2l-0.5,0.6L-173.9,307.3z"/>
			<path class="st8" d="M-176.7,304.6l0.5-0.5l1.3,1.4l-0.5,0.5L-176.7,304.6z"/>
			<path class="st8" d="M-179.1,301.6l0.6-0.4l1.2,1.5l-0.6,0.4L-179.1,301.6z"/>
			<path class="st8" d="M-181.3,298.3l0.6-0.4l1,1.6l-0.6,0.4L-181.3,298.3z"/>
			<path class="st8" d="M-183,294.8l0.7-0.3l0.8,1.7l-0.7,0.3L-183,294.8z"/>
			<path class="st8" d="M-184.3,291.1l0.7-0.2l0.6,1.8l-0.7,0.2L-184.3,291.1z"/>
			<path class="st8" d="M-185.3,287.3l0.7-0.2l0.4,1.9l-0.7,0.2L-185.3,287.3z"/>
			<path class="st8" d="M-185.8,283.5l0.7-0.1l0.2,1.9l-0.7,0.1L-185.8,283.5z"/>
			<path class="st8" d="M-185.8,279.6l0.7,0l0,1.9l-0.7,0L-185.8,279.6z"/>
			<path class="st8" d="M-185.4,275.7l0.7,0.1l-0.2,1.9l-0.7-0.1L-185.4,275.7z"/>
			<path class="st8" d="M-184.6,271.9l0.7,0.2l-0.4,1.8l-0.7-0.2L-184.6,271.9z"/>
			<path class="st8" d="M-183.4,268.2l0.7,0.3l-0.6,1.8l-0.7-0.3L-183.4,268.2z"/>
			<path class="st8" d="M-181.8,264.6l0.7,0.3l-0.8,1.7l-0.7-0.3L-181.8,264.6z"/>
			<path class="st8" d="M-179.7,261.3l0.6,0.4l-1,1.6l-0.6-0.4L-179.7,261.3z"/>
			<path class="st8" d="M-177.3,258.2l0.6,0.5l-1.2,1.5l-0.6-0.5L-177.3,258.2z"/>
			<path class="st8" d="M-174.6,255.4l0.5,0.5l-1.4,1.3l-0.5-0.5L-174.6,255.4z"/>
			<path class="st8" d="M-171.6,252.9l0.4,0.6l-1.5,1.2l-0.4-0.6L-171.6,252.9z"/>
			<path class="st8" d="M-168.3,250.8l0.4,0.6l-1.6,1l-0.4-0.6L-168.3,250.8z"/>
			<path class="st8" d="M-164.9,249l0.3,0.7l-1.7,0.8l-0.3-0.7L-164.9,249z"/>
			<path class="st8" d="M-161.2,247.7l0.2,0.7l-1.8,0.6l-0.2-0.7L-161.2,247.7z"/>
			<path class="st8" d="M-157.4,246.7l0.2,0.7l-1.9,0.4l-0.2-0.7L-157.4,246.7z"/>
			<path class="st8" d="M-153.5,246.2l0.1,0.7l-1.9,0.2l-0.1-0.7L-153.5,246.2z"/>
			<path class="st8" d="M-149.6,246.2l0,0.7l-1.9,0l0-0.7L-149.6,246.2z"/>
		</g>
	</g>
	<g>
		<path class="st10" d="M-112.3,267.2c0,1.5-1.3,2.7-2.8,2.7l-7.7-0.2c-1.5,0-2.7-1.3-2.7-2.8l0.3-11.8c0-1.5,1.3-2.7,2.8-2.7
			l7.7,0.2c1.5,0,2.7,1.3,2.7,2.8L-112.3,267.2z"/>
		<g>
			<g>
				<path class="st8" d="M-114.4,251.8h-3.9v17.3h3.9c1.5,0,2.7-1.2,2.7-2.7v-11.9C-111.7,253-112.9,251.8-114.4,251.8z"/>
				<path class="st11" d="M-122.2,251.8c-1.5,0-2.7,1.2-2.7,2.7v11.9c0,1.5,1.2,2.7,2.7,2.7h3.8v-17.3H-122.2z"/>
			</g>
			<path class="st12" d="M-113.2,255c0,0.1-0.1,0.2-0.2,0.2h-9.9c-0.1,0-0.2-0.1-0.2-0.2l0,0c0-0.1,0.1-0.2,0.2-0.2h9.9
				C-113.3,254.8-113.2,254.9-113.2,255L-113.2,255z"/>
			<path class="st12" d="M-113.2,256.8c0,0.1-0.1,0.2-0.2,0.2h-9.9c-0.1,0-0.2-0.1-0.2-0.2l0,0c0-0.1,0.1-0.2,0.2-0.2h9.9
				C-113.3,256.6-113.2,256.7-113.2,256.8L-113.2,256.8z"/>
			<path class="st12" d="M-113.2,258.6c0,0.1-0.1,0.2-0.2,0.2h-9.9c-0.1,0-0.2-0.1-0.2-0.2l0,0c0-0.1,0.1-0.2,0.2-0.2h9.9
				C-113.3,258.4-113.2,258.5-113.2,258.6L-113.2,258.6z"/>
			<path class="st12" d="M-113.2,260.4c0,0.1-0.1,0.2-0.2,0.2h-9.9c-0.1,0-0.2-0.1-0.2-0.2l0,0c0-0.1,0.1-0.2,0.2-0.2h9.9
				C-113.3,260.2-113.2,260.3-113.2,260.4L-113.2,260.4z"/>
			<path class="st12" d="M-113.2,262.2c0,0.1-0.1,0.2-0.2,0.2h-9.9c-0.1,0-0.2-0.1-0.2-0.2l0,0c0-0.1,0.1-0.2,0.2-0.2h9.9
				C-113.3,262-113.2,262.1-113.2,262.2L-113.2,262.2z"/>
			<path class="st12" d="M-113.2,264c0,0.1-0.1,0.2-0.2,0.2h-9.9c-0.1,0-0.2-0.1-0.2-0.2l0,0c0-0.1,0.1-0.2,0.2-0.2h9.9
				C-113.3,263.8-113.2,263.9-113.2,264L-113.2,264z"/>
			<path class="st12" d="M-113.2,265.8c0,0.1-0.1,0.2-0.2,0.2h-9.9c-0.1,0-0.2-0.1-0.2-0.2l0,0c0-0.1,0.1-0.2,0.2-0.2h9.9
				C-113.3,265.6-113.2,265.7-113.2,265.8L-113.2,265.8z"/>
			<path class="st12" d="M-113.2,267.6c0,0.1-0.1,0.2-0.2,0.2h-9.9c-0.1,0-0.2-0.1-0.2-0.2l0,0c0-0.1,0.1-0.2,0.2-0.2h9.9
				C-113.3,267.4-113.2,267.5-113.2,267.6L-113.2,267.6z"/>
			<circle class="st13" cx="-121.9" cy="252.3" r="0.4"/>
			<circle class="st13" cx="-120.5" cy="252.3" r="0.4"/>
			<circle class="st13" cx="-119.1" cy="252.3" r="0.4"/>
			<circle class="st13" cx="-117.7" cy="252.3" r="0.4"/>
			<circle class="st13" cx="-116.4" cy="252.3" r="0.4"/>
			<circle class="st13" cx="-115" cy="252.3" r="0.4"/>
			<path class="st12" d="M-121.6,252.1c0,0.2-0.1,0.3-0.3,0.3l0,0c-0.2,0-0.3-0.1-0.3-0.3v-0.7c0-0.2,0.1-0.3,0.3-0.3l0,0
				c0.2,0,0.3,0.1,0.3,0.3V252.1z"/>
			<path class="st12" d="M-120.2,252.1c0,0.2-0.1,0.3-0.3,0.3l0,0c-0.2,0-0.3-0.1-0.3-0.3v-0.7c0-0.2,0.1-0.3,0.3-0.3l0,0
				c0.2,0,0.3,0.1,0.3,0.3V252.1z"/>
			<path class="st12" d="M-118.8,252.1c0,0.2-0.1,0.3-0.3,0.3l0,0c-0.2,0-0.3-0.1-0.3-0.3v-0.7c0-0.2,0.1-0.3,0.3-0.3l0,0
				c0.2,0,0.3,0.1,0.3,0.3V252.1z"/>
			<path class="st12" d="M-117.4,252.1c0,0.2-0.1,0.3-0.3,0.3l0,0c-0.2,0-0.3-0.1-0.3-0.3v-0.7c0-0.2,0.1-0.3,0.3-0.3l0,0
				c0.2,0,0.3,0.1,0.3,0.3V252.1z"/>
			<path class="st12" d="M-116.1,252.1c0,0.2-0.1,0.3-0.3,0.3l0,0c-0.2,0-0.3-0.1-0.3-0.3v-0.7c0-0.2,0.1-0.3,0.3-0.3l0,0
				c0.2,0,0.3,0.1,0.3,0.3V252.1z"/>
			<path class="st12" d="M-114.7,252.1c0,0.2-0.1,0.3-0.3,0.3l0,0c-0.2,0-0.3-0.1-0.3-0.3v-0.7c0-0.2,0.1-0.3,0.3-0.3l0,0
				c0.2,0,0.3,0.1,0.3,0.3V252.1z"/>
			<g>
				<path class="st14" d="M-111.5,258.6c-0.2,0.2-0.6,0.2-0.8-0.1l-0.3-0.3c-0.2-0.2-0.2-0.6,0.1-0.8l0.3-0.3
					c0.2-0.2,0.6-0.2,0.8,0.1l0.3,0.3c0.2,0.2,0.2,0.6-0.1,0.8L-111.5,258.6z"/>
				<g>
					<polygon class="st15" points="-120,264.9 -119.5,264.8 -119.8,264.5 					"/>
					<polygon class="st16" points="-119.2,263.2 -119.8,264.5 -119.5,264.8 -118.2,264.4 					"/>
				</g>
				<g>
					<path class="st17" d="M-112.3,258.4l-6.3,5.4c0.2-0.1,0.4-0.1,0.5,0c0.1,0.2,0.1,0.4-0.1,0.6l0,0l6.4-5.4L-112.3,258.4z"/>
					<path class="st18" d="M-112.8,257.8l-6.4,5.4l0,0c0.2-0.1,0.4-0.1,0.6,0c0.1,0.1,0.1,0.4,0,0.5c0,0,0,0,0,0l6.3-5.4
						L-112.8,257.8z"/>
				</g>
				<path class="st16" d="M-118.1,263.8c-0.1-0.1-0.3-0.2-0.5-0.1c0.1-0.2,0.1-0.4,0-0.5c-0.1-0.2-0.4-0.2-0.6,0l0.5,0.6l0,0
					l0.5,0.6C-118,264.2-118,264-118.1,263.8z"/>
				
					<rect x="-112.9" y="258" transform="matrix(0.6486 0.7611 -0.7611 0.6486 157.1159 176.1066)" class="st19" width="1.5" height="0.4"/>
				<path class="st20" d="M-111.6,258.8C-111.7,258.9-111.7,258.9-111.6,258.8l-1.1-1.1c0,0,0-0.1,0-0.1l0,0c0,0,0.1,0,0.1,0
					L-111.6,258.8C-111.6,258.8-111.6,258.8-111.6,258.8L-111.6,258.8z"/>
				<path class="st20" d="M-111.8,259C-111.8,259-111.9,259-111.8,259l-1.1-1.1c0,0,0-0.1,0-0.1l0,0c0,0,0.1,0,0.1,0L-111.8,259
					C-111.8,258.9-111.8,258.9-111.8,259L-111.8,259z"/>
			</g>
		</g>
	</g>
	<g>
		<g>
			<path class="st21" d="M-133.1,311.2c-0.2-0.1-0.3-0.2-0.5-0.2h-13c-0.3,0-0.5,0.1-0.7,0.3l6.6,5l0,0l0,0l0.6,0.4l0.6-0.5l0,0l0,0
				L-133.1,311.2z"/>
			<path class="st21" d="M-147.3,311.3c0,0,6.3-6.1,7.2-6.1c0.9,0,7,6,7,6L-147.3,311.3z"/>
			<g>
				<rect x="-144.6" y="309.6" class="st8" width="9.1" height="10.6"/>
				<rect x="-144" y="310.5" class="st22" width="7.8" height="0.5"/>
				<rect x="-144" y="312.7" class="st22" width="7.8" height="0.5"/>
				<rect x="-144" y="311.6" class="st22" width="7.8" height="0.5"/>
				<rect x="-144" y="313.8" class="st22" width="7.8" height="0.5"/>
				<rect x="-144" y="314.8" class="st22" width="7.8" height="0.5"/>
				<rect x="-144" y="315.9" class="st22" width="7.8" height="0.5"/>
			</g>
			<g>
				<polygon class="st23" points="-141.1,316.1 -141.3,315.9 -141.1,316.1 				"/>
				<polygon class="st24" points="-143.2,314.5 -143.2,314.5 -141.3,315.9 				"/>
				<path class="st25" d="M-141.1,316.1L-141.1,316.1l-0.2-0.2l-1.8-1.4l-4.2-3.2c-0.3,0.2-0.5,0.6-0.5,1.1v7.2c0,0.4,0.1,0.7,0.4,1
					l5.2-3.2l1.5-0.9L-141.1,316.1z"/>
				<path class="st25" d="M-133.1,311.2l-4.8,3.8l0,0l-1,0.8l-0.5,0.4l-0.1,0.1l1.8,1.2l4.8,3.1c0.3-0.2,0.4-0.6,0.4-1v-7.2
					C-132.5,311.9-132.8,311.4-133.1,311.2z"/>
				<path class="st25" d="M-137.8,317.5l-1.8-1.2l0.1-0.1c0,0-0.5,0.3-0.7,0.3c-0.2,0-0.9-0.5-0.9-0.5l0.4,0.3l-1.5,0.9l-5.2,3.2
					c0.2,0.2,0.5,0.4,0.8,0.4h13c0.3,0,0.5-0.1,0.7-0.3L-137.8,317.5z"/>
			</g>
		</g>
	</g>
	<polyline class="st26" points="-154.9,288.9 -154.9,289 -154.9,289 	"/>
	<g id="Layer_2_2_">
		<g id="Layer_3_1_">
			<path id="Kazakhstan" class="st26" d="M-182.9,259.8L-182.9,259.8L-182.9,259.8L-182.9,259.8L-182.9,259.8L-182.9,259.8
				L-182.9,259.8L-182.9,259.8L-182.9,259.8L-182.9,259.8L-182.9,259.8L-182.9,259.8L-182.9,259.8L-182.9,259.8L-182.9,259.8
				L-182.9,259.8L-182.9,259.8L-182.9,259.8L-182.9,259.8z M-189,258.7L-189,258.7L-189,258.7L-189,258.7l0-0.1v0h0V258.7
				L-189,258.7L-189,258.7L-189,258.7L-189,258.7L-189,258.7z M-187.5,259.7L-187.5,259.7L-187.5,259.7L-187.5,259.7L-187.5,259.7
				L-187.5,259.7l-0.1-0.1h0l0,0l0,0l0,0l0,0h0h0V259.7L-187.5,259.7L-187.5,259.7L-187.5,259.7L-187.5,259.7L-187.5,259.7z
				 M-188.9,259.6L-188.9,259.6L-188.9,259.6L-188.9,259.6L-188.9,259.6L-188.9,259.6L-188.9,259.6L-188.9,259.6L-188.9,259.6
				L-188.9,259.6L-188.9,259.6L-188.9,259.6L-188.9,259.6L-188.9,259.6L-188.9,259.6L-188.9,259.6L-188.9,259.6L-188.9,259.6
				L-188.9,259.6L-188.9,259.6L-188.9,259.6L-188.9,259.6L-188.9,259.6L-188.9,259.6z M-189.1,259.7L-189.1,259.7L-189.1,259.7
				L-189.1,259.7L-189.1,259.7L-189.1,259.7L-189.1,259.7L-189.1,259.7L-189.1,259.7L-189.1,259.7L-189.1,259.7L-189.1,259.7
				L-189.1,259.7l0.1,0.1h0h0L-189.1,259.7L-189.1,259.7L-189.1,259.7L-189.1,259.7L-189.1,259.7L-189.1,259.7L-189.1,259.7
				L-189.1,259.7L-189.1,259.7L-189.1,259.7L-189.1,259.7L-189.1,259.7L-189.1,259.7L-189.1,259.7L-189.1,259.7L-189.1,259.7
				L-189.1,259.7L-189.1,259.7L-189.1,259.7L-189.1,259.7L-189.1,259.7z M-188.7,259.8L-188.7,259.8L-188.7,259.8L-188.7,259.8
				L-188.7,259.8L-188.7,259.8L-188.7,259.8L-188.7,259.8L-188.7,259.8L-188.7,259.8L-188.7,259.8L-188.7,259.8L-188.7,259.8
				L-188.7,259.8L-188.7,259.8L-188.7,259.8L-188.7,259.8L-188.7,259.8L-188.7,259.8L-188.7,259.8L-188.7,259.8L-188.7,259.8
				L-188.7,259.8L-188.7,259.8L-188.7,259.8L-188.7,259.8L-188.7,259.8L-188.7,259.8L-188.7,259.8L-188.7,259.8L-188.7,259.8
				L-188.7,259.8z M-178,252.1L-178,252.1L-178,252.1L-178,252.1L-178,252.1h0.1h0.1l0,0l0,0l0,0h0h0h0l0,0l0,0l0,0l0,0l0,0l0,0l0,0
				l0,0l0,0l0,0v0l0,0l0,0l0,0l0,0h0h0h0v0l0,0h0h0h0v0v0v0v0l0,0l0,0v0v0v0l0,0l0,0l0,0v0v0v0v0v0l0,0l0,0v0v0v0l0,0v0v0v0l0,0l0,0
				h0h0l0,0l0,0l0,0v0v0v0h0h0l0,0v0v0l0,0l0,0l0,0l0,0l0,0v0l0,0l0,0l0,0l0,0l0,0v0v0v0h0l0,0l0,0h0l0,0h0h0l0,0v0h0l0,0v0v0v0v0h0
				l0,0v0l0,0l0,0h0l0,0l0,0l0,0l0,0h0h0h-0.1h0l0,0l0,0v0v0h0l0,0h0l0,0h0l0,0l0,0l0,0h0l0,0v0v0v0v0v0l0,0h0.1h0l0,0l0,0l0,0l0,0
				h0h0h0l0,0v0v0h0h0h0l0,0l0,0v0l0,0l0,0l0,0v0l0,0l0,0h0h0l0,0v0l0,0h0h0l0,0l0,0v0l0,0h0v0v0l0,0l0,0l0,0l0,0l0,0l0,0v0l0,0l0,0
				l0,0l0,0v0l0,0l0,0h0l0,0l0,0v0l0,0v0l0,0v0v0l0,0l0,0v0v0l0,0l0,0h0l0,0l0,0l0,0l0,0l0,0l0,0h0v0l0,0l0-0.1h0h0l0,0l0,0v0v0l0,0
				l0,0h0h0h0.1l0,0l0,0v0v0v0h0v0v0l0,0h0l0.1,0l0,0l0,0l0,0l0,0l0,0h0l0,0l0,0l0,0l0,0h0l0,0v0v0l0,0v0h0v0l0,0l0,0l0,0l0,0h0l0,0
				l0,0v0l0,0l0,0v0.1v0v0h0h-0.1h0h0v0v0l0,0l0,0v0v0.1h0l0,0v0v0v0l0,0l0,0l0.1,0l0,0l0,0l0,0l0,0l0,0l0,0l0,0l0,0l0,0l0,0v0l0,0
				l0,0l0,0l0,0h0l0,0l0,0l0,0v0l0,0l0,0l0,0h0l0,0h0l0,0l0,0h0h0h0h0l0,0v0v0v0l0,0h0l0,0v0l0,0h0l0,0v0v0l0,0l0,0v0v0l0,0l0,0l0,0
				l0,0h0v0l0-0.1l0,0l0,0l0,0l0,0v0v0l0,0l0,0l0,0v0v0l0,0l0,0h0l0,0v0v0v0l0,0h0h0h0l0,0h0l0,0l0,0l0,0l0-0.1l0,0l0,0h0h0h0l0,0
				l0,0l0,0l0.1,0l0,0l0,0v0v0v0v0l0,0l0.1,0h0l0,0h0l0,0h0l0,0l0,0v0v0v0v0h0h0h0l0,0l0,0h0l0,0v0l0,0l0,0l0,0v0v0l0,0h0l0,0v0v0v0
				v0v0v0l0,0l0,0l0,0l0,0l0.2-0.2h0l0,0h0l0,0l0,0l0,0l0,0.1l0,0v0l0,0l0,0l0,0l0.1,0l0.1,0l0.1,0l0.1,0l0.1,0l0,0l0,0l0,0l0,0.1
				l0,0l0,0.1l0,0.1l0,0.1l0,0.1l0.1,0.1l0.1,0.1l0.1,0.1l0.1,0.1l0,0l0,0l0,0l0,0.1l0,0.1l0,0l0,0l0.1,0.1l0,0.1l0,0.1l0.1,0.1
				l0,0.1l0,0l0,0l0,0v0l0,0l0,0h0h0l0,0l0,0l0,0l0,0l0,0l0,0h0l0,0v0v0l0,0l0,0l0,0v0.1l0,0l0,0h0h0l0,0l0,0v0v0v0v0v0v0l0,0l0,0
				l0,0v0v0v0v0l0,0h0h0h0.1v0v0v0v0v0v0l0,0l0.1,0h0l0,0l0,0l0,0h0v0v0v0l0,0h0h0h0h0l0,0l0,0l0,0l0,0l0,0v0v0v0.1v0v0l0,0l0,0h0h0
				l0.1,0h0v0l0,0l0,0l0,0v0v0l0,0v0h0l0.1,0h0v0v0l0,0h0h0l0,0h0h0h0l0,0h0h0h0h0v0v0v0l0,0l0,0l0,0l0,0l0,0l0,0l0,0l0,0h0h0l0,0
				l0,0l0,0v0l-0.1,0l0,0h0h0h0l0,0l0,0v0v0l0,0l0,0l0,0h0l0,0l0,0l0,0l0,0h0l0,0l0,0h0h0h0l0,0h0h0h0h0h0h0l0,0l0,0h0l0,0l0,0l0,0
				l0,0l0,0l0,0v0v0v0l0,0v0v0v0l0,0l0,0l0,0v0v0v0v0l0,0h0l0,0l0,0v0l0,0h0l0,0l0,0l0,0l0,0h0h0h0h0h0l0,0h0l0,0h0l0,0l0,0l0,0l0,0
				l0,0l0,0l0,0h0h0l0,0l0,0l0,0v0l0,0h0l0,0l0,0l0,0v0v0h0h0h0l0,0v0v0l0,0l0,0l0,0l0,0l0,0h0l0,0l0,0l0,0h0l0,0h0l0,0h0h0l0,0l0,0
				l0,0l0,0l0,0l0,0h-0.2l0,0l0,0l0,0l0,0h0h0l0,0h0l0,0l0,0h0.2l0,0l0,0h0l0,0v0v0l0,0l0,0l0,0l0,0l0,0l0,0l0,0h0l0,0l0,0l0,0v0v0
				l0,0l0,0l0,0l0,0l0,0l0,0l0,0l0,0l0,0l0,0l0,0l0,0l0,0l0,0l0,0v0v0v0h0h0l0,0h0l0,0l0,0l0,0l0,0v0l0,0l0,0l0,0h0v0l0,0l0,0h0v0
				l0,0v0v0l0,0h0h0h0l0,0h0l0,0h0v0v0v0l0,0h0h0h0l0,0v0v0l0,0h0l0,0l0,0l0,0v0l0,0l0,0l0,0h0l0,0h0h0l0,0l0,0l0,0l0,0h0h0h0l0,0h0
				h0h0v0l0,0v0l0,0v0v0v0v0v0v0l0,0l0,0l0,0v0v0l0,0l0,0l0,0v0v0l0,0l0,0v0l0,0v0v0v0l0,0h0h0v0l0,0l0,0l-0.1,0h-0.3l0,0v0l0,0.2
				v0.1v0v0v0v0l0.1,0.2v0v0v0l0,0l0,0l0,0v0v0v0v0v0v0l0,0v0v0l0,0h0h0v0v0v0v0v0v0v0v0v0h0l0,0h0h0l0,0v0v0v0l0,0l0,0l0,0l0,0l0,0
				v0v0v0l0,0l0,0h0h0v0v0v0v0v0l0,0l0,0h0h0l0,0h0h0l0,0l0,0l0,0h0l0,0l0,0l0,0l0,0l0,0h0h0l0,0l-0.2,0l-0.1,0h0h0h0l0-0.1h0h0h0h0
				h0l0,0v0l0,0v0l0,0l0,0v0l0,0v0v0v0v0v0v0l0,0.2l0,0.2l0,0v0v0v0l0,0l0,0v0v0.1l0,0v0.1v0v0l0,0.1v0.1v0v0v0l0,0l0,0l0,0h0h0.1
				l0.1,0l0,0v0v0v0.1v0l0,0l0,0l0,0l0,0l0,0h0v0l-0.1,0.1l0,0h0l0,0l0,0h0l0,0l0,0v0v0l0,0l0,0h0h0l0,0l0,0l-0.3,0.1l0,0l0,0h0l0,0
				h0h0h0l-0.1,0h0h0v0v0v0h0h0l0,0h0h0l0,0l0,0l0,0l0,0l0,0h0v0l0,0l0.1,0h0l0.1,0h0h0l0,0l0.1,0h0l0,0v0l0,0l0,0l0,0v0l0,0l0,0
				l0,0l0,0l0,0v0v0v0v0l0,0.1v0v0v0v0h0l0,0v0v0v0v0l0,0l0,0l0,0l0,0l0.1,0.2l0.1,0.2v0v0l0,0l0,0h0h0l0,0v0v0v0v0l0,0v0v0v0h0h0h0
				l0,0h0l0,0l0,0h0l0,0v0l0,0l0,0l0,0h0h0v0v0v0h0l0,0v0l0,0l0,0h0l0,0l0,0v0v0v0l-0.1,0v0v0v0v0l0,0v0l0,0v0l0,0v0v0l0,0l0,0v0v0
				l0,0l0,0v0v0l0,0l0,0l0,0l0,0l0-0.1l0,0l0,0l0,0l0,0h-0.1h0h0h0h0l0,0l0,0l0,0l0,0l0,0l0,0v0v0v0v0l0,0h0h0l0,0h0h0h0l-0.1,0
				h-0.1h0l0,0l0,0l0,0h0h0h0l0,0l0,0h0h0h0h0h0l0,0h0l0,0h0h0l0,0l0,0l0,0h0l0,0l0,0l0,0l0,0h0h0h0l0,0l0,0h0h0h0h0h0l0,0l0,0l0,0
				h0h0h0l0,0h0l0,0l0,0l0,0h0h0h0h0l0,0h0.1h0h0l0,0l0,0l0,0h0l0,0l0,0l0,0l0,0l0,0h0h0l0,0h0h0l0,0h0h0v0h0l0,0v0l0,0l0,0h0l0,0h0
				h0h0h0l0,0h0h0h0h0l0,0l0,0l0,0l0,0.1v0v0l0,0h0h0l0,0h0h0h-0.1h0h0l0,0h0h0h0h0v0l0,0h0h0l-0.1,0l0,0l0,0l0,0h0h0v0h0h0l0,0h0h0
				h0l0-0.1h0l0,0v0v0l0,0l-0.1,0h0l0,0h0l0,0l0,0v0h0h0l-0.1,0l0,0l0,0v0l0,0v0v0v0v0v0v0v0l0,0l0,0.1v0v0v0l0,0l0,0.1l0,0v0h0l0,0
				h0v0v0v0v0h0h0h0h0h0h0h0l-0.1,0h0h0h0l0,0l0,0l0,0h0l-0.1,0h0h0l-0.1,0l0,0h-0.1l0,0h0l0,0h0l-0.1,0h0h0l0,0l0,0l0,0h0h0h0v0.1
				h0l0,0l0,0l0,0l0,0l0,0h0h0v0v0v0l0,0h0h0h0h0h0l0,0v0l0,0l0,0l0,0v0v0v0v0l0,0l0,0v0l0,0l0,0l0,0l0,0l0,0l0,0l0,0l0,0l0,0h0l0,0
				l0,0v0v0v0l0,0l0,0l0,0l0,0l0,0l0,0l0,0v0l0,0l0,0h0h0l0,0l0,0h0h0h0h0h0h0l0,0l0,0l0,0l0,0l0,0l0,0l0,0l0,0v0v0v0v0v0v0v0l0,0
				l0,0l0,0l0,0l0,0l0,0l0,0l0,0l0,0l0,0l0,0l0,0l0,0l0,0l0,0l0,0l0,0l0,0l0,0h0l0,0l0,0l0,0v0v0l0,0l0,0l0,0l0,0l0,0l0,0l0,0l0,0
				l0,0l0,0l0,0l0,0l0,0l0,0l0,0l0,0l0,0l0,0h0h0l0,0l0,0l0,0l0,0v0v0h0h0h0h0l0,0l0,0l0,0l0,0v0v0l0,0l0,0h0.1h0l0,0l0,0v0v0l0,0
				l0,0l0,0l0,0l0,0l0,0l0,0l0,0h0h0l0,0l0,0h0h0l0,0l0,0l0,0l0,0l0,0l0,0l0,0l0,0l0,0l0,0l0,0l0,0l0,0l0,0l0,0l0,0h0h0l0,0l0,0l0,0
				l0,0l0,0l0,0l0,0l0,0l0,0l0,0l0,0l0,0l0,0l0,0l0,0l0,0v0v0l0,0l0,0l0,0l0,0h0h0h0h0h0h0l0,0l0,0l0,0l0,0v0v0h0l0,0l0,0l0,0l0,0
				l0,0l0,0l0,0h0l0,0h0l0,0l0,0l0,0l0,0l0,0l0,0l0,0l0,0l0,0l0,0l0,0l0,0l0,0l0,0l0,0l0,0l0,0l0,0l0,0l0,0l0,0l0,0l0,0l0,0v0v0l0,0
				l0,0l0,0l0,0l0,0l0,0l0,0l0,0l0,0l0,0l0,0l0,0l0,0l0,0l0,0l0,0l0,0l0,0v0v0l0,0l0,0l0,0l0,0l0,0l0,0l0,0l0,0h0h0l0,0l0,0l0,0l0,0
				l0,0l0,0l0,0l0,0l0,0l0,0l0,0l0,0l0,0l0,0l-0.1,0l0,0l0,0l0,0l0,0l0,0l0,0l0,0l0,0h0l0,0l0,0l0,0l0,0l0,0l0,0l0,0h0h0l0,0l0,0
				l0,0l0,0l0,0l0,0v0v0v0v0v0v0v0v0l0,0l0,0l0,0l0,0l0,0l0,0l0,0l0,0l0,0l0,0l0,0l0,0l0,0l0,0l0,0l0,0l0,0l0,0l0,0l0,0l0,0l0,0l0,0
				l0,0l0,0l0,0l0,0l0,0l0,0l0,0l0,0l0,0l0,0l0,0v0v0l0,0l0,0l0,0h0l0,0l0,0l0,0l0,0v0v0l0,0l0,0l0,0l0,0l0,0l0,0l0,0l0,0h0h0l0,0
				l0,0h-0.1h-0.1h0h-0.1h0h-0.1h0h-0.1h0l0,0h-0.1v0l0,0l0-0.1l0-0.1l0-0.1l0-0.1l0-0.1v-0.1l0,0l0,0l0,0l0,0l0,0l0,0l0,0l0,0h-0.1
				h0h0h-0.1l0,0l0,0l0,0l0,0v-0.2v-0.1v0l0,0l0,0l0,0l0,0l0,0l0,0v0v0l0-0.2l0-0.2l-0.1,0l-0.1,0l0,0l0,0l-0.6,0.3l0-0.1l-0.1-0.1
				l0-0.1v0l0,0l0,0l0,0l0,0l0,0l0-0.1l0-0.1l0,0l0,0l0,0l0,0h0h0l-0.1,0l0,0l0,0l0,0h0h0h0h-0.1l-0.1,0l-0.1,0l-0.1,0l-0.1,0
				l-0.1,0l-0.1,0l-0.1,0h0h0h0h0h0h0h0h0h0h0h0h0h0h0h0h0h0l0,0h0h0l0,0l0,0l0,0l0,0l0,0h0v0l0,0l0,0l0,0l0,0l0,0l0-0.1l0,0v0v0v0
				v0h0l0,0l0,0l0,0l-0.1,0l-0.1-0.1l-0.1-0.1l-0.1-0.1h0v0v0v0v0v0v0v0l0,0l0,0v0v0v0v0v0v0v0v0h0h0h0h0h0h0h0l0,0l0,0l0,0l0,0v0v0
				v0l0,0l0,0l0,0v0l0,0l0,0v0l0,0l0,0l0,0l0,0l0,0v0l0,0l0,0l0,0l0,0l0,0l0,0l0,0l0,0l0,0l0,0l0,0v0v0l0,0l0,0l0,0l0,0l0,0l0,0l0,0
				h0l0,0l0,0h0h0h0h0l0,0h0l0,0h0l0,0h0l0,0l0,0l0,0l0,0l0,0h0l0,0h0l0,0l0,0v0l0,0l0,0l0,0l0,0l0,0l0,0l0,0l0,0l0,0l0,0l0,0l0,0
				l0,0l0,0v0l0,0l0,0l0,0l0,0h0h0l0,0l0,0l0,0l0,0l0,0l0,0h0h0l0,0l0,0l0,0l0,0l0,0l0,0l0,0l0,0h0l0,0l0,0l0,0l0,0l0,0v0l0,0l0,0
				l0,0l0,0v0l0,0l0,0v0l0,0l0,0l0,0l0,0l0,0v0v0v0l0,0l0,0h0l0,0l0,0h0l0,0l0,0l0,0l0,0h-0.1l0,0h0l0.3-0.2l0,0l0,0l0,0l0,0l0,0
				l0,0l0,0v0v0l0,0v0v0l0,0l0,0l0,0l0,0h0l0,0l0,0l0,0l0,0l0,0h0h0h0h0l0,0h0v0l0,0l0,0l0,0l0,0l0,0l0,0l0,0l0,0h0l0,0l0,0l0,0l0,0
				h0l0,0l0,0l0,0l0,0l0,0v0l0,0l0,0v0l0,0v0v0l0-0.1v0v0l0,0l0,0l0,0l0,0h0h0l0,0v0l0,0l0,0h0h0l0,0l0,0v0v0v0v0v0v0v0l0,0l0,0l0,0
				h0l0.1,0h0l0,0l0,0l0,0l0,0l0,0l0,0l0,0l0,0h0l0,0l0,0v0l0,0l0,0l0,0l0,0v0l0,0v0l0,0l0,0l0,0v0l0,0l0,0l0,0l0,0l0,0v0v0v0l0,0
				l0,0l-0.1,0l0,0h0h0h0l0,0h0l0,0l0,0h0h-0.1h0h0h0h0h0l0,0l0,0h0h0h0h0l0,0l0,0l0,0l0,0v0v0v0v0v0l0,0l0,0l0,0v0l0,0l0,0l0,0h0h0
				l0,0l0,0l0,0l0,0l0,0l0,0l0,0l0,0l0,0l0,0v0v0l0,0l0,0l0,0l0,0l0,0v0v0v0v0l0,0v0l-0.1,0l0,0v0h0v0v0v0l0,0l0,0l0,0h0h0h0l0,0h0
				v0l0,0l0,0v0v0v0h0l0,0h0l0,0v0l0,0l0,0l0,0v0l0,0l0,0l0,0v0v0v0v0l0,0l0,0l0,0v0v0l0,0l0,0l0,0l0,0h0l0,0v0v0l0,0v0l0,0h0h0h0
				l0,0l0,0l0,0h0h0h0v0h0l0,0l0,0l0,0l0,0l0,0l0,0l0,0l0,0l0,0l0,0l0,0l0,0h0l0,0l0,0h0l0,0l0,0l0,0l0,0v0l0,0l0,0l0,0l0,0l0,0l0,0
				l0,0l0,0l0,0l0,0l0,0l0,0l0,0v0l0,0v0v0v0v0l0,0l0,0l0,0l0,0l0,0l0,0v0v0l0,0l0,0h0h0h0h0h0h0h0h0h0h0l-0.1,0l-0.1,0l-0.1,0
				l-0.1,0l0,0l0,0l0,0l-0.1,0.1h0l0,0l0,0h0h0h0h0h0l-0.1,0h0h0h0h-0.1l0,0l0,0l0,0l0,0l0,0l0,0l0,0l0,0l0,0l0,0l0,0l0,0l0,0l0,0
				l0,0l0,0l0,0l0,0l0,0l0,0l0,0l0,0l0,0l0,0l0,0l0,0l0,0l0,0l0,0l0,0l0,0l0,0l0,0l0,0l0,0l0,0l0,0l0,0l0,0l0,0l0,0l0,0l0,0l0,0l0,0
				l0,0l0,0l0,0l0,0l0,0l0,0l0,0l0,0l0,0l0,0l0,0l0,0l0,0l0,0l0,0l0,0.2l0,0.2l0,0.2l0,0.2v0.3l0,0.2l0,0.2l0,0.2l0,0.2l0,0.2l0,0.2
				l0,0.3l0,0.2l0,0.2l0,0.2l0,0.2h0h0l0,0h0h0h-0.1h0l0,0l0,0v0l0,0v0v0l0,0l0,0l0,0l0-0.1l-0.1,0l0,0l0-0.1v0v0v0v0v0v0l0,0
				l-0.1-0.1l0,0l0,0l-0.1,0l-0.1-0.1l0,0l0,0h-0.1h-0.1h-0.1h0h-0.2l0,0l-0.1,0l-0.1,0.1l0,0l0,0l-0.1,0l-0.1,0.1l0,0v0v0l0,0l0,0
				v0v0v0l0,0l0,0l0,0l0,0v0l0,0l0,0l0,0v0v0v0v0v0l0,0h0h0l0,0l0,0l0,0l0,0l0,0v0l0,0l0,0l0,0l0,0l0,0v0l0,0l0,0l0,0v0v0v0v0l0,0v0
				v0l0,0l0,0v0v0l0,0l0,0l0,0l0,0l0,0l0,0l0,0v0v0l0,0l0,0v0v0v0v0v0l0,0h0v0l0,0l0,0l0,0l0,0l0,0l0,0l0,0l0,0v0l0,0h0l0,0h-0.1h0
				h0h0l0,0h0h0l0,0v0v0v0v0v0v0l0,0v0l0,0l0,0l0,0l0,0l0,0l0,0l0,0v0v0v0h0h0h0l0,0l0,0l0,0l0,0l0,0l0,0l0,0h0l0,0l0,0v0l0,0l0,0
				l0-0.1v0l0,0l0,0l0,0v0l0,0v0l0,0v0v0l0,0l0,0l0,0l0,0l0,0l0,0h0l0-0.1v0v0l0,0l0,0l0,0l0,0l0,0v0l0,0l0,0l0,0l0,0v0l0,0v0l0,0
				l0,0h0l0,0v0l0,0l0,0v0l0,0v0v0l0,0l0-0.1l0,0l-0.2-0.1l0,0l0,0l0,0v0l0,0l0,0v0v0l0,0v0v0v0l0,0v0h0l0,0v0l0,0l0,0v0l0,0l0,0
				l0,0l0,0l0,0l0.1,0h0h0h0v0l0,0l0,0v0l0,0l0,0l0,0l0,0l0,0l0,0h0h0h0l0,0l0.1,0l0,0h0l0,0l0,0l0,0l0,0l0,0v0v0l0,0h0h0h0h0l0,0
				l0,0l0,0l0,0l0,0l0,0l0,0l0,0h0l0,0v0h0h0l0,0h0l0,0v0v0l0,0h0l0,0h0h0l0,0l0,0v0v0l0,0l0,0l0,0l0,0l0,0h0l0,0l0,0l0,0l0,0v0v0v0
				h0l0,0l0,0l0,0l0,0l0,0l0,0l0,0v0v0h0h0h0h0l0,0l0,0l0,0v0l0,0l0,0h0l0,0l0,0v0v0h0l0,0v0v0v0l0,0l0,0l0,0l0,0l0,0v0l0,0v0v0l0,0
				v0v0l0.1-0.1v0v0v0l0,0v0l0,0h0h0h0l0,0l0,0h0l0,0l0,0v0l0,0h0l0,0v0v0v0l0,0l0,0l0,0h0h0l0,0h0h0l0,0h0l0.2,0l0,0h0l0,0l0.1,0
				l0,0l0,0h0h0h0l0,0h0h0h0h0l0,0l0,0l0,0h0l0,0l0,0l0,0l0,0l0,0l0,0l0,0l0,0l0,0l0,0l0,0h0l0,0l-0.1,0h0l0,0v0l0,0l0,0h0l0-0.1
				l0,0l0,0l0,0l0,0l0,0l0,0l0,0l0,0l0,0v0v0l0,0h0h0v0l0,0l0,0h0l0,0h0l0,0l0,0v0l0,0l0,0l0,0l0,0l0,0v0l0,0l0,0v0v0l0,0v0l0,0l0,0
				v0v0l0,0l0,0l0,0v0l-0.1-0.1l0,0h0l0,0l0,0l0,0l0,0v0v0v0h0l0,0h0h0v0l0,0l0,0v0l0,0l0,0h0v0v0v0v0l0,0v0l0,0l0,0h0l0,0l0,0l0,0
				l0,0l0,0v0h0h0h0v0v0v0v0v0l0,0h0l0,0v0v0l0,0h0h0h0l-0.1,0h0l0,0l0.1,0l0,0l0,0l0,0l0,0l0,0v0l0,0l0,0h0h0h0l0,0l0,0l0,0v0l0,0
				h0l0,0l0,0l0,0l0,0l0,0l0,0l0,0h0l0,0l0,0l0,0v0l0,0l0,0l0,0l0,0l0,0v0l0,0l0,0l0,0l0,0l0,0l0,0l0,0h0h0h0h0l0,0l0,0h0h0l0,0h0h0
				v0v0l0-0.1v0l0,0l0,0v0h0h0v0l0,0v0h0v0v0v0h0h0h0l0,0l0,0h0l0,0h0h-0.1h0l0,0h0l0,0v0l0,0l0,0l0,0l0,0l0,0l0,0v0.1h0v0l0,0l0,0
				l0,0l0,0l0,0l0,0h0h0l0,0l0,0v0v0v0v0l0,0l0,0l0,0v0l0,0h0h0l0,0l0,0l0,0l0,0l0,0l0,0l0,0l0,0l0,0l0,0l0,0h0l0,0v0l0,0l0,0l0,0
				l0,0l0,0h0l0,0l0,0l0,0l0,0l0,0l0,0l0,0l0,0l0,0l0,0l0,0h0l0,0l0,0h0h0h0l0,0l0,0h-0.1l0,0h0v0l0,0l0,0l0,0v0l0,0h0v0l0,0l0,0v0
				l0,0l0,0v0l0,0l0,0l0,0v0l0,0l-0.1,0l0,0v0v0l0,0l0,0l0,0l0,0v0v0l0,0l0,0v0v0v0v0v0v0l0,0l0,0l0,0l0,0l0,0l0,0l0,0l0,0l0,0v0
				l0,0l0,0l0,0l0,0h0l0,0l0,0v0v0l0,0v0l0,0h0l0,0v0v0v0h0l0,0l0,0v0v0l0,0l0,0l0,0l0,0l0,0l0,0h0v0v0v0l0,0l0,0h0l0,0l0,0l0,0v0
				l0,0l0,0l0,0l0,0l0,0l0,0l0,0l0,0l0,0l0,0l0,0l0,0l0,0v0l0,0l0,0l0,0l0,0l-0.1-0.1h0v0h0h0h0h0l0,0v0l0,0l0,0l0,0l0,0l0,0l0,0v0
				v0l0,0l0,0l0,0l0,0v0l0,0l0,0h0l0,0v0v0v0h0h0.1h0l0,0l-0.1-0.3l0-0.2v0v0l0,0h0l0,0l0,0l0,0l0,0l0-0.2l0,0l0,0l-0.2,0l-0.1-0.1
				h0h0v0l0,0l0,0v0l0,0l-0.1-0.1l0,0v0l0,0l0,0l0,0l0,0l0,0l0,0l0,0l0,0l0,0l0,0v0l0,0l0,0l0,0l0,0v0h0v0v0v0v0v0l0,0v0l0,0l0,0
				l0,0l0,0l0,0l0,0l0,0v0v0l0,0l-0.1,0l-0.1-0.1l0,0l0,0l0,0l0,0l0.1-0.2l0.1-0.2l0,0h0l0,0h0h0l0,0l0,0l0,0v0l0,0l0-0.1l0,0
				l0.1-0.2l0.1-0.2l0,0l0,0l0.1,0l0,0l0,0l0,0v0l0,0v0l0,0l0,0v0v0v0v0v0h0h0l0,0l0,0l0,0h0l0,0h0h-0.1l0,0l0,0l0,0l0,0v0l0,0l0,0
				l0,0l0,0l0,0v0l0,0v0l0,0l0,0v0v0l0,0l0,0v0v0v0v0l0,0v0l0,0l0,0l0,0v0v0v0h0l0,0l0,0l0,0l0,0l0,0l0,0l0,0l0,0l0.1,0l0,0l0,0l0,0
				l0,0l0,0v0v0v0h0v0l0,0v0l0,0v0l0-0.1l0,0l0,0v0l0,0h0v0h0h0l0,0l0,0h0l0.1,0l0-0.1l0,0h0.1h0l0,0l0,0v0l0,0v0l0,0l0,0v0l0,0v0v0
				l0,0h0l0,0l0.1,0l0,0l0,0l0.1,0h0h0.1l0,0l0,0l0,0v0v0v0l0,0l0,0l0,0l0,0l0,0l0,0l0,0l0,0h0l0,0l0,0v0h0l0,0l0,0v0.1v0v0h0h0l0,0
				v0v0l0,0l0,0l0,0l0,0l0,0l0,0l0,0h0h0l0,0l0,0v0v-0.1v0l0,0l0,0l0,0v0v0v0v0h0l0.1,0h0l0,0h0l0,0v0l0,0l0,0h0l0,0v0l0,0v0l0,0h0
				h0l0,0v0v0v0l0,0l0,0l0,0h0h0l0,0v0l0,0h0h0l0,0v0v0v0h0l0,0l0,0v0v0v0l0.2,0l0,0h0h0h0h0l0,0h0h0h0h0h0l0,0l0,0h0h0h0h0l0,0l0,0
				l0,0v0v0v0l0,0.1v0l0,0v0v0l0,0l0,0l0,0h0l0,0l0,0l0,0l0,0l0,0l0,0l0,0h0l0,0l0,0l0,0l0,0l0,0v0l0,0h0l0,0v0l0,0h0l0,0l0,0l0,0
				l0,0l0,0h0l0,0v0l0,0l0,0l0,0l0,0l0,0l0,0l0,0l0,0l0,0l0,0l0,0l0,0l0,0h0l0,0l0,0l0,0l0,0v0l0,0l0,0l0,0l0,0v0l0,0h0v0v0v0v0l0,0
				v0v0v0l0.1,0h0h0l0,0v0v0h0h0l0,0v0v0v0l0,0l0,0v0l0,0l0,0l0,0v0v0v0h0l0,0l0,0v0l0,0h0l0,0l0,0l0,0l0,0l0,0l0.2,0v0v0v0l0,0v0v0
				v0l0,0v0h0h0h0l0,0h-0.1l0,0l0,0v0v0v0l0,0v0l0,0v0l0,0l0,0l0,0l0,0v0l0,0l0,0l-0.1,0l0,0l0,0l0,0v0l0,0l0,0h0h0h0l0,0l0,0l0,0v0
				l0,0l0,0l0.1,0v0v0l0,0l0.1,0.1h0l0,0l0,0h0h0h0l0,0v0v0v0l0,0l0,0l0,0l0,0h0l0,0l0.1,0l0.1,0l0,0l0-0.1v0l0,0l0,0l0,0h0h0h0v0v0
				l0,0h0l0,0v0v0v0l0,0l0,0l0,0h0l0,0.1l0,0l0,0l0,0l0,0v0v0v0v0h0h0h0l0,0l0,0h0h0h-0.1h0h0l0,0h0l0,0l0,0l0,0v0v0v0l0,0h0l0,0
				l0,0v0v0v0v0v0v0l0,0h0h0h0l0,0v0l0,0h0h0l0,0h0l0,0v0v0v0l0,0l0,0h0l0,0l0,0h0l0,0l0,0v0l0,0h0l0,0h0l0,0l0,0l0,0l0,0l0,0h0h0h0
				h0v0v0v0h0h0l0,0l0,0l0,0v0v0v0l0,0l0,0h0l0,0l0,0v0v0v0l0,0l0,0v0v0v0l0,0l0,0h0l0,0v0v0v0h0h0h0v0v0v0v0l0,0l0,0l0.1,0h0v0v0
				l0,0l0,0l0,0h0h-0.1v0l0,0l0,0l0,0v0h0l0,0l0,0v0v0l0,0l0,0l0,0l0,0h0h0h0l0,0l0,0v0l0,0v0v0v0v0v0l0,0l0,0l0,0h0l0,0l0,0v0v0v0
				l0,0l0,0l0,0l0.2,0h0l0.1,0l0.1,0l0,0l0,0l0,0l0-0.1v0l0-0.1l0,0l0,0l0,0h0l0,0l0,0l0,0l0,0l0,0v0l0,0h0l0.1-0.1h0l0,0h0l0,0l0,0
				l0,0h0h0l0,0h0h0h0l0,0l0,0l0,0l0,0l0,0l0,0l0,0l0,0l0,0v0v0l0,0v0l0,0l0,0l-0.2,0l0,0l0,0l0,0l0,0l0,0l0,0l0,0v0l0,0h0h0l0,0v0
				l0,0h0l0,0l0,0l0,0l-0.1,0l-0.1-0.2h0l0,0v0h0h0v0l0,0v0v0v0l0,0h0h0.1l0.1-0.1l0,0l0,0h0h0h0l0,0l0,0l0,0l0,0h0l0,0l0,0l0,0l0,0
				l0,0v0v0v0v0l0,0l0,0v0l0,0v0v0v0v0l0,0l0,0h0l0,0l0,0l0,0l0,0l0,0l0,0l0,0l0,0l0,0l0,0l0,0l0,0h0l0,0l0,0l0,0l0,0l0.1-0.1l0,0
				l0,0l0,0h0h0l0,0l0,0l0,0l0,0l0,0h0h0l0,0h0h0h0h0l0,0h0h0l0,0l0,0h0h0h0l0,0h0h0h0l0,0h0l0,0l0,0l0,0l0,0v0.1v0v0l0,0l0,0
				l-0.1,0l-0.2,0l0,0l0,0h0l0,0h0h0v0h0h0h0v0l0,0v0v0l0,0l0,0v0l0,0v0l0,0h0h0l0,0v0l0,0l0,0h0h0l0,0h0h0v0v0l0,0h0h0l0,0h-0.1
				l0,0l0,0l0,0v0l0,0h0h0l-0.1-0.1l0,0l0,0l0,0v0v0v0l0,0l0,0h0l0,0v0l0,0l0,0l0,0v0l-0.1,0h0h0v0l0,0l0,0h0h0l0,0l0,0l0,0l0,0v0h0
				h0h0h0l0,0l0,0l0,0v0l0,0l0,0v0v0v0v0l0,0v0h0h0l0,0v0h0h0l0,0l0,0l0,0l0,0v0l0,0l0,0l0,0l0,0v0v0h0l0,0l0,0l0,0l0,0l0,0l0,0l0,0
				v0v0l0,0l0,0h0h0v0l0,0v0h0.2l0,0l0,0v0l0,0l0,0v0v0v0l0,0v0l0,0l0,0l0,0l0,0l0,0l0,0v0l0,0l0,0v0l0,0v0l0,0v0l0,0l0,0h0h0l0,0
				l0,0l0,0h0h0h0h0v0v0v0v0v0h-0.1l0,0l0,0l0,0h0h0l0,0h0h0l0.1,0h0h0l0,0h0l0,0v0h0h0h0v0l0,0v0l0,0l0,0l0,0l0,0v0l0,0l0,0l0,0
				l0,0l0,0l0,0l0,0h0h0l0,0h0h0l0,0l0,0l0,0h0h0l0,0l0,0l0,0l0,0l0,0l0,0l0,0h0l0,0l0,0l0,0h0h0l0,0l0,0l0,0l0,0l0,0l0,0l0,0l0,0
				l0,0l0,0l0,0l0,0h0l0,0l0,0l0.2,0l0,0v0l0,0v0l0,0l0,0h0h0h0v0v0v0h0h0l0,0h0l0,0l0,0l0,0l0,0l0,0l0,0v0v0l0,0l0.2,0h0h0h0h0l0,0
				h0h0.1h0l0,0h0h0h-0.1l0,0v0l0,0h0h0h0h0.1l0,0l0,0l0,0v0h0h0h0l0,0l0.1,0l0,0v0h0l0,0v0v0l0,0h0h0v0l0,0.1l0,0v0l0,0l0,0l0,0h0
				l0,0l0,0l0,0l0,0l0,0h0h0l0,0h0h0l0,0l0,0l0,0v0l0,0l0,0l0,0v0v0v0v0v0h0l0,0l0,0h0h0L-178,252.1L-178,252.1L-178,252.1
				L-178,252.1L-178,252.1l0-0.1v0h0l0,0l0,0v0l0,0l0,0l0,0l0,0l0,0l0.1,0l0,0L-178,252.1z M-183,259.8L-183,259.8L-183,259.8
				L-183,259.8L-183,259.8L-183,259.8L-183,259.8L-183,259.8L-183,259.8L-183,259.8L-183,259.8L-183,259.8L-183,259.8L-183,259.8
				L-183,259.8L-183,259.8L-183,259.8L-183,259.8L-183,259.8L-183,259.8L-183,259.8L-183,259.8L-183,259.8L-183,259.8L-183,259.8
				L-183,259.8L-183,259.8L-183,259.8L-183,259.8L-183,259.8L-183,259.8L-183,259.8L-183,259.8L-183,259.8L-183,259.8L-183,259.8
				L-183,259.8L-183,259.8L-183,259.8L-183,259.8L-183,259.8L-183,259.8L-183,259.8L-183,259.8L-183,259.8L-183,259.8L-183,259.8
				L-183,259.8L-183,259.8L-183,259.8l-0.1,0v0v0v0l0,0l0,0L-183,259.8L-183,259.8L-183,259.8L-183,259.8L-183,259.8L-183,259.8
				L-183,259.8L-183,259.8L-183,259.8L-183,259.8z M-183.6,260L-183.6,260L-183.6,260L-183.6,260L-183.6,260L-183.6,260L-183.6,260
				L-183.6,260l0,0.1v0h0l0,0h0v0v0v0l0,0v0v0v0v0v0v0l0,0v0l0,0v0v0v0v0l-0.1-0.1l-0.1-0.1l0,0l0,0l0-0.1l0,0l0,0v0l0,0l0,0l0,0
				l0,0l0,0l0,0l0,0v0v0v0v0l0,0h0l0,0l0,0v0v0v0v0L-183.6,260L-183.6,260L-183.6,260L-183.6,260L-183.6,260l-0.1-0.1l0,0
				L-183.6,260L-183.6,260L-183.6,260L-183.6,260L-183.6,260L-183.6,260L-183.6,260z"/>
		</g>
	</g>
</g>
</svg>
