<?xml version="1.0" encoding="utf-8"?>
<!-- Generator: Adobe Illustrator 19.0.0, SVG Export Plug-In . SVG Version: 6.00 Build 0)  -->
<svg version="1.1" xmlns="http://www.w3.org/2000/svg" xmlns:xlink="http://www.w3.org/1999/xlink" x="0px" y="0px"
	 viewBox="-215 217 128 128" style="enable-background:new -215 217 128 128;" xml:space="preserve">
<style type="text/css">
	.st0{fill:none;stroke:#CCEBF8;stroke-width:4;stroke-miterlimit:10;}
	.st1{fill:#52AF50;}
	.st2{fill:#F89D6B;}
	.st3{fill:#F5732B;}
	.st4{fill:#FFFFFF;}
	.st5{fill:#323232;}
</style>
<g id="Layer_1">
	<g id="Layer_1_1_">
		<circle id="XMLID_1_" class="st0" cx="-151" cy="281" r="62"/>
	</g>
	<g id="Layer_2">
		<circle id="XMLID_2_" class="st1" cx="-151" cy="281" r="52.5"/>
	</g>
</g>
<g id="Layer_2_1_">
	<g>
		<g>
			<circle class="st2" cx="-151" cy="280.7" r="25.6"/>
			<circle class="st3" cx="-151" cy="281.3" r="25.6"/>
		</g>
		<g>
			<path class="st4" d="M-166.9,277.2c0-3.9,3.8-5.7,7.2-5.7c3.7,0,7.8,1.5,7.8,5.9c0,4.7-3.6,5.7-7.5,5.7c-1.5,0-4.1,0.4-4.1,2.4
				v1.6h11.6v3.3H-167c0-1.6,0-3.3,0-4.9c0-4.3,3.9-5.6,7.6-5.6c1.4,0,4-0.2,4-2.4c0-2-1.8-3-4.2-3c-1.8,0-3.7,0.9-3.8,2.6H-166.9z"
				/>
			<path class="st4" d="M-137.2,271.8v11.7h2.2v3.4h-2.2v3.5h-3.5v-3.5h-10l-0.3-3.6l8.4-11.5H-137.2z M-140.7,283.5v-8.6l-6.3,8.6
				H-140.7z"/>
		</g>
	</g>
	<g>
		<path class="st5" d="M-143,312.3c0,1.6-1.3,3-2.8,3h-10.4c-1.5,0-2.8-1.3-2.8-3l0,0c0-1.6,1.3-3,2.8-3h10.4
			C-144.3,309.4-143,310.7-143,312.3L-143,312.3z"/>
		<path class="st5" d="M-183.2,292.4c-2.4,0-4.4-1.9-4.4-4.2v-15.5c0-2.3,2-4.2,4.4-4.2l0,0c2.4,0,4.4,1.9,4.4,4.2v15.5
			C-178.8,290.5-180.8,292.4-183.2,292.4L-183.2,292.4z"/>
		<path class="st5" d="M-118.8,292.4c-2.4,0-4.4-1.9-4.4-4.2v-15.5c0-2.3,2-4.2,4.4-4.2l0,0c2.4,0,4.4,1.9,4.4,4.2v15.5
			C-114.3,290.5-116.3,292.4-118.8,292.4L-118.8,292.4z"/>
		<path class="st5" d="M-151,246.7c-18.6,0-33.7,15.1-33.7,33.7h3c0-17,13.8-30.8,30.8-30.8s30.8,13.8,30.8,30.8
			c0,17-13.8,30.8-30.8,30.8v3c18.6,0,33.7-15.1,33.7-33.7S-132.4,246.7-151,246.7z"/>
	</g>
</g>
</svg>
