<?xml version="1.0" encoding="utf-8"?>
<!-- Generator: Adobe Illustrator 19.0.0, SVG Export Plug-In . SVG Version: 6.00 Build 0)  -->
<svg version="1.1" xmlns="http://www.w3.org/2000/svg" xmlns:xlink="http://www.w3.org/1999/xlink" x="0px" y="0px"
	 viewBox="-215 217 128 128" style="enable-background:new -215 217 128 128;" xml:space="preserve">
<style type="text/css">
	.st0{fill:none;stroke:#CCEBF8;stroke-width:4;stroke-miterlimit:10;}
	.st1{fill:#52AF50;}
	.st2{fill:#FFD7A3;}
	.st3{fill:#FDC88E;}
	.st4{fill:#FFE1B2;}
	.st5{fill:#DFE8EA;}
	.st6{clip-path:url(#SVGID_2_);fill:#393942;}
	.st7{fill:#29394A;}
	.st8{fill:#CDE2E8;}
	.st9{clip-path:url(#SVGID_4_);fill:#CDE2E8;}
	.st10{clip-path:url(#SVGID_4_);fill:#4A698E;}
	.st11{fill:#395A7F;}
</style>
<g id="Layer_1">
	<g id="Layer_1_1_">
		<circle id="XMLID_1_" class="st0" cx="-151" cy="281" r="62"/>
	</g>
	<g id="Layer_2">
		<circle id="XMLID_2_" class="st1" cx="-151" cy="281" r="52.5"/>
	</g>
</g>
<g id="Layer_2_1_">
	<g>
		<path class="st2" d="M-161.6,288.3c2.2-1.4,1.9-5.5,1.9-6.5h17.3c0,1-0.3,5.1,1.9,6.5l-10.5,11.8L-161.6,288.3z M-161.6,288.3"/>
		<path class="st3" d="M-144.3,292.5l3.8-4.1c-2.1-1.4-1.9-5.5-1.9-6.5h-17.3C-158.4,285.4-150.2,291.6-144.3,292.5L-144.3,292.5z
			 M-144.3,292.5"/>
		<path class="st4" d="M-137.6,269.4c0,7.7-4.4,17.3-13.5,17.3c-9,0-13.5-9.6-13.5-17.3c0-7.7,6-10.6,13.5-10.6
			C-143.6,258.8-137.6,261.7-137.6,269.4L-137.6,269.4z M-137.6,269.4"/>
		<path class="st5" d="M-128.9,311.7c1.6,0,2.9-1.3,2.9-2.9v-9.3c0-4.2-3.3-8.7-7.3-10l-6-1.9c-3.2,2.5-7.9,5.8-11.7,5.8
			c-3.8,0-8.4-3.4-11.7-5.8l-6,1.9c-4,1.3-7.3,5.8-7.3,10v9.3c0,1.6,1.3,2.9,2.9,2.9H-128.9z M-128.9,311.7"/>
		<g>
			<defs>
				<rect id="SVGID_1_" x="-176" y="250.1" width="50" height="61.7"/>
			</defs>
			<clipPath id="SVGID_2_">
				<use xlink:href="#SVGID_1_"  style="overflow:visible;"/>
			</clipPath>
			<path class="st6" d="M-156.8,253h-1.9c-3.7,0-6.7,3-6.7,6.8c0,3.5,1,9.6,1,9.6s1.1-4.9,5.8-6.7C-155.8,261.5-156.8,253-156.8,253
				L-156.8,253z M-156.8,253"/>
			<path class="st6" d="M-157.7,253.1c3.9-5.9,13.8-1,20.2-1c1,1.4,1.6,11.8,0,17.3l-2.9-4.8c0,0-8.8,3.2-18.3-1.9"/>
		</g>
		<path class="st4" d="M-164,271.3c-1.4-0.4-2.4,0.4-2.4,1.9c0,2,1.9,6.9,4,3.8C-160.4,274-164,271.3-164,271.3L-164,271.3z
			 M-164,271.3"/>
		<path class="st4" d="M-138.2,271.3c1.6-0.4,2.6,0.4,2.6,1.9c0,2-2.1,6.9-4.3,3.8C-142.2,274-138.2,271.3-138.2,271.3L-138.2,271.3
			z M-138.2,271.3"/>
		<path class="st7" d="M-149.1,296.4c0,0.5-0.4,1-1,1h-1.9c-0.5,0-1-0.4-1-1v-1.9c0-0.5,0.4-1,1-1h1.9c0.5,0,1,0.4,1,1V296.4z
			 M-149.1,296.4"/>
		<path class="st7" d="M-149.7,296.8l-1.3,0.5l-1.3-0.5l-0.6,14.8h3.8L-149.7,296.8z M-149.7,296.8"/>
		<path class="st8" d="M-151,293.4l-4,4c-0.4,0.4-1.1,0.4-1.5-0.1l-7-9.7l2.2-2.2c0.4-0.4,0.9-0.4,1.3,0L-151,293.4z M-151,293.4"/>
		<g>
			<defs>
				<rect id="SVGID_3_" x="-176" y="250.1" width="50" height="61.7"/>
			</defs>
			<clipPath id="SVGID_4_">
				<use xlink:href="#SVGID_3_"  style="overflow:visible;"/>
			</clipPath>
			<path class="st9" d="M-151,293.4l4,4c0.4,0.4,1.1,0.4,1.5-0.1l7-9.7l-2.2-2.2c-0.4-0.4-0.9-0.4-1.3,0L-151,293.4z M-151,293.4"/>
			<path class="st10" d="M-133.3,289.5l-5.2-1.7h0l-12.4,15.3l-12.4-15.3l-5.2,1.7c-4,1.3-7.3,5.8-7.3,10v9.3c0,1.5,1.1,2.7,2.5,2.8
				h44.9c1.4-0.2,2.5-1.4,2.5-2.8v-9.3C-126,295.3-129.3,290.8-133.3,289.5L-133.3,289.5z M-133.3,289.5"/>
		</g>
		<path class="st11" d="M-167.5,293.6l3.4,0.4v2.5c0,0.3,0.1,0.6,0.4,0.8l12.7,9l0-3.2l-12.5-15.5l-4.8,1.8v3.2
			C-168.3,293.1-168,293.5-167.5,293.6L-167.5,293.6z M-167.5,293.6"/>
		<path class="st11" d="M-134.5,293.6l-3.4,0.4v2.5c0,0.3-0.1,0.6-0.4,0.8l-12.7,9l0-3.2l12.5-15.5l4.8,1.8v3.2
			C-133.7,293.1-134.1,293.5-134.5,293.6L-134.5,293.6z M-134.5,293.6"/>
	</g>
</g>
</svg>
