<?xml version="1.0" encoding="utf-8"?>
<!-- Generator: Adobe Illustrator 19.0.0, SVG Export Plug-In . SVG Version: 6.00 Build 0)  -->
<svg version="1.1" xmlns="http://www.w3.org/2000/svg" xmlns:xlink="http://www.w3.org/1999/xlink" x="0px" y="0px"
	 viewBox="-215 217 128 128" style="enable-background:new -215 217 128 128;" xml:space="preserve">
<style type="text/css">
	.st0{fill:none;stroke:#CCEBF8;stroke-width:4;stroke-miterlimit:10;}
	.st1{fill:#FAA93B;}
	.st2{fill:#242424;}
	.st3{fill:#C1814C;}
	.st4{fill:#505050;}
	.st5{fill:#424242;}
	.st6{fill:#9C7753;}
	.st7{fill:#7C5132;}
	.st8{fill:#F3C7A5;}
	.st9{fill:#FDDCBD;}
	.st10{fill:#0D202A;}
	.st11{fill:#F4F4F4;}
	.st12{fill:#E54336;}
	.st13{fill:#FFFFFF;}
	.st14{fill:#083A5A;}
	.st15{fill:#3D2515;}
	.st16{fill:#D3D3D3;}
</style>
<g id="Layer_1">
	<g id="Layer_1_1_">
		<circle id="XMLID_1_" class="st0" cx="-151" cy="281" r="62"/>
	</g>
	<g id="Layer_2">
		<circle id="XMLID_2_" class="st1" cx="-151" cy="281" r="52.5"/>
	</g>
</g>
<g id="Layer_2_1_">
	<g>
		<path class="st2" d="M-129.9,305.6c0,0.8-0.6,1.4-1.4,1.4l-13.9-2.3l-13.9,2.3c-0.8,0-1.4-0.6-1.4-1.4l0,0c0-0.8,0.6-1.4,1.4-1.4
			l13.9-2.3l13.9,2.3C-130.5,304.3-129.9,304.9-129.9,305.6L-129.9,305.6z"/>
		<rect x="-146.6" y="299" class="st2" width="2.3" height="6.2"/>
		<path class="st3" d="M-135,289.3c0,0.8-0.6,1.4-1.4,1.4h-24.3c-0.8,0-1.4-0.6-1.4-1.4l-1.7-32.7c0-0.8,0.6-1.4,1.4-1.4h27.2
			c0.8,0,1.4,0.6,1.4,1.4L-135,289.3z"/>
		<path class="st4" d="M-137,287.3c0,0.7-0.5,1.2-1.2,1.2H-159c-0.7,0-1.2-0.5-1.2-1.2l-1.5-28.2c0-0.7,0.5-1.2,1.2-1.2h23.3
			c0.7,0,1.2,0.5,1.2,1.2L-137,287.3z"/>
		<path class="st5" d="M-152.5,282.1c0,0-0.1,3.7,1.2,4.7c1.2,1,8.2,3.8,12.3,1c0.9-0.7,1.3-2.6,1.2-3.7L-152.5,282.1z"/>
		<polygon class="st3" points="-183.3,283.1 -173.4,279.9 -124.2,279.7 -116.8,283.1 		"/>
		<g>
			
				<rect x="-179" y="283.9" transform="matrix(0.9969 -7.928469e-02 7.928469e-02 0.9969 -24.1901 -13.1413)" class="st3" width="2.8" height="28.3"/>
			
				<rect x="-124.2" y="283.9" transform="matrix(-0.9969 -7.928476e-02 7.928476e-02 -0.9969 -268.7341 585.4364)" class="st3" width="2.8" height="28.3"/>
			<polygon class="st6" points="-125,309.1 -122.2,309.1 -122,306 -124.8,306 			"/>
			<polygon class="st6" points="-178.1,309.1 -175.3,309.1 -175.5,306 -178.4,306 			"/>
			<polygon class="st3" points="-120.9,307.7 -179.2,307.7 -181,283.8 -119.3,283.8 			"/>
			<polygon class="st7" points="-119.5,286.8 -119.3,283.8 -181,283.8 -180.8,286.8 			"/>
			<rect x="-183.5" y="283.1" class="st3" width="66.7" height="2.7"/>
		</g>
	</g>
	<g>
		<path class="st8" d="M-146.5,261v-1.4h0h-4.5v1.1h0c-0.3,0.6-0.7,1.1-1.2,1.5c-0.2,0.1-0.4,0.2-0.6,0.4c0.4,0.6,0.9,1.1,1.6,1.4
			l4.9-2.7C-146.4,261.1-146.4,261-146.5,261z"/>
		<path class="st9" d="M-146.4,261.1l-4.9,2.7c0.1,0,0.1,0.1,0.2,0.1v1h0v0.1h4.4v-0.1h0.2v-1.1c0.6-0.4,1.2-0.9,1.6-1.4
			C-145.5,262.1-146,261.7-146.4,261.1z"/>
	</g>
	<g>
		<g>
			<path class="st10" d="M-138.3,266.6L-138.3,266.6l-0.8-2.6c0,0-0.6-1-1.6-1.3l-0.3-0.1c-0.2,0-0.3,0-0.5,0l-1.9,0
				c-0.4,0-0.7-0.1-1.1-0.2l-0.6-0.4l-0.2,0.6l-2.4,2.5l-4-2.1l-0.7-0.9l-0.4,0.3c0,0,0,0,0,0c-0.5,0.2-1,0.4-1.5,0.4v0h-2.1l0,0
				c-0.9-0.2-1.9,0.5-2.3,1.3c0,0,0,0,0,0l-0.2,0.8l-2.2,6.8l1-2.3l2.5-0.4l1.7,2.7l0.1,8.2l7,0l7.4,0l0.2-7l-0.3,2.5l1.4-6.1
				c0.5,0.6,0.7,2,2.1,1.9L-138.3,266.6z"/>
			<path class="st10" d="M-162.8,280.4l-1.7-3.4c-0.3-0.7-0.3-1.5,0.1-2.2l5.8-10.9l2.3,4.8l-3.5,7.2l1.9,3.8L-162.8,280.4z"/>
			<path class="st10" d="M-134.6,279.8l1.4-2.7c0.3-0.7,0.3-1.5-0.1-2.2l-5.8-10.9l-1.8,5.2l3,6.8l-1.8,3.7L-134.6,279.8z"/>
		</g>
		<g>
			<path class="st11" d="M-145.3,263.2c-0.9,0.8-2.1,1.4-3.5,1.4c-1.2,0-2.4-0.4-3.2-1.2l3.4,14.9L-145.3,263.2z"/>
			<polygon class="st12" points="-146.9,274 -147.9,265.5 -148.6,265.3 -148.6,265.3 -148.6,265.3 -148.7,265.3 -148.7,265.3 
				-149.4,265.5 -150.4,274.4 -148.6,278.3 			"/>
			<g>
				<polygon class="st12" points="-150,264.8 -149.5,265.6 -148.7,265.6 -148.7,264 -149.8,264.1 				"/>
				<polygon class="st12" points="-147.5,264.1 -148.7,264 -148.7,265.6 -147.9,265.6 -147.3,264.8 				"/>
			</g>
			<polygon class="st13" points="-152.3,262 -148.7,264 -151.3,266.5 -153.2,262.5 			"/>
			<polygon class="st13" points="-145.1,262 -148.7,264 -146.2,266.5 -144.3,262.5 			"/>
			<polygon class="st14" points="-148.6,278.3 -152,263.4 -152.3,262 -153,262.4 -153.2,262.5 -154.1,266.4 -152.8,266.7 
				-153.7,268.3 			"/>
			<polygon class="st14" points="-143.2,266.4 -144.2,262.5 -144.2,262.5 -145,262 -145.3,263.2 -148.6,278.3 -143.7,268.3 
				-144.5,266.7 			"/>
		</g>
	</g>
	<g>
		<g>
			<g>
				<path class="st9" d="M-154.4,254.2c0,4,2.5,7.3,5.6,7.5v-13.5C-151.9,248.3-154.4,250.2-154.4,254.2z"/>
			</g>
			<g>
				<path class="st9" d="M-148.5,248.2c-0.1,0-0.2,0-0.3,0c0,0-0.1,0-0.1,0v13.5c0,0,0.1,0,0.1,0c0,0,0.1,0,0.1,0
					c3.2,0,5.8-3.3,5.8-7.5C-142.8,250.1-145.2,248.2-148.5,248.2z"/>
			</g>
		</g>
	</g>
	<g>
		<g>
			<g>
				<g>
					<path class="st15" d="M-142.4,253.1c-0.1-1.8-0.9-3.2-0.9-3.2c0.5-2.2-1.6-2.9-3.8-2.9c-2,0-4.2,0.4-4.5,0.5
						c-0.3,0.1-0.7,0.1-1.1,0.2c-0.3,0-0.5,0-0.5,0c0,0.1,0.1,0.2,0.1,0.3c0.1,0.1,0.1,0.2,0.1,0.2c-0.1,0-0.2,0-0.3-0.1
						c-0.4-0.2-1.2-0.6-1.2-0.6c-0.1,0.6,0.1,1.1,0.2,1.5c0.2,0.4,0.3,0.6,0.3,0.6c-0.1,0-0.5-0.1-0.5-0.1c0.1,0.5,0.2,0.7,0.2,0.7
						c-0.8,0.6-1,2.2-1,3.5l1.4,1.6l0.5-1.1c0,0,0,0,0,0c0.3-1.2,0.6-3,0.6-3c3.5,2.3,6.8,0.5,7.3,0.1c0.1-0.1,0.2-0.2,0.2-0.2
						c0.2,2.3,1.7,3.8,1.7,3.8c-0.1-1,1-1.7,1.1-1.8C-142.4,253.2-142.4,253.2-142.4,253.1C-142.4,253.2-142.4,253.1-142.4,253.1z"
						/>
					
						<ellipse transform="matrix(-0.9894 -0.1455 0.1455 -0.9894 -320.7192 486.0867)" class="st9" cx="-142.6" cy="254.8" rx="0.8" ry="1.6"/>
					
						<ellipse transform="matrix(0.9953 -9.690458e-02 9.690458e-02 0.9953 -25.406 -13.7971)" class="st9" cx="-154.7" cy="254.7" rx="0.7" ry="1.5"/>
				</g>
			</g>
		</g>
	</g>
	<g>
		<path class="st16" d="M-147.5,280.7c0,0.6-0.6,1.1-1.3,1.1h-14.1c-0.7,0-1.3-0.5-1.3-1.1l0,0c0-0.6,0.6-1.1,1.3-1.1h14.1
			C-148.1,279.6-147.5,280.1-147.5,280.7L-147.5,280.7z"/>
		<path class="st16" d="M-156.9,280.8c0,0.5-0.4,0.9-0.9,0.9h-19.7c-0.5,0-0.9-0.4-0.9-0.9l-1.8-14.2c0-0.5,0.4-0.9,0.9-0.9h19.7
			c0.5,0,0.9,0.4,0.9,0.9L-156.9,280.8z"/>
	</g>
	<path class="st13" d="M-168.9,274.9L-168.9,274.9c-0.7,0-1.3-0.6-1.3-1.3l0,0c0-0.7,0.6-1.3,1.3-1.3l0,0c0.7,0,1.3,0.6,1.3,1.3l0,0
		C-167.5,274.3-168.1,274.9-168.9,274.9z"/>
</g>
</svg>
