<?xml version="1.0" encoding="utf-8"?>
<!-- Generator: Adobe Illustrator 19.0.0, SVG Export Plug-In . SVG Version: 6.00 Build 0)  -->
<svg version="1.1" id="Layer_1" xmlns="http://www.w3.org/2000/svg" xmlns:xlink="http://www.w3.org/1999/xlink" x="0px" y="0px"
	 viewBox="0 0 560 560" style="enable-background:new 0 0 560 560;" xml:space="preserve">
<style type="text/css">
	.st0{fill:#808080;}
	.st1{fill:#ACACAC;}
	.st2{fill:#979797;}
	.st3{fill:#E8E8E8;}
	.st4{fill:#82A5AF;}
	.st5{fill:#98C2C9;}
	.st6{fill:#8D5F1D;}
	.st7{fill:#6F4915;}
	.st8{fill:#EED3B3;}
	.st9{fill:#2C2C2C;}
	.st10{fill:#8AA3B4;}
	.st11{fill:#A2C0CE;}
	.st12{fill:#828282;}
	.st13{fill:#494C4D;}
	.st14{fill:#F4DAB7;}
	.st15{fill:#DAB992;}
	.st16{fill:#1D1610;}
	.st17{fill:#C78F88;}
	.st18{fill:#53280A;}
	.st19{fill:#473D22;}
	.st20{fill:#3F3627;}
	.st21{fill:#2A2219;}
	.st22{fill:#392E21;}
	.st23{fill:#2D2F2F;}
	.st24{fill:#E3E3E3;}
	.st25{fill:#161616;}
	.st26{fill:#1F1F1F;}
	.st27{fill:#282828;}
	.st28{fill:#994F1A;}
	.st29{fill:#253345;}
	.st30{fill:#EBCCA9;}
	.st31{fill:#51777E;}
	.st32{fill:#E2C4A6;}
	.st33{fill:#E5E5E5;}
	.st34{fill:#3B5470;}
	.st35{fill:#FDFFFF;}
	.st36{fill:#171F27;}
	.st37{fill:#BE9570;}
	.st38{fill:#1B1610;}
	.st39{fill:#FFFFFF;}
	.st40{fill:#A27A58;}
	.st41{fill:none;stroke:#AB7E58;stroke-miterlimit:10;}
</style>
<g>
	<g>
		<g>
			<g>
				<polygon id="XMLID_116_" class="st0" points="92.8,259.3 92.8,276.3 76.4,279.5 76.4,283.8 81.8,284.5 101.3,279.5 99.7,259.8 
									"/>
				<path id="XMLID_115_" class="st1" d="M96.6,261.3v16.6l-14.8,1.6v5l44.3-0.7l-1.6-4.3l-14.8-1.9l-0.5-16.4
					C109.3,261.1,101.3,258.1,96.6,261.3z"/>
				<path id="XMLID_114_" class="st2" d="M159,255.5c0,3.1-2.5,5.7-5.7,5.7H44.5c-3.1,0-5.7-2.5-5.7-5.7v-67.2
					c0-3.1,2.5-5.7,5.7-5.7h108.8c3.1,0,5.7,2.5,5.7,5.7V255.5z"/>
				<path id="XMLID_113_" class="st3" d="M164.7,255.6c0,3.1-2.5,5.7-5.7,5.7H50.2c-3.1,0-5.7-2.5-5.7-5.7v-67.2
					c0-3.1,2.5-5.7,5.7-5.7H159c3.1,0,5.7,2.5,5.7,5.7V255.6z"/>
				<path id="XMLID_112_" class="st4" d="M156.8,248c0,2.6-2.2,4.7-4.9,4.7H57.3c-2.7,0-4.9-2.1-4.9-4.7v-55.4
					c0-2.6,2.2-4.7,4.9-4.7h94.6c2.7,0,4.9,2.1,4.9,4.7V248z"/>
				<path id="XMLID_111_" class="st5" d="M151.6,245.2c0,2.3-2,4.2-4.4,4.2H62c-2.4,0-4.4-1.9-4.4-4.2v-49.8c0-2.3,2-4.2,4.4-4.2
					h85.1c2.4,0,4.4,1.9,4.4,4.2V245.2z"/>
			</g>
			<g>
				<path id="XMLID_105_" class="st6" d="M22,433.5c0,3-2.5,5.4-5.7,5.4h-1.9c-3.1,0-5.7-2.4-5.7-5.4V295.8c0-3,2.5-5.4,5.7-5.4h1.9
					c3.1,0,5.7,2.4,5.7,5.4V433.5z"/>
				<path id="XMLID_103_" class="st6" d="M233.9,433.5c0,3-2.5,5.4-5.7,5.4h-1.9c-3.1,0-5.7-2.4-5.7-5.4V295.8c0-3,2.5-5.4,5.7-5.4
					h1.9c3.1,0,5.7,2.4,5.7,5.4V433.5z"/>
				<path id="XMLID_102_" class="st7" d="M183.9,428.8c0,2.9-2.5,5.2-5.7,5.2h-1.9c-3.1,0-5.7-2.3-5.7-5.2V295.6
					c0-2.9,2.5-5.2,5.7-5.2h1.9c3.1,0,5.7,2.3,5.7,5.2V428.8z"/>
				<rect id="XMLID_101_" y="283.8" class="st6" width="235.2" height="15.9"/>
			</g>
		</g>
		<g>
			<g id="XMLID_133_">
				<path id="XMLID_99_" class="st8" d="M186.9,161.2c0,0,12,3.6,14.9,7.9s4.9,9.3,2.8,9.8C202.5,179.3,186.6,160.2,186.9,161.2z"/>
				<path id="XMLID_98_" class="st8" d="M176.7,212c0,0-8.4-16.4-8-28.4s4.8-6.3,4.8-6.3s8.8,20.6,8.9,21.9c0.1,1.3,6.8,1.8,7.9,4.4
					c1.7,4.3-2.5,7.5-2.5,7.5S182.5,214.2,176.7,212z"/>
				<g id="XMLID_137_">
					<g id="XMLID_139_">
						<path id="XMLID_96_" class="st9" d="M179.5,156.2c-2.8,2-12,9.1-13.6,10.6c-1.7,1.5-2,3.9,2.2,9.3
							c4.2,5.4,21.9,27.7,23.3,28.4s3.1,1.5,8.7-3c5.6-4.5,9.1-8.1,10.2-9.5c1.1-1.4,2.4-2.6-3.1-9.9c-5.5-7.4-17.6-21.4-19.2-23.5
							C186.3,156.5,182.7,153.8,179.5,156.2z"/>
						<path id="XMLID_95_" class="st10" d="M179.7,159c-2.2,1.6-9.4,7.2-10.7,8.3s-1.4,3.3,1.9,7.5c3.3,4.2,17.1,21.7,18.3,22.3
							c1.1,0.6,2.3,1.1,6.7-2.5c4.4-3.6,7.1-6.4,8-7.5c0.8-1.1,1.9-2-2.4-7.8c-4.3-5.8-13.8-16.9-15.1-18.5S182.3,157.1,179.7,159z"
							/>
						<path id="XMLID_94_" class="st11" d="M180.2,160.1c-2.1,1.5-8.8,6.7-10.1,7.8c-1.2,1.1-0.9,2.5,2.2,6.5
							c3.1,4,16.1,20.6,17.1,21.1c1.1,0.5,1.8,1.4,5.9-2s6.7-6,7.5-7c0.8-1,1.8-1.9-2.3-7.3s-13-15.8-14.2-17.3
							C185.2,160.3,182.6,158.4,180.2,160.1z"/>
					</g>
					
						<ellipse id="XMLID_93_" transform="matrix(0.6546 0.756 -0.756 0.6546 217.0397 -85.7034)" class="st12" cx="202.3" cy="194.7" rx="2.4" ry="2.3"/>
				</g>
				<g id="XMLID_134_">
					<path id="XMLID_86_" class="st13" d="M201.8,165.8c0,0,32.6-20.4,74.9-2s31.9,61.9,22.9,83.3c-8.9,21.4-11.8,5.5-10.4,0
						c1.4-5.5,7.6-19.1,8.1-33.1c0.5-11.2-1.1-37.9-35.7-45.8c-30.5-6.9-57,10.1-57,10.1S193.5,169.8,201.8,165.8z"/>
					<path id="XMLID_85_" class="st14" d="M201.8,169c0,0-7.7-5-9.6-4.6s-6.4,8.2-6.4,9.9c0,1.7,3.3,4.1,4.2,3.6
						c0.9-0.5,6.8-5.5,6.8-5.5s0.6,4.8,3.5,5.6c2.8,0.7,5.7-0.4,6.3-1.4C207.2,175.6,204.1,170.4,201.8,169z"/>
				</g>
			</g>
			<g id="XMLID_117_">
				<g id="XMLID_127_">
					<path id="XMLID_84_" class="st15" d="M254.4,235.1c0,0,9.6,3,15.1,3.5c5.5,0.6,9.7-2.7,11-5.7s1.7-18.9-1.4-19.9
						C275.9,212,254.4,235.1,254.4,235.1z"/>
					<g id="XMLID_129_">
						<path id="XMLID_83_" class="st14" d="M259.2,171.6c0,0-8.5,60.9-5.9,62.9c2.6,1.9,14.8,4.1,18.5-2.2c3.7-6.4,5.7-24.8,6-29.7
							S284.9,170.9,259.2,171.6z"/>
						<path id="XMLID_82_" class="st14" d="M257.1,205.8c0,0-1.7,1.1-4.8,2c-1.5,0.5-2.9,4-1.8,4.9s4.5,0.6,4.5,0.6L257.1,205.8z"/>
					</g>
					<path id="XMLID_81_" class="st15" d="M275.6,241.9c0,0-0.8-6.7-1.4-8.7c-0.7-2,2.8-7.4,7.4-8.2c4.5-0.8,4.5,3.6,5.5,7
						c1.4,4.7,2.2,8.9,2.2,8.9S277.2,241.9,275.6,241.9z"/>
				</g>
				<g id="XMLID_121_">
					
						<ellipse id="XMLID_80_" transform="matrix(0.9908 0.1355 -0.1355 0.9908 29.5726 -33.3947)" class="st16" cx="260.1" cy="200.5" rx="1.8" ry="3.8"/>
					<g id="XMLID_123_">
						<path id="XMLID_79_" class="st17" d="M262.1,221.2c0,0-4.7-6.5-1.3-9.7c3.4-3.2,7.7,4,7.7,4L262.1,221.2z"/>
						<path id="XMLID_78_" class="st18" d="M256.2,221.6c0,0,4.6,1.3,13.6-7.2C269.8,214.4,262,225.9,256.2,221.6z"/>
					</g>
					<path id="XMLID_77_" class="st19" d="M259.3,188c0,0,4.6,0.3,7.2,5.3C266.4,193.3,264.3,184.6,259.3,188z"/>
				</g>
				<g id="XMLID_118_">
					<path id="XMLID_76_" class="st20" d="M287,150.5c14.5-1.7,9.4,6.9,9.4,6.9s15.4-3.4,19.8,12.6l4,6.4c0,0,1.1,1,2.2,9.8
						c0,0,2,11.2-2.4,19.9s-12.2,20.3-13.1,23.2c-0.9,2.9-2.9,9.1-6.3,3c0,0-4.7,7.2-9.9,5.8c-5.2-1.4-3.8-5.1-3.8-5.1s-2.7,3.1-7,1
						s-3.6-16-2.8-23c0.8-7-2.5-7.1-2.5-7.1s-4.1,3-6.7-6.7s0.5-15.1,0.5-15.1s-6.4,3.9-11.1,1.2c-4.7-2.7-4.6-7.4-4.6-7.4
						s-3.8-0.8-1.6-9.1c2.5-8.9,15.9-13.4,18.6-13.8"/>
					<path id="XMLID_75_" class="st14" d="M280.6,208.3c0.6-5.5,0.2-8-5.2-10.5c-4.7-2.1-4.3,3-2.7,6.4c1.6,3.4,1.2,7.4-0.1,9.7
						c-1.4,2.3-2.4,3.5,0.2,4.5C275.4,219.5,279.9,214.5,280.6,208.3z"/>
				</g>
			</g>
			<g id="XMLID_91_">
				<path id="XMLID_74_" class="st14" d="M188.8,209.9c0,0,1.9-5.7-2.6-9.4c0,0,8-10.5,7.2-12.1c-0.8-1.6-4.7-3-6.4-2.4
					c-1.7,0.6-7.9,10.1-7.9,10.1s-8,5.1-3.1,12.5S188.8,209.9,188.8,209.9z"/>
				<path id="XMLID_73_" class="st13" d="M275.1,248.9c-1.2-4.2-7.9-3.5-17.9,2.8c-10.1,6.3-26.4,21.1-44.7,12.6
					c-27.4-12.6-21.1-51.9-24.2-55.4c-3.1-3.5-12.6-2.2-15.4,2.2c-2.8,4.4,2.8,57.6,33.3,67.3S278.9,262.4,275.1,248.9z"/>
			</g>
			<g>
				<path id="XMLID_72_" class="st21" d="M71.2,264.4c0,0-18.2-12.3-20.8-17.7C48,241.4,45.2,233,44,233s-10,3.5-11.9,5.7
					c-1.9,2.2,5.1,20.9,10.2,24.1c5,3.1,12,7.3,12,7.3s0.6,4.3,2.2,5.9s8.1,5.3,11.6,5.3s7.8-3.3,7.7-3.8
					C75.6,277.1,71.2,264.4,71.2,264.4z"/>
				<path id="XMLID_71_" class="st13" d="M223.9,323.2c0,0-70.1-68.6-149.7-59.1c0,0-4.7,10.7,0,15.7c0,0,36.2-3.1,72,8.5
					c35.9,11.6,68.6,54.4,88.4,60.1s34.3,0.6,36.2-4.1C272.7,339.6,223.9,323.2,223.9,323.2z"/>
				<path id="XMLID_70_" class="st22" d="M69.5,267c-0.1-0.4-0.3-0.7-0.4-1c-1.2-2.2-6-11.7-6.6-17.2c-0.6-6.3,1-17.5,0-18.1
					c-0.7-0.5-2.6-1.2-7.5-1.6c-3.4-0.2-6.5,1.9-7.5,5.1c-2.2,6.8-4.9,14.5-1.4,21.4c2.6,5.3,3.7,9,5.8,11.5c1.8,2.1,1.3,9.5,0.2,12
					c-1,2.4,0.9,1.1,1.5,2.9c1.3,3.5,8.5,3.8,12.3,2.2c2.1-0.9,3.9-3.5,5.1-5.6c1-1.8,1.2-4,0.5-6L69.5,267z"/>
				<path id="XMLID_69_" class="st13" d="M232.4,318.8c0,0-39.9-39.8-79.9-55.6s-77.1-5-87.7,0c0,0-1,10.6,7.3,15
					c0,0,30-16.2,59.6-7.8s90.4,51.1,90.4,51.1S233.7,325.1,232.4,318.8z"/>
				<path id="XMLID_68_" class="st23" d="M75.7,276.5c0,0,48.7-30.9,121.2,25.1C196.9,301.6,136.3,251.2,75.7,276.5z"/>
			</g>
			<g id="XMLID_87_">
				<path id="XMLID_67_" class="st24" d="M270,244.8c0,0,1.4-2,2.6-3.8s12.3-6.3,19.8-1.2c0,0,1.9,1.7,1.3,4
					C293,246.1,270,244.8,270,244.8z"/>
				<path id="XMLID_66_" class="st13" d="M299,246.7c0,0-4.4-5-15.1-5.7c-10.7-0.6-18.6,7.2-18.6,7.2s-12.6,34.3-26.7,49.4
					c-14.2,15.1-21.7,21.1-21.7,21.1s1.6,13.5,14.5,20.1c12.9,6.6,26.6,6.9,26.6,6.9l5.1-4.3l-1.1,4.3c0,0,4.7,0.3,7.9,0
					c3.1-0.3,9.7-12.6,16.4-28S304,270.6,299,246.7z"/>
				<path id="XMLID_65_" class="st23" d="M219.8,327.3c0,0,7.8,13.7,38.1,18.4l5.1-4.3v4.3h6.7L262,348l0.3-3.5l-5.2,3.5
					C257.1,348,229.2,344.5,219.8,327.3z"/>
			</g>
		</g>
		<g id="XMLID_88_">
			<g id="XMLID_142_">
				<path id="XMLID_64_" class="st25" d="M205,437.7c-4.1,0-7.6,4.9-7.4,9.5c0.3,4.6,6.9,6.8,10.3,6.8
					C214.3,454.1,221.2,437.6,205,437.7z"/>
				<path id="XMLID_63_" class="st26" d="M256.3,412.1c0,0-3.8,6.1-14.1,5.8s-33.2-0.3-38.6,3.1c-5.3,3.5-6.3,16.2-4.4,17.9
					c1.9,1.6,10.7,4.5,14.2,2c3.4-2.5,1.6-11.7,8.8-13.9c7.2-2.2,31.1-4.4,34.1-6.6C259.3,418.2,256.3,412.1,256.3,412.1z"/>
			</g>
			<g id="XMLID_136_">
				<path id="XMLID_62_" class="st25" d="M306.6,439.7c-4.3,0-8,5.2-7.8,10.1s7.3,7.2,10.8,7.2C316.5,456.9,323.8,439.6,306.6,439.7
					z"/>
				<path id="XMLID_61_" class="st25" d="M235.3,438.9c-4.7,0-8.8,5.7-8.5,11c0.3,5.3,8,7.8,11.8,7.9
					C246.1,457.8,254.1,438.8,235.3,438.9z"/>
				<path id="XMLID_60_" class="st27" d="M267.9,380.4c0,0-1,31.5,1.5,33.7c2.5,2.2,26-0.9,35.5,5.7c9.5,6.6,14,20.1,11.3,23.5
					c-2.7,3.5-12.8,1.9-15,0.7s2.5-15.4-12.6-19.5s-37.4,0.3-39,4.7c-1.6,4.4,0,14.6-2.8,15.5c-2.8,0.9-18.5,2.2-19.9,0
					c-1.5-2.2,0.1-16.4,6.7-18.9c6.6-2.5,18.2-3.5,19.8-9.1c1.6-5.7,2.2-31.6,1.7-36.2C254.6,375.7,267.9,380.4,267.9,380.4z"/>
			</g>
			<g id="XMLID_128_">
				<path id="XMLID_59_" class="st28" d="M305.9,340.8c-12.9,1-33.5,3.8-42.1-10.7c-8.5-14.5-0.5-48.9,11.5-71.1
					c12-22.2,26.2-34.7,42.5-37c16.4-2.3,30.8,21,28.3,34.8c-2.5,13.8-9.2,55.1-9.5,62C336.3,325.8,337.3,338.3,305.9,340.8z"/>
				<g id="XMLID_131_">
					<path id="XMLID_58_" class="st27" d="M280.4,330.1c-8.5-5.7-4.4-23.7-2-41.4c2.4-17.7,19.8-64.4,46.8-66.1
						c27-1.7,24.4,36,21.3,45.7c-1.2,3.7-11.9,42-9.7,54.2c1.3,7-14.1,13.9-33.4,13.9C290.3,336.5,285.1,333.3,280.4,330.1z"/>
				</g>
				<path id="XMLID_57_" class="st26" d="M304.7,332.9c-10.5-0.2-14.3-12.9-14-19.5s7.6-23.5,17.4-24.7s14.2,1.9,17.1,5.4
					c5,6.3,4,22.4,2.6,28.4C326.3,328.6,325.2,333.4,304.7,332.9z"/>
			</g>
			<g id="XMLID_122_">
				<path id="XMLID_56_" class="st28" d="M290.3,344.7c-13.7,1.2-68.1-0.1-80.6,3.9c0,0-3.5,11.3-0.9,13.5s46.5,0.9,51.9,0
					c5.4-0.9,41.2-2.8,43.6-4.7C306.5,355.6,303.3,343.6,290.3,344.7z"/>
				<path id="XMLID_55_" class="st25" d="M241.3,370.7c0,0,6.2,11,18.2,11c12.1,0,19-7.5,20.6-11H241.3z"/>
				<path id="XMLID_54_" class="st27" d="M207.8,359.4c0,0,40.8,0.9,54.5,0c13.7-0.9,42.6-4.1,42.6-4.1s0.1,12-8.1,15.1
					c-8.2,3.1-33,4.1-33,4.1s-36.8-0.6-43.5-2.2S207.2,364.8,207.8,359.4z"/>
			</g>
			<g id="XMLID_97_">
				<path id="XMLID_53_" class="st27" d="M316.9,322.5h-12.7c0,0,4.4,15.2,4.6,18c0.2,2.8-2.2,15.3-15.9,18.8c0,0,4.9,1.7,13.4,0.1
					c8.5-1.6,18.3-10.6,18.9-17.7C325.7,334.6,321.6,326.9,316.9,322.5z"/>
				<path id="XMLID_52_" class="st25" d="M304.1,322.5c0,0,11,18,7,24.3c-4,6.3-11.3,11.9-19.1,12.6l-1.8-2.6
					c0,0,15.9-5.8,17.2-12.2c1.3-6.4-6.3-18.5-6.3-18.5L304.1,322.5z"/>
			</g>
			<g id="XMLID_89_">
				<path id="XMLID_51_" class="st25" d="M223.8,360.1l4.4,0.8c0,0-12.2-25.7-10.5-33c1.7-7.3,13-15.5,55.8-14.1l-2.9-4.2
					c0,0-50.1,2.1-57.2,7.9S216.2,354.3,223.8,360.1z"/>
				<path id="XMLID_50_" class="st27" d="M275.8,307c0,0-53.9-4-65.6,6.7s6.1,46.4,6.1,46.4s3.1,2.3,7.5,0c0,0-13.4-22.3-10.4-36
					c3-13.7,58-9.4,61.9-10.4C279.1,312.8,280.8,307.3,275.8,307z"/>
			</g>
		</g>
	</g>
	<g id="XMLID_90_">
		<g id="XMLID_197_">
			<g id="XMLID_201_">
				<path id="XMLID_48_" d="M396.5,433.8c0,0-10.4,3.4-16,2.7c-5.7-0.7-13.2-6.6-14.8-7.6c-1.6-1-7.9,12.1-6.6,14.4
					s22.3,9.9,27.4,8.6s7.5-5,7.5-5s2.2,5.8,4.7,5.9s15.4-0.8,17-3.7c1.6-2.8-3.8-15.1-7.2-17.1
					C404.9,429.8,396.5,433.8,396.5,433.8z"/>
				<path id="XMLID_47_" class="st29" d="M430.1,271.3c0,0-23.6,45.6-31.1,74.5c-7.5,28.9-9.4,75.1-4.4,88.8c0,0,6.6,7.3,16.4-0.8
					c0,0-5.7-40.7,6-77.7c11.6-37,32.1-64.7,35.2-66.6c3.1-1.9,10.7-8.6,9.7-12.8C460.9,272.5,430.1,271.3,430.1,271.3z"/>
			</g>
			<g id="XMLID_198_">
				<path id="XMLID_46_" d="M534.5,421.9c0,0-3.5,14.5-6.6,15.7s-17.6-2.3-19.5,0.1c-1.9,2.4-1.9,13.6,0,14.9
					c1.9,1.3,30.5,2.1,33-0.8c2.5-2.9,5-20,5-20s5,3.5,6.6,2s7.2-10.7,6.9-11.9c-0.3-1.2-13.8-5.9-18.6-5.3
					C536.7,417.2,534.5,421.9,534.5,421.9z"/>
				<path id="XMLID_45_" class="st29" d="M437.5,274.5c0,0,14.3,12.9,18.7,16.3c4.4,3.5,11.3,30.3,17.8,45.5s36.9,80.3,59.6,88.8
					c0,0,9.4,0.3,12.9-8.5c0,0-22-15.1-35.4-47.2c-13.4-32.1-21.5-92.1-24.4-104.4C483.9,252.7,437.5,274.5,437.5,274.5z"/>
			</g>
		</g>
		<g id="XMLID_191_">
			<path id="XMLID_44_" class="st30" d="M514.6,241.4c0,0-8.1-0.6-9.5,0c-1.4,0.6-1.1,3.8-1.1,3.8s-4.6,2.2-5.7,3.5s2.4,3.3,2.1,4.2
				c-0.3,0.8-1.3,3.9-0.1,5c1.1,1.2,5.5,2,5.5,2s1.8,4.4,3.5,4.8s8.1-2.4,9.3-3.7s0.7-3.1,0.7-3.1s6.6-5.7,4.8-9.2
				C522,245.2,514.6,241.4,514.6,241.4z"/>
			<path id="XMLID_43_" class="st29" d="M451.4,164.6c0,0,34.5-7.5,56.7-5.3c22.2,2.2,42.8,17.9,41.5,41.2
				c-1.3,23.3-23.4,47.3-24.2,47.6c-0.8,0.3-11-2.4-12.7-8c0,0,22-23.4,24-38.5s-11.3-37.4-72.8-27.8
				C440,177.6,439.2,168.5,451.4,164.6z"/>
			<g id="XMLID_192_">
				<path id="XMLID_42_" class="st31" d="M552.7,177c-0.9-1.9-2.1-3.7-3.4-5.4c-1-1.3-3-0.1-2.1,1.3c0.9,1.5,1.8,2.9,2.6,4.5
					c0.7,1.4,1.1,3.4,2.4,4.4c0.4,0.3,1.1,0.3,1.3-0.2C554.1,180,553.4,178.5,552.7,177z"/>
				<path id="XMLID_41_" class="st31" d="M557,170c-0.5-0.9-1.6-0.2-1.5,0.7c0.5,2.7,0.9,6.3,3,8.4c0.4,0.4,1.2,0.2,1.3-0.4
					C560.2,175.8,558.3,172.6,557,170z"/>
			</g>
		</g>
		<g id="XMLID_170_">
			<path id="XMLID_40_" class="st29" d="M422.2,172.1c0,0-10.8,5.7-11.8,8.5c-1,2.8,5.6,16,10.1,26.1c4.5,10.2,10.8,33.1,9.5,42.7
				s-4.8,22.9-4.8,22.9s19.6,9.2,26.5,10.4l1.7-5.9c0,0,1.6,6.2,2.7,5.9s28.7-7.3,36.2-17.9c0,0-9.7-53.6-20.3-77.7
				c-10.6-24.1-13.8-23.7-20.8-22.4C439.6,166.9,432,165.9,422.2,172.1z"/>
			<g id="XMLID_177_">
				<g id="XMLID_186_">
					<path id="XMLID_39_" class="st32" d="M425.3,162.5c0,0,3.3,15.8,5.5,17.8s17-8.6,17.3-11.2c0.2-2.7-7.9-13-7.9-13L425.3,162.5z
						"/>
					<g id="XMLID_187_">
						<path id="XMLID_38_" class="st33" d="M437.5,171.8l-1.4,8.7l-4.9-8.9l-5.9,6.5c0,0,1.6,10.6,2.7,12.3
							c1.1,1.7,17.6,26.4,17.6,26.4s5.9-39.6,4-47.6S437.5,171.8,437.5,171.8z"/>
					</g>
				</g>
				<g id="XMLID_181_">
					<path id="XMLID_37_" class="st34" d="M449.9,166.2c0,0,15.3,7.4,17.1,9c0,0-13,14.6-17.1,16.3c0,0,11.9,2.3,14.9,2.8
						c0,0-10.5,46.6-14,49.9c0,0-4.6-22-5.3-27.4c-0.7-5.4,3.1-30.3,2.8-36.3c-0.2-6-0.7-15.3-0.7-15.3L449.9,166.2z"/>
					<polygon id="XMLID_36_" class="st35" points="443.4,160.3 437.5,171.8 445.5,178.2 453.5,166.9 					"/>
					<polygon id="XMLID_35_" class="st35" points="427,167.1 431.1,171.7 424.4,180.6 422.2,169.2 					"/>
					<path id="XMLID_34_" class="st34" d="M422.2,169.2c0,0,4.7,16.2,7.6,22.3c2.9,6.1,15.3,22.8,15.7,25.3
						c0.4,2.5,5.3,27.4,5.3,27.4s-27.1-35.4-28.6-37.5l5.7-11.5c0,0-9.5-3.8-11.9-4.2L422.2,169.2z"/>
				</g>
				<g id="XMLID_178_">
					<path id="XMLID_33_" d="M432.9,177.8c0,0,1.7-2,5.2-1.3l3.7,9.9c0,0-7.8,2.8-8.6,1.9C432.5,187.4,432.9,177.8,432.9,177.8z"/>
					<path id="XMLID_32_" d="M435.3,186.9c4.6,23.1,31.7,31.1,41.8,33.7s13.9,10.6,13.9,10.6c2.8,0.9,21.2,2.6,21.2,2.6
						c0.9-3.1,0-18.4,0-18.4c-4.5-5.4-20.8-9.6-29.2-8.8c-14.2,1.4-21-3.5-31.2-8.5c-10.2-5-13.3-12.3-13.3-12.3L435.3,186.9z"/>
				</g>
			</g>
			<path id="XMLID_27_" class="st36" d="M430,274.5c0,0,17.7,7.5,21.8,8.2l1.7-5.9l2.7,5.2c0,0,18.8-4.5,30-11.5
				c0,0-20.5,11.7-30,13.9l-2.9-4.2l-1.2,4.9C452.1,285,437.3,280.2,430,274.5z"/>
		</g>
		<g id="XMLID_159_">
			<path id="XMLID_26_" class="st29" d="M413.7,177.3c0,0-17.5,14-26.9,34.9s-9.7,42.5,5.9,45.9c15.6,3.3,40.8-15.8,44.7-23.4
				s-2.3-14.2-5.6-12.2c-3.3,2.1-19.1,15.5-28.5,18.6s-9.4-7.5-5.2-17.8c4.2-10.3,14.8-25.6,17.6-27.3
				C414.3,188.5,416.5,175.1,413.7,177.3z"/>
			<g id="XMLID_166_">
				<path id="XMLID_25_" class="st31" d="M374.2,248.9c-0.3-1.8-0.2-3.7-0.7-5.5c-0.3-1.2-2-1-2.3,0.1c-0.8,2.8-1,10.1,2.7,11
					c0.5,0.1,1-0.2,1.1-0.7C375.3,252.2,374.4,250.5,374.2,248.9z"/>
				<path id="XMLID_24_" class="st31" d="M369.1,253.6c-1-1.5-1.6-3.4-1.4-5.2c0.1-0.9-1.1-1.5-1.6-0.6c-1.3,2.6-1.2,6.3,1.3,8.2
					c0.4,0.3,0.9,0.5,1.3,0.3C370.1,255.8,369.8,254.6,369.1,253.6z"/>
			</g>
			<g id="XMLID_160_">
				<path id="XMLID_23_" class="st30" d="M436.5,236.1c0,0-4.2,3.4-6.7-2.3s-0.9-10.7,1.9-14.6s12.3-9.7,18.1-5.3
					c5.8,4.4,3.1,8.5,0,10.8c0,0,0,4.7-4.5,6c0,0,0.7,5.5-3.6,7.1S436.5,236.1,436.5,236.1z"/>
				<path id="XMLID_22_" class="st30" d="M451.4,220.2c0,0,3.8,0.3,4.8,3.2c1.1,2.9-4.6,8.9-6.3,9.5c-1.7,0.6-4.7-2.4-4.4-3.9
					C445.8,227.4,451.4,220.2,451.4,220.2z"/>
				<path id="XMLID_21_" class="st37" d="M443.9,217.7c0,0,3.3,2,5.1,5.7C449,223.4,448.7,217.4,443.9,217.7z"/>
				<path id="XMLID_20_" class="st37" d="M438.6,224.4c0,0,5.3,2.2,6.8,5.7C445.4,230.1,443.7,222.5,438.6,224.4z"/>
				<path id="XMLID_19_" class="st37" d="M436.5,236.1c0,0-0.6-2.3,2.7-2.3C439.2,233.9,433.9,232.3,436.5,236.1z"/>
			</g>
		</g>
		<g id="XMLID_92_">
			<g id="XMLID_119_">
				<g id="XMLID_145_">
					<path id="XMLID_18_" class="st30" d="M404.1,128.6c0,0-3.1-1.3-5.7,1.9c-2.6,3.2,1.4,14.6,8.1,11.1L404.1,128.6z"/>
					<path id="XMLID_125_" class="st38" d="M458.5,123c-0.2-1.7,2.5-10.2,1.6-13.5c-0.9-3.3-4.9-5-4.9-5s2.3-11.9-9.5-14.8
						c0,0,1.3-3.9-5.5-2.5s-25-2.8-32.1-0.5c-7.1,2.4-15.8,13-15.3,17.5c0.5,4.5,6.1,16,6.1,16l1.8,8.8l3.4,3.5"/>
					<path id="XMLID_10_" class="st38" d="M437.5,171.8"/>
					<g id="XMLID_148_">
						<g id="XMLID_153_">
							<path id="XMLID_16_" class="st39" d="M388.5,94.2c-0.7-1.9-2-3.5-3.5-4.9c-1.5-1.4-3.7-3.2-5.8-2.8c-0.7,0.1-0.8,0.9-0.5,1.4
								c0.7,1.6,2.9,2.6,4.2,3.7c1.3,1.2,2.6,2.5,3.9,3.7C387.5,95.9,388.8,95.2,388.5,94.2z"/>
							<path id="XMLID_15_" class="st39" d="M383.9,103.2c-1.1-0.1-2.3-0.1-3.4-0.3c-1-0.1-2-0.4-3-0.2c-0.5,0.1-0.6,0.7-0.4,1.1
								c1.1,2.1,4.9,1.8,6.9,1.6C385.4,105.4,385.3,103.4,383.9,103.2z"/>
							<path id="XMLID_14_" class="st39" d="M383.1,115.2c-1.8,1.5-4.9,1.9-6,4.1c-0.2,0.3,0,0.8,0.4,0.9c2.6,0.5,5.5-1.6,7.2-3.4
								C385.7,115.7,384.2,114.3,383.1,115.2z"/>
						</g>
						<g id="XMLID_149_">
							<path id="XMLID_13_" class="st39" d="M443.1,79.5c0,0-0.6-12.6-2.1-16c0,0-8,7.5-11.5,2.2c-3.5-5.3-0.4-10.7,3.4-10.7
								c0,0-6.4-8.5-1.2-12.9s12.9,2.8,11.3,7.9c0,0,10.5-9.2,15,2.1c3.1,7.8-3.5,7-3.5,7s0,6-4.7,6.3L443.1,79.5z"/>
							<path id="XMLID_12_" class="st39" d="M461.9,82.3l2.9-11.6c0,0-8-3.5-5.3-9.1c2.7-5.7,6.8-3.3,8.6-1.5c0,0,1.3-9.2,9.7-8
								c8.5,1.3,1.9,10.1,1.9,10.1s9.7,2.8,6,9.1c-3.8,6.3-15.1,3.1-15.1,3.1L461.9,82.3z"/>
							<path id="XMLID_11_" class="st39" d="M467,95.2L477,92c0,0-4.2-4.7,0-7.7c3.1-2.2,9.9,0.5,9.7,3.9c0,0,11.1,0.6,7.3,6.9
								c-3.8,6.3-7.3,1.3-7.3,1.3s-4.8,12-8.1,1.9L467,95.2z"/>
						</g>
					</g>
					<path id="XMLID_49_" class="st30" d="M452.3,130.6l-3.7-8.9c-2.3-5.5-7-9.6-12.8-11.1c-3.9-1-7.9-2.8-10.5-3.6
						c-4.7-1.4-11.8-3.5-17.2,0c-5.4,3.5-5.7,11.6-5.7,11.6c-0.1,0.8,0.2,4,0.8,8.2c1.4,10.4,3.7,25.1,4.4,26.6
						c0.6,1.2,1,2.6,2.9,3.7c0.7,0.4,0.8,0.8,1.5,1.2c3.6,2.3,13,7.4,21.4,4.3c10.8-3.9,19.7-15.5,20.1-18.1
						c0.2-1.5,0.2-4.8,0.1-7.4C453.6,134.9,453.1,132.7,452.3,130.6z"/>
					<path id="XMLID_9_" class="st30" d="M450.9,133.1c0,0-4.5-8.6-3.8-11.3s3.8-6.4,8.5-5.7C460.3,116.9,464.3,131.8,450.9,133.1z"
						/>
				</g>
				<g id="XMLID_120_">
					<g id="XMLID_140_">
						<path id="XMLID_8_" class="st30" d="M425.2,157.2c0,0-4.5-3.5-4.7-5.4c-0.2-1.9,0.5-3.8,2.4-5c1.9-1.2,3.1-0.9,5.1-2.6
							s2.5-4.2,3.9-4.5c1.4-0.2,6.1,0.1,7.1,1c0.9,0.9,3.3,5.8,2.8,6.8c-0.5,0.9-3.3,3.8-4.1,3.8s-3.5-2.1-4.4-2.9
							c-0.9-0.7-5.6,2.4-5.3,3c0.3,0.6,1.8,3.5,1.9,3.9C429.9,155.9,425.2,157.2,425.2,157.2z"/>
						<path id="XMLID_7_" class="st40" d="M422.2,151.3c0,0,8,0.6,13.1-8.3C435.3,143,432.1,153.2,422.2,151.3z"/>
						<path id="XMLID_6_" class="st40" d="M420.5,151.8c0,0,1.2-2.9,3.1-4.5c0,0,2.3-0.8,4.3-1.9s3.1-3.6,4.5-4.1
							c1.4-0.5,4,1.1,6.1,3.2c0,0-3.5-5.5-6.7-4.7c0,0-2.7,3.7-3.9,4.5c-1.2,0.8-4,1.7-5.1,2.6C421.8,147.7,420.5,151.8,420.5,151.8
							z"/>
					</g>
					<g id="XMLID_130_">
						
							<ellipse id="XMLID_4_" transform="matrix(0.9573 -0.2889 0.2889 0.9573 -17.5396 128.8461)" cx="427.7" cy="123.8" rx="2.2" ry="4"/>
						
							<ellipse id="XMLID_3_" transform="matrix(0.9573 -0.2889 0.2889 0.9573 -19.6253 124.0726)" cx="410.4" cy="128.5" rx="1.9" ry="3.4"/>
					</g>
					<g id="XMLID_124_">
						<path id="XMLID_2_" class="st38" d="M422.2,121.5c0,0-0.6-2.1,0-3.2c0.6-1.1,6.1-4.4,7.3-4.2c1.2,0.2,0.8,2.4,0.8,2.4
							S423.7,122,422.2,121.5z"/>
						<path id="XMLID_1_" class="st38" d="M412.5,124.3c0,0-6.9,1-7.7,0.3c-0.8-0.7,0.3-3.3,0.3-3.3s5.8,0.2,6.8,1
							C412.8,123,412.5,124.3,412.5,124.3z"/>
					</g>
				</g>
			</g>
		</g>
	</g>
	<path id="XMLID_5_" class="st41" d="M418.6,130.5c0,0-1.5,4.9-0.9,5.1c0.6,0.2,3,2,4.6,0.5"/>
	<path id="XMLID_17_" class="st38" d="M320.8,55.5"/>
</g>
</svg>
