<?xml version="1.0" encoding="utf-8"?>
<!-- Generator: Adobe Illustrator 19.0.0, SVG Export Plug-In . SVG Version: 6.00 Build 0)  -->
<svg version="1.1" xmlns="http://www.w3.org/2000/svg" xmlns:xlink="http://www.w3.org/1999/xlink" x="0px" y="0px"
	 viewBox="0 0 128 128" style="enable-background:new 0 0 128 128;" xml:space="preserve">
<style type="text/css">
	.st0{fill:none;stroke:#CCEBF8;stroke-width:4;stroke-miterlimit:10;}
	.st1{fill:#FAA93B;}
	.st2{fill:#F9FF00;}
	.st3{font-family:'MyriadPro-Regular';}
	.st4{font-size:12px;}
</style>
<g id="Layer_1">
	<g id="Layer_1_3_">
		<g id="Layer_1_2_">
			<g id="Layer_1_1_">
				<circle id="XMLID_1_" class="st0" cx="64" cy="64" r="62"/>
			</g>
			<g id="Layer_2">
				<circle id="XMLID_2_" class="st1" cx="64" cy="64" r="52.5"/>
			</g>
		</g>
	</g>
	<g id="Layer_2_1_">
		<g id="Layer_3_1_">
			<path id="Kazakhstan" class="st2" d="M50,72.3L50,72.3L50,72.3L50,72.3L50,72.3L50,72.3L50,72.3h-0.2l0,0l0,0l0,0l0,0l0,0H50
				L50,72.3L50,72.3L50,72.3L50,72.3L50,72.3z M25.6,67.9L25.6,67.9L25.6,67.9l-0.1-0.2v-0.3v-0.1h0.1v0.2v0.1v0.1v0.1V67.9
				L25.6,67.9z M31.7,71.9L31.7,71.9l-0.2-0.1l-0.1-0.1l-0.1-0.1v-0.1l0.1-0.1h0.1l0,0l0,0l0,0l0,0h0.1h0.1v0.1v0.1v0.1L31.7,71.9
				L31.7,71.9L31.7,71.9z M26,71.8L26,71.8L26,71.8L26,71.8L26,71.8L26,71.8V72v0.1h-0.1h-0.1l0,0V72l0,0v-0.1v-0.1v-0.1l0,0l0,0
				l0,0l0,0L26,71.8L26,71.8L26,71.8L26,71.8z M25.1,72.2L25.1,72.2L25.1,72.2L25.1,72.2l0.1,0.2v0.1h0.1l0,0l0,0l0,0l0,0l0.2,0.1
				l0,0v0.1h-0.1h-0.1l-0.1-0.1v-0.1l0,0l0,0v-0.1L25.1,72.2L25.1,72.2L25.1,72.2L25,72l0.2-0.2l0,0l0,0h0.1v0.1L25.1,72H25
				L25.1,72.2h-0.2v0.1L25.1,72.2L25.1,72.2z M26.6,72.5L26.6,72.5L26.6,72.5L26.6,72.5L26.6,72.5L26.6,72.5L26.6,72.5L26.6,72.5
				L26.6,72.5L26.6,72.5L26.6,72.5L26.6,72.5L26.6,72.5l0.1,0.2l0,0h-0.1l0,0l0,0l0,0l0,0l0,0l0,0l0,0l0,0l0,0V72.5L26.6,72.5
				L26.6,72.5L26.6,72.5L26.6,72.5L26.6,72.5L26.6,72.5z M69.6,41.4L69.6,41.4L69.6,41.4l0.2-0.1h0.1l0.2,0.1h0.4l0.2,0.2l0.1,0.1
				l0.2,0.2h0.1h0.2h0.1l0.2,0.2l0,0l0,0l0.1-0.1l0,0l0.2-0.1l0,0l0,0l0,0l0,0v-0.1l0.1-0.2l0,0l0,0l0.2,0.1h0.1h0.1h0.1v-0.1
				l0.1-0.1h0.1h0.1h0.1v0.1v0.1v0.1v0.1l0.2,0.2l0.2,0.2v0.1v0.1v0.1l0,0l0,0l0,0v0.1v0.1v0.1V43v0.1l0,0l0,0V43v0.1v0.1l0.1,0.1
				v0.1v0.1v0.1l0.1,0.1l0.1,0.1h0.1h0.1l0,0l0,0l0.1,0.1V44v0.1V44h-0.1h-0.1l-0.1,0.1v0.1v0.2l0,0l0,0l0,0l0.1,0.1l0,0v0.1l0,0
				l0,0l0,0l0,0l0,0v0.1v0.1V45h-0.1l0,0l0,0h-0.1l0,0h-0.1h-0.1v0v0.1h0.1l0,0v0.1v0.1v0.1v0.1h0.1l0,0v0.1l0.1,0.1l0,0h0.1
				l0.1-0.1l0.1-0.1l0.1-0.2l0.1-0.1h0.1h0.1H74h0.1l0,0l0,0v0.1v0.2h0.1l0.1-0.1h0.1l0,0h0.1l0,0l0,0l0,0h0.1l0.1-0.1v-0.1V45v-0.1
				v-0.1v-0.1l0,0H75h0.1l0,0l0,0l0.2,0.2l0.1,0.1h0.1h0.1h0.1v0v-0.1v-0.1h-0.1h-0.1h-0.1l0,0l0,0v-0.1l0,0l0,0l0,0v-0.1l0,0l0,0
				h-0.1h-0.1l0,0v-0.1l0,0h0.2h0.1l0.1,0.1l0.1,0.1v0.1l0,0h0.1v0.1V45l-0.1,0.2l0.2,0.1l0.2,0.1l0,0l0,0l0,0v0.1l0,0l0,0l0,0l0,0
				v0.1l0,0l0,0H76l0,0l0,0v0.1l0,0v0.1h0v0.1V46l0,0v0v0.1v0.1l0,0l0,0h0.1l0,0l0.1-0.1l0.1-0.1l0,0l0,0l0.2,0.1h0.1V46l-0.1-0.1
				l0.1-0.5h-0.1h-0.1l-0.2,0.1l0,0v-0.1v-0.1l0,0l0.1-0.1h0.1h0.2H77l0,0l0,0v0.1v0.1v0.2h0.1v0.1v0.1l0,0h0.2l0.3,0.1l0,0l0,0l0,0
				l0,0l0,0h0.1l0,0l0,0l0.1,0.1l0,0h0.1l0,0v-0.1v-0.1l0,0v-0.1H78v-0.1l0,0l0,0l0,0l0,0h0.1l0,0l0,0v0.1l0,0l0.1-0.1v0.6v0.1v0.1
				h-0.1h-0.3h-0.1h-0.1v0.1v0.1l0.1,0.1l-0.2,0.1v0.1v0.3h-0.1l0,0v0.1v0.1v0.1l0.1,0.1l-0.1,0.1l0.3,0.2l-0.1,0.2l0.2,0.1l0,0
				l0.1-0.1l0.2-0.2l0,0l0,0l0.1-0.1l0,0l0,0v-0.1l0,0l0,0l0,0l0,0h0.1l0,0l0,0l0,0v-0.1l0,0l0,0l0,0h0.2l0,0h0.1l0,0l0.2-0.2h0.1
				H79h0.1h0.2l0,0v0.1v0.1v0.1l0,0h0.1l0,0v-0.1l0,0h0.2l0,0v0.1v0.1l0,0l0,0v0.1V48l0.1,0.1l0,0l0,0l0.1,0.1h0.1v-0.1l0.1-0.3l0,0
				l0,0l0,0l0,0v-0.2v-0.1l0,0h0l0,0v-0.2v-0.1l0,0l0,0h0.1l0,0V47v-0.1v-0.1l0,0h0.1h0.2h0.1l0.2,0.1h0.1l0.2-0.2l0.2-0.2l0.2-0.2
				L81.2,46l0.1-0.1l0.1-0.1h0.1h0.2h0.1l0.1-0.1l0.1-0.1l0.2-0.2l0.3-0.2l0.2-0.2v0v-0.1v-0.1v-0.1v-0.1l0,0l0.4,0.1h0.1l0.1-0.1
				h0.1l0,0h0.1l0,0l0,0v-0.1v-0.1v-0.1v-0.1h0.1h0.1h0.1l0.2-0.1l0,0h0.1l0,0v0.1l0,0l-0.2,0.1l0,0v0.1v0.1l0,0H84l0,0v0.1v0.1v0.1
				v0.1V45v0.1l0,0l0,0l-0.1,0.1l0,0l0.7-0.8h-0.1l-0.2-0.1h-0.2l0,0l0,0l0,0l0.2,0.3l0,0v0.2l0.1,0.1l0.2,0.1l0.2,0.2l0.4,0.2
				l0.4,0.2l0.4,0.2l0.4,0.2l0.3,0.2l0.2,0.2l0.1,0.1l0.2,0.2l0.2,0.3l0.2,0.2l0.2,0.3l0.2,0.3l0.2,0.3l0.2,0.3l0.3,0.5l0.4,0.5
				l0.4,0.5l0.4,0.5l0,0l0,0l0,0l0.2,0.4l0.2,0.4l0.2,0.2l0.2,0.2L91,52l0.2,0.3l0.2,0.3l0.4,0.5l0.2,0.3l0.2,0.2l0.2,0.2l0.1,0.2
				v0.1l0.1,0.1l0.1,0.1h0.1h0.1l-0.2-0.2L92.6,54l0.1-0.1l0,0l0.1,0.1l0,0h0.1l0,0v-0.1v-0.1l0,0l0.1-0.1l0,0V54l0,0l0,0h0.1h0.1
				l0.1-0.1l0.1-0.1v-0.1v-0.1v-0.1v-0.1v-0.1v-0.1l-0.1-0.1l0,0l0,0V53v-0.1V53v-0.1l0,0h0.1h0.2H94v-0.1v-0.1v-0.1v-0.1v-0.1v-0.1
				l0,0l0.3,0.1h0.1l0,0l0,0l0,0h0.1v0.1v0.1v0.1l0,0h0.1h0.1h0.1h0.1l0.1-0.1l0,0h0l0,0l0,0v0.1v0.1v0.5v0.2v0.1l0,0l0,0h0.1h0.1
				l0.4-0.2h0.2v0.1l0.1,0.1l0.1,0.1l0.1,0.1v0.1V54v0v0.1h0.1l0.4-0.1h0.1v-0.1v-0.1l0,0h0.1h0.1l0.2-0.1h0.1h0.1h0.1l0.2,0.1h0.1
				h0.1h0.1H98v-0.1v-0.1v-0.1l0,0l0,0l0,0l0,0l0,0l0,0l0,0l0,0h0.1h0.1l0.1,0.1l0.2-0.2l0.2-0.1v-0.1L98.3,53l0.1-0.1h0.1h0.2h0.2
				l0.1-0.1l0.1-0.1v-0.2v-0.2l0,0l0,0l0,0h0.1l0,0l0,0l0,0l0.2-0.1h0.2l0.1,0.1l0,0h0.1h0.2h0.1l0.2,0.1h0.1h0.1h0.1h0.1h0.1h0.1
				l0.1,0.1l0,0h0.1l0.1,0.1l0.1,0.2l0.1,0.1l0.2,0.1l0,0l0.1,0.1v0.1v0.1v0.1l0.1,0.1v0.1v0.1v0.2l0.1,0.1l0.1,0.1l0.1,0.1v0.1v0.1
				v0.1v0.1l0,0h0.1l0,0l0,0v0.1l0,0h0.1l0.1-0.1l0.1-0.1l0.1,0.1l0.1,0.1h0.1h0.1h0.1h0.1h0.1l0.1,0.1h0.1l0,0h0.1l0,0l0,0l0.1,0.1
				l0,0l0,0l0,0l0,0h0.1h0.2l0,0L104,55l0,0v0.1l0,0h-0.1l0,0l0,0l0,0V55v0.1h0.1h0.2h0.1l0.1,0.1v0.1v0.1l0.1,0.1l0.2,0.2l0.1,0.1
				l0.1,0.2l0.1,0.1h0.1l0.1-0.1l0,0l0,0h0.1l0,0h0.1l0.1,0.1h0.1h0.1l0,0l0,0l0.1-0.1l0,0l0,0l0,0l-0.8,0l0,0l0,0l0,0l0.1-0.1h0.1
				h0.1l0,0h0.1l0,0l0,0h1l0,0l0,0h0.1l0,0v0.2v0.1l0,0l0,0l0,0l0,0l0,0l0.1-0.1l0.1-0.1h0.1l0.1,0.1l0.1,0.1l0.1-0.2v-0.2v-0.2
				l0.1-0.1l0.1-0.1l0.1-0.2l0,0l0,0l0,0l0,0l0,0l0.1-0.1l0,0l0,0l0,0l0,0l0,0l0,0V55v-0.1V55h0.1h0.1l0,0h0.1l0,0l0,0l0,0l0,0v0.1
				l0,0l0,0l0,0h0.1v0.1l0,0l0,0h-0.1v0.1l-0.1,0.2v0.1v0.1l0,0h0.1h0.1h0.1l0.1-0.1h0.1l0.2,0.1h0.1v0.1v0.1V56l0.1,0.1h0.1h0.2
				h0.1l0,0V56v0.1l0,0h0.1l0.2,0.1l0,0l0,0v0.1l0,0l0,0l0,0h0.1l0.2-0.1h0.1h0.1l0.2,0.1l0.1,0.1l0.1,0.2l0.1,0.1h-0.2H110h-0.1
				l-0.2,0.2h-0.1h-0.2h-0.1V57v0v0.1l-0.1,0.1v0.1v0.1v0.1v0.1v0.1v0.1l0.1,0.1l0.1,0.1l0.1,0.1V58v0.1l0,0l0,0l0.1,0.2v0.1v0.1
				l-0.1,0.2l-0.1,0.2V59v0v0.1v0.1v0.1l-0.2,0.2H109h-0.1v0.1l-0.1,0.2l-0.1,0.1l-0.4,0.1l-1.3,0l-0.1,0.1v0.1l-0.1,0.7v0.4v0.2
				v0.1v0.1v0.1l0.4,0.9v0.1V63v0.1l0,0l0.1,0.1l0.2,0.2v0.1v0.1v0.1v0.1v0.1V64v0v0.1v0.1l0,0h-0.1h-0.1v0.1v0.1v0.1v0.1v0.1v0.1
				v0.1V65v0.1h-0.2L107,65h-0.2h-0.1l0,0v0.1v0.1v0.1l-0.2,0.2l-0.1,0.1l0,0l-0.1,0.1l0,0v0.1v0.1V66l-0.2,0.1l-0.2,0.1h0.1h-0.1
				v-0.1V66v-0.1v-0.1v-0.1l-0.1-0.1l-0.1-0.1h-0.1h-0.1l-0.2,0.1h-0.1H105l0,0l0,0l0,0h-0.2l-0.2,0.1l0,0l0,0l0,0l-0.2,0.1h-0.1
				h-0.2l-0.2,0.1l-0.9-0.1l-0.4-0.2h-0.1h-0.2h-0.1l-0.1-0.5H102h-0.1h0.1h-0.1h-0.1l0,0v0.2l0,0v0.1l0,0l0,0v0.1l0,0v0.2v0.1v0.1
				V66v0.1v0.1l-0.2,0.7l-0.1,0.8l-0.1,0.2V68v0.2V68l-0.1,0.2l-0.1,0.2v0.2v0.5l0,0v0.3v0.1v0.2l-0.1,0.3v0.3v0.2v0.1v0.1l0.1,0.1
				l0,0l0,0h0.1h0.3L102,71l0.1,0.1v0.1v0.2v0.3v0.2l0.2,0.2l-0.2,0.1l-0.2-0.1l-0.2-0.2l-0.2-0.1h-0.1v0.1l-0.4,0.3l-0.1,0.1h-0.1
				l-0.1-0.1l0,0h-0.2l0,0l0,0v-0.1V72l-0.1-0.2l-0.1-0.1h-0.1h-0.1l-0.1,0.1L99.8,72l-1.1,0.3l-0.2,0.2l-0.1,0.1h-0.1l-0.2,0.2H98
				h-0.2H98L97.7,73h-0.2h-0.1v0.1v0.2v0.1h-0.1h-0.2L97,73.6h-0.2h-0.1l-0.1,0.1l-0.2,0.1l0,0L96.3,74l-0.1,0.1h-0.1v0.1l0.1,0.1
				l0.3,0.2h0.1l0.4-0.2h0.1h0.1l0.2,0.1l0.4,0.1h0.1l0,0v0.1l0,0l-0.2,0.1l-0.1,0.1v0.1l0,0l0,0l0.1,0.1l0,0l0,0v0.1v0.2v0.2v0.1
				l0.2,0.5V76v0.2v0.2v0.1H98l0.1,0.1v0.1v0.1v0.1V77l0,0l0,0l0.1,0.1l0.1,0.1l0.4,0.7l0.4,0.7v0.1v0.1L99,79v0h0.1h0.1l0,0v0.1
				v0.1v0.1v0.1l0.1,0.1v0.1v0.1v0.1h-0.1H99h-0.1l-0.2-0.1h-0.1l-0.1,0.1l0.1,0.2l-0.1,0l-0.1,0.1v0.1l0.1,0.1l0.1,0.1l0.2,0.1h0.1
				H99v0.1v0.1v-0.1h-0.1l-0.2,0.2v0.1L98.6,81l0,0h-0.1l0,0l0,0v0.1v0.2v0.1l-0.3,0.2v0.1v0.1v0.1V82l0.1,0.2V82l0.1,0.1v0.1l0,0
				v0.1v0.1l0,0l0.1,0.2v0.1v0.1l0.1,0.1l0.1,0.2v0.1v0.1l-0.1,0.1l-0.1-0.1l-0.1-0.1l-0.1-0.1l-0.1-0.4L98,82.6l-0.1-0.1l0,0
				l-0.2-0.2h-0.6H97h-0.2h-0.2h-0.1l-0.1-0.1L96.2,82l-0.1-0.1l-0.2-0.1l-0.1-0.1l-0.1-0.1v-0.1v-0.1v-0.1v-0.2l0,0h-0.1h-0.1
				l-0.2,0.2h-0.1h-0.1H95l-0.3,0.1h-0.3h-0.1l-0.1-0.1l-0.1-0.1l-0.2-0.1h-0.2h-0.1h-0.1l-0.1,0.2l0,0h-0.1h-0.1h-0.1H93h-0.1
				l-0.2,0.1h-0.1l-0.2-0.1h-0.1h-0.1l0,0l0,0l0,0h-0.1l0,0l0,0l0,0l0,0h-0.2h-0.2h-0.1l-0.1,0.1l0,0h-0.1h-0.1h-0.1h-0.1H91l0,0
				l0,0l-0.1,0.1h-0.1h-0.2h-0.1l0,0h-0.1l0,0l-0.1-0.1l0,0h-0.1H90h-0.1h-0.1l-0.1,0.1H90h-0.1h-0.1l-0.1,0.1l0,0l0,0h-0.1l0,0l0,0
				l0,0l0,0l-0.1,0.1h-0.1h-0.1l-0.1,0.1h-0.1H89h0h-0.1h-0.1V82h-0.1l0,0v-0.1l0,0l0,0h-0.1l0,0h-0.2h-0.2H88h-0.1L87.7,82h-0.1
				h-0.2h-0.1h-0.2l0,0l0,0l0,0L87,82.3v0.1l0,0.1l-0.1,0.1h-0.1h-0.1l-0.2-0.1h-0.1h-0.1h-0.6h-0.2h-0.1l-0.2-0.1h-0.1H85h-0.2H85
				v-0.1l-0.1-0.2h-0.2h-0.1L84.3,82l0,0l-0.1-0.1l0,0h-0.1H84l0-0.1h-0.1h-0.1l-0.2-0.1h-0.1h-0.1h-0.1l-0.2-0.3H83l0.1,0.1v0.1
				v0.1l0,0l-0.4,0.1h-0.1l-0.1-0.1h-0.1l-0.1,0.1l0.1,0.2v-0.1h-0.1h-0.1l-0.4,0.2l-0.1,0.1l0,0v0.1l-0.2,0.2v0.2v0.1v0.1V83v0.1
				v0.1v0.1l0,0l-0.1,0.3v0.1v0.2V84l0.1,0.1l0.2,0.3l0,0v0.1h-0.1l-0.2-0.1h-0.2v-0.1v-0.1v-0.1V84h-0.1h-0.2H81h-0.1h-0.1h-0.1
				h-0.1l-0.3,0.1h-0.1h-0.1H80L79.9,84l-0.1-0.2l-0.1-0.1h-0.1l-0.3-0.1h-0.2H79l-0.3-0.2l-0.2-0.1h-0.3l0,0h-0.1l0,0H78l-0.3-0.2
				h-0.2h-0.1l0,0l0,0l0,0h-0.1h-0.2H77l0,0.3h-0.1l0,0l-0.1-0.1l0,0l0,0l0,0h-0.1h-0.1v0.1v0.1v0.1l0,0h-0.1h-0.1h-0.1h-0.1h-0.1
				L76,83.7v0.1l0,0h0l0,0v0.1V84v0.1v0.1l-0.2,0.1l-0.1,0.1v0.2l0,0l0.1,0.1l0,0l0,0l0,0l0,0l0,0l0,0l0,0h-0.1l-0.1-0.1l0,0v0.1
				v0.1v0.1l0,0l0,0l0,0l0,0L75.5,85l0,0l-0.1,0.1V85l0,0l0.1,0.1h0.1h0.1l-0.1,0.1l-0.1,0.1h-0.1h-0.1h-0.1h-0.1H75h-0.1l0,0l0,0
				l0,0l0,0l0,0l0,0l0,0l0,0v0.1v0.1v0.1v0.1v0.1v0.1V86v0l0,0l0,0l0,0l0,0l0,0l0,0l0,0l0,0l0,0l0,0l0,0l0,0l0,0l0,0l0,0l0,0l0,0
				l0,0H75l-0.1,0.1l-0.1,0.1l-0.1,0.1v0.1v0.1l0,0l0,0l0,0l0,0l0,0l0,0l0,0l0,0l0,0l0,0l0,0l0,0l-0.1,0.2l-0.1,0.2l0,0l0,0L74.4,87
				l-0.1,0.1h-0.1h-0.1l0,0l0,0l0,0l0,0V87v0.1H74h-0.1h-0.2h-0.2l-0.2,0.1l-0.2,0.1l0,0l0,0v0.1v0.1l-0.2,0.1l-0.2,0.1H73h-0.1l0,0
				l0,0v0.1v0.1l0,0l0,0l0,0l0,0l0,0l0,0l0,0l0,0h-0.1h-0.1l0,0l0,0h-0.1h-0.1l0,0l0,0l0,0l0,0l0,0l0,0L72.4,88l-0.1,0.1l0,0l0,0
				l0,0l0,0l0,0l0,0l0,0l0,0h-0.1h-0.1l0,0l0,0l0,0l0,0l0,0l0,0l0,0l0,0l0,0l0,0l0,0l0,0l0,0l0,0l0,0l0,0v0.2v0.2l0,0l0,0l0,0l0,0
				H72h-0.1H72h-0.1h-0.1h-0.1l0,0l0,0l0,0l0,0v0.1v0.1h-0.1l-0.1,0.1l0,0l0,0L71.4,89l-0.1,0.2l0,0l0,0h-0.1l0,0h-0.1l0,0l0,0l0,0
				l0,0l0,0l0,0l0,0l0,0l0,0l0,0l0,0l0,0l0,0l0,0l0,0l0,0l0,0l0,0l0,0l0,0l0,0l0,0l0,0l0,0V89v0.2l0,0l0,0l0,0l0,0l0,0l0,0l0,0l0,0
				l0,0l0,0l0,0l0,0l0,0l0,0l0,0l0,0l0,0l0,0v0.1v0.1l0,0l0,0l0,0l0,0l0,0l0,0l0,0l0,0H71h-0.1l0,0l0,0l0,0l0,0l0,0l0,0l0,0l0,0l0,0
				l0,0l0,0l0,0l0,0l0,0l-0.3-0.2l-0.2-0.1l0.1-0.1l-0.1-0.1l-0.1-0.1l-0.1-0.1l-0.1-0.1l0,0l0,0H70h0l0,0l0,0l0,0l0,0l0,0l0,0h0.1
				h0.1l0,0l0,0l0,0l0,0l0,0l0,0v-0.1v-0.1v-0.1v-0.1v-0.1V88v-0.1V88l0,0l0,0l0,0l0,0l0,0l0,0l0,0l0,0l0,0l0,0l0,0l0,0l0,0l0,0l0,0
				l0,0l0,0l0,0l0,0l0,0l0,0l0,0l0,0l0,0l0,0l0,0l0,0l0,0l0,0l0,0l0,0l0,0l0,0l0,0v-0.1v-0.1l0,0l0,0l-0.1-0.1l-0.1,0l0,0l0,0l0,0
				l0,0v-0.1v-0.1l0,0l0,0l-0.1,0.1l-0.1,0.1l0,0l0,0l0,0l0,0h-0.1h-0.1l0,0l0,0h-0.3H69h-0.2h-0.3h-0.2h-0.4h-0.2h-0.3h-0.1l0,0H67
				v-0.1l-0.1-0.1L66.8,87l-0.1-0.5l-0.1-0.4l-0.1-0.4l-0.1-0.4v-0.4l0,0l0,0l0,0l0,0l0,0l0,0l0,0l0,0h-0.3h-0.2h-0.2h-0.3l0,0l0,0
				l0,0l0,0v-0.7v-0.6v-0.1l0,0l0,0l0,0l0,0l0,0l0,0v-0.1v-0.1l0.1-0.8l0.1-0.8l-0.3,0.2L65,82.1l0,0l0,0l-2.5,1.1l-0.2-0.4L62,82.5
				l-0.2-0.4V82l-0.1-0.1l-0.2-0.2l-0.2-0.2l-0.1-0.1L61,81.3L60.8,81l-0.2-0.4l0,0l0,0l0,0l0,0h-0.1h-0.1L60,80.8L59.8,81l-0.2,0.2
				l-0.2,0.2h-0.1h-0.1H59h-0.3l-0.3-0.1L58,81.2L57.6,81l-0.4-0.1l-0.3-0.1l-0.4-0.1l-0.4-0.1h-0.2h-0.2h-0.2h-0.2h-0.2h-0.2h-0.2
				h-0.2h-0.2h-0.2h-0.2h-0.2h-0.1h-0.1h-0.1h-0.1h-0.2l0,0H53h-0.1l-0.2-0.2l0.2,0.2l-0.2-0.2l-0.2-0.2L52.3,80l-0.1,0v-0.2
				L52,79.7l-0.2-0.2l-0.2-0.2l-0.1-0.2l-0.1-0.2l-0.2-0.3L51,78.4v-0.1v-0.2V78v-0.1h-0.1l-0.2-0.1l-0.2-0.2l-0.2-0.2L50,77.2
				l-0.4-0.3l-0.4-0.3l-0.4-0.3h-0.1v-0.1V76v-0.2v-0.2v-0.2v-0.2V75v0l0.1-0.2v-0.2v-0.1v-0.2v-0.2v-0.2v-0.2v-0.1v-0.1h-0.1h-0.1
				h-0.1h-0.1h-0.1h-0.2H48l0,0l0,0l0,0l0,0v-0.1v-0.1v-0.1l0,0l0,0l0,0v-0.1l0,0l0,0V73l0,0l0,0l0,0l0,0l0,0v-0.1l0,0l0,0l0,0l0,0
				l0,0l0,0l0,0l0,0l0,0l0,0l0,0v-0.1V73h0l0,0l0,0l0,0l0,0l0,0l0,0h0.1l0,0l0,0h0.1h0.1h0.1h0.1l0,0h0.1l0,0h0.1l0,0h0.1l0,0l0,0
				l0,0l0,0l0,0h0.1l0,0H49l0,0l0,0v0.1l0,0l0,0l0,0h0l0,0l0,0l0,0l0.1,0.1l0,0l0,0l0,0l0,0l0,0l0,0v-0.1l0.1-0.2l0.1-0.1l0.1-0.1
				l0.2-0.1h0.1h0.1l0,0l0.1-0.2l0,0l0.1-0.1l0,0l0,0h0.1h0.2l0,0l0,0l0,0l0.1-0.1l0.2-0.1l0.1-0.1l0,0l0,0h0.1l0,0l0,0l0,0l0,0l0,0
				v-0.1l0,0l0,0l0,0l0,0V72l0,0l0,0v-0.1l0,0l0,0l0,0l0,0l0,0v-0.1v-0.1v-0.1l0,0l0,0h-0.1l0,0l0,0h-0.1l0,0l0,0l-0.1-0.1l-0.2-0.1
				H50l0,0h-0.1l1.2-0.7l0,0L51,70.5l0,0l0,0l0,0l0,0l0,0v-0.1v-0.1l0.1-0.1v-0.1V70l0,0l0,0l0,0l0,0H51l0,0l0,0l0,0l0,0l0,0l-0.1,0
				h-0.1h-0.1h-0.1l0,0h-0.1v0.1l0,0l0,0l0,0l0.1,0.1l0.2,0.2l0,0l0,0l0,0h-0.1l0,0l-0.1,0.1l0,0l0,0h-0.2l0,0l0,0l0,0l-0.2-0.2l0,0
				v0.1l0,0L50,70.6v0.1l0,0v-0.1v-0.2l-0.1-0.3V70v-0.1l0,0l0,0l0,0l0,0H50h-0.1l0,0V70l-0.1,0.1l-0.1,0.1h-0.1h-0.1l0,0l0,0v0.1
				v0.1v0.1v0.1v0.1v0.1v0.1l0.1,0.1l0.1,0.1l0.1,0.1h0.1l0.5-0.1h0.1l0,0l0.1,0.2l0.1,0.1l0.1,0.1l0.1,0.1l0.1-0.2l0,0l0,0h0.1l0,0
				l0,0v-0.1l0,0l0.1,0.1l0,0l0,0v0.1l0,0v0.1l0,0l0,0l0,0v0.1l0.1,0.1l0,0l0,0l0,0l0,0V72v0.1v0.1l0,0l0,0L50.9,72l0,0h-0.1h-0.1
				h-0.1l-0.2-0.1h-0.2l0,0L50,71.8h-0.1h-0.4h-0.1h-0.1h-0.1h-0.1H49h0L48.8,72h-0.1h-0.2h-0.1h-0.1l0,0l0,0l0.1-0.1l0,0v-0.1v-0.1
				v-0.1v-0.2v-0.2l0,0l0,0l0,0v-0.1l0.1-0.2l0,0l0,0h-0.2h-0.2l0,0l0,0l0,0l0,0l0,0l0,0l0,0l0,0l0,0l0,0V71v0.1l0.1,0.2l0.1,0.1
				l0.1,0.2l0.1,0.1l0.1,0.1v0.1V72v0.1v0.1l-0.1,0.1v0.1l-0.3,0.1l-0.1,0.1v0.1l-0.1,0v0.1v0.1V73v0l0,0l0,0h-0.1h-0.1h-0.1
				l-0.1,0.1h0.1v0.1l-0.1,0.1l0,0v-0.1v-0.1V73h-0.1l0,0h-0.1l0,0v0.1l0,0l0,0l0,0v0.1l0,0l0,0l0,0v-0.1l0-0.1v-0.1v-0.1l0,0l0,0
				l0,0v-0.1v-0.1l0.1-0.2l0.1-0.2l0,0l0,0h0.1l0,0v-0.1V72v0v-0.1l0,0h-0.1h-0.1h-0.1l-0.2,0.2l0,0l0,0h-0.1H47h-0.1V72h-0.1l0,0
				l0,0l0,0l0,0l0,0l0,0l0,0l0,0l0,0l0,0l0,0l0,0h-0.1l-0.2-0.1l0,0h-0.1l0,0l0,0l0,0l0,0l0,0.1l0,0l0,0l0,0l0,0l0,0l0,0l0,0
				l-0.1,0.2l0,0l-0.1,0.2l-0.1,0.1l0,0l0,0v0.1l0,0v0.1v0.1v0.1V73l0,0l0,0l0,0L46,73.1l0,0l0,0V73v0.1l0,0h0h-0.1h-0.2h-0.2h-0.2
				h-0.2h-0.2h-0.2h-0.2h-0.2h-0.2l-0.3,0.1l-0.3,0.1l-0.3,0.1l-0.3,0.1l-0.2,0.1l-0.2,0.1l-0.2,0.1l-0.4,0.4h-0.2l-0.2,0.1
				l-0.2,0.1h-0.2H41h-0.2h-0.2h-0.2L40,74.3h-0.2h-0.2h-0.2H39l0,0l0,0l0,0l0,0l0,0l0,0l0,0l0,0l0,0l0,0l0,0l0,0l0,0l0,0l0,0l0,0
				l0,0l0,0l0,0l0,0l0,0l0,0l0,0l0,0l0,0l0,0l0,0l0,0l0,0l0,0l0,0l0,0l0,0l0,0l0,0l0,0l0,0l0,0l0,0l0,0l0,0l0,0l0,0l0,0l0,0l0,0l0,0
				l0,0l0,0l0,0l0,0l0,0l0,0l0,0l0,0l0,0l0,0l0,0l0,0l0,0L38.9,75l-0.1,0.7l-0.1,0.7l-0.1,0.7v1.1l-0.1,0.7l-0.1,0.7l-0.2,0.8
				l-0.1,0.7L38,81.8l-0.1,0.7l0.1,1.1l-0.1,0.7L37.8,85l-0.1,0.7l-0.1,0.7h-0.2h-0.1l-0.2,0.1h-0.2h-0.2h-0.3h-0.1l-0.1-0.1
				l-0.1-0.1v-0.1L36,86v-0.1v-0.1L35.9,86l-0.1-0.1l-0.1-0.1l-0.1-0.3l-0.3-0.1l-0.1-0.2L35,84.8v-0.1v-0.1v-0.1v-0.1v-0.1v-0.1
				l0,0l-0.3-0.4l-0.2-0.2l-0.2-0.2L34,83.2l-0.3-0.3l-0.2-0.1l-0.2-0.1h-0.6h-0.4h-0.4h-0.2l-0.7,0l-0.2,0.1l-0.5,0.1l-0.6,0.3l0,0
				l0,0l-0.4,0.2L29,83.8l-0.1,0.1v-0.1v-0.1l0.2-0.2l0.1-0.1v-0.2v-0.1V83l0,0l0,0l0,0v0v-0.1l0,0l0,0l-0.1-0.1v-0.1v-0.1v-0.1
				v-0.1v-0.1l0,0h0.1h0.1l0.2-0.2l0.2-0.2l0,0l0,0l0,0v-0.1l0,0l0,0l0.1-0.1l0,0l0,0v-0.1l0,0l0.1-0.2l0.1-0.1v-0.1V81v-0.2V81
				l-0.1-0.1v-0.1v-0.1l0,0l0,0v0.1v0.1l0,0l0,0L30,81l0,0l0,0l0,0l0,0v0.2v0.1l0,0l0,0v-0.1v-0.1V81v-0.2v-0.1l0.2-0.1h-0.1v-0.1
				L30,80.4l-0.2-0.2l-0.2-0.1l0,0l0,0l0,0l0,0l0,0v0.1l0,0h-0.1L29.4,80l-0.3,0H29h-0.2h-0.2l-0.1,0.1h-0.1h-0.1l-0.2-0.2v-0.1
				v-0.1v-0.1v-0.1v-0.2v-0.1l-0.2-0.1V79l0,0l0,0l0,0v0l0,0l0,0l0,0v-0.1v-0.1v-0.1h-0.1h-0.1h-0.1l0,0l0,0l0,0l0,0l0,0l-0.1-0.1
				l0,0h-0.2l-0.2-0.1l0,0v-0.1l0.2-0.2l-0.2-0.1l0.1-0.4v-0.1l-0.1-0.2l0,0l0,0v-0.2l0,0v-0.1L27,77.2v-0.1V77l0,0l0,0l0,0l0,0l0,0
				l0,0h-0.1l-0.1-0.5v-0.1v-0.1l0,0l0,0l0,0l0,0l0,0v-0.1l0,0l0,0l-0.1-0.1l0,0V76l0,0v-0.1l0,0l0,0h-0.1l0,0v-0.1l0,0l0,0v-0.1
				l0.1-0.2v-0.1v-0.1l-0.1-0.1l-0.2-0.3l-0.2-0.2l-0.8-0.3l-0.1-0.1l-0.1-0.1l-0.1-0.1V74v0l0.1-0.2v-0.1v-0.1l0,0v-0.1v-0.1v-0.1
				l0.1-0.1v0.1h0.1l0.1-0.1v-0.1l0,0l0,0V73l0,0l0,0l0,0l0,0l0,0l0.3,0.2h0.1H26h0.1v0.1l0,0l0.2,0.1v0.1l0,0l0,0l0,0l0,0l0,0l0,0
				h0.1h0.1h0.1l0.1,0.1l0.4,0.2l0,0h0.1l0,0l0,0l0,0l0,0l0,0V74v0.1l0.2,0.2h0.1h0.1h0.1h0.1l0.2-0.1l0,0l0,0l0,0l0,0l0,0l0.1-0.1
				l0,0H28l0,0v0.1h0.1h0.2l0.2,0.1h0.1l0,0v-0.1v-0.1l0,0h-0.2L28.2,74h-0.1H28l0,0l-0.1-0.1v-0.2v-0.1l-0.1-0.1l-0.2-0.2l0,0l0,0
				l0,0h-0.1l0,0l0,0l0,0l-0.2-0.2V73v-0.1v-0.1h0.1l0,0l0,0l0,0l0,0l0,0l0,0l0,0v-0.1v-0.1h0.1h0.1h0.1h0.1l0,0l0,0l0,0v-0.1l0,0
				l0.1-0.1H28l0,0l0,0v0.1v0.1h0.1l0,0v-0.1v-0.1v-0.1l0,0l0,0l0,0l0,0l0,0v-0.1l0,0v-0.1V72l0.1-0.1V72v-0.1l0.4-0.3v-0.1v-0.1
				v-0.1l0,0v0.1l0.1,0.1h0.1h0.1H29l0.1-0.1l0,0h0.1l0,0l0.1-0.1v-0.1l0.1-0.1h0.1l0,0v0.1v0.1v0.1l0.2,0.1l0,0l0.1,0.1h0.1H30
				l0.1-0.1h0.1H30l0.1,0.1h0.1l0.7,0.1l0.1,0.1h0.2l0.1,0.1l0.3,0.2l0.2,0.1l0.1,0.1H32h0.2h0.1l0.1,0.1h0.1h0.1h0.1h0.1l0,0l0,0
				l0,0h0.1l0,0l0,0l0,0l0,0l0,0l0,0l-0.2-0.1l0,0l0,0l0,0l0,0h-0.1l-0.1-0.1L32.1,72H32l0,0v-0.1l0,0l0,0h-0.1l-0.1-0.3l0,0l0,0
				l0,0l0,0l0,0l0,0l0,0l0,0l0,0v-0.1v-0.1l0,0h0.1H32v-0.1l0.1-0.1l0.1-0.2h0.1l0,0h0.1l0,0l0.1-0.1v-0.1l0.1-0.1l0.1-0.1l0.1-0.1
				l0,0l0,0v-0.1l0,0l0.1-0.1v-0.1v-0.1l0,0V70l0,0l0.1-0.1v-0.1V70l0.1-0.2l0.1-0.2l0.1-0.2v-0.2L33,68.9l-0.1-0.2H33l0.1,0.1l0,0
				l0,0l0,0v-0.1v-0.1v-0.1H33l-0.1,0.1h-0.1h-0.1v-0.1l0.1-0.1l0.1-0.2v0.1l0,0l0,0H33v-0.1v-0.1V68v0.1l0,0V68l0,0l0,0h0.1l0,0
				l0,0l0,0l0,0v0v-0.1H33h-0.1h-0.1v-0.1v-0.1v-0.2v-0.1v-0.1l0,0h-0.1l0,0v-0.1l0-0.2l0,0h-0.1h-0.2h-0.1L32,66.9h-0.1l0,0
				l0.3-0.2l0,0L32,66.6l0,0l0,0l0,0v0.1l0,0l-0.2,0.1h-0.1h-0.2h-0.1l-0.1-0.1l0,0l0,0v0.1l0,0h0.1l0,0l0,0l0,0l0,0l0,0l0,0
				L31.2,67h-0.1l0,0l0,0l0,0v-0.1l0,0l0,0L31,66.8l0,0l0,0v-0.1l0,0l0,0l0,0l0,0l0,0l-0.1,0.1l-0.1,0.1h-0.1h-0.1h-0.1h-0.1
				l0.1-0.1l0,0h-0.1h-0.1l-0.1,0.1h-0.1H30v-0.1v-0.1l0.2-0.4v-0.1l0.1-0.2v0v-0.1h-0.1h-0.1V66l0,0v0.1H30V66v-0.2v-0.1h-0.1h-0.2
				h-0.2l-0.2-0.1l-0.1-0.1h-0.1L29,65.6h-0.1h-0.3h-0.1l-0.1,0.1h-0.1l0,0v-0.1l0,0l0,0l0,0l0,0l0,0l0,0l0,0.4h-0.1v-0.1l0,0
				l0.1-0.1l0,0l0,0l0,0l-0.1,0.1h-0.1H28l0,0l0,0V66v0.2v0.1v0.1h0l0,0l0.1-0.1v-0.1l0,0H28h-0.1l0,0l0,0l0,0l0,0L27.8,66l0,0l0,0
				l0,0l0,0l0,0l-0.1,0.2h-0.1l0,0v-0.1l0,0l0,0l0,0l0,0l0,0h-0.1l0,0l0,0l0,0l-0.2,0.2l-0.1,0.1l0,0l0,0l0,0l0,0l0,0l0,0h-0.1
				L27,66.5l-0.1,0.1h-0.1h-0.1h-0.1l0,0l0,0h-0.5l0,0H26v0.1l0,0h0l0,0v0.1l0,0h-0.1v-0.1l0,0l0,0v0.1l0,0l0,0v-0.1l0,0l0,0l0,0
				v0.1l0,0l-0.5-0.2l0,0v0.1v0.2l0,0l0,0l0,0l0,0v-0.1v-0.1l-0.1-0.1l0,0v-0.1v-0.1v0.1v0.1v0.1v0.1l0,0l0,0l0,0l0,0l0,0l0,0l0,0
				l0,0l0,0v-0.1l0,0l0,0l0,0l0,0h-0.1l-0.1-0.1L25,66.5v-0.1v0.1l-0.2,0.2v0.1l0,0h-0.1l0,0v-0.1v-0.1v-0.1h-0.1l0,0l-0.1,0.2v0.1
				v0.1l0.1,0.1l0.1,0.1l0,0l0,0l0,0l0,0h-0.2V67v-0.1v-0.1l0,0l0,0h-0.1l0,0l0,0l0,0v0.1l0,0l0.1,0.1l0,0l0,0l0,0l-0.2-0.1l0,0l0,0
				l0,0l0,0l0,0l0,0l0,0V67v0l0,0l0,0l0,0L24,66.6h-0.2v-0.1h-0.1h-0.1h-0.1h-0.1l-0.1-0.2v-0.1l-0.1-0.1L23.1,66l-0.2-0.1l0,0
				L23,66l0,0v-0.1v-0.1l0,0l-0.1-0.1l0,0l0,0v-0.1l0.1-0.2l0.2-0.1h0.2l0.1,0.1v0.1v0.1v0.2h0.1h0.3H24l0.2-0.2l-0.3-1.2l-0.1-1
				v-0.1v-0.1l0,0h-0.1l-0.1-0.1L23.5,63l-0.1-0.2l0,0L23.2,62L23,61.8l-0.2-0.1l-0.9-0.2l-0.4-0.3h-0.1h-0.1v0.1l-0.1,0.2l0.1,0.2
				v0.1l0,0L21,61.3l-0.1-0.1v-0.1l0,0l0,0L21,61l0,0l0,0l0,0l0,0l0,0l-0.1-0.2l-0.1-0.2v-0.1l0,0l0.2-0.1l0.1-0.1l0.1-0.1v-0.1
				l-0.2,0V60v-0.1v-0.1v-0.1v-0.1l0,0v-0.1l0,0l0,0l0,0l0,0l0.1-0.1l0,0l0,0v-0.1v-0.1L21,59.3l-0.5-0.1L20,58.9l0,0l0,0l0,0l0,0
				l0.5-0.7l0.5-0.7l0.1-0.1h0.1l0.2-0.1h0.1h0.1l0.2-0.1L22,57l0.1-0.2v-0.2L22,56.4l-0.2-0.3L21.7,56l0.3-0.7l0.3-0.8l0.1-0.1
				l0.1-0.1l0.5-0.1l0.2-0.1l0.2-0.2l0.1-0.1v-0.1l-0.1-0.2v-0.1l0,0l0.2-0.2v-0.1V53v-0.1v-0.1V53h0.1h0.2l0,0l0.1-0.1l0,0h0.2
				l0.1-0.1h0.1H24l0.1,0.1l0.1,0.2l0.1,0.1l0,0v0.1l0,0l0,0l0,0l0,0l0.1,0.2v0.1l0.2,0.1v0.2l0.1,0.1v0v0.1v0.1l0,0l0.1,0.1v0.1
				v0.1v0.1v0.1l0,0v0.1l0,0l0,0l0.1,0.1V55v0.1V55H25h0l0,0l0.1,0.1l0.1,0.1l0,0l0,0l0.2,0.2l0,0l0.5-0.1l0.2-0.1l0.2-0.2l0.1-0.1
				l0,0l0,0v-0.2v-0.1v-0.1h-0.2v-0.1l0.1-0.1v-0.2l-0.1-0.2v-0.2l0.1-0.5l0.1-0.2v0v-0.1l-0.1-0.1h-0.1v-0.1h0.1h0.1l0.2,0.2
				l0.1,0.1h0.1l0.4-0.2l0.2-0.3l0.1-0.1h0.3H28l0.1-0.1l0.1-0.1v-0.1L28.1,52v-0.1l0.1-0.1l0.1-0.1v-0.1l0.1-0.1v-0.1v-0.1l0,0h0.1
				l0.2,0.1l0.5,0.1l0,0l0.2-0.1l0.3-0.2h0.1h0.4l0.2-0.1l0,0l0,0V51v-0.1v-0.1l0,0l0,0l0,0l0,0l0,0l0,0l0,0l0,0h0.2l0,0l0,0v-0.1
				h0.1l0,0l0,0V51v-0.2v-0.1h0.1h0.1l0,0v-0.1v-0.1l0,0l0.1,0.1h0l0,0l-0.1,0.1l-0.1,0.1l0,0h0.1H31l0,0l0.1-0.1v-0.1v-0.3v-0.1
				l0.1-0.1l0.1,0.1l0,0v0.1v0.1v0.1v0.1h0.1l0.5,0.2H32h0h0.1l0,0v0.1l0,0l0,0h0.1l0,0V51v0v0.1l0,0h-0.1h-0.2l0,0v0.1v0.1v0.1l0,0
				l0.1,0.1l0.2,0.1h0.2h0.1l0.1-0.1v-0.1l0,0h0.1h0.1l0,0v0.1v0.1v0.1h0.1l0.1-0.1l0.1-0.1v-0.1v-0.1v-0.1l0.8-0.2l0.1-0.1h0.1h0.1
				H34h0.1l0.1,0.1h0.1h0.1h0.1h0.1h0.1l0.1-0.1l0,0h0.1H35h0.1H35l0.1-0.1l0,0l0.1,0.1V51v0.2v0.1l0.1,0.3v0.2l0,0v0.1V52v0l0,0
				l0,0h0.1l0.2,0.1l0,0l0,0l0,0l0,0l0,0l0,0h0.1l0,0l0,0l0,0l0,0l0,0v0.1l0,0h0.1l0,0v0.1l0,0h0.1l0,0l0,0l0,0l0,0l0,0H36l0.2,0.1
				v-0.1l0,0l0,0l0,0l0,0l0,0l0,0l0,0l0,0l0,0l0,0l0,0l0.2,0.1l0,0h0.1l0,0l0,0l0.1,0.1l0,0v0.1l0,0l0.2,0.1l0.1,0.1l0,0v0.1l0,0
				h-0.1V53v0.1V53v0.1l0.1,0.1v0.1v0.1v0.1l0.3,0.2h0.1h0.1l0.1,0.1v0.1V54h0.1h0.1l0,0v0.1v0.2v0.1l0,0l0,0v0.1l0.1,0.1l0,0
				l0.1,0.1v0.1v0.1V55H38l0.2,0.1l0,0v0.1l0,0h0.1l0,0l0,0l0,0l0,0l0,0l0.7-0.1v0.1V55v0.1l-0.1,0.2v0.1v0.1v0.1l0.1,0.1v0.1h0.1
				h0.1h0.1l0,0H39l0.2-0.1l0.1-0.1v-0.1v-0.2v-0.1l0.1-0.1V55l0,0v-0.1l0,0l0,0l0.1-0.1l0,0v-0.2l-0.1-0.1l-0.1-0.1L39,54.2l0,0
				l0,0l0,0V54l0,0l0,0h0.2h0.1h0.1l0,0l0.1,0.1l0.2,0.1v0.1l0.1,0.1l0.1,0.1l0.3,0.2v0.1V55v0l0.4,0.5h0.1l0,0l0,0h0.1h0.1H41
				l0.1,0.1v0.1v0.1v0.1l0.1,0.1l0,0l0.1,0.1l0.1,0.1h0.1l0.2-0.2l0.4-0.2l0.3-0.2l0.1-0.1l0.2-0.4V55l0,0l0,0l0.2,0.1H43h0.1h0.1
				V55v-0.1l0,0h0.1l0,0v-0.1v-0.1v-0.1l0,0l0,0l0.1-0.1h0.1l0.2,0.3l0,0l0.2,0.1l0,0l0,0v-0.1v-0.1v-0.1v-0.1H44h0.1h0.1l0,0
				l0.1,0.1h0.1h0.1H44h0.1h0.1l0.2,0.1h0.1l0.2-0.1l0,0l0,0v0.1v0.2V55l0,0h0.1l0,0l0,0v0.1v0.1v0.1v0.1v0.1v0.1l0.2,0.1h0.1H45
				h0.1l0.1-0.1v-0.1l0,0h0.1h0.1l0.2,0.1h0.1l0.1-0.1v-0.1v-0.2V55l0.1-0.1l0.1-0.1h0.1l0.1,0.1l0,0h0.1l0,0l0,0V55l0,0h0.1l0,0
				h0.2l0,0l0,0l0,0l0,0l0,0h0.1h0.1h0.1H47v-0.1v-0.1v-0.1h0.1h0.1l0.1-0.1l0,0l0.1,0.1v0.1v0.1V55l0,0l0,0h0.2l0.1,0.1l0.1,0.1
				v0.2v0.1v0.1l0,0l0,0v0.1v0.1v0.1l0,0l0,0h0.1l0,0v0.2V56v0.1H48h0.1h0.1v0.1v0.1v0.1v0.1l0.2,0.2l0.1,0.1l0.6,0.1h0.1V57v0.1
				l0,0l0,0l0,0h0.2H49V57l0,0l0.1,0.1l0,0v0.1H49l0,0l-0.1,0.1v0.1v0.1l0.1,0.1l0,0l0.1-0.1l0.1-0.1h0.1h0.1h0.1l0.1-0.1l0.1-0.2
				V57l0.1-0.1v-0.1v-0.1v-0.1v-0.1v-0.1l0.1-0.2l0,0l0,0H50h0l0.1,0.1v0.2v0.2v0.1l0.1,0.1l0.1,0.1l0.1,0.1l0.9,0.2h0.2l0.6-0.2
				l0.6-0.2l0.1-0.1l0.1-0.1l0.1-0.2l0.1-0.3v-0.1l0.2-0.6l0.1-0.2l0.1-0.1l0.1-0.1h0.1l0,0L53.6,55l-0.1-0.1L53.3,55l-0.1-0.2v-0.1
				l0,0h-0.1l0.5-0.4h-0.1l0,0h-0.1l0,0l0,0l-0.1-0.1h-0.1H53h0h-0.1h-0.1h-0.1l0,0l0,0l0,0l0,0l0,0l0,0l0,0l-0.1-0.1l0,0V54v-0.1
				l0,0v-0.1l0,0l0,0l-0.8-0.1l0,0l0,0l0,0l0,0l0,0l-0.2-0.1l0,0v-0.1l0,0h0.1h0.1l0,0v-0.1l0,0h0.1l0,0l0,0l-0.1-0.1l-0.3-0.2
				l-0.3-0.7H51l0,0v0.1h-0.1h-0.1v-0.1l-0.1-0.2v-0.1V52v-0.1l0,0h0.1h0.3l0.3-0.3l0.2-0.1l0.2-0.1h0.1H52h0.1l0.1-0.1l0.1-0.2l0,0
				l0.2-0.1h0.1l0.1-0.1l0,0l0.1-0.1l0.1-0.1l-0.1-0.2v-0.1v-0.1v-0.2V50l0,0l0,0v0.1l0,0V50v-0.2v-0.1v-0.1l0,0l0,0h-0.1l0,0l0,0
				l0,0l0,0l0,0l0,0l0,0l0,0l0,0l0,0l0.1-0.2l0.1-0.1H53l0.1-0.1l0,0l0.1-0.1l0,0l0.4-0.3l-0.2-0.2l0,0l0,0h0.2h0.1l0.1-0.1l0,0l0,0
				l0,0l0.1-0.1H54h0.1l0.1,0.1H54h0.1h0.1h0.1l0.1-0.1h0.1h0.1l0.1,0.1l0.1,0.2h0.1H55h0.1l0,0H55h0.2h0.1l0.2,0.1h0.1l0.2-0.1
				l0.1-0.1l0.1-0.1l0,0l0,0.5v-0.1v-0.1l-0.1-0.1l-0.1-0.1l-0.4-0.1l-0.7-0.1l-0.1-0.1l-0.1-0.2h-0.1l-0.2,0.1h-0.1H54l0-0.1h-0.1
				h-0.2h-0.1l0-0.1l0,0v-0.1v-0.1l0.1-0.1l0.1-0.2v-0.1l0,0v-0.1l0,0h0.1H54l0,0v0.1l0.1,0.1l0.1,0.1h0.1h0.1l0.1-0.1h0.1h0.1v-0.2
				v-0.1l0,0h-0.2h-0.1l-0.1,0.1H54l-0.2-0.1l0,0l0,0v-0.1l0,0h-0.1h-0.2l-0.3-0.3l0.1-0.1l0.2,0.1l0.1-0.1v-0.1v-0.1v-0.1l0,0l0,0
				h0.1l0,0v-0.1l0.1-0.1l0.1-0.1L54,46v-0.1L53.7,46h-0.1h-0.1v-0.1l0,0l0,0h-0.2h-0.1l0,0l0,0l0,0l0,0v-0.1h0.1h0.1h0.1h0.1l0,0
				l0,0l0,0v0.1l0,0l0,0v-0.1v-0.1v-0.1v-0.1l0,0v-0.1h0.1h0.1l0.1-0.1v-0.1H54h0.2l0,0l0.1,0.2l0,0l0.2,0.1v0.1l0,0l0,0l0,0l0,0
				v-0.1v-0.1h0.2l0,0l0,0l0,0l0.1-0.1l0,0l0,0l0,0v0.1v0.1l0,0l0,0h0.1h0.2v-0.2l0,0v-0.1h0.8l0,0l0,0v0.1l0,0l-0.1,0.1v0.1v0.1
				v0.1l0.1,0.1v0.1l0,0l0,0l0,0l0,0l0,0l0,0v-0.1l0,0l0,0v-0.1l0.1-0.1v-0.1l0,0v-0.1l0.1-0.1l0.1-0.1h0.1h0.2l0.1-0.1l0,0l0.1,0.1
				h0.1H57h0.2h0.1v-0.1V45v-0.1V45v-0.1H57l0,0l0.2,0.1l0,0h0.1h0.1l0.1-0.1h0.1h0.2l0.3-0.2h0.1h0.1l0.2,0.2h0.1l0,0v-0.1h0.1h0.1
				h0.1v-0.1l-0.1-0.1v-0.1l0,0l0,0l0,0l0,0v0.1l0,0l0,0l0,0l0,0l0,0l0,0l0,0h0.1H59l0.1-0.1H59h0.1l0,0l0,0l0,0h0.1h0.2l0,0l0,0
				l0,0l0,0l0,0l0,0l0,0h0.1l0.1-0.1l0,0l0.1,0.1h0.1h0.1l0.2-0.1l0.2-0.1l0.2-0.1l0.2,0.1l0.2,0.2l0,0l0,0l0,0l0,0l0,0l0,0l0,0H61
				l0,0l0.1-0.1l1-0.2l0.1-0.1V44l0,0v-0.1l0,0l0.2-0.1h0.1h0.1h0.1V44v-0.2v-0.1h0.1H63l0.2,0.1h0.1l0.1-0.1l0.1-0.1l0.1-0.1
				l0.1-0.1l0.2-0.1l0,0v0.2v0.1l0.2-0.1l0.7-0.2H65h0.2h0.1h0.1l0.1-0.1h0.1H66h0.1l0.1-0.1h0.1h0.2H66l0.1-0.1v-0.1l0.1-0.1h0.1
				h0.2h0.2H67l0.2-0.1l0.1-0.1l0.1-0.2v-0.1h0.1h0.1h0.1l0.2,0.1l0.3-0.1l0,0v-0.1H68l0,0v-0.1V42l0,0h0.1h0.1v-0.1L68,42.2
				l-0.1-0.1V42l-0.1-0.1l0,0l0.1-0.1H68l0,0l0,0l0,0l0,0l0.1-0.1h0.1h0.2l0.2-0.1h0.1h0.1l0,0l0,0l0,0v-0.1l0,0l0,0l0.1-0.1v-0.1
				v-0.1v-0.1V41v-0.1H69l0,0h0h0.1h0.1l0.1,0.1v0.1h0.1h0.1V41v-0.1v-0.2h-0.1l0,0l0,0v-0.1l0,0l0,0l0,0l0,0l0,0l0.3,0.1l0.1,0.1
				L69.6,41.4z M49.6,72.3L49.6,72.3L49.6,72.3L49.6,72.3L49.6,72.3L49.6,72.3L49.6,72.3L49.6,72.3L49.6,72.3L49.6,72.3L49.6,72.3
				L49.6,72.3L49.6,72.3L49.6,72.3L49.6,72.3l0.2,0.1h0.1l0,0l0,0l0,0l0,0l0,0l0,0l0,0l0,0l0,0l0,0l0,0l0,0l0,0h-0.1L49.6,72.3
				L49.6,72.3L49.6,72.3l-0.2,0.1h-0.1h-0.1l0,0l0,0l0,0l0,0l0,0h0.1l0,0l0,0l0,0l0,0l0,0l0,0l0,0h-0.2v-0.1v-0.1v-0.1l0,0l0,0h0.2
				h0.1l0,0l0.1-0.1l0,0l0,0l0,0L49.6,72.3L49.6,72.3L49.6,72.3z M47.1,73.2L47.1,73.2L47.1,73.2L47.1,73.2l0.2,0.2l0,0v0.1v0.1v0.1
				v0.1h0.1l0,0h0.1v0.1V74v0.1L47.4,74v0.1v0.1v0.1v0.2v0.1v0.1l0,0v0.2L47.3,75v0.1V75v0.2v0.1L47,75l-0.4-0.3l-0.2-0.1l-0.2-0.2
				L46,73.9l-0.2-0.2l0,0v-0.1l0.1-0.1l0.1-0.1l0.1-0.1l0.1-0.1l0.1-0.1l0.1-0.1l0.1-0.1V73v-0.1v-0.1v-0.1l0,0h0.1l0,0l0,0v0.1v0.1
				V73v0.1h0.1V73v-0.1v-0.1l0,0l0.1-0.1l0,0v0.1l0.1,0.1H47V73v0.1L47.1,73.2L47.1,73.2z"/>
		</g>
	</g>
</g>
<g id="Layer_2_2_">
	<text transform="matrix(1 0 0 1 54.6602 67.9)" class="st1 st3 st4">2008</text>
</g>
</svg>
