<?xml version="1.0" encoding="utf-8"?>
<!-- Generator: Adobe Illustrator 19.0.0, SVG Export Plug-In . SVG Version: 6.00 Build 0)  -->
<svg version="1.1" id="Layer_1" xmlns="http://www.w3.org/2000/svg" xmlns:xlink="http://www.w3.org/1999/xlink" x="0px" y="0px"
	 viewBox="-233 356.9 128 128" style="enable-background:new -233 356.9 128 128;" xml:space="preserve">
<style type="text/css">
	.st0{fill:none;stroke:#CCEBF8;stroke-width:4;stroke-miterlimit:10;}
	.st1{fill:#70AE35;}
	.st2{fill:#894D12;}
	.st3{fill:#FFD9A6;}
	.st4{fill:#B7C3CE;}
	.st5{fill:#174A66;}
	.st6{fill:#D6E3F2;}
	.st7{fill:#2E3F7A;}
	.st8{fill:#1C244B;}
	.st9{fill:#EFEFEF;}
	.st10{fill:#425F8D;}
</style>
<g id="Layer_1_2_">
	<g id="Layer_1_1_">
		<circle id="XMLID_1_" class="st0" cx="-169" cy="420.9" r="62"/>
	</g>
	<g id="Layer_2">
		<circle id="XMLID_2_" class="st1" cx="-169" cy="420.9" r="52.5"/>
	</g>
</g>
<g id="Layer_3">
	<g>
		<g>
			<g>
				<path class="st2" d="M-147.5,425.3c0,5.8-4.7,10.5-10.5,10.5l0,0c-5.8,0-10.5-4.7-10.5-10.5v-17c0-5.8,4.7-10.5,10.5-10.5l0,0
					c5.8,0,10.5,4.7,10.5,10.5V425.3z"/>
			</g>
			<g>
				<rect x="-162.7" y="417.3" class="st3" width="9.5" height="11.1"/>
			</g>
			<g>
				<rect x="-165.3" y="424.2" class="st4" width="14.7" height="16.5"/>
			</g>
			<g>
				<path class="st3" d="M-148.5,408.6c-0.8-1-1.9,0.3-1.9,0.3c0-9.2-7.6-8.1-7.6-8.1s-7.6-1.1-7.6,8.1c0,0-1.1-1.2-1.9-0.3
					c-0.8,1,0.3,6.6,1.9,5.5c0,0,1.5,7.9,7.6,7.9c6.2,0,7.6-7.9,7.6-7.9C-148.7,415.2-147.7,409.5-148.5,408.6z"/>
			</g>
			<g>
				<path class="st5" d="M-151.5,422.8c0,0-2,10.9-6.5,10.9s-6.5-10.9-6.5-10.9c-3.4,0-7.8,2.8-7.8,2.8l-5.1,19h19.4h19.4l-4.4-18.4
					C-143,426.2-147.6,422.8-151.5,422.8z"/>
			</g>
			<g>
				<path class="st6" d="M-158,424.3c0,0,0,0-6.6,3.8l-0.8-5.2c0,0,1.4-2.4,2.5-2.3C-162.9,420.6-159.9,423.5-158,424.3z"/>
			</g>
			<g>
				<path class="st6" d="M-158,424.3c0,0,0,0,6.6,3.8l0.8-5.2c0,0-1.4-2.4-2.5-2.3C-153.1,420.6-156,423.5-158,424.3z"/>
			</g>
			<g>
				<path class="st2" d="M-152.7,403.7c0,0-9.2,7.2-12.9,5.1c0,0-2.3-8.9,8.2-8.9c6.5,0,8.1,7,7.1,8.9
					C-150.3,408.8-152.5,406.7-152.7,403.7z"/>
			</g>
			<g>
				<g>
					<path class="st7" d="M-168.5,409.6c-0.1-0.3-2.2-6.6,1-11c1.8-2.6,5.1-3.9,9.6-3.9s7.8,1.3,9.6,3.9c3.1,4.4,1.1,10.7,1,11
						l-1.2-0.4c0-0.1,2-6-0.8-9.8c-1.6-2.2-4.5-3.3-8.5-3.3c-4.1,0-7,1.1-8.5,3.3c-2.7,3.8-0.8,9.7-0.8,9.8L-168.5,409.6z"/>
				</g>
				<g>
					<path class="st8" d="M-152.9,418.2c-0.4,0-0.8,0-1.1,0c-0.3,0-0.6,0-0.9,0v-0.7c0.3,0,0.6,0,0.9,0c1.6,0.1,3.5,0.1,4.6-0.9
						c0.6-0.6,0.9-1.4,0.9-2.6h0.7c0,1.4-0.4,2.4-1.1,3.1C-150,418-151.5,418.2-152.9,418.2z"/>
				</g>
				<g>
					<path class="st6" d="M-165.7,414.4c0,0.2-0.1,0.3-0.3,0.4l-3.2,0.3c-0.2,0-0.3-0.1-0.4-0.3l-0.5-6.3c0-0.2,0.1-0.3,0.3-0.4
						l3.2-0.3c0.2,0,0.3,0.1,0.4,0.3L-165.7,414.4z"/>
				</g>
				<g>
					<path class="st6" d="M-150.2,414.4c0,0.2,0.1,0.3,0.3,0.4l3.2,0.3c0.2,0,0.3-0.1,0.4-0.3l0.5-6.3c0-0.2-0.1-0.3-0.3-0.4
						l-3.2-0.3c-0.2,0-0.3,0.1-0.4,0.3L-150.2,414.4z"/>
				</g>
				<g>
					<path class="st6" d="M-154.3,418.3c0,0.2-0.1,0.3-0.3,0.3h-1.6c-0.2,0-0.3-0.1-0.3-0.3v-1c0-0.2,0.1-0.3,0.3-0.3h1.6
						c0.2,0,0.3,0.1,0.3,0.3V418.3z"/>
				</g>
			</g>
		</g>
		<g>
			<g>
				<polygon class="st9" points="-157.2,443.8 -164.9,443.8 -161.5,446.5 				"/>
			</g>
			<g>
				<path class="st10" d="M-198.3,423.8h33.5c0.6,0,1.1,0.4,1.1,1l2.1,20.9c0.1,0.7-0.5,1.3-1.1,1.3h-32.4c-0.6,0-1-0.4-1.1-1
					l-3.1-20.9C-199.5,424.4-198.9,423.8-198.3,423.8z"/>
			</g>
			<g>
				<path class="st8" d="M-161.4,447l4.6-2c0,0,0.5-1.2-0.4-1.2l-4.3,2.1L-161.4,447z"/>
			</g>
		</g>
	</g>
	<circle class="st6" cx="-180.5" cy="435.4" r="1.1"/>
</g>
</svg>
