<?xml version="1.0" encoding="utf-8"?>
<!-- Generator: Adobe Illustrator 19.0.0, SVG Export Plug-In . SVG Version: 6.00 Build 0)  -->
<svg version="1.1" xmlns="http://www.w3.org/2000/svg" xmlns:xlink="http://www.w3.org/1999/xlink" x="0px" y="0px"
	 viewBox="0 0 128 128" style="enable-background:new 0 0 128 128;" xml:space="preserve">
<style type="text/css">
	.st0{fill:none;stroke:#CCEBF8;stroke-width:4;stroke-miterlimit:10;}
	.st1{fill:#FAA93B;}
	.st2{fill:url(#SVGID_1_);}
	.st3{fill:url(#SVGID_2_);}
</style>
<g id="Layer_1">
	<g id="Layer_1_3_">
		<g id="Layer_1_2_">
			<g id="Layer_1_1_">
				<circle id="XMLID_1_" class="st0" cx="64" cy="64" r="62"/>
			</g>
			<g id="Layer_2">
				<circle id="XMLID_2_" class="st1" cx="64" cy="64" r="52.5"/>
			</g>
		</g>
	</g>
</g>
<g id="Layer_2_1_">
	<g>
		<linearGradient id="SVGID_1_" gradientUnits="userSpaceOnUse" x1="45.2657" y1="42.3604" x2="93.1826" y2="71.7198">
			<stop  offset="0" style="stop-color:#E4E4E4"/>
			<stop  offset="0.6774" style="stop-color:#FFFFFF"/>
			<stop  offset="1" style="stop-color:#F1F1F1"/>
		</linearGradient>
		<path class="st2" d="M58.9,58.1c2.9-0.6,5.2,0.6,6.1,1.2c0.7-0.4,2.1-1.1,3.9-1.4c0-2.1,1-5.7,4-7.3c0.1-1.6-1.1-5.2-5.6-6
			c-4.1-0.7-6,2.8-6.1,2.9c-0.1,0.3-0.4,0.4-0.7,0.5c-0.3,0-0.6-0.1-0.8-0.4c0-0.1-1.4-1.7-5.5-0.8c-3.3,0.8-4,3.3-4.2,4.2
			c0.2,0.1,0.4,0.2,0.5,0.4c3.4,2.4,4.4,6.4,4.7,9.1C56,59.4,57.2,58.4,58.9,58.1z"/>
		<linearGradient id="SVGID_2_" gradientUnits="userSpaceOnUse" x1="42.7192" y1="46.5166" x2="90.6361" y2="75.8759">
			<stop  offset="0" style="stop-color:#E4E4E4"/>
			<stop  offset="0.6774" style="stop-color:#FFFFFF"/>
			<stop  offset="1" style="stop-color:#F1F1F1"/>
		</linearGradient>
		<path class="st3" d="M93.5,63.7c-0.2-7.2-4.3-9.9-4.3-9.9s-0.5-3.5-3.6-7.2c-4.9-5.4-11.1-4.4-11.1-4.4
			c-8.1-7.8-16.3-1.8-16.3-1.8c-11.5-3.8-14.7,5.2-14.7,5.2c-6.6,0.7-11.9,8.4-7.1,16.6c3.7,6.3,9.1,6.4,11.4,6.1
			c0.8-2,2.4-4.2,5.9-5.2c0-0.3,0.5-7.1-4-10.3c-2.7-1.9-5.7-1.5-7.3-0.2c-1.6,1.2-2,3.1-1.2,5.1c0.4,1,1,1.7,1.9,2.1
			c1.6,0.7,3.6-0.1,3.6-0.1c0.4-0.2,1,0,1.1,0.5c0.2,0.4,0,1-0.5,1.1c-0.1,0-2.6,1.1-5,0.1c-1.3-0.5-2.3-1.6-2.9-3.1
			c-1.1-2.8-0.4-5.4,1.8-7.1c2-1.5,4.7-1.9,7.2-1c0.4-1.8,1.9-4.3,5.4-5.2c3.4-0.8,5.4,0,6.4,0.6c1.2-1.6,3.7-3.5,7.3-2.9
			c3,0.5,4.7,2.1,5.6,3.3c0.8,1.1,1.3,2.5,1.4,3.7c3.4-0.8,7.3,0.2,9.6,2.6c1.9,1.9,2.5,4.5,1.9,7.4c0.9,0.8,2.5,3,2,6.7
			c-0.3,1.9-1.3,3.4-3,4.2c-2.1,1-5,0.7-7.4-0.8c-3.3-2.1-8.5-2.2-10.9-0.2c-1.8,1.5-4,3.1-6,2.9c-0.2,0-0.3,0-0.5-0.1
			c-1.2-0.3-2.1-1.1-2.8-2.6c-0.2-0.4,0-1,0.4-1.2c0.4-0.2,1,0,1.2,0.4c0.5,0.9,1,1.5,1.6,1.6c1.4,0.3,3.5-1.3,5-2.5
			c3-2.5,8.9-2.4,12.9,0.1c1.9,1.2,4.1,1.5,5.7,0.7c1.1-0.5,1.8-1.5,2-2.8c0.5-3.7-1.8-5.4-1.8-5.4c-0.3-0.2-0.4-0.6-0.3-1
			c0.7-2.5,0.3-4.6-1.3-6.2c-1.9-1.9-5.2-2.8-8-2.1c-3.7,1-4.3,4.9-4.3,6.2c2.2,0.1,4.6,1.1,7,3.9c0.3,0.4,0.3,0.9-0.1,1.2
			c-0.4,0.3-0.9,0.3-1.2-0.1c-4.9-6-10.5-2-10.8-1.8c-0.3,0.2-0.8,0.2-1.1,0c-0.1-0.1-2.1-1.8-5.2-1.2c-2.9,0.6-3.4,4.1-3.4,4.1
			c-0.1,0.4-0.3,0.7-0.7,0.7c-6.7,1.2-6.3,7.1-6.3,7.3c0,0.3-0.1,0.6-0.3,0.7c1,8.7,12.7,7.9,12.7,7.9c0,0.1,0,0.2,0.1,0.3
			c0.3,0.1,8.1,3.1,11.7-1.1c0.9-1.5,1.2-2.7,0.8-3.6c-0.4-1-1.4-1.4-1.4-1.4c-0.5-0.2-0.7-0.7-0.5-1.1c0.2-0.5,0.7-0.7,1.1-0.5
			c0.1,0,1.8,0.6,2.5,2.5c0.5,1.5,0.2,3.2-1,5.2c0,0,0,0.1-0.1,0.1c-2.2,2.7-5.5,3.1-8.4,2.9c-1.6-0.1-3-0.5-4-0.8
			c2,4.5,6.6,6.6,11.5,6.8c5.7,0.3,6.8-4,6.8-4c7.7-3,6-10.8,6-10.8C89.5,74.5,93.8,70.9,93.5,63.7z"/>
	</g>
</g>
</svg>
