<?xml version="1.0" encoding="utf-8"?>
<!-- Generator: Adobe Illustrator 19.0.0, SVG Export Plug-In . SVG Version: 6.00 Build 0)  -->
<svg version="1.1" id="Layer_1" xmlns="http://www.w3.org/2000/svg" xmlns:xlink="http://www.w3.org/1999/xlink" x="0px" y="0px"
	 viewBox="-215 217 128 128" style="enable-background:new -215 217 128 128;" xml:space="preserve">
<style type="text/css">
	.st0{fill:none;stroke:#CCEBF8;stroke-width:4;stroke-miterlimit:10;}
	.st1{fill:#70AE35;}
	.st2{fill:#3B8C4F;}
	.st3{fill:#DEDDE0;}
	.st4{fill:#CDCDD0;}
	.st5{fill:#818085;}
	.st6{fill:#565659;}
	.st7{fill:#FFFFFF;}
	.st8{fill:#D86648;}
</style>
<g id="Layer_1_2_">
	<g id="Layer_1_1_">
		<circle id="XMLID_1_" class="st0" cx="-150.9" cy="281" r="62"/>
	</g>
	<g id="Layer_2">
		<circle id="XMLID_2_" class="st1" cx="-150.9" cy="281" r="52.5"/>
	</g>
	<g id="Layer_4">
		<path class="st2" d="M-175.6,294.2c-2.3,0.8-4.1,3.5-4.1,6.7c0,0.3,0,0.7,0.1,1h-0.9c-1.3,0-2.4,1.3-2.4,3s1.1,3,2.4,3h4.9V294.2z
			"/>
		<path class="st2" d="M-120.2,301.9h-0.8c0-0.3,0.1-0.7,0.1-1c0-3.2-1.6-5.8-3.7-6.7v13.6h4.5c1.2,0,2.2-1.3,2.2-3
			C-117.9,303.3-118.9,301.9-120.2,301.9L-120.2,301.9z"/>
	</g>
</g>
<g id="Layer_3">
	<g>
		<path class="st3" d="M-134.6,303.5h2.2v-17h-9.7v21.8h5.4v-4.9L-134.6,303.5L-134.6,303.5z M-135.7,288.9h2.2v2.4h-2.2V288.9z
			 M-135.7,293.7h2.2v2.4h-2.2V293.7z M-135.7,298.6h2.2v2.4h-2.2V298.6z M-137.9,301h-2.2v-2.4h2.2V301z M-137.9,296.2h-2.2v-2.4
			h2.2V296.2z M-137.9,291.3h-2.2v-2.4h2.2V291.3z"/>
		<path class="st4" d="M-122.7,286.5h-9.7v16.9h4.2v4.9h5.4L-122.7,286.5L-122.7,286.5z M-129.2,301h-2.2v-2.4h2.2V301z
			 M-129.2,296.2h-2.2v-2.4h2.2V296.2z M-129.2,291.3h-2.2v-2.4h2.2V291.3z M-127,288.9h2.2v2.4h-2.2V288.9z M-127,293.7h2.2v2.4
			h-2.2V293.7z M-127,298.6h2.2v2.4h-2.2V298.6z"/>
		<rect x="-134.6" y="303.5" class="st5" width="2.2" height="4.9"/>
		<rect x="-132.5" y="303.5" class="st6" width="2.2" height="4.9"/>
		<rect x="-136.8" y="303.5" class="st7" width="2.2" height="4.9"/>
		<rect x="-130.3" y="303.5" class="st7" width="2.2" height="4.9"/>
		<rect x="-140.1" y="293.7" class="st7" width="2.2" height="2.4"/>
		<rect x="-135.7" y="293.7" class="st7" width="2.2" height="2.4"/>
		<rect x="-131.4" y="293.7" class="st7" width="2.2" height="2.4"/>
		<rect x="-127" y="293.7" class="st7" width="2.2" height="2.4"/>
		<rect x="-140.1" y="288.9" class="st7" width="2.2" height="2.4"/>
		<rect x="-135.7" y="288.9" class="st7" width="2.2" height="2.4"/>
		<rect x="-131.4" y="288.9" class="st7" width="2.2" height="2.4"/>
		<rect x="-127" y="288.9" class="st7" width="2.2" height="2.4"/>
		<rect x="-140.1" y="298.6" class="st7" width="2.2" height="2.4"/>
		<rect x="-135.7" y="298.6" class="st7" width="2.2" height="2.4"/>
		<rect x="-131.4" y="298.6" class="st7" width="2.2" height="2.4"/>
		<rect x="-127" y="298.6" class="st7" width="2.2" height="2.4"/>
	</g>
	<g>
		<path class="st3" d="M-170.3,303.5h2v-17h-9.2v21.8h5.1v-4.9L-170.3,303.5L-170.3,303.5z M-171.3,288.9h2v2.4h-2V288.9z
			 M-171.3,293.7h2v2.4h-2V293.7z M-171.3,298.6h2v2.4h-2V298.6z M-173.4,301h-2v-2.4h2V301z M-173.4,296.2h-2v-2.4h2V296.2z
			 M-173.4,291.3h-2v-2.4h2V291.3z"/>
		<path class="st4" d="M-158.9,286.5h-9.3v16.9h4.2v4.9h5.1V286.5z M-165.1,301h-2v-2.4h2V301z M-165.1,296.2h-2v-2.4h2V296.2z
			 M-165.1,291.3h-2v-2.4h2V291.3z M-163.1,288.9h2v2.4h-2V288.9z M-163.1,293.7h2v2.4h-2V293.7z M-163.1,298.6h2v2.4h-2V298.6z"/>
		<rect x="-170.3" y="303.5" class="st5" width="2" height="4.9"/>
		<rect x="-168.2" y="303.5" class="st6" width="2" height="4.9"/>
		<rect x="-172.4" y="303.5" class="st7" width="2" height="4.9"/>
		<rect x="-166.2" y="303.5" class="st7" width="2" height="4.9"/>
		<rect x="-175.5" y="293.7" class="st7" width="2" height="2.4"/>
		<rect x="-171.3" y="293.7" class="st7" width="2" height="2.4"/>
		<rect x="-167.2" y="293.7" class="st7" width="2" height="2.4"/>
		<rect x="-163.1" y="293.7" class="st7" width="2" height="2.4"/>
		<rect x="-175.5" y="288.9" class="st7" width="2" height="2.4"/>
		<rect x="-171.3" y="288.9" class="st7" width="2" height="2.4"/>
		<rect x="-167.2" y="288.9" class="st7" width="2" height="2.4"/>
		<rect x="-163.1" y="288.9" class="st7" width="2" height="2.4"/>
		<rect x="-175.5" y="298.6" class="st7" width="2" height="2.4"/>
		<rect x="-171.3" y="298.6" class="st7" width="2" height="2.4"/>
		<rect x="-167.2" y="298.6" class="st7" width="2" height="2.4"/>
		<rect x="-163.1" y="298.6" class="st7" width="2" height="2.4"/>
	</g>
</g>
<g id="Layer_2_1_">
	<g>
		<path class="st3" d="M-154.1,301.3h3.8v-32.7h-17.1v39.8h9.5v-7.1C-157.9,301.3-154.1,301.3-154.1,301.3z M-156,280.1h3.8v3.5
			h-3.8V280.1z M-156,287.2h3.8v3.5h-3.8V287.2z M-156,294.3h3.8v3.5h-3.8V294.3z M-159.8,297.8h-3.8v-3.5h3.8V297.8z M-159.8,290.7
			h-3.8v-3.5h3.8V290.7z M-159.8,283.6h-3.8v-3.5h3.8V283.6z"/>
		<path class="st4" d="M-133,268.7h-17.3v32.7h7.6v7.1h9.6L-133,268.7z M-144.5,297.8h-3.8v-3.5h3.8V297.8z M-144.5,290.7h-3.8v-3.5
			h3.8V290.7z M-144.5,283.6h-3.8v-3.5h3.8V283.6z M-140.7,280.1h3.8v3.5h-3.8V280.1z M-140.7,287.2h3.8v3.5h-3.8V287.2z
			 M-140.7,294.3h3.8v3.5h-3.8V294.3z"/>
		<rect x="-154.1" y="301.3" class="st5" width="3.8" height="7.1"/>
		<rect x="-150.3" y="301.3" class="st6" width="3.8" height="7.1"/>
		<rect x="-157.9" y="301.3" class="st7" width="3.8" height="7.1"/>
		<rect x="-146.4" y="301.3" class="st7" width="3.8" height="7.1"/>
		<rect x="-163.6" y="287.2" class="st7" width="3.8" height="3.5"/>
		<rect x="-156" y="287.2" class="st7" width="3.8" height="3.5"/>
		<rect x="-148.3" y="287.2" class="st7" width="3.8" height="3.5"/>
		<rect x="-140.7" y="287.2" class="st7" width="3.8" height="3.5"/>
		<rect x="-163.6" y="280.1" class="st7" width="3.8" height="3.5"/>
		<rect x="-156" y="280.1" class="st7" width="3.8" height="3.5"/>
		<rect x="-163.6" y="273.6" class="st7" width="3.8" height="3.5"/>
		<rect x="-156" y="273.6" class="st7" width="3.8" height="3.5"/>
		<rect x="-148.6" y="273.6" class="st7" width="3.8" height="3.5"/>
		<rect x="-141" y="273.6" class="st7" width="3.8" height="3.5"/>
		<rect x="-148.3" y="280.1" class="st7" width="3.8" height="3.5"/>
		<rect x="-140.7" y="280.1" class="st7" width="3.8" height="3.5"/>
		<rect x="-163.6" y="294.3" class="st7" width="3.8" height="3.5"/>
		<rect x="-156" y="294.3" class="st7" width="3.8" height="3.5"/>
		<rect x="-148.3" y="294.3" class="st7" width="3.8" height="3.5"/>
		<rect x="-140.7" y="294.3" class="st7" width="3.8" height="3.5"/>
	</g>
	<path class="st8" d="M-144.1,253.2c0,1-0.3,2-0.8,2.9l-3,5.5l-2.4,4.4l-5.4-9.8c-1.3-2.4-0.9-5.4,1.1-7.3c0.7-0.7,1.5-1.2,2.4-1.5
		c0.6-0.2,1.3-0.4,1.9-0.4c1.6,0,3.2,0.6,4.3,1.8C-144.7,250-144.1,251.6-144.1,253.2L-144.1,253.2z"/>
	<path class="st7" d="M-145.9,253.2c0,2.4-1.9,4.3-4.3,4.3c-2.4,0-4.3-1.9-4.3-4.3c0-2.4,1.9-4.3,4.3-4.3
		C-147.8,248.9-145.9,250.8-145.9,253.2L-145.9,253.2z"/>
</g>
</svg>
